<?xml version="1.0" encoding="utf-8"?>
<!-- Generator: Adobe Illustrator 17.1.0, SVG Export Plug-In . SVG Version: 6.00 Build 0)  -->
<!DOCTYPE svg PUBLIC "-//W3C//DTD SVG 1.1//EN" "http://www.w3.org/Graphics/SVG/1.1/DTD/svg11.dtd">
<svg version="1.1" id="Layer_1" xmlns="http://www.w3.org/2000/svg" xmlns:xlink="http://www.w3.org/1999/xlink" x="0px" y="0px"
	 viewBox="0 0 305.6 239.8" enable-background="new 0 0 305.6 239.8" xml:space="preserve">
<g>
	<path fill="#010101" d="M178.8,229.7c0.8,0,1.5-0.6,1.5-1.5s-0.6-1.5-1.5-1.5c-0.8,0-1.5,0.6-1.5,1.5S177.9,229.7,178.8,229.7
		 M171.3,221.9c-0.4-1.1-1.1-4-2.7-4c-1.8,0-2.8,2.8-3.1,3.5l0.4,0.2c0.3-0.6,0.9-2.2,1.7-2.2c0.5,0,1,1.8,1.3,2.4l1.6,4.7
		c0.2,0.5,0.6,1.4,0.6,2c0,1.1-3.1,5.3-5.3,5.3c-0.5,0-0.6-0.3-0.6-0.8c0-0.4-0.4-0.8-0.9-0.8c-0.6,0-1.1,0.4-1.1,1.1
		c0,0.9,0.9,1.4,1.7,1.4c4.3,0,7.1-6,8.4-9c0.9-2,2.4-6,3.1-6c0.2,0,0.4,0.3,0.9,0.3c0.6,0,1.1-0.4,1.1-1c0-0.6-0.4-1-1.1-1
		c-1.2,0-1.8,1.3-2.4,2.6c-0.8,1.8-1.9,4.3-2.3,5.2L171.3,221.9z M164.5,226c-0.2,0.4-1.3,2.8-2.4,2.8c-0.6,0-0.9-0.1-0.9-0.7
		c0-0.4,0.1-1,0.3-1.8l2-7.4h2.2l0.1-0.6h-2.2l0.8-2.8c-0.9,0.1-1.8,0.1-2.3,0.1l-0.7,2.7h-1.8l-0.1,0.6h1.8l-1.9,7.2
		c-0.2,0.6-0.4,1.3-0.4,1.8c0,1.4,0.9,1.8,2,1.8c2.5,0,3.5-2.5,3.9-3.5L164.5,226z M156.8,215.5c0.8,0,1.4-0.6,1.4-1.4
		c0-0.8-0.6-1.4-1.4-1.4s-1.4,0.6-1.4,1.4C155.5,214.9,156.1,215.5,156.8,215.5 M157.9,226c-0.2,0.4-1.3,2.8-2.4,2.8
		c-0.4,0-0.6-0.3-0.6-0.7c0-0.6,0.2-1.4,0.5-2.2l2-7.8c-0.9,0.1-1.7,0.2-2.8,0.2h-1.6l-0.1,0.6h2.1l-1.9,7.2c-0.1,0.6-0.4,1.4-0.4,2
		c0,1,0.8,1.6,1.8,1.6c2.5,0,3.5-2.5,3.9-3.5L157.9,226z M151.4,226c-0.2,0.4-1.3,2.8-2.4,2.8c-0.4,0-0.6-0.3-0.6-0.7
		c0-0.6,0.2-1.4,0.5-2.2l3.5-13.6c-0.9,0.1-1.7,0.2-2.8,0.2h-1.9l-0.1,0.6h2.3l-3.3,13c-0.1,0.6-0.4,1.4-0.4,2c0,1,0.8,1.6,1.8,1.6
		c2.5,0,3.5-2.5,3.9-3.5L151.4,226z M144,215.5c0.8,0,1.4-0.6,1.4-1.4c0-0.8-0.6-1.4-1.4-1.4c-0.8,0-1.4,0.6-1.4,1.4
		C142.6,214.9,143.2,215.5,144,215.5 M145.1,226c-0.2,0.4-1.3,2.8-2.4,2.8c-0.4,0-0.6-0.3-0.6-0.7c0-0.6,0.2-1.4,0.5-2.2l2-7.8
		c-0.9,0.1-1.7,0.2-2.8,0.2h-1.6l-0.1,0.6h2.1l-1.9,7.2c-0.1,0.6-0.4,1.4-0.4,2c0,1,0.8,1.6,1.8,1.6c2.5,0,3.5-2.5,3.9-3.5
		L145.1,226z M129.6,227c0-0.9,0.5-4.9,1.9-6.9c0.4-0.6,1.5-1.6,2.7-1.6c1,0,1.6,0.8,1.6,2.1c0,0.8,0,2.6-1.2,6.2
		c-0.7,1.7-1.5,2.4-2.8,2.4C130.4,229.2,129.6,228.5,129.6,227 M132.8,212.3c-1,0.1-2,0.2-3.3,0.2h-1.2l-0.1,0.6h2.1l-2.5,10.6
		c-0.1,0.6-0.5,2-0.5,2.9c0,1.7,1.5,3.2,3.8,3.2c4,0,7.1-4.1,7.1-7.2c0-2.7-1.4-4.6-3.6-4.6c-1.9,0-3,1.3-3.6,2l0,0L132.8,212.3z
		 M125,215.5c0.8,0,1.4-0.6,1.4-1.4c0-0.8-0.6-1.4-1.4-1.4s-1.4,0.6-1.4,1.4C123.6,214.9,124.2,215.5,125,215.5 M126.1,226
		c-0.2,0.4-1.3,2.8-2.4,2.8c-0.4,0-0.6-0.3-0.6-0.7c0-0.6,0.2-1.4,0.5-2.2l2-7.8c-0.9,0.1-1.7,0.2-2.8,0.2h-1.6l-0.1,0.6h2.1
		l-1.9,7.2c-0.1,0.6-0.4,1.4-0.4,2c0,1,0.8,1.6,1.8,1.6c2.5,0,3.5-2.5,3.9-3.5L126.1,226z M109.9,227c0-0.8,0.2-3.5,1.2-6.2
		c0.7-1.7,1.5-2.4,2.8-2.4c1.2,0,2.1,0.9,2.1,2.3c0,1.7-1.3,8.4-4.6,8.4C110.4,229.2,109.9,228.4,109.9,227 M119.4,226.2
		c-0.2,0.3-1.5,2.3-2,2.3c-0.3,0-0.6,0-0.6-0.6c0-0.5,0.2-1.2,0.3-1.8l3.3-13.7c-0.9,0.1-2.1,0.2-3.4,0.2h-1.3l-0.1,0.6h2.4
		l-1.6,6.4c-0.3-0.5-1-1.5-2.4-1.5c-3.6,0-6.5,3.9-6.5,7.2c0,2.6,1.4,4.6,3.6,4.6c2,0,3.2-1.9,3.5-2.4h0c0,0.8,0,2.3,1.5,2.3
		c1.9,0,3.2-2.5,3.6-3.1L119.4,226.2z M94.4,229.3h2.3l1.5-5.9c0.4-1.6,1.8-4.7,4.4-4.7c0.6,0,1,0.3,1,0.8c0,0.5-0.2,1.1-0.4,1.8
		l-1.2,4.7c-0.2,0.6-0.4,1.4-0.4,2c0,1,0.8,1.6,1.8,1.6c2.5,0,3.5-2.5,3.9-3.5l-0.5-0.2c-0.2,0.4-1.3,2.8-2.4,2.8
		c-0.4,0-0.6-0.3-0.6-0.7c0-0.6,0.2-1.4,0.5-2.2l1.1-4.1c0.2-0.7,0.4-1.4,0.4-2.2c0-1.2-0.9-1.7-2.2-1.7c-2.4,0-3.9,1.3-4.9,2.6l0,0
		l0.6-2.4c-1,0.1-1.9,0.2-3.1,0.2h-1.2l-0.1,0.6h2.2L94.4,229.3z M90.4,218.5c1,0,1.5,0.6,1.5,1.6c0,2.9-2.2,3.6-4.4,3.6
		c-0.2,0-0.7,0-1-0.1C86.8,222.4,87.9,218.5,90.4,218.5 M92.7,226.1c-0.6,0.8-2,3-4.4,3c-1.6,0-2.3-1.1-2.3-2.8c0-1,0.2-1.8,0.3-2.3
		c0.4,0,0.8,0.1,1.2,0.1c1.9,0,6.4-0.5,6.4-3.6c0-1.6-1.5-2.7-3.2-2.7c-3,0-7.1,3.1-7.1,7.1c0,2.4,1.8,4.7,4.5,4.7
		c2.8,0,4.4-2.4,5-3.3L92.7,226.1z M82.2,226c-0.2,0.4-1.3,2.8-2.4,2.8c-0.6,0-0.9-0.1-0.9-0.7c0-0.4,0.1-1,0.3-1.8l2-7.4h2.2
		l0.1-0.6h-2.2l0.8-2.8c-0.9,0.1-1.8,0.1-2.3,0.1l-0.7,2.7h-1.8l-0.1,0.6H79l-1.9,7.2c-0.2,0.6-0.4,1.3-0.4,1.8c0,1.4,0.9,1.8,2,1.8
		c2.5,0,3.5-2.5,3.9-3.5L82.2,226z M75.6,226.2c-0.3,0.6-1.4,2.4-2.3,2.4c-0.6,0-0.9-0.9-1.1-1.7l-1-4c0.3-0.7,2.4-3.6,3.1-3.6
		c0.3,0,0.5,0.6,1.2,0.6c0.6,0,0.9-0.5,0.9-1.1s-0.5-1-1.1-1c-1,0-1.7,0.8-2.7,2c-0.8,1-1.6,2-1.8,2.3c-0.3-1.3-0.6-4.3-2.2-4.3
		c-2,0-3.1,2.4-3.6,3.2l0.4,0.2c0.3-0.5,1.2-2.4,2-2.4c0.5,0,0.6,1,0.8,1.7l0.9,3.4c-0.6,0.9-2.7,4-3.6,4c-0.5,0-0.6-0.5-1.3-0.5
		c-0.6,0-1,0.5-1,1c0,0.7,0.4,1.1,1.2,1.1c1.7,0,4.4-4.2,4.9-4.9c0.4,1.3,0.7,4.9,2.9,4.9c2.2,0,3.3-2.4,3.8-3.3L75.6,226.2z
		 M60.7,218.5c1,0,1.5,0.6,1.5,1.6c0,2.9-2.2,3.6-4.4,3.6c-0.2,0-0.7,0-1-0.1C57.1,222.4,58.3,218.5,60.7,218.5 M63.1,226.1
		c-0.6,0.8-2,3-4.4,3c-1.6,0-2.3-1.1-2.3-2.8c0-1,0.2-1.8,0.3-2.3c0.4,0,0.8,0.1,1.2,0.1c1.9,0,6.4-0.5,6.4-3.6
		c0-1.6-1.5-2.7-3.2-2.7c-3,0-7.1,3.1-7.1,7.1c0,2.4,1.8,4.7,4.5,4.7c2.8,0,4.4-2.4,5-3.3L63.1,226.1z M36.8,227
		c0-0.8,0.2-3.5,1.2-6.2c0.7-1.7,1.5-2.4,2.8-2.4c1.2,0,2.1,0.9,2.1,2.3c0,1.7-1.3,8.4-4.6,8.4C37.4,229.2,36.8,228.4,36.8,227
		 M46.3,226.2c-0.2,0.3-1.5,2.3-2,2.3c-0.3,0-0.6,0-0.6-0.6c0-0.5,0.2-1.2,0.3-1.8l3.3-13.7c-0.9,0.1-2.1,0.2-3.4,0.2h-1.3l-0.1,0.6
		h2.4l-1.6,6.4c-0.3-0.5-1-1.5-2.4-1.5c-3.6,0-6.5,3.9-6.5,7.2c0,2.6,1.4,4.6,3.6,4.6c2,0,3.2-1.9,3.5-2.4h0c0,0.8,0,2.3,1.5,2.3
		c1.9,0,3.2-2.5,3.6-3.1L46.3,226.2z M21.3,229.3h2.3l1.5-5.9c0.4-1.6,1.8-4.7,4.4-4.7c0.6,0,1,0.3,1,0.8c0,0.5-0.2,1.1-0.4,1.8
		l-1.2,4.7c-0.2,0.6-0.4,1.4-0.4,2c0,1,0.8,1.6,1.8,1.6c2.5,0,3.5-2.5,3.9-3.5l-0.5-0.2c-0.2,0.4-1.3,2.8-2.4,2.8
		c-0.4,0-0.6-0.3-0.6-0.7c0-0.6,0.2-1.4,0.5-2.2l1.1-4.1c0.2-0.7,0.4-1.4,0.4-2.2c0-1.2-0.9-1.7-2.2-1.7c-2.4,0-3.9,1.3-4.9,2.6l0,0
		l0.6-2.4c-1,0.1-1.9,0.2-3.1,0.2h-1.2l-0.1,0.6h2.2L21.3,229.3z M11.1,227.1c0-0.9,0.6-4.1,1.7-6.9c0.5-1.3,1.3-1.8,2.3-1.8
		c1.2,0,2.1,0.8,2.1,2.4c0,1.4-1.6,8.3-4.6,8.3C11.4,229.2,11.1,228.2,11.1,227.1 M20.4,226.3c-0.4,0.7-1.4,2.4-2.2,2.4
		c-0.4,0-0.5-0.3-0.5-0.7c0-0.3,0.1-1,0.3-1.5l2.1-8.1H18l-0.4,1.4c-0.2-0.5-0.8-1.8-2.7-1.8c-2.7,0-6.3,3.5-6.3,7.1
		c0,2.6,1.3,4.7,3.3,4.7s3-1.3,3.5-2.1h0c0,0.7,0.1,2.1,1.7,2.1c2,0,3.2-2.3,3.7-3.2L20.4,226.3z"/>
	<path fill="#010101" d="M267.7,207.1c0.4-0.2,1.3-0.6,2.2-1.4c0.6-0.5,1.5-1.6,1.5-2.8c0-1.1-0.7-2.2-2-2.2c-0.7,0-1.6,0.6-1.6,1.5
		c0,0.5,0.3,1.2,1.3,1.2c0.5,0,0.7-0.2,0.8-0.4c0.1-0.2,0.2-0.4,0.4-0.4c0.3,0,0.4,0.3,0.4,0.6c0,0.5-0.4,1.4-1.2,2
		c-0.8,0.6-1.6,1.2-2.1,1.4L267.7,207.1z M259.9,203.3h2.3l1.2-5c0.4-1.8,2.2-5,3.3-5c0.6,0,0.5,1.1,1.3,1.1c0.8,0,1.3-0.4,1.3-1.1
		c0-0.8-0.5-1.3-1.3-1.3c-2.2,0-3.6,2.7-4.1,3.5l0,0l0.8-3.2c-0.8,0.1-1.6,0.2-2.6,0.2h-1.9l-0.1,0.6h2.3L259.9,203.3z M255.3,192.5
		c1,0,1.5,0.6,1.5,1.6c0,2.9-2.2,3.6-4.4,3.6c-0.2,0-0.7,0-1-0.1C251.8,196.4,252.9,192.5,255.3,192.5 M257.7,200.1
		c-0.6,0.8-2,3-4.4,3c-1.6,0-2.3-1.1-2.3-2.8c0-1,0.2-1.8,0.3-2.3c0.4,0,0.8,0.1,1.2,0.1c1.9,0,6.4-0.5,6.4-3.6
		c0-1.6-1.5-2.7-3.2-2.7c-3,0-7.1,3.1-7.1,7.1c0,2.4,1.8,4.7,4.5,4.7c2.8,0,4.4-2.4,5-3.3L257.7,200.1z M242.8,192.4h-2.1
		c-0.2,1.3-3.1,10.5-6.2,10.5c-0.6,0-0.7-0.3-0.7-0.9c0-0.4,0.2-1.2,0.4-1.9l1.3-4.5c0.2-0.8,0.5-1.4,0.5-2.2c0-0.7-0.4-1.4-1.5-1.4
		c-1.8,0-3.5,2.5-4,3.3l0.5,0.2c0.2-0.4,1.6-2.4,2.4-2.4c0.3,0,0.4,0.1,0.4,0.5c0,0.3-0.2,0.9-0.4,1.5l-1.4,4.8
		c0,0.2-0.4,1.4-0.4,1.9c0,1.2,0.9,2,2.1,2c1.8,0,3.2-1.6,4.2-3.1c0.7-1.1,1.2-2.3,1.3-2.6l0,0c0,0.2-0.4,1.7-0.4,2.4
		c0,1.8,0.7,3.3,2.5,3.3c3.9,0,6.4-6.5,6.4-9.6c0-1.1-0.5-2.2-1.5-2.2c-0.7,0-1.1,0.5-1.1,1.2c0,0.4,0.2,0.8,0.6,1
		c0.4,0.2,1.2,0,1.2,1.1c0,2.1-2.4,7.7-4.7,7.7c-1.2,0-1.4-0.9-1.4-2.2c0-1.1,0.4-2.8,0.8-4.3L242.8,192.4z M221.4,201
		c0-0.8,0.2-3.5,1.2-6.2c0.7-1.7,1.5-2.4,2.8-2.4c1.3,0,2,0.8,2,2.1c0,0.8-0.2,3.5-1.2,6.2c-0.7,1.7-1.5,2.4-2.8,2.4
		C222.1,203.2,221.4,202.4,221.4,201 M223.3,203.7c3.6,0,6.5-3.9,6.5-7.2c0-2.6-1.7-4.6-4.3-4.6c-3.6,0-6.5,3.9-6.5,7.2
		C219,201.7,220.7,203.7,223.3,203.7 M209.6,200.5c0-2.1,1.2-8,4.7-8c1.1,0,1.6,0.8,1.6,1.9c0,1.1-0.9,8.7-3.8,8.7
		C210.8,203.2,209.6,202.1,209.6,200.5 M203.2,208.2h6.7l0.1-0.6h-2.3l1.4-5.7c0.2,0.4,0.9,1.8,2.9,1.8c3.4,0,6.3-4.2,6.3-7.3
		c0-2.6-1.7-4.5-4-4.5c-1.8,0-2.9,1.2-3.4,1.8l0,0l0.4-1.5c-1,0.1-1.9,0.2-2.8,0.2h-1.6l-0.1,0.6h2.3l-3.6,14.7h-2.1L203.2,208.2z
		 M193.7,207.1c0.4-0.2,1.3-0.6,2.2-1.4c0.6-0.5,1.5-1.6,1.5-2.8c0-1.1-0.7-2.2-2-2.2c-0.7,0-1.6,0.6-1.6,1.5c0,0.5,0.3,1.2,1.3,1.2
		c0.5,0,0.7-0.2,0.8-0.4c0.1-0.2,0.2-0.4,0.4-0.4c0.3,0,0.4,0.3,0.4,0.6c0,0.5-0.4,1.4-1.2,2c-0.8,0.6-1.6,1.2-2.1,1.4L193.7,207.1z
		 M180.1,203.3h2.3l1.5-5.9c0.4-1.6,1.8-4.7,4.4-4.7c0.6,0,1,0.3,1,0.8c0,0.5-0.2,1.1-0.4,1.8l-1.2,4.7c-0.2,0.6-0.4,1.4-0.4,2
		c0,1,0.8,1.6,1.8,1.6c2.5,0,3.5-2.5,3.9-3.5l-0.5-0.2c-0.2,0.4-1.3,2.8-2.4,2.8c-0.4,0-0.6-0.3-0.6-0.7c0-0.6,0.2-1.4,0.5-2.2
		l1.1-4.1c0.2-0.7,0.4-1.4,0.4-2.2c0-1.2-0.9-1.7-2.2-1.7c-2.4,0-3.9,1.3-4.9,2.6l0,0l0.6-2.4c-1,0.1-1.9,0.2-3.1,0.2h-1.2l-0.1,0.6
		h2.2L180.1,203.3z M170.9,201c0-0.8,0.2-3.5,1.2-6.2c0.7-1.7,1.5-2.4,2.8-2.4c1.3,0,2,0.8,2,2.1c0,0.8-0.2,3.5-1.2,6.2
		c-0.7,1.7-1.5,2.4-2.8,2.4C171.6,203.2,170.9,202.4,170.9,201 M172.8,203.7c3.6,0,6.5-3.9,6.5-7.2c0-2.6-1.7-4.6-4.3-4.6
		c-3.6,0-6.5,3.9-6.5,7.2C168.5,201.7,170.2,203.7,172.8,203.7 M166.3,189.5c0.8,0,1.4-0.6,1.4-1.4c0-0.8-0.6-1.4-1.4-1.4
		c-0.8,0-1.4,0.6-1.4,1.4C165,188.9,165.6,189.5,166.3,189.5 M167.4,200c-0.2,0.4-1.3,2.8-2.4,2.8c-0.4,0-0.6-0.3-0.6-0.7
		c0-0.6,0.2-1.4,0.5-2.2l2-7.8c-0.9,0.1-1.7,0.2-2.8,0.2h-1.6l-0.1,0.6h2.1l-1.9,7.2c-0.1,0.6-0.4,1.4-0.4,2c0,1,0.8,1.6,1.8,1.6
		c2.5,0,3.5-2.5,3.9-3.5L167.4,200z M160.3,200c-0.2,0.4-1.3,2.8-2.4,2.8c-0.6,0-0.9-0.1-0.9-0.7c0-0.4,0.1-1,0.3-1.8l2-7.4h2.2
		l0.1-0.6h-2.2l0.8-2.8c-0.9,0.1-1.8,0.1-2.3,0.1l-0.7,2.7h-1.8l-0.1,0.6h1.8l-1.9,7.2c-0.2,0.6-0.4,1.3-0.4,1.8
		c0,1.4,0.9,1.8,2,1.8c2.5,0,3.5-2.5,3.9-3.5L160.3,200z M153.2,200.3c-0.6,0.8-2.1,2.8-4.4,2.8c-1.4,0-2.3-0.9-2.3-3.2
		c0-0.5,0.3-2.7,1.4-5.1c0.8-1.8,1.9-2.4,3.2-2.4c0.8,0,1.7,0.3,1.7,0.7c0,0.4-0.6,0.6-0.6,1.2c0,0.7,0.4,1.1,1.1,1.1
		c0.8,0,1.2-0.6,1.2-1.3c0-1.1-1.4-2.3-3.2-2.3c-4,0-7.1,3.8-7.1,6.7c0,3,1.8,5.1,4.5,5.1c2.8,0,4.4-2.2,5-3.2L153.2,200.3z
		 M130.9,203.3h2.3l1.5-5.9c0.4-1.6,1.8-4.7,4.4-4.7c0.6,0,1,0.3,1,0.8c0,0.5-0.2,1.1-0.4,1.8l-1.2,4.7c-0.2,0.6-0.4,1.4-0.4,2
		c0,1,0.8,1.6,1.8,1.6c2.5,0,3.5-2.5,3.9-3.5l-0.5-0.2c-0.2,0.4-1.3,2.8-2.4,2.8c-0.4,0-0.6-0.3-0.6-0.7c0-0.6,0.2-1.4,0.5-2.2
		l1.1-4.1c0.2-0.7,0.4-1.4,0.4-2.2c0-1.2-0.9-1.7-2.2-1.7c-2.4,0-3.9,1.3-4.9,2.6l0,0l0.6-2.4c-1,0.1-1.9,0.2-3.1,0.2h-1.2l-0.1,0.6
		h2.2L130.9,203.3z M130.4,200c-0.2,0.4-1.3,2.8-2.4,2.8c-0.4,0-0.6-0.3-0.6-0.7c0-0.5,0.1-1.3,0.2-1.8l1.9-8h-2.3l-1.5,5.9
		c-0.4,1.6-1.8,4.7-4.4,4.7c-0.6,0-1-0.4-1-1.1c0-0.5,0.2-1.3,0.4-1.9l1.9-7.5h-4.3l-0.1,0.6h2l-1.8,6.9c-0.1,0.5-0.3,1.3-0.3,1.9
		c0,1.4,0.8,2,2.1,2c2.4,0,3.8-1.2,4.8-2.6l0,0c0,0.3-0.1,0.7-0.1,1c0,1,0.8,1.6,1.8,1.6c2.5,0,3.5-2.5,3.9-3.5L130.4,200z
		 M118,192.9l0.1-0.6h-2.4c0.2-1,0.9-5.7,3.6-5.7c0.5,0,0.9,0.1,0.9,0.4c0,0.3-0.5,0.6-0.5,1.1c0,0.7,0.4,1.1,1.2,1.1
		c0.7,0,1.1-0.6,1.1-1.2c0-1-1.1-1.9-2.7-1.9c-3.9,0-5.5,5.1-5.9,6.3h-2.4l-0.1,0.6h2.4c-1,3.8-1.1,6.6-2.3,11.4
		c-0.2,0.7-1.1,3.8-2.9,3.8c-0.3,0-0.4-0.2-0.4-0.5c0-0.2,0.1-0.4,0.1-0.6c0-0.6-0.4-1-1.1-1c-0.7,0-1.2,0.4-1.2,1.2
		c0,1.1,0.9,1.5,2,1.5c2.8,0,4.6-3.5,5-4.4c1.8-3.8,2.7-9.9,3-11.4H118z M98.1,207.1c0.4-0.2,1.3-0.6,2.2-1.4
		c0.6-0.5,1.5-1.6,1.5-2.8c0-1.1-0.7-2.2-2-2.2c-0.7,0-1.6,0.6-1.6,1.5c0,0.5,0.3,1.2,1.3,1.2c0.5,0,0.7-0.2,0.8-0.4
		c0.1-0.2,0.2-0.4,0.4-0.4c0.3,0,0.4,0.3,0.4,0.6c0,0.5-0.4,1.4-1.2,2c-0.8,0.6-1.6,1.2-2.1,1.4L98.1,207.1z M92.3,195.9
		c-0.4-1.1-1.1-4-2.7-4c-1.8,0-2.8,2.8-3.1,3.5l0.4,0.2c0.3-0.6,0.9-2.2,1.7-2.2c0.5,0,1,1.8,1.3,2.4l1.6,4.7c0.2,0.5,0.6,1.4,0.6,2
		c0,1.1-3.1,5.3-5.3,5.3c-0.5,0-0.6-0.3-0.6-0.8c0-0.4-0.4-0.8-0.9-0.8c-0.6,0-1.1,0.4-1.1,1.1c0,0.9,0.9,1.4,1.7,1.4
		c4.3,0,7.1-6,8.4-9c0.9-2,2.4-6,3.1-6c0.2,0,0.4,0.3,0.9,0.3c0.6,0,1.1-0.4,1.1-1c0-0.6-0.4-1-1.1-1c-1.2,0-1.8,1.3-2.4,2.6
		c-0.8,1.8-1.9,4.3-2.3,5.2L92.3,195.9z M85.5,200c-0.2,0.4-1.3,2.8-2.4,2.8c-0.6,0-0.9-0.1-0.9-0.7c0-0.4,0.1-1,0.3-1.8l2-7.4h2.2
		l0.1-0.6h-2.2l0.8-2.8c-0.9,0.1-1.8,0.1-2.3,0.1l-0.7,2.7h-1.8l-0.1,0.6h1.8l-1.9,7.2c-0.2,0.6-0.4,1.3-0.4,1.8
		c0,1.4,0.9,1.8,2,1.8c2.5,0,3.5-2.5,3.9-3.5L85.5,200z M77.8,189.5c0.8,0,1.4-0.6,1.4-1.4c0-0.8-0.6-1.4-1.4-1.4
		c-0.8,0-1.4,0.6-1.4,1.4C76.4,188.9,77,189.5,77.8,189.5 M78.9,200c-0.2,0.4-1.3,2.8-2.4,2.8c-0.4,0-0.6-0.3-0.6-0.7
		c0-0.6,0.2-1.4,0.5-2.2l2-7.8c-0.9,0.1-1.7,0.2-2.8,0.2h-1.6l-0.1,0.6h2.1l-1.9,7.2c-0.1,0.6-0.4,1.4-0.4,2c0,1,0.8,1.6,1.8,1.6
		c2.5,0,3.5-2.5,3.9-3.5L78.9,200z M64.2,203.3h2.3l1.2-5c0.4-1.8,2.2-5,3.3-5c0.6,0,0.5,1.1,1.3,1.1c0.8,0,1.3-0.4,1.3-1.1
		c0-0.8-0.5-1.3-1.3-1.3c-2.2,0-3.6,2.7-4.1,3.5l0,0l0.8-3.2c-0.8,0.1-1.6,0.2-2.6,0.2h-1.9l-0.1,0.6h2.3L64.2,203.3z M53.4,201.1
		c0-0.9,0.6-4.1,1.7-6.9c0.5-1.3,1.3-1.8,2.3-1.8c1.2,0,2.1,0.8,2.1,2.4c0,1.4-1.6,8.3-4.6,8.3C53.7,203.2,53.4,202.2,53.4,201.1
		 M62.8,200.3c-0.4,0.7-1.4,2.4-2.2,2.4c-0.4,0-0.5-0.3-0.5-0.7c0-0.3,0.1-1,0.3-1.5l2.1-8.1h-2.1l-0.4,1.4
		c-0.2-0.5-0.8-1.8-2.7-1.8c-2.7,0-6.3,3.5-6.3,7.1c0,2.6,1.3,4.7,3.3,4.7c2,0,3-1.3,3.5-2.1h0c0,0.7,0.1,2.1,1.7,2.1
		c2,0,3.2-2.3,3.7-3.2L62.8,200.3z M50.2,200c-0.2,0.4-1.3,2.8-2.4,2.8c-0.4,0-0.6-0.3-0.6-0.7c0-0.6,0.2-1.4,0.5-2.2l3.5-13.6
		c-0.9,0.1-1.7,0.2-2.8,0.2h-1.9l-0.1,0.6h2.3l-3.3,13c-0.1,0.6-0.4,1.4-0.4,2c0,1,0.8,1.6,1.8,1.6c2.5,0,3.5-2.5,3.9-3.5L50.2,200z
		 M43.4,200.3c-0.6,0.8-2.1,2.8-4.4,2.8c-1.4,0-2.3-0.9-2.3-3.2c0-0.5,0.3-2.7,1.4-5.1c0.8-1.8,1.9-2.4,3.2-2.4
		c0.8,0,1.7,0.3,1.7,0.7c0,0.4-0.6,0.6-0.6,1.2c0,0.7,0.4,1.1,1.1,1.1c0.8,0,1.2-0.6,1.2-1.3c0-1.1-1.4-2.3-3.2-2.3
		c-4,0-7.1,3.8-7.1,6.7c0,3,1.8,5.1,4.5,5.1c2.8,0,4.4-2.2,5-3.2L43.4,200.3z M27.7,192.9l0.1-0.6h-2.4c0.2-1,0.9-5.7,3.6-5.7
		c0.5,0,0.9,0.1,0.9,0.4c0,0.3-0.5,0.6-0.5,1.1c0,0.7,0.4,1.1,1.2,1.1c0.7,0,1.1-0.6,1.1-1.2c0-1-1.1-1.9-2.7-1.9
		c-3.9,0-5.5,5.1-5.9,6.3h-2.4l-0.1,0.6h2.4c-1,3.8-1.1,6.6-2.3,11.4c-0.2,0.7-1.1,3.8-2.9,3.8c-0.3,0-0.4-0.2-0.4-0.5
		c0-0.2,0.1-0.4,0.1-0.6c0-0.6-0.4-1-1.1-1c-0.7,0-1.2,0.4-1.2,1.2c0,1.1,0.9,1.5,2,1.5c2.8,0,4.6-3.5,5-4.4c1.8-3.8,2.7-9.9,3-11.4
		H27.7z M11.1,201c0-0.8,0.2-3.5,1.2-6.2c0.7-1.7,1.5-2.4,2.8-2.4c1.3,0,2,0.8,2,2.1c0,0.8-0.2,3.5-1.2,6.2
		c-0.7,1.7-1.5,2.4-2.8,2.4C11.8,203.2,11.1,202.4,11.1,201 M13,203.7c3.6,0,6.5-3.9,6.5-7.2c0-2.6-1.7-4.6-4.3-4.6
		c-3.6,0-6.5,3.9-6.5,7.2C8.7,201.7,10.4,203.7,13,203.7"/>
	<path fill="#010101" d="M292.5,166.5c1,0,1.5,0.6,1.5,1.6c0,2.9-2.2,3.6-4.4,3.6c-0.2,0-0.7,0-1-0.1
		C288.9,170.4,290.1,166.5,292.5,166.5 M294.9,174.1c-0.6,0.8-2,3-4.4,3c-1.6,0-2.3-1.1-2.3-2.8c0-1,0.2-1.8,0.3-2.3
		c0.4,0,0.8,0.1,1.2,0.1c1.9,0,6.4-0.5,6.4-3.6c0-1.6-1.5-2.7-3.2-2.7c-3,0-7.1,3.1-7.1,7.1c0,2.4,1.8,4.7,4.5,4.7
		c2.8,0,4.4-2.4,5-3.3L294.9,174.1z M284.3,174.3c-0.6,0.8-2.1,2.8-4.4,2.8c-1.4,0-2.3-0.9-2.3-3.2c0-0.5,0.3-2.7,1.4-5.1
		c0.8-1.8,1.9-2.4,3.2-2.4c0.8,0,1.7,0.3,1.7,0.7c0,0.4-0.6,0.6-0.6,1.2c0,0.7,0.4,1.1,1.1,1.1c0.8,0,1.2-0.6,1.2-1.3
		c0-1.1-1.4-2.3-3.2-2.3c-4,0-7.1,3.8-7.1,6.7c0,3,1.8,5.1,4.5,5.1c2.8,0,4.4-2.2,5-3.2L284.3,174.3z M261.9,177.3h2.3l1.5-5.9
		c0.4-1.6,1.8-4.7,4.4-4.7c0.6,0,1,0.3,1,0.8c0,0.5-0.2,1.1-0.4,1.8l-1.2,4.7c-0.2,0.6-0.4,1.4-0.4,2c0,1,0.8,1.6,1.8,1.6
		c2.5,0,3.5-2.5,3.9-3.5l-0.5-0.2c-0.2,0.4-1.3,2.8-2.4,2.8c-0.4,0-0.6-0.3-0.6-0.7c0-0.6,0.2-1.4,0.5-2.2l1.1-4.1
		c0.2-0.7,0.4-1.4,0.4-2.2c0-1.2-0.9-1.7-2.2-1.7c-2.4,0-3.9,1.3-4.9,2.6l0,0l0.6-2.4c-1,0.1-1.9,0.2-3.1,0.2h-1.2l-0.1,0.6h2.2
		L261.9,177.3z M257.9,166.5c1,0,1.5,0.6,1.5,1.6c0,2.9-2.2,3.6-4.4,3.6c-0.2,0-0.7,0-1-0.1C254.4,170.4,255.5,166.5,257.9,166.5
		 M260.3,174.1c-0.6,0.8-2,3-4.4,3c-1.6,0-2.3-1.1-2.3-2.8c0-1,0.2-1.8,0.3-2.3c0.4,0,0.8,0.1,1.2,0.1c1.9,0,6.4-0.5,6.4-3.6
		c0-1.6-1.5-2.7-3.2-2.7c-3,0-7.1,3.1-7.1,7.1c0,2.4,1.8,4.7,4.5,4.7c2.8,0,4.4-2.4,5-3.3L260.3,174.1z M245.1,177.7
		c2.4,0,4.4-1.4,4.4-3.6c0-1.7-0.9-2.5-1.9-3.2c-1.2-0.9-2.8-1.8-2.8-2.8c0-1.2,1.4-1.6,2.3-1.6c0.6,0,1.4,0.1,1.4,0.5
		c0,0.3-0.4,0.6-0.4,1c0,0.5,0.4,1,1,1c0.7,0,1.1-0.5,1.1-1.1c0-1.3-1.5-1.9-3.1-1.9c-2.1,0-4,1.5-4,3.3c0,1.8,1.6,2.7,3,3.7
		c0.9,0.6,1.7,1.3,1.7,2.3c0,1.3-1.3,2-2.6,2c-0.9,0-2.3-0.2-2.3-0.9c0-0.3,0.4-0.6,0.4-1.1c0-0.6-0.5-0.9-0.9-0.9
		c-0.7,0-1.1,0.5-1.1,1.1C241.3,176.7,242.8,177.7,245.1,177.7 M235.8,177.7c2.4,0,4.4-1.4,4.4-3.6c0-1.7-0.9-2.5-1.9-3.2
		c-1.2-0.9-2.8-1.8-2.8-2.8c0-1.2,1.4-1.6,2.3-1.6c0.6,0,1.4,0.1,1.4,0.5c0,0.3-0.4,0.6-0.4,1c0,0.5,0.4,1,1,1
		c0.7,0,1.1-0.5,1.1-1.1c0-1.3-1.5-1.9-3.1-1.9c-2.1,0-4,1.5-4,3.3c0,1.8,1.6,2.7,3,3.7c0.9,0.6,1.7,1.3,1.7,2.3c0,1.3-1.3,2-2.6,2
		c-0.9,0-2.3-0.2-2.3-0.9c0-0.3,0.4-0.6,0.4-1.1c0-0.6-0.5-0.9-0.9-0.9c-0.7,0-1.1,0.5-1.1,1.1C232,176.7,233.5,177.7,235.8,177.7
		 M228.3,166.5c1,0,1.5,0.6,1.5,1.6c0,2.9-2.2,3.6-4.4,3.6c-0.2,0-0.7,0-1-0.1C224.7,170.4,225.9,166.5,228.3,166.5 M230.7,174.1
		c-0.6,0.8-2,3-4.4,3c-1.6,0-2.3-1.1-2.3-2.8c0-1,0.2-1.8,0.3-2.3c0.4,0,0.8,0.1,1.2,0.1c1.9,0,6.4-0.5,6.4-3.6
		c0-1.6-1.5-2.7-3.2-2.7c-3,0-7.1,3.1-7.1,7.1c0,2.4,1.8,4.7,4.5,4.7c2.8,0,4.4-2.4,5-3.3L230.7,174.1z M204.4,175
		c0-0.8,0.2-3.5,1.2-6.2c0.7-1.7,1.5-2.4,2.8-2.4c1.2,0,2.1,0.9,2.1,2.3c0,1.7-1.3,8.4-4.6,8.4C204.9,177.2,204.4,176.4,204.4,175
		 M213.9,174.2c-0.2,0.3-1.5,2.3-2,2.3c-0.3,0-0.6,0-0.6-0.6c0-0.5,0.2-1.2,0.3-1.8l3.3-13.7c-0.9,0.1-2.1,0.2-3.4,0.2h-1.3
		l-0.1,0.6h2.4l-1.6,6.4c-0.3-0.5-1-1.5-2.4-1.5c-3.6,0-6.5,3.9-6.5,7.2c0,2.6,1.4,4.6,3.6,4.6c2,0,3.2-1.9,3.5-2.4h0
		c0,0.8,0,2.3,1.5,2.3c1.9,0,3.2-2.5,3.6-3.1L213.9,174.2z M197.7,166.5c1,0,1.5,0.6,1.5,1.6c0,2.9-2.2,3.6-4.4,3.6
		c-0.2,0-0.7,0-1-0.1C194.2,170.4,195.3,166.5,197.7,166.5 M200.1,174.1c-0.6,0.8-2,3-4.4,3c-1.6,0-2.3-1.1-2.3-2.8
		c0-1,0.2-1.8,0.3-2.3c0.4,0,0.8,0.1,1.2,0.1c1.9,0,6.4-0.5,6.4-3.6c0-1.6-1.5-2.7-3.2-2.7c-3,0-7.1,3.1-7.1,7.1
		c0,2.4,1.8,4.7,4.5,4.7c2.8,0,4.4-2.4,5-3.3L200.1,174.1z M184.9,176.8c1.4,0.1,3.1,0,3.1,1.6c0,2.1-2.2,3.7-5,3.7
		c-1.9,0-3.6-0.9-3.6-2.7c0-1.7,1.6-2.4,2.3-2.8L184.9,176.8z M182.6,170.9c0-1.2,0.5-4.4,2.4-4.4c1,0,1.8,0.4,1.8,1.6
		c0,1.4-0.6,4.4-2.6,4.4C183.4,172.5,182.6,172,182.6,170.9 M183.4,174.7c-1.3-0.1-3-0.1-3-1.2c0-0.7,0.8-1.1,1.3-1.3
		c0.5,0.3,1.1,0.9,2.8,0.9c2,0,3.6-1.1,4.3-3.3c0.2-0.8,0.4-3,1-3c0.5,0,0.4,0.5,0.9,0.5c0.5,0,0.8-0.3,0.8-0.8c0-0.6-0.5-0.8-1-0.8
		c-1.5,0-1.7,1.7-1.8,2.4h0c-0.3-0.9-1.2-2.1-3.4-2.1c-2.6,0-4.6,1.7-4.6,3.7c0,1.2,0.4,1.8,0.8,2.2c-0.7,0.4-2.1,1-2.1,2.6
		c0,1.3,1.1,1.7,1.8,2c-0.7,0.3-3.1,1-3.1,2.9c0,2.1,2.1,3.3,4.7,3.3c3.5,0,6.2-2,6.2-5.1c0-2.6-1.8-2.6-3.1-2.7L183.4,174.7z
		 M170,177.3h2.3l1.2-5c0.4-1.8,2.2-5,3.3-5c0.6,0,0.5,1.1,1.3,1.1c0.8,0,1.3-0.4,1.3-1.1c0-0.8-0.5-1.3-1.3-1.3
		c-2.2,0-3.6,2.7-4.1,3.5l0,0l0.8-3.2c-0.8,0.1-1.6,0.2-2.6,0.2h-1.9l-0.1,0.6h2.3L170,177.3z M159.2,175.1c0-0.9,0.6-4.1,1.7-6.9
		c0.5-1.3,1.3-1.8,2.3-1.8c1.2,0,2.1,0.8,2.1,2.4c0,1.4-1.6,8.3-4.6,8.3C159.6,177.2,159.2,176.2,159.2,175.1 M168.6,174.3
		c-0.4,0.7-1.4,2.4-2.2,2.4c-0.4,0-0.5-0.3-0.5-0.7c0-0.3,0.1-1,0.3-1.5l2.1-8.1h-2.1l-0.4,1.4c-0.2-0.5-0.8-1.8-2.7-1.8
		c-2.7,0-6.3,3.5-6.3,7.1c0,2.6,1.3,4.7,3.3,4.7c2,0,3-1.3,3.5-2.1h0c0,0.7,0.1,2.1,1.7,2.1c2,0,3.2-2.3,3.7-3.2L168.6,174.3z
		 M143.5,177.3h2.3l1.5-5.9c0.4-1.6,1.9-4.7,4.6-4.7c0.6,0,1,0.3,1,0.8c0,0.5-0.2,1.1-0.4,1.8l-1.2,4.7c-0.2,0.6-0.4,1.4-0.4,2
		c0,1,0.8,1.6,1.8,1.6c2.5,0,3.5-2.5,3.9-3.5l-0.5-0.2c-0.2,0.4-1.3,2.8-2.4,2.8c-0.4,0-0.6-0.3-0.6-0.7c0-0.6,0.2-1.4,0.5-2.2
		l1.1-4.1c0.2-0.7,0.4-1.5,0.4-2.3c0-1-1-1.6-2.2-1.6c-2.5,0-4.1,1.3-5.2,2.6l0,0l2-8.2c-1,0.1-1.9,0.2-3.1,0.2h-1.2l-0.1,0.6h2.2
		L143.5,177.3z M142.5,174.3c-0.6,0.8-2.1,2.8-4.4,2.8c-1.4,0-2.3-0.9-2.3-3.2c0-0.5,0.3-2.7,1.4-5.1c0.8-1.8,1.9-2.4,3.2-2.4
		c0.8,0,1.7,0.3,1.7,0.7c0,0.4-0.6,0.6-0.6,1.2c0,0.7,0.4,1.1,1.1,1.1c0.8,0,1.2-0.6,1.2-1.3c0-1.1-1.4-2.3-3.2-2.3
		c-4,0-7.1,3.8-7.1,6.7c0,3,1.8,5.1,4.5,5.1c2.8,0,4.4-2.2,5-3.2L142.5,174.3z M125.9,172.7h6l0.5-1.7h-6L125.9,172.7z M118.8,169.9
		c-0.4-1.1-1.1-4-2.7-4c-1.8,0-2.8,2.8-3.1,3.5l0.4,0.2c0.3-0.6,0.9-2.2,1.7-2.2c0.5,0,1,1.8,1.3,2.4l1.6,4.7c0.2,0.5,0.6,1.4,0.6,2
		c0,1.1-3.1,5.3-5.3,5.3c-0.5,0-0.6-0.3-0.6-0.8c0-0.4-0.4-0.8-0.9-0.8c-0.6,0-1.1,0.4-1.1,1.1c0,0.9,0.9,1.4,1.7,1.4
		c4.3,0,7.1-6,8.4-9c0.9-2,2.4-6,3.1-6c0.2,0,0.4,0.3,0.9,0.3c0.6,0,1.1-0.4,1.1-1c0-0.6-0.4-1-1.1-1c-1.2,0-1.8,1.3-2.4,2.6
		c-0.8,1.8-1.9,4.3-2.3,5.2L118.8,169.9z M112.6,174c-0.2,0.4-1.3,2.8-2.4,2.8c-0.4,0-0.6-0.3-0.6-0.7c0-0.6,0.2-1.4,0.5-2.2
		l3.5-13.6c-0.9,0.1-1.7,0.2-2.8,0.2h-1.9l-0.1,0.6h2.3l-3.3,13c-0.1,0.6-0.4,1.4-0.4,2c0,1,0.8,1.6,1.8,1.6c2.5,0,3.5-2.5,3.9-3.5
		L112.6,174z M93.9,177.3h2.3l1.5-5.9c0.4-1.6,1.9-4.7,4.6-4.7c0.6,0,1,0.3,1,0.8c0,0.5-0.2,1.1-0.4,1.8l-1.2,4.7
		c-0.2,0.6-0.4,1.4-0.4,2c0,1,0.8,1.6,1.8,1.6c2.5,0,3.5-2.5,3.9-3.5l-0.5-0.2c-0.2,0.4-1.3,2.8-2.4,2.8c-0.4,0-0.6-0.3-0.6-0.7
		c0-0.6,0.2-1.4,0.5-2.2l1.1-4.1c0.2-0.7,0.4-1.5,0.4-2.3c0-1-1-1.6-2.2-1.6c-2.5,0-4.1,1.3-5.2,2.6l0,0l2-8.2
		c-1,0.1-1.9,0.2-3.1,0.2h-1.2l-0.1,0.6h2.2L93.9,177.3z M88.3,176.8c1.4,0.1,3.1,0,3.1,1.6c0,2.1-2.2,3.7-5,3.7
		c-1.9,0-3.6-0.9-3.6-2.7c0-1.7,1.6-2.4,2.3-2.8L88.3,176.8z M86,170.9c0-1.2,0.5-4.4,2.4-4.4c1,0,1.8,0.4,1.8,1.6
		c0,1.4-0.6,4.4-2.6,4.4C86.8,172.5,86,172,86,170.9 M86.8,174.7c-1.3-0.1-3-0.1-3-1.2c0-0.7,0.8-1.1,1.3-1.3
		c0.5,0.3,1.1,0.9,2.8,0.9c2,0,3.6-1.1,4.3-3.3c0.2-0.8,0.4-3,1-3c0.5,0,0.4,0.5,0.9,0.5c0.5,0,0.8-0.3,0.8-0.8c0-0.6-0.5-0.8-1-0.8
		c-1.5,0-1.7,1.7-1.8,2.4h0c-0.3-0.9-1.2-2.1-3.4-2.1c-2.6,0-4.6,1.7-4.6,3.7c0,1.2,0.4,1.8,0.8,2.2c-0.7,0.4-2.1,1-2.1,2.6
		c0,1.3,1.1,1.7,1.8,2c-0.7,0.3-3.1,1-3.1,2.9c0,2.1,2.1,3.3,4.7,3.3c3.5,0,6.2-2,6.2-5.1c0-2.6-1.8-2.6-3.1-2.7L86.8,174.7z
		 M80,163.5c0.8,0,1.4-0.6,1.4-1.4c0-0.8-0.6-1.4-1.4-1.4c-0.8,0-1.4,0.6-1.4,1.4C78.6,162.9,79.2,163.5,80,163.5 M81,174
		c-0.2,0.4-1.3,2.8-2.4,2.8c-0.4,0-0.6-0.3-0.6-0.7c0-0.6,0.2-1.4,0.5-2.2l2-7.8c-0.9,0.1-1.7,0.2-2.8,0.2H76l-0.1,0.6H78l-1.9,7.2
		c-0.1,0.6-0.4,1.4-0.4,2c0,1,0.8,1.6,1.8,1.6c2.5,0,3.5-2.5,3.9-3.5L81,174z M62,177.3h2.3l1.5-5.9c0.4-1.6,1.9-4.7,4.6-4.7
		c0.6,0,1,0.3,1,0.8c0,0.5-0.2,1.1-0.4,1.8l-1.2,4.7c-0.2,0.6-0.4,1.4-0.4,2c0,1,0.8,1.6,1.8,1.6c2.5,0,3.5-2.5,3.9-3.5l-0.5-0.2
		c-0.2,0.4-1.3,2.8-2.4,2.8c-0.4,0-0.6-0.3-0.6-0.7c0-0.6,0.2-1.4,0.5-2.2l1.1-4.1c0.2-0.7,0.4-1.5,0.4-2.3c0-1-1-1.6-2.2-1.6
		c-2.5,0-4.1,1.3-5.2,2.6l0,0l2-8.2c-1,0.1-1.9,0.2-3.1,0.2h-1.2l-0.1,0.6h2.2L62,177.3z M45.3,175.1c0-0.9,0.6-4.1,1.7-6.9
		c0.5-1.3,1.3-1.8,2.3-1.8c1.2,0,2.1,0.8,2.1,2.4c0,1.4-1.6,8.3-4.6,8.3C45.7,177.2,45.3,176.2,45.3,175.1 M54.7,174.3
		c-0.4,0.7-1.4,2.4-2.2,2.4c-0.4,0-0.5-0.3-0.5-0.7c0-0.3,0.1-1,0.3-1.5l2.1-8.1h-2.1l-0.4,1.4c-0.2-0.5-0.8-1.8-2.7-1.8
		c-2.7,0-6.3,3.5-6.3,7.1c0,2.6,1.3,4.7,3.3,4.7s3-1.3,3.5-2.1h0c0,0.7,0.1,2.1,1.7,2.1c2,0,3.2-2.3,3.7-3.2L54.7,174.3z
		 M27.4,177.3h2.3l1.2-5c0.4-1.8,2.2-5,3.3-5c0.6,0,0.5,1.1,1.3,1.1c0.8,0,1.3-0.4,1.3-1.1c0-0.8-0.5-1.3-1.3-1.3
		c-2.2,0-3.6,2.7-4.1,3.5l0,0l0.8-3.2c-0.8,0.1-1.6,0.2-2.6,0.2h-1.9l-0.1,0.6h2.3L27.4,177.3z M17.6,175c0-0.8,0.2-3.5,1.2-6.2
		c0.7-1.7,1.5-2.4,2.8-2.4c1.3,0,2,0.8,2,2.1c0,0.8-0.2,3.5-1.2,6.2c-0.7,1.7-1.5,2.4-2.8,2.4C18.4,177.2,17.6,176.4,17.6,175
		 M19.6,177.7c3.6,0,6.5-3.9,6.5-7.2c0-2.6-1.7-4.6-4.3-4.6c-3.6,0-6.5,3.9-6.5,7.2C15.2,175.7,16.9,177.7,19.6,177.7 M15.7,166.9
		l0.1-0.6h-2.4c0.2-1,0.9-5.7,3.6-5.7c0.5,0,0.9,0.1,0.9,0.4c0,0.3-0.5,0.6-0.5,1.1c0,0.7,0.4,1.1,1.2,1.1c0.7,0,1.1-0.6,1.1-1.2
		c0-1-1.1-1.9-2.7-1.9c-3.9,0-5.5,5.1-5.9,6.3H8.8l-0.1,0.6h2.4c-1,3.8-1.1,6.6-2.3,11.4c-0.2,0.7-1.1,3.8-2.9,3.8
		c-0.3,0-0.4-0.2-0.4-0.5c0-0.2,0.1-0.4,0.1-0.6c0-0.6-0.4-1-1.1-1c-0.7,0-1.2,0.4-1.2,1.2c0,1.1,0.9,1.5,2,1.5c2.8,0,4.6-3.5,5-4.4
		c1.8-3.8,2.7-9.9,3-11.4H15.7z"/>
	<path fill="#010101" d="M258.3,140.5c1,0,1.5,0.6,1.5,1.6c0,2.9-2.2,3.6-4.4,3.6c-0.2,0-0.7,0-1-0.1
		C254.7,144.4,255.8,140.5,258.3,140.5 M260.6,148.1c-0.6,0.8-2,3-4.4,3c-1.6,0-2.3-1.1-2.3-2.8c0-1,0.2-1.8,0.3-2.3
		c0.4,0,0.8,0.1,1.2,0.1c1.9,0,6.4-0.5,6.4-3.6c0-1.6-1.5-2.7-3.2-2.7c-3,0-7.1,3.1-7.1,7.1c0,2.4,1.8,4.7,4.5,4.7
		c2.8,0,4.4-2.4,5-3.3L260.6,148.1z M244.8,144c0.2-0.8,0.6-1.9,0.6-2.5c0-0.9-0.6-1.5-1.7-1.5c-2.1,0-3.3,2.4-3.9,3.3l0.4,0.3
		c0.3-0.4,1.7-2.7,2.5-2.7c0.3,0,0.5,0.1,0.5,0.6c0,0.4-0.2,1.2-0.4,1.7l-1.2,4.1c-0.1,0.5-0.5,1.6-0.5,2.1c0,1.3,1,2.4,2.8,2.4
		c4.3,0,7-6.8,7-9.9c0-0.9-0.4-1.9-1.5-1.9c-0.5,0-1,0.4-1,1.1c0,0.6,0.2,0.8,0.6,1c0.5,0.2,1.2,0.1,1.2,1c0,2.4-2.8,7.9-5.5,7.9
		c-0.8,0-1.3-0.2-1.3-1.1c0-0.6,0.2-1.5,0.4-2.1L244.8,144z M238,137.5c0.8,0,1.4-0.6,1.4-1.4c0-0.8-0.6-1.4-1.4-1.4
		c-0.8,0-1.4,0.6-1.4,1.4C236.6,136.9,237.2,137.5,238,137.5 M239,148c-0.2,0.4-1.3,2.8-2.4,2.8c-0.4,0-0.6-0.3-0.6-0.7
		c0-0.6,0.2-1.4,0.5-2.2l2-7.8c-0.9,0.1-1.7,0.2-2.8,0.2h-1.6l-0.1,0.6h2.1l-1.9,7.2c-0.1,0.6-0.4,1.4-0.4,2c0,1,0.8,1.6,1.8,1.6
		c2.5,0,3.5-2.5,3.9-3.5L239,148z M224.3,151.3h2.3l1.2-5c0.4-1.8,2.2-5,3.3-5c0.6,0,0.5,1.1,1.3,1.1c0.8,0,1.3-0.4,1.3-1.1
		c0-0.8-0.5-1.3-1.3-1.3c-2.2,0-3.6,2.7-4.1,3.5l0,0l0.8-3.2c-0.8,0.1-1.6,0.2-2.6,0.2h-1.9l-0.1,0.6h2.3L224.3,151.3z M222.7,148
		c-0.2,0.4-1.3,2.8-2.4,2.8c-0.6,0-0.9-0.1-0.9-0.7c0-0.4,0.1-1,0.3-1.8l2-7.4h2.2l0.1-0.6h-2.2l0.8-2.8c-0.9,0.1-1.8,0.1-2.3,0.1
		l-0.7,2.7h-1.8l-0.1,0.6h1.8l-1.9,7.2c-0.2,0.6-0.4,1.3-0.4,1.8c0,1.4,0.9,1.8,2,1.8c2.5,0,3.5-2.5,3.9-3.5L222.7,148z
		 M210.9,151.7c2.4,0,4.4-1.4,4.4-3.6c0-1.7-0.9-2.5-1.9-3.2c-1.2-0.9-2.8-1.8-2.8-2.8c0-1.2,1.4-1.6,2.3-1.6c0.6,0,1.4,0.1,1.4,0.5
		c0,0.3-0.4,0.6-0.4,1c0,0.5,0.4,1,1,1c0.7,0,1.1-0.5,1.1-1.1c0-1.3-1.5-1.9-3.1-1.9c-2.1,0-4,1.5-4,3.3c0,1.8,1.6,2.7,3,3.7
		c0.9,0.6,1.7,1.3,1.7,2.3c0,1.3-1.3,2-2.6,2c-0.9,0-2.3-0.2-2.3-0.9c0-0.3,0.4-0.6,0.4-1.1c0-0.6-0.5-0.9-0.9-0.9
		c-0.7,0-1.1,0.5-1.1,1.1C207.2,150.7,208.6,151.7,210.9,151.7 M196.8,140.5c1,0,1.5,0.6,1.5,1.6c0,2.9-2.2,3.6-4.4,3.6
		c-0.2,0-0.7,0-1-0.1C193.2,144.4,194.4,140.5,196.8,140.5 M199.2,148.1c-0.6,0.8-2,3-4.4,3c-1.6,0-2.3-1.1-2.3-2.8
		c0-1,0.2-1.8,0.3-2.3c0.4,0,0.8,0.1,1.2,0.1c1.9,0,6.4-0.5,6.4-3.6c0-1.6-1.5-2.7-3.2-2.7c-3,0-7.1,3.1-7.1,7.1
		c0,2.4,1.8,4.7,4.5,4.7c2.8,0,4.4-2.4,5-3.3L199.2,148.1z M184.3,140.4h-2.1c-0.2,1.3-3.1,10.5-6.2,10.5c-0.6,0-0.7-0.3-0.7-0.9
		c0-0.4,0.2-1.2,0.4-1.9l1.3-4.5c0.2-0.8,0.5-1.4,0.5-2.2c0-0.7-0.4-1.4-1.5-1.4c-1.8,0-3.5,2.5-4,3.3l0.5,0.2
		c0.2-0.4,1.6-2.4,2.4-2.4c0.3,0,0.4,0.1,0.4,0.5c0,0.3-0.2,0.9-0.4,1.5l-1.4,4.8c0,0.2-0.4,1.4-0.4,1.9c0,1.2,0.9,2,2.1,2
		c1.8,0,3.2-1.6,4.2-3.1c0.7-1.1,1.2-2.3,1.3-2.6l0,0c0,0.2-0.4,1.7-0.4,2.4c0,1.8,0.7,3.3,2.5,3.3c3.9,0,6.4-6.5,6.4-9.6
		c0-1.1-0.5-2.2-1.5-2.2c-0.7,0-1.1,0.5-1.1,1.2c0,0.4,0.2,0.8,0.6,1c0.4,0.2,1.2,0,1.2,1.1c0,2.1-2.4,7.7-4.7,7.7
		c-1.2,0-1.4-0.9-1.4-2.2c0-1.1,0.4-2.8,0.8-4.3L184.3,140.4z M159.6,155.1c0.4-0.2,1.3-0.6,2.2-1.4c0.6-0.5,1.5-1.6,1.5-2.8
		c0-1.1-0.7-2.2-2-2.2c-0.7,0-1.6,0.6-1.6,1.5c0,0.5,0.3,1.2,1.3,1.2c0.5,0,0.7-0.2,0.8-0.4c0.1-0.2,0.2-0.4,0.4-0.4
		c0.3,0,0.4,0.3,0.4,0.6c0,0.5-0.4,1.4-1.2,2c-0.8,0.6-1.6,1.2-2.1,1.4L159.6,155.1z M146.7,151.3h2.3l1.5-6c0.1,0,0.3,0,0.4,0
		c0.4,0,0.7-0.1,1-0.2c0.2-0.1,0.4-0.3,0.6-0.4c0.4,0.1,0.9,0.3,0.9,0.8c0,0.9-0.8,3.3-0.8,4.4c0,1,0.6,1.8,2.1,1.8
		c2.3,0,3.5-2.7,4-3.9l-0.4-0.2c-0.4,0.9-1.6,3.3-2.6,3.3c-0.4,0-0.6-0.5-0.6-0.9c0-0.3,0.1-1.4,0.1-2.4c0-2.4-1.4-2.9-2.3-3.2
		c0.7-0.8,1.4-2.4,2.2-3.3c0.3-0.4,0.7-0.6,1.1-0.6c0.3,0,0.5,0.1,0.5,0.5c0,0.1-0.4,0.4-0.4,0.9c0,0.6,0.5,1,1.1,1
		c0.8,0,1.2-0.5,1.2-1.2c0-0.9-0.9-1.6-1.8-1.6c-1,0-1.8,0.4-2.5,1.4c-0.2,0.2-1.5,2.4-2,2.9c-0.3,0-0.6,0-0.9,0
		c-0.2,0-0.5,0-0.7,0.2l2.5-10.2c-0.6,0.1-1.5,0.2-2.5,0.2h-2.1l-0.1,0.6h2.2L146.7,151.3z M137.6,151.3h2.3l1.2-5
		c0.4-1.8,2.2-5,3.3-5c0.6,0,0.5,1.1,1.3,1.1c0.8,0,1.3-0.4,1.3-1.1c0-0.8-0.5-1.3-1.3-1.3c-2.2,0-3.6,2.7-4.1,3.5l0,0l0.8-3.2
		c-0.8,0.1-1.6,0.2-2.6,0.2h-1.9l-0.1,0.6h2.3L137.6,151.3z M127.9,149c0-0.8,0.2-3.5,1.2-6.2c0.7-1.7,1.5-2.4,2.8-2.4
		c1.3,0,2,0.8,2,2.1c0,0.8-0.2,3.5-1.2,6.2c-0.7,1.7-1.5,2.4-2.8,2.4C128.6,151.2,127.9,150.4,127.9,149 M129.8,151.7
		c3.6,0,6.5-3.9,6.5-7.2c0-2.6-1.7-4.6-4.3-4.6c-3.6,0-6.5,3.9-6.5,7.2C125.5,149.7,127.2,151.7,129.8,151.7 M119.6,140.4h-2.1
		c-0.2,1.3-3.1,10.5-6.2,10.5c-0.6,0-0.7-0.3-0.7-0.9c0-0.4,0.2-1.2,0.4-1.9l1.3-4.5c0.2-0.8,0.5-1.4,0.5-2.2c0-0.7-0.4-1.4-1.5-1.4
		c-1.8,0-3.5,2.5-4,3.3l0.5,0.2c0.2-0.4,1.6-2.4,2.4-2.4c0.3,0,0.4,0.1,0.4,0.5c0,0.3-0.2,0.9-0.4,1.5l-1.4,4.8
		c0,0.2-0.4,1.4-0.4,1.9c0,1.2,0.9,2,2.1,2c1.8,0,3.2-1.6,4.2-3.1c0.7-1.1,1.2-2.3,1.3-2.6l0,0c0,0.2-0.4,1.7-0.4,2.4
		c0,1.8,0.7,3.3,2.5,3.3c3.9,0,6.4-6.5,6.4-9.6c0-1.1-0.5-2.2-1.5-2.2c-0.7,0-1.1,0.5-1.1,1.2c0,0.4,0.2,0.8,0.6,1
		c0.4,0.2,1.2,0,1.2,1.1c0,2.1-2.4,7.7-4.7,7.7c-1.2,0-1.4-0.9-1.4-2.2c0-1.1,0.4-2.8,0.8-4.3L119.6,140.4z M92,151.3h2.3l1.2-5
		c0.4-1.8,2.2-5,3.3-5c0.6,0,0.5,1.1,1.3,1.1c0.8,0,1.3-0.4,1.3-1.1c0-0.8-0.5-1.3-1.3-1.3c-2.2,0-3.6,2.7-4.1,3.5l0,0l0.8-3.2
		c-0.8,0.1-1.6,0.2-2.6,0.2h-1.9l-0.1,0.6h2.3L92,151.3z M91,148c-0.2,0.4-1.3,2.8-2.4,2.8c-0.4,0-0.6-0.3-0.6-0.7
		c0-0.5,0.1-1.3,0.2-1.8l1.9-8h-2.3l-1.5,5.9c-0.4,1.6-1.8,4.7-4.4,4.7c-0.6,0-1-0.4-1-1.1c0-0.5,0.2-1.3,0.4-1.9l1.9-7.5h-4.3
		l-0.1,0.6h2l-1.8,6.9c-0.1,0.5-0.3,1.3-0.3,1.9c0,1.4,0.8,2,2.1,2c2.4,0,3.8-1.2,4.8-2.6l0,0c0,0.3-0.1,0.7-0.1,1
		c0,1,0.8,1.6,1.8,1.6c2.5,0,3.5-2.5,3.9-3.5L91,148z M69,149c0-0.8,0.2-3.5,1.2-6.2c0.7-1.7,1.5-2.4,2.8-2.4c1.3,0,2,0.8,2,2.1
		c0,0.8-0.2,3.5-1.2,6.2c-0.7,1.7-1.5,2.4-2.8,2.4C69.7,151.2,69,150.4,69,149 M70.9,151.7c3.6,0,6.5-3.9,6.5-7.2
		c0-2.6-1.7-4.6-4.3-4.6c-3.6,0-6.5,3.9-6.5,7.2C66.6,149.7,68.3,151.7,70.9,151.7 M59,148c-0.2,0.4-1.3,2.8-2.4,2.8
		c-0.4,0-0.6-0.3-0.6-0.7c0-0.6,0.2-1.4,0.5-2.2l3.5-13.6c-0.9,0.1-1.7,0.2-2.8,0.2h-1.9l-0.1,0.6h2.3l-3.3,13
		c-0.1,0.6-0.4,1.4-0.4,2c0,1,0.8,1.6,1.8,1.6c2.5,0,3.5-2.5,3.9-3.5L59,148z M52.8,148c-0.2,0.4-1.3,2.8-2.4,2.8
		c-0.4,0-0.6-0.3-0.6-0.7c0-0.6,0.2-1.4,0.5-2.2l3.5-13.6c-0.9,0.1-1.7,0.2-2.8,0.2H49l-0.1,0.6h2.3l-3.3,13c-0.1,0.6-0.4,1.4-0.4,2
		c0,1,0.8,1.6,1.8,1.6c2.5,0,3.5-2.5,3.9-3.5L52.8,148z M36.9,149.1c0-0.9,0.6-4.1,1.7-6.9c0.5-1.3,1.3-1.8,2.3-1.8
		c1.2,0,2.1,0.8,2.1,2.4c0,1.4-1.6,8.3-4.6,8.3C37.3,151.2,36.9,150.2,36.9,149.1 M46.3,148.3c-0.4,0.7-1.4,2.4-2.2,2.4
		c-0.4,0-0.5-0.3-0.5-0.7c0-0.3,0.1-1,0.3-1.5l2.1-8.1h-2.1l-0.4,1.4c-0.2-0.5-0.8-1.8-2.7-1.8c-2.7,0-6.3,3.5-6.3,7.1
		c0,2.6,1.3,4.7,3.3,4.7s3-1.3,3.5-2.1h0c0,0.7,0.1,2.1,1.7,2.1c2,0,3.2-2.3,3.7-3.2L46.3,148.3z M14.8,151.3h2.3l1.5-5.9
		c0.4-1.6,1.8-4.7,4.4-4.7c0.6,0,1,0.3,1,0.8c0,0.5-0.2,1.1-0.4,1.8l-1.2,4.7c-0.2,0.6-0.4,1.4-0.4,2c0,1,0.8,1.6,1.8,1.6
		c2.5,0,3.5-2.5,3.9-3.5l-0.5-0.2c-0.2,0.4-1.3,2.8-2.4,2.8c-0.4,0-0.6-0.3-0.6-0.7c0-0.6,0.2-1.4,0.5-2.2l1.1-4.1
		c0.2-0.7,0.4-1.4,0.4-2.2c0-1.2-0.9-1.7-2.2-1.7c-2.4,0-3.9,1.3-4.9,2.6l0,0l0.6-2.4c-1,0.1-1.9,0.2-3.1,0.2h-1.2l-0.1,0.6h2.2
		L14.8,151.3z M5.8,151.3h6.8l0.1-0.6h-2.1l3.3-15.6h2.1l0.1-0.6H9.3l-0.1,0.6h2.1L8,150.7H5.9L5.8,151.3z"/>
	<path fill="#010101" d="M299.2,99.7c0.8,0,1.5-0.6,1.5-1.5c0-0.8-0.6-1.5-1.5-1.5c-0.8,0-1.5,0.6-1.5,1.5
		C297.7,99.1,298.3,99.7,299.2,99.7 M293.6,88.5c1,0,1.5,0.6,1.5,1.6c0,2.9-2.2,3.6-4.4,3.6c-0.2,0-0.7,0-1-0.1
		C290,92.4,291.1,88.5,293.6,88.5 M295.9,96.1c-0.6,0.8-2,3-4.4,3c-1.6,0-2.3-1.1-2.3-2.8c0-1,0.2-1.8,0.3-2.3
		c0.4,0,0.8,0.1,1.2,0.1c1.9,0,6.4-0.5,6.4-3.6c0-1.6-1.5-2.7-3.2-2.7c-3,0-7.1,3.1-7.1,7.1c0,2.4,1.8,4.7,4.5,4.7
		c2.8,0,4.4-2.4,5-3.3L295.9,96.1z M286,96c-0.2,0.4-1.3,2.8-2.4,2.8c-0.4,0-0.6-0.3-0.6-0.7c0-0.6,0.2-1.4,0.5-2.2l3.5-13.6
		c-0.9,0.1-1.7,0.2-2.8,0.2h-1.9l-0.1,0.6h2.3l-3.3,13c-0.1,0.6-0.4,1.4-0.4,2c0,1,0.8,1.6,1.8,1.6c2.5,0,3.5-2.5,3.9-3.5L286,96z
		 M273.6,91.9c-0.4-1.1-1.1-4-2.7-4c-1.8,0-2.8,2.8-3.1,3.5l0.4,0.2c0.3-0.6,0.9-2.2,1.7-2.2c0.5,0,1,1.8,1.3,2.4l1.6,4.7
		c0.2,0.5,0.6,1.4,0.6,2c0,1.1-3.1,5.3-5.3,5.3c-0.5,0-0.6-0.3-0.6-0.8c0-0.4-0.4-0.8-0.9-0.8c-0.6,0-1.1,0.4-1.1,1.1
		c0,0.9,0.9,1.4,1.7,1.4c4.3,0,7.1-6,8.4-9c0.9-2,2.4-6,3.1-6c0.2,0,0.4,0.3,0.9,0.3c0.6,0,1.1-0.4,1.1-1c0-0.6-0.4-1-1.1-1
		c-1.2,0-1.8,1.3-2.4,2.6c-0.8,1.8-1.9,4.3-2.3,5.2L273.6,91.9z M266.8,96c-0.2,0.4-1.3,2.8-2.4,2.8c-0.6,0-0.9-0.1-0.9-0.7
		c0-0.4,0.1-1,0.3-1.8l2-7.4h2.2l0.1-0.6H266l0.8-2.8c-0.9,0.1-1.8,0.1-2.3,0.1l-0.7,2.7h-1.8l-0.1,0.6h1.8l-1.9,7.2
		c-0.2,0.6-0.4,1.3-0.4,1.8c0,1.4,0.9,1.8,2,1.8c2.5,0,3.5-2.5,3.9-3.5L266.8,96z M255.1,99.7c2.4,0,4.4-1.4,4.4-3.6
		c0-1.7-0.9-2.5-1.9-3.2c-1.2-0.9-2.8-1.8-2.8-2.8c0-1.2,1.4-1.6,2.3-1.6c0.6,0,1.4,0.1,1.4,0.5c0,0.3-0.4,0.6-0.4,1
		c0,0.5,0.4,1,1,1c0.7,0,1.1-0.5,1.1-1.1c0-1.3-1.5-1.9-3.1-1.9c-2.1,0-4,1.5-4,3.3c0,1.8,1.6,2.7,3,3.7c0.9,0.6,1.7,1.3,1.7,2.3
		c0,1.3-1.3,2-2.6,2c-0.9,0-2.3-0.2-2.3-0.9c0-0.3,0.4-0.6,0.4-1.1c0-0.6-0.5-0.9-0.9-0.9c-0.7,0-1.1,0.5-1.1,1.1
		C251.3,98.7,252.7,99.7,255.1,99.7 M245.3,88.9l0.1-0.6h-2.4c0.2-1,0.9-5.7,3.6-5.7c0.5,0,0.9,0.1,0.9,0.4c0,0.3-0.5,0.6-0.5,1.1
		c0,0.7,0.4,1.1,1.2,1.1c0.7,0,1.1-0.6,1.1-1.2c0-1-1.1-1.9-2.7-1.9c-3.9,0-5.5,5.1-5.9,6.3h-2.4l-0.1,0.6h2.4
		c-1,3.8-1.1,6.6-2.3,11.4c-0.2,0.7-1.1,3.8-2.9,3.8c-0.3,0-0.4-0.2-0.4-0.5c0-0.2,0.1-0.4,0.1-0.6c0-0.6-0.4-1-1.1-1
		c-0.7,0-1.2,0.4-1.2,1.2c0,1.1,0.9,1.5,2,1.5c2.8,0,4.6-3.5,5-4.4c1.8-3.8,2.7-9.9,3-11.4H245.3z M228.7,97c0-0.8,0.2-3.5,1.2-6.2
		c0.7-1.7,1.5-2.4,2.8-2.4c1.3,0,2,0.8,2,2.1c0,0.8-0.2,3.5-1.2,6.2c-0.7,1.7-1.5,2.4-2.8,2.4C229.4,99.2,228.7,98.4,228.7,97
		 M230.6,99.7c3.6,0,6.5-3.9,6.5-7.2c0-2.6-1.7-4.6-4.3-4.6c-3.6,0-6.5,3.9-6.5,7.2C226.3,97.7,228,99.7,230.6,99.7 M206.4,99.3h2.3
		l1.5-5.9c0.4-1.6,1.8-4.7,4.4-4.7c0.6,0,1,0.3,1,0.8c0,0.5-0.2,1.1-0.4,1.8l-1.2,4.7c-0.2,0.6-0.4,1.4-0.4,2c0,1,0.8,1.6,1.8,1.6
		c2.5,0,3.5-2.5,3.9-3.5l-0.5-0.2c-0.2,0.4-1.3,2.8-2.4,2.8c-0.4,0-0.6-0.3-0.6-0.7c0-0.6,0.2-1.4,0.5-2.2l1.1-4.1
		c0.2-0.7,0.4-1.4,0.4-2.2c0-1.2-0.9-1.7-2.2-1.7c-2.4,0-3.9,1.3-4.9,2.6l0,0l0.6-2.4c-1,0.1-1.9,0.2-3.1,0.2h-1.2l-0.1,0.6h2.2
		L206.4,99.3z M197.2,97c0-0.8,0.2-3.5,1.2-6.2c0.7-1.7,1.5-2.4,2.8-2.4c1.3,0,2,0.8,2,2.1c0,0.8-0.2,3.5-1.2,6.2
		c-0.7,1.7-1.5,2.4-2.8,2.4C197.9,99.2,197.2,98.4,197.2,97 M199.1,99.7c3.6,0,6.5-3.9,6.5-7.2c0-2.6-1.7-4.6-4.3-4.6
		c-3.6,0-6.5,3.9-6.5,7.2C194.8,97.7,196.5,99.7,199.1,99.7 M192.7,85.5c0.8,0,1.4-0.6,1.4-1.4c0-0.8-0.6-1.4-1.4-1.4
		c-0.8,0-1.4,0.6-1.4,1.4C191.3,84.9,191.9,85.5,192.7,85.5 M193.7,96c-0.2,0.4-1.3,2.8-2.4,2.8c-0.4,0-0.6-0.3-0.6-0.7
		c0-0.6,0.2-1.4,0.5-2.2l2-7.8c-0.9,0.1-1.7,0.2-2.8,0.2h-1.6l-0.1,0.6h2.1l-1.9,7.2c-0.1,0.6-0.4,1.4-0.4,2c0,1,0.8,1.6,1.8,1.6
		c2.5,0,3.5-2.5,3.9-3.5L193.7,96z M186.6,96c-0.2,0.4-1.3,2.8-2.4,2.8c-0.6,0-0.9-0.1-0.9-0.7c0-0.4,0.1-1,0.3-1.8l2-7.4h2.2
		l0.1-0.6h-2.2l0.8-2.8c-0.9,0.1-1.8,0.1-2.3,0.1l-0.7,2.7h-1.8l-0.1,0.6h1.8l-1.9,7.2c-0.2,0.6-0.4,1.3-0.4,1.8
		c0,1.4,0.9,1.8,2,1.8c2.5,0,3.5-2.5,3.9-3.5L186.6,96z M170.5,97.1c0-0.9,0.6-4.1,1.7-6.9c0.5-1.3,1.3-1.8,2.3-1.8
		c1.2,0,2.1,0.8,2.1,2.4c0,1.4-1.6,8.3-4.6,8.3C170.8,99.2,170.5,98.2,170.5,97.1 M179.8,96.3c-0.4,0.7-1.4,2.4-2.2,2.4
		c-0.4,0-0.5-0.3-0.5-0.7c0-0.3,0.1-1,0.3-1.5l2.1-8.1h-2.1l-0.4,1.4c-0.2-0.5-0.8-1.8-2.7-1.8c-2.7,0-6.3,3.5-6.3,7.1
		c0,2.6,1.3,4.7,3.3,4.7c2,0,3-1.3,3.5-2.1h0c0,0.7,0.1,2.1,1.7,2.1c2,0,3.2-2.3,3.7-3.2L179.8,96.3z M166.7,96.3
		c-0.6,0.8-2.1,2.8-4.4,2.8c-1.4,0-2.3-0.9-2.3-3.2c0-0.5,0.3-2.7,1.4-5.1c0.8-1.8,1.9-2.4,3.2-2.4c0.8,0,1.7,0.3,1.7,0.7
		c0,0.4-0.6,0.6-0.6,1.2c0,0.7,0.4,1.1,1.1,1.1c0.8,0,1.2-0.6,1.2-1.3c0-1.1-1.4-2.3-3.2-2.3c-4,0-7.1,3.8-7.1,6.7
		c0,3,1.8,5.1,4.5,5.1c2.8,0,4.4-2.2,5-3.2L166.7,96.3z M155.5,85.5c0.8,0,1.4-0.6,1.4-1.4c0-0.8-0.6-1.4-1.4-1.4
		c-0.8,0-1.4,0.6-1.4,1.4C154.1,84.9,154.7,85.5,155.5,85.5 M156.5,96c-0.2,0.4-1.3,2.8-2.4,2.8c-0.4,0-0.6-0.3-0.6-0.7
		c0-0.6,0.2-1.4,0.5-2.2l2-7.8c-0.9,0.1-1.7,0.2-2.8,0.2h-1.6l-0.1,0.6h2.1l-1.9,7.2c-0.1,0.6-0.4,1.4-0.4,2c0,1,0.8,1.6,1.8,1.6
		c2.5,0,3.5-2.5,3.9-3.5L156.5,96z M150,96c-0.2,0.4-1.3,2.8-2.4,2.8c-0.4,0-0.6-0.3-0.6-0.7c0-0.6,0.2-1.4,0.5-2.2l3.5-13.6
		c-0.9,0.1-1.7,0.2-2.8,0.2h-1.9l-0.1,0.6h2.3l-3.3,13c-0.1,0.6-0.4,1.4-0.4,2c0,1,0.8,1.6,1.8,1.6c2.5,0,3.5-2.5,3.9-3.5L150,96z
		 M135.4,96.5c0-2.1,1.2-8,4.7-8c1.1,0,1.6,0.8,1.6,1.9c0,1.1-0.9,8.7-3.8,8.7C136.6,99.2,135.4,98.1,135.4,96.5 M129,104.2h6.7
		l0.1-0.6h-2.3l1.4-5.7c0.2,0.4,0.9,1.8,2.9,1.8c3.4,0,6.3-4.2,6.3-7.3c0-2.6-1.7-4.5-4-4.5c-1.8,0-2.9,1.2-3.4,1.8l0,0l0.4-1.5
		c-1,0.1-1.9,0.2-2.8,0.2h-1.6l-0.1,0.6h2.3l-3.6,14.7h-2.1L129,104.2z M123,96.5c0-2.1,1.2-8,4.7-8c1.1,0,1.6,0.8,1.6,1.9
		c0,1.1-0.9,8.7-3.8,8.7C124.2,99.2,123,98.1,123,96.5 M116.6,104.2h6.7l0.1-0.6h-2.3l1.4-5.7c0.2,0.4,0.9,1.8,2.9,1.8
		c3.4,0,6.3-4.2,6.3-7.3c0-2.6-1.7-4.5-4-4.5c-1.8,0-2.9,1.2-3.4,1.8l0,0l0.4-1.5c-1,0.1-1.9,0.2-2.8,0.2h-1.6l-0.1,0.6h2.3
		l-3.6,14.7h-2.1L116.6,104.2z M109.3,97.1c0-0.9,0.6-4.1,1.7-6.9c0.5-1.3,1.3-1.8,2.3-1.8c1.2,0,2.1,0.8,2.1,2.4
		c0,1.4-1.6,8.3-4.6,8.3C109.7,99.2,109.3,98.2,109.3,97.1 M118.7,96.3c-0.4,0.7-1.4,2.4-2.2,2.4c-0.4,0-0.5-0.3-0.5-0.7
		c0-0.3,0.1-1,0.3-1.5l2.1-8.1h-2.1l-0.4,1.4c-0.2-0.5-0.8-1.8-2.7-1.8c-2.7,0-6.3,3.5-6.3,7.1c0,2.6,1.3,4.7,3.3,4.7s3-1.3,3.5-2.1
		h0c0,0.7,0.1,2.1,1.7,2.1c2,0,3.2-2.3,3.7-3.2L118.7,96.3z M93.3,91.9c-0.4-1.1-1.1-4-2.7-4c-1.8,0-2.8,2.8-3.1,3.5l0.4,0.2
		c0.3-0.6,0.9-2.2,1.7-2.2c0.5,0,1,1.8,1.3,2.4l1.6,4.7c0.2,0.5,0.6,1.4,0.6,2c0,1.1-3.1,5.3-5.3,5.3c-0.5,0-0.6-0.3-0.6-0.8
		c0-0.4-0.4-0.8-0.9-0.8c-0.6,0-1.1,0.4-1.1,1.1c0,0.9,0.9,1.4,1.7,1.4c4.3,0,7.1-6,8.4-9c0.9-2,2.4-6,3.1-6c0.2,0,0.4,0.3,0.9,0.3
		c0.6,0,1.1-0.4,1.1-1c0-0.6-0.4-1-1.1-1c-1.2,0-1.8,1.3-2.4,2.6c-0.8,1.8-1.9,4.3-2.3,5.2L93.3,91.9z M78.9,99.3h2.3l1.2-5
		c0.4-1.8,2.2-5,3.3-5c0.6,0,0.5,1.1,1.3,1.1c0.8,0,1.3-0.4,1.3-1.1c0-0.8-0.5-1.3-1.3-1.3c-2.2,0-3.6,2.7-4.1,3.5l0,0l0.8-3.2
		c-0.8,0.1-1.6,0.2-2.6,0.2h-1.9l-0.1,0.6h2.3L78.9,99.3z M68.1,97.1c0-0.9,0.6-4.1,1.7-6.9c0.5-1.3,1.3-1.8,2.3-1.8
		c1.2,0,2.1,0.8,2.1,2.4c0,1.4-1.6,8.3-4.6,8.3C68.5,99.2,68.1,98.2,68.1,97.1 M77.5,96.3c-0.4,0.7-1.4,2.4-2.2,2.4
		c-0.4,0-0.5-0.3-0.5-0.7c0-0.3,0.1-1,0.3-1.5l2.1-8.1h-2.1l-0.4,1.4c-0.2-0.5-0.8-1.8-2.7-1.8c-2.7,0-6.3,3.5-6.3,7.1
		c0,2.6,1.3,4.7,3.3,4.7s3-1.3,3.5-2.1h0c0,0.7,0.1,2.1,1.7,2.1c2,0,3.2-2.3,3.7-3.2L77.5,96.3z M57.2,99.3h2.3l1.2-5
		c0.4-1.8,2.2-5,3.3-5c0.6,0,0.5,1.1,1.3,1.1c0.8,0,1.3-0.4,1.3-1.1c0-0.8-0.5-1.3-1.3-1.3c-2.2,0-3.6,2.7-4.1,3.5l0,0l0.8-3.2
		c-0.8,0.1-1.6,0.2-2.6,0.2h-1.9l-0.1,0.6h2.3L57.2,99.3z M55.5,96c-0.2,0.4-1.3,2.8-2.4,2.8c-0.6,0-0.9-0.1-0.9-0.7
		c0-0.4,0.1-1,0.3-1.8l2-7.4h2.2l0.1-0.6h-2.2l0.8-2.8c-0.9,0.1-1.8,0.1-2.3,0.1l-0.7,2.7h-1.8l-0.1,0.6h1.8l-1.9,7.2
		c-0.2,0.6-0.4,1.3-0.4,1.8c0,1.4,0.9,1.8,2,1.8c2.5,0,3.5-2.5,3.9-3.5L55.5,96z M47.9,85.5c0.8,0,1.4-0.6,1.4-1.4
		c0-0.8-0.6-1.4-1.4-1.4s-1.4,0.6-1.4,1.4C46.5,84.9,47.1,85.5,47.9,85.5 M48.9,96c-0.2,0.4-1.3,2.8-2.4,2.8c-0.4,0-0.6-0.3-0.6-0.7
		c0-0.6,0.2-1.4,0.5-2.2l2-7.8c-0.9,0.1-1.7,0.2-2.8,0.2H44l-0.1,0.6h2.1L44,96.1c-0.1,0.6-0.4,1.4-0.4,2c0,1,0.8,1.6,1.8,1.6
		c2.5,0,3.5-2.5,3.9-3.5L48.9,96z M33.4,97c0-0.9,0.5-4.9,1.9-6.9c0.4-0.6,1.5-1.6,2.7-1.6c1,0,1.6,0.8,1.6,2.1c0,0.8,0,2.6-1.2,6.2
		c-0.7,1.7-1.5,2.4-2.8,2.4C34.3,99.2,33.4,98.5,33.4,97 M36.7,82.3c-1,0.1-2,0.2-3.3,0.2h-1.2l-0.1,0.6h2.1l-2.5,10.6
		c-0.1,0.6-0.5,2-0.5,2.9c0,1.7,1.5,3.2,3.8,3.2c4,0,7.1-4.1,7.1-7.2c0-2.7-1.4-4.6-3.6-4.6c-1.9,0-3,1.3-3.6,2l0,0L36.7,82.3z
		 M21.8,99.3h2.3l1.2-5c0.4-1.8,2.2-5,3.3-5c0.6,0,0.5,1.1,1.3,1.1c0.8,0,1.3-0.4,1.3-1.1c0-0.8-0.5-1.3-1.3-1.3
		c-2.2,0-3.6,2.7-4.1,3.5l0,0l0.8-3.2c-0.8,0.1-1.6,0.2-2.6,0.2h-1.9L22,88.9h2.3L21.8,99.3z M11.1,97.1c0-0.9,0.6-4.1,1.7-6.9
		c0.5-1.3,1.3-1.8,2.3-1.8c1.2,0,2.1,0.8,2.1,2.4c0,1.4-1.6,8.3-4.6,8.3C11.4,99.2,11.1,98.2,11.1,97.1 M20.4,96.3
		c-0.4,0.7-1.4,2.4-2.2,2.4c-0.4,0-0.5-0.3-0.5-0.7c0-0.3,0.1-1,0.3-1.5l2.1-8.1H18l-0.4,1.4c-0.2-0.5-0.8-1.8-2.7-1.8
		c-2.7,0-6.3,3.5-6.3,7.1c0,2.6,1.3,4.7,3.3,4.7s3-1.3,3.5-2.1h0c0,0.7,0.1,2.1,1.7,2.1c2,0,3.2-2.3,3.7-3.2L20.4,96.3z"/>
	<path fill="#010101" d="M266.1,73.3h2.3l1.5-5.9c0.4-1.6,1.8-4.7,4.4-4.7c0.6,0,1,0.3,1,0.8c0,0.5-0.2,1.1-0.4,1.8l-1.2,4.7
		c-0.2,0.6-0.4,1.4-0.4,2c0,1,0.8,1.6,1.8,1.6c2.5,0,3.5-2.5,3.9-3.5l-0.5-0.2c-0.2,0.4-1.3,2.8-2.4,2.8c-0.4,0-0.6-0.3-0.6-0.7
		c0-0.6,0.2-1.4,0.5-2.2l1.1-4.1c0.2-0.7,0.4-1.4,0.4-2.2c0-1.2-0.9-1.7-2.2-1.7c-2.4,0-3.9,1.3-4.9,2.6l0,0l0.6-2.4
		c-1,0.1-1.9,0.2-3.1,0.2h-1.2l-0.1,0.6h2.2L266.1,73.3z M255.9,71.1c0-0.9,0.6-4.1,1.7-6.9c0.5-1.3,1.3-1.8,2.3-1.8
		c1.2,0,2.1,0.8,2.1,2.4c0,1.4-1.6,8.3-4.6,8.3C256.2,73.2,255.9,72.2,255.9,71.1 M265.2,70.3c-0.4,0.7-1.4,2.4-2.2,2.4
		c-0.4,0-0.5-0.3-0.5-0.7c0-0.3,0.1-1,0.3-1.5l2.1-8.1h-2.1l-0.4,1.4c-0.2-0.5-0.8-1.8-2.7-1.8c-2.7,0-6.3,3.5-6.3,7.1
		c0,2.6,1.3,4.7,3.3,4.7s3-1.3,3.5-2.1h0c0,0.7,0.1,2.1,1.7,2.1c2,0,3.2-2.3,3.7-3.2L265.2,70.3z M245.5,70
		c-0.2,0.4-1.3,2.8-2.4,2.8c-0.6,0-0.9-0.1-0.9-0.7c0-0.4,0.1-1,0.3-1.8l2-7.4h2.2l0.1-0.6h-2.2l0.8-2.8c-0.9,0.1-1.8,0.1-2.3,0.1
		l-0.7,2.7h-1.8l-0.1,0.6h1.8l-1.9,7.2c-0.2,0.6-0.4,1.3-0.4,1.8c0,1.4,0.9,1.8,2,1.8c2.5,0,3.5-2.5,3.9-3.5L245.5,70z M233.7,73.7
		c2.4,0,4.4-1.4,4.4-3.6c0-1.7-0.9-2.5-1.9-3.2c-1.2-0.9-2.8-1.8-2.8-2.8c0-1.2,1.4-1.6,2.3-1.6c0.6,0,1.4,0.1,1.4,0.5
		c0,0.3-0.4,0.6-0.4,1c0,0.5,0.4,1,1,1c0.7,0,1.1-0.5,1.1-1.1c0-1.3-1.5-1.9-3.1-1.9c-2.1,0-4,1.5-4,3.3c0,1.8,1.6,2.7,3,3.7
		c0.9,0.6,1.7,1.3,1.7,2.3c0,1.3-1.3,2-2.6,2c-0.9,0-2.3-0.2-2.3-0.9c0-0.3,0.4-0.6,0.4-1.1c0-0.6-0.5-0.9-0.9-0.9
		c-0.7,0-1.1,0.5-1.1,1.1C230,72.7,231.4,73.7,233.7,73.7 M229.8,70c-0.2,0.4-1.3,2.8-2.4,2.8c-0.4,0-0.6-0.3-0.6-0.7
		c0-0.5,0.1-1.3,0.2-1.8l1.9-8h-2.3l-1.5,5.9c-0.4,1.6-1.8,4.7-4.4,4.7c-0.6,0-1-0.4-1-1.1c0-0.5,0.2-1.3,0.4-1.9l1.9-7.5h-4.3
		l-0.1,0.6h2l-1.8,6.9c-0.1,0.5-0.3,1.3-0.3,1.9c0,1.4,0.8,2,2.1,2c2.4,0,3.8-1.2,4.8-2.6l0,0c0,0.3-0.1,0.7-0.1,1
		c0,1,0.8,1.6,1.8,1.6c2.5,0,3.5-2.5,3.9-3.5L229.8,70z M215.8,59.5c0.8,0,1.4-0.6,1.4-1.4s-0.6-1.4-1.4-1.4c-0.8,0-1.4,0.6-1.4,1.4
		S215.1,59.5,215.8,59.5 M216.4,62.2c-0.9,0.1-1.7,0.2-2.8,0.2h-2.1l-0.1,0.6h2.5l-3,11.6c-0.2,0.7-0.8,3.6-1.7,3.6
		c-0.3,0-0.4-0.2-0.4-0.4c0-0.2,0.1-0.3,0.1-0.7c0-0.6-0.6-1-1-1c-0.8,0-1.2,0.5-1.2,1.2c0,0.9,0.9,1.5,1.8,1.5c3.6,0,4.8-4.8,5.2-6
		L216.4,62.2z M203,70c-0.2,0.4-1.3,2.8-2.4,2.8c-0.6,0-0.9-0.1-0.9-0.7c0-0.4,0.1-1,0.3-1.8l2-7.4h2.2l0.1-0.6h-2.2l0.8-2.8
		c-0.9,0.1-1.8,0.1-2.3,0.1l-0.7,2.7h-1.8l-0.1,0.6h1.8l-1.9,7.2c-0.2,0.6-0.4,1.3-0.4,1.8c0,1.4,0.9,1.8,2,1.8
		c2.5,0,3.5-2.5,3.9-3.5L203,70z M187.9,71c0-0.8,0.2-3.5,1.2-6.2c0.7-1.7,1.5-2.4,2.8-2.4c1.3,0,2,0.8,2,2.1c0,0.8-0.2,3.5-1.2,6.2
		c-0.7,1.7-1.5,2.4-2.8,2.4C188.6,73.2,187.9,72.4,187.9,71 M189.8,73.7c3.6,0,6.5-3.9,6.5-7.2c0-2.6-1.7-4.6-4.3-4.6
		c-3.6,0-6.5,3.9-6.5,7.2C185.5,71.7,187.2,73.7,189.8,73.7 M172.2,73.3h2.3l1.5-5.9c0.4-1.6,1.8-4.7,4.4-4.7c0.6,0,1,0.3,1,0.8
		c0,0.5-0.2,1.1-0.4,1.8l-1.2,4.7c-0.2,0.6-0.4,1.4-0.4,2c0,1,0.8,1.6,1.8,1.6c2.5,0,3.5-2.5,3.9-3.5l-0.5-0.2
		c-0.2,0.4-1.3,2.8-2.4,2.8c-0.4,0-0.6-0.3-0.6-0.7c0-0.6,0.2-1.4,0.5-2.2l1.1-4.1c0.2-0.7,0.4-1.4,0.4-2.2c0-1.2-0.9-1.7-2.2-1.7
		c-2.4,0-3.9,1.3-4.9,2.6l0,0l0.6-2.4c-1,0.1-1.9,0.2-3.1,0.2h-1.2l-0.1,0.6h2.2L172.2,73.3z M159.8,77.1c0.4-0.2,1.3-0.6,2.2-1.4
		c0.6-0.5,1.5-1.6,1.5-2.8c0-1.1-0.7-2.2-2-2.2c-0.7,0-1.6,0.6-1.6,1.5c0,0.5,0.3,1.2,1.3,1.2c0.5,0,0.7-0.2,0.8-0.4
		c0.1-0.2,0.2-0.4,0.4-0.4c0.3,0,0.4,0.3,0.4,0.6c0,0.5-0.4,1.4-1.2,2c-0.8,0.6-1.6,1.2-2.1,1.4L159.8,77.1z M153.2,73.7
		c2.4,0,4.4-1.4,4.4-3.6c0-1.7-0.9-2.5-1.9-3.2c-1.2-0.9-2.8-1.8-2.8-2.8c0-1.2,1.4-1.6,2.3-1.6c0.6,0,1.4,0.1,1.4,0.5
		c0,0.3-0.4,0.6-0.4,1c0,0.5,0.4,1,1,1c0.7,0,1.1-0.5,1.1-1.1c0-1.3-1.5-1.9-3.1-1.9c-2.1,0-4,1.5-4,3.3c0,1.8,1.6,2.7,3,3.7
		c0.9,0.6,1.7,1.3,1.7,2.3c0,1.3-1.3,2-2.6,2c-0.9,0-2.3-0.2-2.3-0.9c0-0.3,0.4-0.6,0.4-1.1c0-0.6-0.5-0.9-0.9-0.9
		c-0.7,0-1.1,0.5-1.1,1.1C149.4,72.7,150.9,73.7,153.2,73.7 M143.9,73.7c2.4,0,4.4-1.4,4.4-3.6c0-1.7-0.9-2.5-1.9-3.2
		c-1.2-0.9-2.8-1.8-2.8-2.8c0-1.2,1.4-1.6,2.3-1.6c0.6,0,1.4,0.1,1.4,0.5c0,0.3-0.4,0.6-0.4,1c0,0.5,0.4,1,1,1
		c0.7,0,1.1-0.5,1.1-1.1c0-1.3-1.5-1.9-3.1-1.9c-2.1,0-4,1.5-4,3.3c0,1.8,1.6,2.7,3,3.7c0.9,0.6,1.7,1.3,1.7,2.3c0,1.3-1.3,2-2.6,2
		c-0.9,0-2.3-0.2-2.3-0.9c0-0.3,0.4-0.6,0.4-1.1c0-0.6-0.5-0.9-0.9-0.9c-0.7,0-1.1,0.5-1.1,1.1C140.1,72.7,141.6,73.7,143.9,73.7
		 M136.4,62.5c1,0,1.5,0.6,1.5,1.6c0,2.9-2.2,3.6-4.4,3.6c-0.2,0-0.7,0-1-0.1C132.8,66.4,133.9,62.5,136.4,62.5 M138.7,70.1
		c-0.6,0.8-2,3-4.4,3c-1.6,0-2.3-1.1-2.3-2.8c0-1,0.2-1.8,0.3-2.3c0.4,0,0.8,0.1,1.2,0.1c1.9,0,6.4-0.5,6.4-3.6
		c0-1.6-1.5-2.7-3.2-2.7c-3,0-7.1,3.1-7.1,7.1c0,2.4,1.8,4.7,4.5,4.7c2.8,0,4.4-2.4,5-3.3L138.7,70.1z M128.1,70.3
		c-0.6,0.8-2.1,2.8-4.4,2.8c-1.4,0-2.3-0.9-2.3-3.2c0-0.5,0.3-2.7,1.4-5.1c0.8-1.8,1.9-2.4,3.2-2.4c0.8,0,1.7,0.3,1.7,0.7
		c0,0.4-0.6,0.6-0.6,1.2c0,0.7,0.4,1.1,1.1,1.1c0.8,0,1.2-0.6,1.2-1.3c0-1.1-1.4-2.3-3.2-2.3c-4,0-7.1,3.8-7.1,6.7
		c0,3,1.8,5.1,4.5,5.1c2.8,0,4.4-2.2,5-3.2L128.1,70.3z M109.5,71c0-0.8,0.2-3.5,1.2-6.2c0.7-1.7,1.5-2.4,2.8-2.4c1.3,0,2,0.8,2,2.1
		c0,0.8-0.2,3.5-1.2,6.2c-0.7,1.7-1.5,2.4-2.8,2.4C110.2,73.2,109.5,72.4,109.5,71 M111.4,73.7c3.6,0,6.5-3.9,6.5-7.2
		c0-2.6-1.7-4.6-4.3-4.6c-3.6,0-6.5,3.9-6.5,7.2C107.1,71.7,108.8,73.7,111.4,73.7 M98.4,73.3h2.3l1.2-5c0.4-1.8,2.2-5,3.3-5
		c0.6,0,0.5,1.1,1.3,1.1c0.8,0,1.3-0.4,1.3-1.1c0-0.8-0.5-1.3-1.3-1.3c-2.2,0-3.6,2.7-4.1,3.5l0,0l0.8-3.2c-0.8,0.1-1.6,0.2-2.6,0.2
		h-1.9l-0.1,0.6h2.3L98.4,73.3z M88.9,70.5c0-2.1,1.2-8,4.7-8c1.1,0,1.6,0.8,1.6,1.9c0,1.1-0.9,8.7-3.8,8.7
		C90.1,73.2,88.9,72.1,88.9,70.5 M82.5,78.2h6.7l0.1-0.6H87l1.4-5.7c0.2,0.4,0.9,1.8,2.9,1.8c3.4,0,6.3-4.2,6.3-7.3
		c0-2.6-1.7-4.5-4-4.5c-1.8,0-2.9,1.2-3.4,1.8l0,0l0.4-1.5c-1,0.1-1.9,0.2-2.8,0.2h-1.6l-0.1,0.6h2.3l-3.6,14.7h-2.1L82.5,78.2z
		 M73,72.8c1.4,0.1,3.1,0,3.1,1.6c0,2.1-2.2,3.7-5,3.7c-1.9,0-3.6-0.9-3.6-2.7c0-1.7,1.6-2.4,2.3-2.8L73,72.8z M70.7,66.9
		c0-1.2,0.5-4.4,2.4-4.4c1,0,1.8,0.4,1.8,1.6c0,1.4-0.6,4.4-2.6,4.4C71.5,68.5,70.7,68,70.7,66.9 M71.5,70.7c-1.3-0.1-3-0.1-3-1.2
		c0-0.7,0.8-1.1,1.3-1.3c0.5,0.3,1.1,0.9,2.8,0.9c2,0,3.6-1.1,4.3-3.3c0.2-0.8,0.4-3,1-3c0.5,0,0.4,0.5,0.9,0.5
		c0.5,0,0.8-0.3,0.8-0.8c0-0.6-0.5-0.8-1-0.8c-1.5,0-1.7,1.7-1.8,2.4h0c-0.3-0.9-1.2-2.1-3.4-2.1c-2.6,0-4.6,1.7-4.6,3.7
		c0,1.2,0.4,1.8,0.8,2.2c-0.7,0.4-2.1,1-2.1,2.6c0,1.3,1.1,1.7,1.8,2c-0.7,0.3-3.1,1-3.1,2.9c0,2.1,2.1,3.3,4.7,3.3
		c3.5,0,6.2-2,6.2-5.1c0-2.6-1.8-2.6-3.1-2.7L71.5,70.7z M53.6,73.3h2.3l1.5-5.9c0.4-1.6,1.8-4.7,4.4-4.7c0.6,0,1,0.3,1,0.8
		c0,0.5-0.2,1.1-0.4,1.8l-1.2,4.7c-0.2,0.6-0.4,1.4-0.4,2c0,1,0.8,1.6,1.8,1.6c2.5,0,3.5-2.5,3.9-3.5L66.1,70
		c-0.2,0.4-1.3,2.8-2.4,2.8c-0.4,0-0.6-0.3-0.6-0.7c0-0.6,0.2-1.4,0.5-2.2l1.1-4.1c0.2-0.7,0.4-1.4,0.4-2.2c0-1.2-0.9-1.7-2.2-1.7
		c-2.4,0-3.9,1.3-4.9,2.6l0,0l0.6-2.4c-1,0.1-1.9,0.2-3.1,0.2h-1.2L54,62.9h2.2L53.6,73.3z M51.8,59.5c0.8,0,1.4-0.6,1.4-1.4
		s-0.6-1.4-1.4-1.4c-0.8,0-1.4,0.6-1.4,1.4S51.1,59.5,51.8,59.5 M52.9,70c-0.2,0.4-1.3,2.8-2.4,2.8c-0.4,0-0.6-0.3-0.6-0.7
		c0-0.6,0.2-1.4,0.5-2.2l2-7.8c-0.9,0.1-1.7,0.2-2.8,0.2h-1.6l-0.1,0.6h2.1L48,70.1c-0.1,0.6-0.4,1.4-0.4,2c0,1,0.8,1.6,1.8,1.6
		c2.5,0,3.5-2.5,3.9-3.5L52.9,70z M40.5,66c0.2-0.8,0.6-1.9,0.6-2.5c0-0.9-0.6-1.5-1.7-1.5c-2.1,0-3.3,2.4-3.9,3.3l0.4,0.3
		c0.3-0.4,1.7-2.7,2.5-2.7c0.3,0,0.5,0.1,0.5,0.6c0,0.4-0.2,1.2-0.4,1.7l-1.2,4.1c-0.1,0.5-0.5,1.6-0.5,2.1c0,1.3,1,2.4,2.8,2.4
		c4.3,0,7-6.8,7-9.9c0-0.9-0.4-1.9-1.5-1.9c-0.5,0-1,0.4-1,1.1c0,0.6,0.2,0.8,0.6,1c0.5,0.2,1.2,0.1,1.2,1c0,2.4-2.8,7.9-5.5,7.9
		c-0.8,0-1.3-0.2-1.3-1.1c0-0.6,0.2-1.5,0.4-2.1L40.5,66z M34.9,70c-0.2,0.4-1.3,2.8-2.4,2.8c-0.4,0-0.6-0.3-0.6-0.7
		c0-0.6,0.2-1.4,0.5-2.2l3.5-13.6c-0.9,0.1-1.7,0.2-2.8,0.2h-1.9L31,57.1h2.3l-3.3,13c-0.1,0.6-0.4,1.4-0.4,2c0,1,0.8,1.6,1.8,1.6
		c2.5,0,3.5-2.5,3.9-3.5L34.9,70z M20.1,71c0-0.8,0.2-3.5,1.2-6.2c0.7-1.7,1.5-2.4,2.8-2.4c1.3,0,2,0.8,2,2.1c0,0.8-0.2,3.5-1.2,6.2
		c-0.7,1.7-1.5,2.4-2.8,2.4C20.8,73.2,20.1,72.4,20.1,71 M22,73.7c3.6,0,6.5-3.9,6.5-7.2c0-2.6-1.7-4.6-4.3-4.6
		c-3.6,0-6.5,3.9-6.5,7.2C17.7,71.7,19.4,73.7,22,73.7 M11.5,73.7c2.4,0,4.4-1.4,4.4-3.6c0-1.7-0.9-2.5-1.9-3.2
		c-1.2-0.9-2.8-1.8-2.8-2.8c0-1.2,1.4-1.6,2.3-1.6c0.6,0,1.4,0.1,1.4,0.5c0,0.3-0.4,0.6-0.4,1c0,0.5,0.4,1,1,1
		c0.7,0,1.1-0.5,1.1-1.1c0-1.3-1.5-1.9-3.1-1.9c-2.1,0-4,1.5-4,3.3c0,1.8,1.6,2.7,3,3.7c0.9,0.6,1.7,1.3,1.7,2.3c0,1.3-1.3,2-2.6,2
		c-0.9,0-2.3-0.2-2.3-0.9c0-0.3,0.4-0.6,0.4-1.1c0-0.6-0.5-0.9-0.9-0.9c-0.7,0-1.1,0.5-1.1,1.1C7.7,72.7,9.2,73.7,11.5,73.7"/>
	<path fill="#010101" d="M278.9,42.7h6l0.5-1.7h-6L278.9,42.7z M258.6,47.3h2.3l1.5-5.9c0.4-1.6,1.8-4.7,4.4-4.7c0.6,0,1,0.3,1,0.8
		c0,0.5-0.4,2.5-0.6,3.3l-1.6,6.4h2.3l1.6-6.4c0.4-1.5,2.3-4.1,4.3-4.1c0.6,0,1,0.3,1,0.8c0,0.5-0.2,1.1-0.4,1.8l-1.2,4.7
		c-0.2,0.6-0.4,1.4-0.4,2c0,1,0.8,1.6,1.8,1.6c2.5,0,3.5-2.5,3.9-3.5l-0.5-0.2c-0.2,0.4-1.3,2.8-2.4,2.8c-0.4,0-0.6-0.3-0.6-0.7
		c0-0.6,0.2-1.4,0.5-2.2l1.1-4.1c0.2-0.7,0.4-1.4,0.4-2.2c0-1.1-0.8-1.7-2.2-1.7c-2.4,0-4.1,1.7-4.9,2.6l0,0c0.1-0.2,0.2-0.7,0.2-1
		c0-1-0.8-1.6-2.2-1.6c-2.4,0-3.9,1.3-4.9,2.6l0,0l0.6-2.4c-1,0.1-1.9,0.2-3.1,0.2h-1.2l-0.1,0.6h2.2L258.6,47.3z M254.6,36.5
		c1,0,1.5,0.6,1.5,1.6c0,2.9-2.2,3.6-4.4,3.6c-0.2,0-0.7,0-1-0.1C251,40.4,252.1,36.5,254.6,36.5 M256.9,44.1c-0.6,0.8-2,3-4.4,3
		c-1.6,0-2.3-1.1-2.3-2.8c0-1,0.2-1.8,0.3-2.3c0.4,0,0.8,0.1,1.2,0.1c1.9,0,6.4-0.5,6.4-3.6c0-1.6-1.5-2.7-3.2-2.7
		c-3,0-7.1,3.1-7.1,7.1c0,2.4,1.8,4.7,4.5,4.7c2.8,0,4.4-2.4,5-3.3L256.9,44.1z M246.9,44c-0.2,0.4-1.3,2.8-2.4,2.8
		c-0.4,0-0.6-0.3-0.6-0.7c0-0.6,0.2-1.4,0.5-2.2l3.5-13.6c-0.9,0.1-1.7,0.2-2.8,0.2h-1.9l-0.1,0.6h2.3l-3.3,13
		c-0.1,0.6-0.4,1.4-0.4,2c0,1,0.8,1.6,1.8,1.6c2.5,0,3.5-2.5,3.9-3.5L246.9,44z M231.8,45c0-0.9,0.5-4.9,1.9-6.9
		c0.4-0.6,1.5-1.6,2.7-1.6c1,0,1.6,0.8,1.6,2.1c0,0.8,0,2.6-1.2,6.2c-0.7,1.7-1.5,2.4-2.8,2.4C232.6,47.2,231.8,46.5,231.8,45
		 M235,30.3c-1,0.1-2,0.2-3.3,0.2h-1.2l-0.1,0.6h2.1L230,41.6c-0.1,0.6-0.5,2-0.5,2.9c0,1.7,1.5,3.2,3.8,3.2c4,0,7.1-4.1,7.1-7.2
		c0-2.7-1.4-4.6-3.6-4.6c-1.9,0-3,1.3-3.6,2l0,0L235,30.3z M219.7,45c0-0.8,0.2-3.5,1.2-6.2c0.7-1.7,1.5-2.4,2.8-2.4
		c1.3,0,2,0.8,2,2.1c0,0.8-0.2,3.5-1.2,6.2c-0.7,1.7-1.5,2.4-2.8,2.4C220.4,47.2,219.7,46.4,219.7,45 M221.6,47.7
		c3.6,0,6.5-3.9,6.5-7.2c0-2.6-1.7-4.6-4.3-4.6c-3.6,0-6.5,3.9-6.5,7.2C217.3,45.7,219,47.7,221.6,47.7 M208.6,47.3h2.3l1.2-5
		c0.4-1.8,2.2-5,3.3-5c0.6,0,0.5,1.1,1.3,1.1c0.8,0,1.3-0.4,1.3-1.1c0-0.8-0.5-1.3-1.3-1.3c-2.2,0-3.6,2.7-4.1,3.5l0,0l0.8-3.2
		c-0.8,0.1-1.6,0.2-2.6,0.2h-1.9l-0.1,0.6h2.3L208.6,47.3z M199.1,44.5c0-2.1,1.2-8,4.7-8c1.1,0,1.6,0.8,1.6,1.9
		c0,1.1-0.9,8.7-3.8,8.7C200.3,47.2,199.1,46.1,199.1,44.5 M192.7,52.2h6.7l0.1-0.6h-2.3l1.4-5.7c0.2,0.4,0.9,1.8,2.9,1.8
		c3.4,0,6.3-4.2,6.3-7.3c0-2.6-1.7-4.5-4-4.5c-1.8,0-2.9,1.2-3.4,1.8l0,0l0.4-1.5c-1,0.1-1.9,0.2-2.8,0.2h-1.6l-0.1,0.6h2.3
		L195,51.7h-2.1L192.7,52.2z M188.5,44c-0.2,0.4-1.3,2.8-2.4,2.8c-0.4,0-0.6-0.3-0.6-0.7c0-0.6,0.2-1.4,0.5-2.2l3.5-13.6
		c-0.9,0.1-1.7,0.2-2.8,0.2h-1.9l-0.1,0.6h2.3l-3.3,13c-0.1,0.6-0.4,1.4-0.4,2c0,1,0.8,1.6,1.8,1.6c2.5,0,3.5-2.5,3.9-3.5L188.5,44z
		 M172.6,45.1c0-0.9,0.6-4.1,1.7-6.9c0.5-1.3,1.3-1.8,2.3-1.8c1.2,0,2.1,0.8,2.1,2.4c0,1.4-1.6,8.3-4.6,8.3
		C173,47.2,172.6,46.2,172.6,45.1 M182,44.3c-0.4,0.7-1.4,2.4-2.2,2.4c-0.4,0-0.5-0.3-0.5-0.7c0-0.3,0.1-1,0.3-1.5l2.1-8.1h-2.1
		l-0.4,1.4c-0.2-0.5-0.8-1.8-2.7-1.8c-2.7,0-6.3,3.5-6.3,7.1c0,2.6,1.3,4.7,3.3,4.7c2,0,3-1.3,3.5-2.1h0c0,0.7,0.1,2.1,1.7,2.1
		c2,0,3.2-2.3,3.7-3.2L182,44.3z M168.8,44.3c-0.6,0.8-2.1,2.8-4.4,2.8c-1.4,0-2.3-0.9-2.3-3.2c0-0.5,0.3-2.7,1.4-5.1
		c0.8-1.8,1.9-2.4,3.2-2.4c0.8,0,1.7,0.3,1.7,0.7c0,0.4-0.6,0.6-0.6,1.2c0,0.7,0.4,1.1,1.1,1.1c0.8,0,1.2-0.6,1.2-1.3
		c0-1.1-1.4-2.3-3.2-2.3c-4,0-7.1,3.8-7.1,6.7c0,3,1.8,5.1,4.5,5.1c2.8,0,4.4-2.2,5-3.2L168.8,44.3z M157.6,33.5
		c0.8,0,1.4-0.6,1.4-1.4s-0.6-1.4-1.4-1.4c-0.8,0-1.4,0.6-1.4,1.4S156.8,33.5,157.6,33.5 M158.7,44c-0.2,0.4-1.3,2.8-2.4,2.8
		c-0.4,0-0.6-0.3-0.6-0.7c0-0.6,0.2-1.4,0.5-2.2l2-7.8c-0.9,0.1-1.7,0.2-2.8,0.2h-1.6l-0.1,0.6h2.1l-1.9,7.2c-0.1,0.6-0.4,1.4-0.4,2
		c0,1,0.8,1.6,1.8,1.6c2.5,0,3.5-2.5,3.9-3.5L158.7,44z M146.9,46.8c1.4,0.1,3.1,0,3.1,1.6c0,2.1-2.2,3.7-5,3.7
		c-1.9,0-3.6-0.9-3.6-2.7c0-1.7,1.6-2.4,2.3-2.8L146.9,46.8z M144.6,40.9c0-1.2,0.5-4.4,2.4-4.4c1,0,1.8,0.4,1.8,1.6
		c0,1.4-0.6,4.4-2.6,4.4C145.4,42.5,144.6,42,144.6,40.9 M145.4,44.7c-1.3-0.1-3-0.1-3-1.2c0-0.7,0.8-1.1,1.3-1.3
		c0.5,0.3,1.1,0.9,2.8,0.9c2,0,3.6-1.1,4.3-3.3c0.2-0.8,0.4-3,1-3c0.5,0,0.4,0.5,0.9,0.5c0.5,0,0.8-0.3,0.8-0.8c0-0.6-0.5-0.8-1-0.8
		c-1.5,0-1.7,1.7-1.8,2.4h0c-0.3-0.9-1.2-2.1-3.4-2.1c-2.6,0-4.6,1.7-4.6,3.7c0,1.2,0.4,1.8,0.8,2.2c-0.7,0.4-2.1,1-2.1,2.6
		c0,1.3,1.1,1.7,1.8,2c-0.7,0.3-3.1,1-3.1,2.9c0,2.1,2.1,3.3,4.7,3.3c3.5,0,6.2-2,6.2-5.1c0-2.6-1.8-2.6-3.1-2.7L145.4,44.7z
		 M131.1,45c0-0.8,0.2-3.5,1.2-6.2c0.7-1.7,1.5-2.4,2.8-2.4c1.3,0,2,0.8,2,2.1c0,0.8-0.2,3.5-1.2,6.2c-0.7,1.7-1.5,2.4-2.8,2.4
		C131.9,47.2,131.1,46.4,131.1,45 M133.1,47.7c3.6,0,6.5-3.9,6.5-7.2c0-2.6-1.7-4.6-4.3-4.6c-3.6,0-6.5,3.9-6.5,7.2
		C128.7,45.7,130.4,47.7,133.1,47.7 M127.8,44c-0.2,0.4-1.3,2.8-2.4,2.8c-0.4,0-0.6-0.3-0.6-0.7c0-0.6,0.2-1.4,0.5-2.2l3.5-13.6
		c-0.9,0.1-1.7,0.2-2.8,0.2H124l-0.1,0.6h2.3l-3.3,13c-0.1,0.6-0.4,1.4-0.4,2c0,1,0.8,1.6,1.8,1.6c2.5,0,3.5-2.5,3.9-3.5L127.8,44z
		 M105.3,45.1c0-0.9,0.6-4.1,1.7-6.9c0.5-1.3,1.3-1.8,2.3-1.8c1.2,0,2.1,0.8,2.1,2.4c0,1.4-1.6,8.3-4.6,8.3
		C105.7,47.2,105.3,46.2,105.3,45.1 M114.7,44.3c-0.4,0.7-1.4,2.4-2.2,2.4c-0.4,0-0.5-0.3-0.5-0.7c0-0.3,0.1-1,0.3-1.5l2.1-8.1h-2.1
		l-0.4,1.4c-0.2-0.5-0.8-1.8-2.7-1.8c-2.7,0-6.3,3.5-6.3,7.1c0,2.6,1.3,4.7,3.3,4.7c2,0,3-1.3,3.5-2.1h0c0,0.7,0.1,2.1,1.7,2.1
		c2,0,3.2-2.3,3.7-3.2L114.7,44.3z M90.3,47.7c2.4,0,4.4-1.4,4.4-3.6c0-1.7-0.9-2.5-1.9-3.2c-1.2-0.9-2.8-1.8-2.8-2.8
		c0-1.2,1.4-1.6,2.3-1.6c0.6,0,1.4,0.1,1.4,0.5c0,0.3-0.4,0.6-0.4,1c0,0.5,0.4,1,1,1c0.7,0,1.1-0.5,1.1-1.1c0-1.3-1.5-1.9-3.1-1.9
		c-2.1,0-4,1.5-4,3.3c0,1.8,1.6,2.7,3,3.7c0.9,0.6,1.7,1.3,1.7,2.3c0,1.3-1.3,2-2.6,2c-0.9,0-2.3-0.2-2.3-0.9c0-0.3,0.4-0.6,0.4-1.1
		c0-0.6-0.5-0.9-0.9-0.9c-0.7,0-1.1,0.5-1.1,1.1C86.5,46.7,87.9,47.7,90.3,47.7 M85,33.5c0.8,0,1.4-0.6,1.4-1.4s-0.6-1.4-1.4-1.4
		c-0.8,0-1.4,0.6-1.4,1.4S84.3,33.5,85,33.5 M86.1,44c-0.2,0.4-1.3,2.8-2.4,2.8c-0.4,0-0.6-0.3-0.6-0.7c0-0.6,0.2-1.4,0.5-2.2l2-7.8
		c-0.9,0.1-1.7,0.2-2.8,0.2h-1.6L81,36.9h2.1l-1.9,7.2c-0.1,0.6-0.4,1.4-0.4,2c0,1,0.8,1.6,1.8,1.6c2.5,0,3.5-2.5,3.9-3.5L86.1,44z
		 M60.7,47.3h2.3l1.5-5.9c0.4-1.6,1.8-4.7,4.4-4.7c0.6,0,1,0.3,1,0.8c0,0.5-0.2,1.1-0.4,1.8l-1.2,4.7c-0.2,0.6-0.4,1.4-0.4,2
		c0,1,0.8,1.6,1.8,1.6c2.5,0,3.5-2.5,3.9-3.5L73.2,44c-0.2,0.4-1.3,2.8-2.4,2.8c-0.4,0-0.6-0.3-0.6-0.7c0-0.6,0.2-1.4,0.5-2.2
		l1.1-4.1c0.2-0.7,0.4-1.4,0.4-2.2c0-1.2-0.9-1.7-2.2-1.7c-2.4,0-3.9,1.3-4.9,2.6l0,0l0.6-2.4c-1,0.1-1.9,0.2-3.1,0.2h-1.2L61,36.9
		h2.2L60.7,47.3z M54.8,46.8c1.4,0.1,3.1,0,3.1,1.6c0,2.1-2.2,3.7-5,3.7c-1.9,0-3.6-0.9-3.6-2.7c0-1.7,1.6-2.4,2.3-2.8L54.8,46.8z
		 M52.5,40.9c0-1.2,0.5-4.4,2.4-4.4c1,0,1.8,0.4,1.8,1.6c0,1.4-0.6,4.4-2.6,4.4C53.3,42.5,52.5,42,52.5,40.9 M53.3,44.7
		c-1.3-0.1-3-0.1-3-1.2c0-0.7,0.8-1.1,1.3-1.3c0.5,0.3,1.1,0.9,2.8,0.9c2,0,3.6-1.1,4.3-3.3c0.2-0.8,0.4-3,1-3
		c0.5,0,0.4,0.5,0.9,0.5c0.5,0,0.8-0.3,0.8-0.8c0-0.6-0.5-0.8-1-0.8c-1.5,0-1.7,1.7-1.8,2.4h0c-0.3-0.9-1.2-2.1-3.4-2.1
		c-2.6,0-4.6,1.7-4.6,3.7c0,1.2,0.4,1.8,0.8,2.2c-0.7,0.4-2.1,1-2.1,2.6c0,1.3,1.1,1.7,1.8,2c-0.7,0.3-3.1,1-3.1,2.9
		c0,2.1,2.1,3.3,4.7,3.3c3.5,0,6.2-2,6.2-5.1c0-2.6-1.8-2.6-3.1-2.7L53.3,44.7z M46.5,33.5c0.8,0,1.4-0.6,1.4-1.4s-0.6-1.4-1.4-1.4
		c-0.8,0-1.4,0.6-1.4,1.4S45.7,33.5,46.5,33.5 M47.6,44c-0.2,0.4-1.3,2.8-2.4,2.8c-0.4,0-0.6-0.3-0.6-0.7c0-0.6,0.2-1.4,0.5-2.2
		l2-7.8c-0.9,0.1-1.7,0.2-2.8,0.2h-1.6l-0.1,0.6h2.1l-1.9,7.2c-0.1,0.6-0.4,1.4-0.4,2c0,1,0.8,1.6,1.8,1.6c2.5,0,3.5-2.5,3.9-3.5
		L47.6,44z M35.8,47.7c2.4,0,4.4-1.4,4.4-3.6c0-1.7-0.9-2.5-1.9-3.2c-1.2-0.9-2.8-1.8-2.8-2.8c0-1.2,1.4-1.6,2.3-1.6
		c0.6,0,1.4,0.1,1.4,0.5c0,0.3-0.4,0.6-0.4,1c0,0.5,0.4,1,1,1c0.7,0,1.1-0.5,1.1-1.1c0-1.3-1.5-1.9-3.1-1.9c-2.1,0-4,1.5-4,3.3
		c0,1.8,1.6,2.7,3,3.7c0.9,0.6,1.7,1.3,1.7,2.3c0,1.3-1.3,2-2.6,2c-0.9,0-2.3-0.2-2.3-0.9c0-0.3,0.4-0.6,0.4-1.1
		c0-0.6-0.5-0.9-0.9-0.9c-0.7,0-1.1,0.5-1.1,1.1C32.1,46.7,33.5,47.7,35.8,47.7 M28.3,36.5c1,0,1.5,0.6,1.5,1.6
		c0,2.9-2.2,3.6-4.4,3.6c-0.2,0-0.7,0-1-0.1C24.8,40.4,25.9,36.5,28.3,36.5 M30.7,44.1c-0.6,0.8-2,3-4.4,3c-1.6,0-2.3-1.1-2.3-2.8
		c0-1,0.2-1.8,0.3-2.3c0.4,0,0.8,0.1,1.2,0.1c1.9,0,6.4-0.5,6.4-3.6c0-1.6-1.5-2.7-3.2-2.7c-3,0-7.1,3.1-7.1,7.1
		c0,2.4,1.8,4.7,4.5,4.7c2.8,0,4.4-2.4,5-3.3L30.7,44.1z M11.1,45c0-0.8,0.2-3.5,1.2-6.2c0.7-1.7,1.5-2.4,2.8-2.4
		c1.2,0,2.1,0.9,2.1,2.3c0,1.7-1.3,8.4-4.6,8.4C11.6,47.2,11.1,46.4,11.1,45 M20.6,44.2c-0.2,0.3-1.5,2.3-2,2.3
		c-0.3,0-0.6,0-0.6-0.6c0-0.5,0.2-1.2,0.3-1.8l3.3-13.7c-0.9,0.1-2.1,0.2-3.4,0.2h-1.3l-0.1,0.6h2.4l-1.6,6.4
		c-0.3-0.5-1-1.5-2.4-1.5c-3.6,0-6.5,3.9-6.5,7.2c0,2.6,1.4,4.6,3.6,4.6c2,0,3.2-1.9,3.5-2.4h0c0,0.8,0,2.3,1.5,2.3
		c1.9,0,3.2-2.5,3.6-3.1L20.6,44.2z"/>
	<path fill="#010101" d="M242.7,10.5c1,0,1.5,0.6,1.5,1.6c0,2.9-2.2,3.6-4.4,3.6c-0.2,0-0.7,0-1-0.1
		C239.2,14.4,240.3,10.5,242.7,10.5 M245.1,18.1c-0.6,0.8-2,3-4.4,3c-1.6,0-2.3-1.1-2.3-2.8c0-1,0.2-1.8,0.3-2.3
		c0.4,0,0.8,0.1,1.2,0.1c1.9,0,6.4-0.5,6.4-3.6c0-1.6-1.5-2.7-3.2-2.7c-3,0-7.1,3.1-7.1,7.1c0,2.4,1.8,4.7,4.5,4.7
		c2.8,0,4.4-2.4,5-3.3L245.1,18.1z M229.2,14c0.2-0.8,0.6-1.9,0.6-2.5c0-0.9-0.6-1.5-1.7-1.5c-2.1,0-3.3,2.4-3.9,3.3l0.4,0.3
		c0.3-0.4,1.7-2.7,2.5-2.7c0.3,0,0.5,0.1,0.5,0.6c0,0.4-0.2,1.2-0.4,1.7l-1.2,4.1c-0.1,0.5-0.5,1.6-0.5,2.1c0,1.3,1,2.4,2.8,2.4
		c4.3,0,7-6.8,7-9.9c0-0.9-0.4-1.9-1.5-1.9c-0.5,0-1,0.4-1,1.1c0,0.6,0.2,0.8,0.6,1c0.5,0.2,1.2,0.1,1.2,1c0,2.4-2.8,7.9-5.5,7.9
		c-0.8,0-1.3-0.2-1.3-1.1c0-0.6,0.2-1.5,0.4-2.1L229.2,14z M220.6,10.5c1,0,1.5,0.6,1.5,1.6c0,2.9-2.2,3.6-4.4,3.6
		c-0.2,0-0.7,0-1-0.1C217,14.4,218.2,10.5,220.6,10.5 M223,18.1c-0.6,0.8-2,3-4.4,3c-1.6,0-2.3-1.1-2.3-2.8c0-1,0.2-1.8,0.3-2.3
		c0.4,0,0.8,0.1,1.2,0.1c1.9,0,6.4-0.5,6.4-3.6c0-1.6-1.5-2.7-3.2-2.7c-3,0-7.1,3.1-7.1,7.1c0,2.4,1.8,4.7,4.5,4.7
		c2.8,0,4.4-2.4,5-3.3L223,18.1z M211.8,7.5c0.8,0,1.4-0.6,1.4-1.4c0-0.8-0.6-1.4-1.4-1.4s-1.4,0.6-1.4,1.4
		C210.4,6.9,211,7.5,211.8,7.5 M212.9,18c-0.2,0.4-1.3,2.8-2.4,2.8c-0.4,0-0.6-0.3-0.6-0.7c0-0.6,0.2-1.4,0.5-2.2l2-7.8
		c-0.9,0.1-1.7,0.2-2.8,0.2h-1.6l-0.1,0.6h2.1l-1.9,7.2c-0.1,0.6-0.4,1.4-0.4,2c0,1,0.8,1.6,1.8,1.6c2.5,0,3.5-2.5,3.9-3.5L212.9,18
		z M206.4,18c-0.2,0.4-1.3,2.8-2.4,2.8c-0.4,0-0.6-0.3-0.6-0.7c0-0.6,0.2-1.4,0.5-2.2l3.5-13.6c-0.9,0.1-1.7,0.2-2.8,0.2h-1.9
		l-0.1,0.6h2.3l-3.3,13c-0.1,0.6-0.4,1.4-0.4,2c0,1,0.8,1.6,1.8,1.6c2.5,0,3.5-2.5,3.9-3.5L206.4,18z M196.7,10.5
		c1,0,1.5,0.6,1.5,1.6c0,2.9-2.2,3.6-4.4,3.6c-0.2,0-0.7,0-1-0.1C193.2,14.4,194.3,10.5,196.7,10.5 M199.1,18.1c-0.6,0.8-2,3-4.4,3
		c-1.6,0-2.3-1.1-2.3-2.8c0-1,0.2-1.8,0.3-2.3c0.4,0,0.8,0.1,1.2,0.1c1.9,0,6.4-0.5,6.4-3.6c0-1.6-1.5-2.7-3.2-2.7
		c-3,0-7.1,3.1-7.1,7.1c0,2.4,1.8,4.7,4.5,4.7c2.8,0,4.4-2.4,5-3.3L199.1,18.1z M180.1,19c0-0.9,0.5-4.9,1.9-6.9
		c0.4-0.6,1.5-1.6,2.7-1.6c1,0,1.6,0.8,1.6,2.1c0,0.8,0,2.6-1.2,6.2c-0.7,1.7-1.5,2.4-2.8,2.4C181,21.2,180.1,20.5,180.1,19
		 M183.4,4.3c-1,0.1-2,0.2-3.3,0.2h-1.2l-0.1,0.6h2.1l-2.5,10.6c-0.1,0.6-0.5,2-0.5,2.9c0,1.7,1.5,3.2,3.8,3.2c4,0,7.1-4.1,7.1-7.2
		c0-2.7-1.4-4.6-3.6-4.6c-1.9,0-3,1.3-3.6,2l0,0L183.4,4.3z M166.6,10.5c1,0,1.5,0.6,1.5,1.6c0,2.9-2.2,3.6-4.4,3.6
		c-0.2,0-0.7,0-1-0.1C163.1,14.4,164.2,10.5,166.6,10.5 M169,18.1c-0.6,0.8-2,3-4.4,3c-1.6,0-2.3-1.1-2.3-2.8c0-1,0.2-1.8,0.3-2.3
		c0.4,0,0.8,0.1,1.2,0.1c1.9,0,6.4-0.5,6.4-3.6c0-1.6-1.5-2.7-3.2-2.7c-3,0-7.1,3.1-7.1,7.1c0,2.4,1.8,4.7,4.5,4.7
		c2.8,0,4.4-2.4,5-3.3L169,18.1z M154.1,10.4H152c-0.2,1.3-3.1,10.5-6.2,10.5c-0.6,0-0.7-0.3-0.7-0.9c0-0.4,0.2-1.2,0.4-1.9l1.3-4.5
		c0.2-0.8,0.5-1.4,0.5-2.2c0-0.7-0.4-1.4-1.5-1.4c-1.8,0-3.5,2.5-4,3.3l0.5,0.2c0.2-0.4,1.6-2.4,2.4-2.4c0.3,0,0.4,0.1,0.4,0.5
		c0,0.3-0.2,0.9-0.4,1.5l-1.4,4.8c0,0.2-0.4,1.4-0.4,1.9c0,1.2,0.9,2,2.1,2c1.8,0,3.2-1.6,4.2-3.1c0.7-1.1,1.2-2.3,1.3-2.6l0,0
		c0,0.2-0.4,1.7-0.4,2.4c0,1.8,0.7,3.3,2.5,3.3c3.9,0,6.4-6.5,6.4-9.6c0-1.1-0.5-2.2-1.5-2.2c-0.7,0-1.1,0.5-1.1,1.2
		c0,0.4,0.2,0.8,0.6,1c0.4,0.2,1.2,0,1.2,1.1c0,2.1-2.4,7.7-4.7,7.7c-1.2,0-1.4-0.9-1.4-2.2c0-1.1,0.4-2.8,0.8-4.3L154.1,10.4z
		 M129.4,25.1c0.4-0.2,1.3-0.6,2.2-1.4c0.6-0.5,1.5-1.6,1.5-2.8c0-1.1-0.7-2.2-2-2.2c-0.7,0-1.6,0.6-1.6,1.5c0,0.5,0.3,1.2,1.3,1.2
		c0.5,0,0.7-0.2,0.8-0.4c0.1-0.2,0.2-0.4,0.4-0.4c0.3,0,0.4,0.3,0.4,0.6c0,0.5-0.4,1.4-1.2,2c-0.8,0.6-1.6,1.2-2.1,1.4L129.4,25.1z
		 M125.5,10.5c1,0,1.5,0.6,1.5,1.6c0,2.9-2.2,3.6-4.4,3.6c-0.2,0-0.7,0-1-0.1C121.9,14.4,123,10.5,125.5,10.5 M127.8,18.1
		c-0.6,0.8-2,3-4.4,3c-1.6,0-2.3-1.1-2.3-2.8c0-1,0.2-1.8,0.3-2.3c0.4,0,0.8,0.1,1.2,0.1c1.9,0,6.4-0.5,6.4-3.6
		c0-1.6-1.5-2.7-3.2-2.7c-3,0-7.1,3.1-7.1,7.1c0,2.4,1.8,4.7,4.5,4.7c2.8,0,4.4-2.4,5-3.3L127.8,18.1z M117.9,18
		c-0.2,0.4-1.3,2.8-2.4,2.8c-0.4,0-0.6-0.3-0.6-0.7c0-0.6,0.2-1.4,0.5-2.2l3.5-13.6c-0.9,0.1-1.7,0.2-2.8,0.2h-1.9l-0.1,0.6h2.3
		l-3.3,13c-0.1,0.6-0.4,1.4-0.4,2c0,1,0.8,1.6,1.8,1.6c2.5,0,3.5-2.5,3.9-3.5L117.9,18z M102,19.1c0-0.9,0.6-4.1,1.7-6.9
		c0.5-1.3,1.3-1.8,2.3-1.8c1.2,0,2.1,0.8,2.1,2.4c0,1.4-1.6,8.3-4.6,8.3C102.3,21.2,102,20.2,102,19.1 M111.4,18.3
		c-0.4,0.7-1.4,2.4-2.2,2.4c-0.4,0-0.5-0.3-0.5-0.7c0-0.3,0.1-1,0.3-1.5l2.1-8.1H109l-0.4,1.4c-0.2-0.5-0.8-1.8-2.7-1.8
		c-2.7,0-6.3,3.5-6.3,7.1c0,2.6,1.3,4.7,3.3,4.7c2,0,3-1.3,3.5-2.1h0c0,0.7,0.1,2.1,1.7,2.1c2,0,3.2-2.3,3.7-3.2L111.4,18.3z
		 M86.5,21.3h2.3l1.5-5.9c0.4-1.6,1.8-4.7,4.4-4.7c0.6,0,1,0.3,1,0.8c0,0.5-0.2,1.1-0.4,1.8l-1.2,4.7c-0.2,0.6-0.4,1.4-0.4,2
		c0,1,0.8,1.6,1.8,1.6c2.5,0,3.5-2.5,3.9-3.5L99,18c-0.2,0.4-1.3,2.8-2.4,2.8c-0.4,0-0.6-0.3-0.6-0.7c0-0.6,0.2-1.4,0.5-2.2l1.1-4.1
		c0.2-0.7,0.4-1.4,0.4-2.2c0-1.2-0.9-1.7-2.2-1.7c-2.4,0-3.9,1.3-4.9,2.6l0,0l0.6-2.4c-1,0.1-1.9,0.2-3.1,0.2H87l-0.1,0.6h2.2
		L86.5,21.3z M77.3,19c0-0.8,0.2-3.5,1.2-6.2c0.7-1.7,1.5-2.4,2.8-2.4c1.3,0,2,0.8,2,2.1c0,0.8-0.2,3.5-1.2,6.2
		c-0.7,1.7-1.5,2.4-2.8,2.4C78,21.2,77.3,20.4,77.3,19 M79.3,21.7c3.6,0,6.5-3.9,6.5-7.2c0-2.6-1.7-4.6-4.3-4.6
		c-3.6,0-6.5,3.9-6.5,7.2C74.9,19.7,76.6,21.7,79.3,21.7 M72.8,7.5c0.8,0,1.4-0.6,1.4-1.4c0-0.8-0.6-1.4-1.4-1.4
		c-0.8,0-1.4,0.6-1.4,1.4C71.4,6.9,72,7.5,72.8,7.5 M73.9,18c-0.2,0.4-1.3,2.8-2.4,2.8c-0.4,0-0.6-0.3-0.6-0.7
		c0-0.6,0.2-1.4,0.5-2.2l2-7.8c-0.9,0.1-1.7,0.2-2.8,0.2h-1.6l-0.1,0.6h2.1l-1.9,7.2c-0.1,0.6-0.4,1.4-0.4,2c0,1,0.8,1.6,1.8,1.6
		c2.5,0,3.5-2.5,3.9-3.5L73.9,18z M66.8,18c-0.2,0.4-1.3,2.8-2.4,2.8c-0.6,0-0.9-0.1-0.9-0.7c0-0.4,0.1-1,0.3-1.8l2-7.4H68l0.1-0.6
		h-2.2l0.8-2.8c-0.9,0.1-1.8,0.1-2.3,0.1l-0.7,2.7h-1.8l-0.1,0.6h1.8l-1.9,7.2c-0.2,0.6-0.4,1.3-0.4,1.8c0,1.4,0.9,1.8,2,1.8
		c2.5,0,3.5-2.5,3.9-3.5L66.8,18z M50.6,19.1c0-0.9,0.6-4.1,1.7-6.9c0.5-1.3,1.3-1.8,2.3-1.8c1.2,0,2.1,0.8,2.1,2.4
		c0,1.4-1.6,8.3-4.6,8.3C50.9,21.2,50.6,20.2,50.6,19.1 M60,18.3c-0.4,0.7-1.4,2.4-2.2,2.4c-0.4,0-0.5-0.3-0.5-0.7
		c0-0.3,0.1-1,0.3-1.5l2.1-8.1h-2.1l-0.4,1.4c-0.2-0.5-0.8-1.8-2.7-1.8c-2.7,0-6.3,3.5-6.3,7.1c0,2.6,1.3,4.7,3.3,4.7s3-1.3,3.5-2.1
		h0c0,0.7,0.1,2.1,1.7,2.1c2,0,3.2-2.3,3.7-3.2L60,18.3z M32.1,21.3h6.8l0.1-0.6h-2.1l1.7-8.3h0.8c0.9,0,2,0.1,2.6,1.7
		c0.4,1.2,0.1,3.6,0.7,5.3c0.4,1.2,1.5,2.1,2.9,2.1c0.9,0,1.4-0.2,1.8-0.3l-0.1-0.5c-0.2,0-0.7,0.2-1,0.2c-0.6,0-1.2-0.4-1.2-1.9
		c0-2.5,0-3.9-1.1-5.2c-0.7-0.8-1.8-1.1-2.9-1.5v0C42.9,12.2,47,11.5,47,8c0-3.4-3.8-3.5-5.7-3.5h-5.9l-0.1,0.6h2.4l-3.3,15.6h-2.1
		L32.1,21.3z M40.3,5h0.8c1.4,0,3.2,0,3.2,2.5c0,3.6-2,4.3-4.5,4.3h-0.9L40.3,5z M25.6,18c-0.2,0.4-1.3,2.8-2.4,2.8
		c-0.6,0-0.9-0.1-0.9-0.7c0-0.4,0.1-1,0.3-1.8l2-7.4h2.2l0.1-0.6h-2.2l0.8-2.8c-0.9,0.1-1.8,0.1-2.3,0.1l-0.7,2.7h-1.8l-0.1,0.6h1.8
		l-1.9,7.2c-0.2,0.6-0.4,1.3-0.4,1.8c0,1.4,0.9,1.8,2,1.8c2.5,0,3.5-2.5,3.9-3.5L25.6,18z M15.2,8.7L15.2,8.7l-0.6,6.7h-4.4
		L15.2,8.7z M3.7,21.3h4.8l0.1-0.6H6.3L9.8,16h4.8l-0.4,4.8h-2.2l-0.1,0.6h6.9l0.1-0.6h-2l1.3-16.5h-0.5L5.4,20.7H3.8L3.7,21.3z"/>
</g>
</svg>
