<?xml version="1.0" encoding="utf-8"?>
<!-- Generator: Adobe Illustrator 17.1.0, SVG Export Plug-In . SVG Version: 6.00 Build 0)  -->
<!DOCTYPE svg PUBLIC "-//W3C//DTD SVG 1.1//EN" "http://www.w3.org/Graphics/SVG/1.1/DTD/svg11.dtd">
<svg version="1.1" id="Layer_1" xmlns="http://www.w3.org/2000/svg" xmlns:xlink="http://www.w3.org/1999/xlink" x="0px" y="0px"
	 viewBox="0 0 861 239.5" enable-background="new 0 0 861 239.5" xml:space="preserve">
<path fill="#010101" d="M634.5,222.7c1.5,0,2.7-1.2,2.7-2.7s-1.2-2.7-2.7-2.7c-1.5,0-2.7,1.2-2.7,2.7S633,222.7,634.5,222.7
	 M621,208.5c-0.7-1.9-1.9-7.2-5-7.2c-3.2,0-5.1,5-5.6,6.3l0.7,0.3c0.5-1,1.6-4.1,3-4.1c0.9,0,1.9,3.2,2.3,4.4l3,8.6
	c0.3,0.9,1,2.5,1,3.7c0,2-5.6,9.6-9.5,9.6c-0.8,0-1.1-0.5-1.1-1.5c0-0.8-0.7-1.4-1.7-1.4c-1.1,0-2,0.7-2,2c0,1.7,1.6,2.6,3.1,2.6
	c7.8,0,12.9-11,15.3-16.3c1.6-3.6,4.3-11,5.7-11c0.4,0,0.8,0.6,1.6,0.6c1.2,0,2-0.7,2-1.8c0-1-0.7-1.9-1.9-1.9
	c-2.2,0-3.3,2.3-4.4,4.8c-1.4,3.2-3.4,7.9-4.1,9.4L621,208.5z M608.6,216c-0.4,0.8-2.4,5.1-4.4,5.1c-1.1,0-1.6-0.3-1.6-1.3
	c0-0.7,0.2-1.9,0.6-3.2l3.6-13.5h3.9l0.3-1h-4l1.4-5.1c-1.7,0.3-3.2,0.3-4.1,0.3l-1.4,4.9h-3.2l-0.3,1h3.2l-3.5,13
	c-0.3,1.2-0.7,2.3-0.7,3.3c0,2.6,1.7,3.3,3.7,3.3c4.5,0,6.4-4.5,7.1-6.4L608.6,216z M594.6,196.9c1.4,0,2.5-1.1,2.5-2.5
	c0-1.4-1.1-2.5-2.5-2.5c-1.4,0-2.5,1.1-2.5,2.5C592.2,195.8,593.3,196.9,594.6,196.9 M596.6,216c-0.4,0.8-2.4,5.1-4.4,5.1
	c-0.8,0-1.1-0.5-1.1-1.3c0-1,0.4-2.5,0.8-4.1l3.7-14.1c-1.6,0.2-3.1,0.3-5.1,0.3h-3l-0.3,1h3.8l-3.4,13c-0.3,1.1-0.7,2.6-0.7,3.7
	c0,1.8,1.5,2.9,3.3,2.9c4.5,0,6.4-4.5,7.1-6.4L596.6,216z M584.8,216c-0.4,0.8-2.4,5.1-4.4,5.1c-0.8,0-1.1-0.5-1.1-1.3
	c0-1,0.4-2.5,0.8-4.1l6.3-24.7c-1.6,0.2-3.1,0.3-5.1,0.3h-3.4l-0.3,1h4.2l-6,23.7c-0.3,1.1-0.7,2.6-0.7,3.7c0,1.8,1.5,2.9,3.3,2.9
	c4.5,0,6.4-4.5,7.1-6.4L584.8,216z M571.4,196.9c1.4,0,2.5-1.1,2.5-2.5c0-1.4-1.1-2.5-2.5-2.5c-1.4,0-2.5,1.1-2.5,2.5
	C568.9,195.8,570,196.9,571.4,196.9 M573.3,216c-0.4,0.8-2.4,5.1-4.4,5.1c-0.8,0-1.1-0.5-1.1-1.3c0-1,0.4-2.5,0.8-4.1l3.7-14.1
	c-1.6,0.2-3.1,0.3-5.1,0.3h-3l-0.3,1h3.8l-3.4,13c-0.3,1.1-0.7,2.6-0.7,3.7c0,1.8,1.5,2.9,3.3,2.9c4.5,0,6.4-4.5,7.1-6.4L573.3,216z
	 M545.2,217.8c0-1.7,1-9,3.5-12.5c0.8-1,2.8-2.9,5-2.9c1.8,0,2.8,1.4,2.8,3.9c0,1.4,0,4.7-2.2,11.2c-1.3,3.1-2.7,4.3-5.1,4.3
	C546.8,221.7,545.2,220.5,545.2,217.8 M551.1,191.1c-1.8,0.3-3.6,0.3-5.9,0.3H543l-0.2,1h3.8l-4.6,19.2c-0.3,1.1-0.9,3.6-0.9,5.2
	c0,3.1,2.7,5.9,6.9,5.9c7.3,0,12.9-7.4,12.9-13c0-5-2.6-8.4-6.6-8.4c-3.5,0-5.5,2.4-6.5,3.6l-0.1-0.1L551.1,191.1z M536.8,196.9
	c1.4,0,2.5-1.1,2.5-2.5c0-1.4-1.1-2.5-2.5-2.5c-1.4,0-2.5,1.1-2.5,2.5C534.4,195.8,535.5,196.9,536.8,196.9 M538.8,216
	c-0.4,0.8-2.4,5.1-4.4,5.1c-0.8,0-1.1-0.5-1.1-1.3c0-1,0.4-2.5,0.8-4.1l3.7-14.1c-1.6,0.2-3.1,0.3-5.1,0.3h-3l-0.3,1h3.8l-3.4,13
	c-0.3,1.1-0.7,2.6-0.7,3.7c0,1.8,1.5,2.9,3.3,2.9c4.5,0,6.4-4.5,7.1-6.4L538.8,216z M509.4,217.8c0-1.4,0.3-6.4,2.2-11.2
	c1.3-3.1,2.7-4.3,5.1-4.3c2.3,0,3.8,1.7,3.8,4.1c0,3.1-2.4,15.2-8.4,15.2C510.4,221.7,509.4,220.3,509.4,217.8 M526.7,216.3
	c-0.3,0.5-2.7,4.1-3.7,4.1c-0.6,0-1.1-0.1-1.1-1.1c0-0.9,0.3-2.1,0.6-3.3l6.1-24.9c-1.6,0.1-3.7,0.3-6.1,0.3h-2.3l-0.2,1h4.3
	l-2.9,11.5c-0.6-1-1.8-2.7-4.4-2.7c-6.6,0-11.8,7-11.8,13c0,4.7,2.6,8.4,6.6,8.4c3.7,0,5.7-3.4,6.4-4.4h0.1c0,1.4,0,4.1,2.8,4.1
	c3.4,0,5.8-4.5,6.5-5.6L526.7,216.3z M481.3,222h4.1l2.7-10.6c0.7-2.9,3.3-8.5,7.9-8.5c1.1,0,1.9,0.6,1.9,1.5c0,0.8-0.3,2-0.7,3.2
	l-2.2,8.5c-0.3,1.1-0.7,2.6-0.7,3.7c0,1.8,1.5,2.9,3.3,2.9c4.5,0,6.4-4.5,7.1-6.4L504,216c-0.4,0.8-2.4,5.1-4.4,5.1
	c-0.8,0-1.1-0.5-1.1-1.3c0-1,0.4-2.5,0.8-4.1l1.9-7.4c0.3-1.3,0.7-2.6,0.7-4c0-2.1-1.6-3.1-4-3.1c-4.4,0-7.1,2.4-8.9,4.8L489,206
	l1.1-4.3c-1.8,0.2-3.5,0.3-5.7,0.3h-2.2l-0.3,1h3.9L481.3,222z M474,202.3c1.9,0,2.8,1.1,2.8,2.8c0,5.2-4,6.4-7.9,6.4
	c-0.4,0-1.3,0-1.9-0.2C467.5,209.4,469.6,202.3,474,202.3 M478.3,216.2c-1,1.5-3.7,5.5-7.9,5.5c-2.8,0-4.1-2-4.1-5.1
	c0-1.8,0.3-3.4,0.5-4.1c0.7,0.1,1.4,0.2,2.2,0.2c3.4,0,11.6-1,11.6-6.5c0-3-2.7-4.8-5.9-4.8c-5.5,0-12.8,5.7-12.8,12.9
	c0,4.3,3.4,8.6,8.1,8.6c5,0,8.1-4.4,9.1-6.1L478.3,216.2z M459.1,216c-0.4,0.8-2.4,5.1-4.4,5.1c-1.1,0-1.6-0.3-1.6-1.3
	c0-0.7,0.2-1.9,0.6-3.2l3.6-13.5h3.9l0.3-1h-4l1.4-5.1c-1.7,0.3-3.2,0.3-4.1,0.3l-1.4,4.9h-3.2l-0.3,1h3.2l-3.5,13
	c-0.3,1.2-0.7,2.3-0.7,3.3c0,2.6,1.7,3.3,3.7,3.3c4.5,0,6.4-4.5,7.1-6.4L459.1,216z M447.2,216.3c-0.6,1-2.5,4.4-4.2,4.4
	c-1.1,0-1.7-1.7-2-3l-1.8-7.3c0.6-1.4,4.4-6.4,5.7-6.4c0.6,0,1,1,2.3,1c1,0,1.6-0.9,1.6-1.9c0-1-0.8-1.8-2-1.8
	c-1.7,0-3.1,1.5-4.8,3.6c-1.4,1.7-2.8,3.7-3.2,4.1c-0.6-2.4-1.1-7.8-4.1-7.8c-3.6,0-5.6,4.3-6.4,5.9l0.7,0.4
	c0.6-0.8,2.1-4.3,3.6-4.3c0.9,0,1.1,1.9,1.4,3.1l1.6,6.1c-1.1,1.6-5,7.3-6.5,7.3c-0.8,0-1-1-2.3-1c-1.1,0-1.8,0.9-1.8,1.8
	c0,1.3,0.8,2,2.1,2c3.1,0,7.9-7.7,8.8-9c0.8,2.3,1.2,9,5.2,9c3.9,0,6.1-4.4,6.9-6L447.2,216.3z M420.2,202.3c1.9,0,2.8,1.1,2.8,2.8
	c0,5.2-4,6.4-7.9,6.4c-0.4,0-1.3,0-1.9-0.2C413.7,209.4,415.8,202.3,420.2,202.3 M424.5,216.2c-1,1.5-3.7,5.5-7.9,5.5
	c-2.8,0-4.1-2-4.1-5.1c0-1.8,0.3-3.4,0.5-4.1c0.7,0.1,1.4,0.2,2.2,0.2c3.4,0,11.6-1,11.6-6.5c0-3-2.7-4.8-5.9-4.8
	c-5.5,0-12.8,5.7-12.8,12.9c0,4.3,3.4,8.6,8.1,8.6c5,0,8.1-4.4,9.1-6.1L424.5,216.2z M376.8,217.8c0-1.4,0.3-6.4,2.2-11.2
	c1.3-3.1,2.7-4.3,5.1-4.3c2.3,0,3.8,1.7,3.8,4.1c0,3.1-2.4,15.2-8.4,15.2C377.8,221.7,376.8,220.3,376.8,217.8 M394.1,216.3
	c-0.3,0.5-2.7,4.1-3.7,4.1c-0.6,0-1.1-0.1-1.1-1.1c0-0.9,0.3-2.1,0.6-3.3l6.1-24.9c-1.6,0.1-3.7,0.3-6.1,0.3h-2.3l-0.2,1h4.3
	l-2.9,11.5c-0.6-1-1.8-2.7-4.4-2.7c-6.6,0-11.8,7-11.8,13c0,4.7,2.6,8.4,6.6,8.4c3.7,0,5.8-3.4,6.4-4.4h0.1c0,1.4,0,4.1,2.8,4.1
	c3.4,0,5.8-4.5,6.5-5.6L394.1,216.3z M348.7,222h4.1l2.7-10.6c0.7-2.9,3.3-8.5,7.9-8.5c1.1,0,1.9,0.6,1.9,1.5c0,0.8-0.3,2-0.7,3.2
	l-2.2,8.5c-0.3,1.1-0.7,2.6-0.7,3.7c0,1.8,1.5,2.9,3.3,2.9c4.5,0,6.4-4.5,7.1-6.4l-0.8-0.3c-0.4,0.8-2.4,5.1-4.4,5.1
	c-0.8,0-1.1-0.5-1.1-1.3c0-1,0.4-2.5,0.8-4.1l1.9-7.4c0.3-1.3,0.7-2.6,0.7-4c0-2.1-1.6-3.1-4-3.1c-4.4,0-7.1,2.4-8.9,4.8l-0.1-0.1
	l1.1-4.3c-1.8,0.2-3.5,0.3-5.7,0.3h-2.2l-0.3,1h3.9L348.7,222z M330.1,218c0-1.6,1-7.4,3.1-12.5c0.9-2.3,2.4-3.2,4.1-3.2
	c2.2,0,3.7,1.5,3.7,4.3c0,2.6-2.8,15-8.4,15C330.7,221.7,330.1,220,330.1,218 M347.1,216.5c-0.7,1.2-2.5,4.3-3.9,4.3
	c-0.7,0-0.9-0.6-0.9-1.3c0-0.6,0.3-1.9,0.5-2.7l3.8-14.6h-3.9l-0.7,2.5c-0.4-0.9-1.5-3.3-4.9-3.3c-4.8,0-11.5,6.3-11.5,12.9
	c0,4.7,2.4,8.5,6,8.5c3.6,0,5.5-2.4,6.4-3.7h0.1c0,1.3,0.1,3.7,3,3.7c3.6,0,5.8-4.2,6.7-5.8L347.1,216.5z M299.7,228.9
	c0.7-0.4,2.4-1.1,4-2.5c1-0.9,2.8-3,2.8-5.1c0-2-1.3-3.9-3.6-3.9c-1.3,0-2.8,1-2.8,2.7c0,0.8,0.5,2.2,2.3,2.2c0.8,0,1.2-0.4,1.5-0.8
	c0.3-0.3,0.4-0.7,0.7-0.7c0.5,0,0.7,0.5,0.7,1.1c0,0.8-0.8,2.6-2.1,3.7c-1.4,1.2-2.9,2.1-3.8,2.5L299.7,228.9z M288.6,222h4.1
	l2.2-9.1c0.8-3.3,4-9.1,6-9.1c1.1,0,0.9,1.9,2.4,1.9c1.5,0,2.3-0.7,2.3-2c0-1.4-0.8-2.3-2.3-2.3c-3.9,0-6.5,4.8-7.4,6.4l-0.1-0.1
	l1.4-5.8c-1.4,0.2-2.9,0.3-4.7,0.3h-3.4l-0.2,1h4.1L288.6,222z M280.4,202.3c1.9,0,2.8,1.1,2.8,2.8c0,5.2-4,6.4-7.9,6.4
	c-0.4,0-1.3,0-1.9-0.2C273.9,209.4,275.9,202.3,280.4,202.3 M284.6,216.2c-1,1.5-3.7,5.5-7.9,5.5c-2.8,0-4.1-2-4.1-5.1
	c0-1.8,0.3-3.4,0.5-4.1c0.7,0.1,1.4,0.2,2.2,0.2c3.4,0,11.6-1,11.6-6.5c0-3-2.7-4.8-5.9-4.8c-5.5,0-12.8,5.7-12.8,12.9
	c0,4.3,3.4,8.6,8.1,8.6c5,0,8.1-4.4,9.1-6.1L284.6,216.2z M257.6,202.1h-3.7c-0.4,2.4-5.7,19.1-11.2,19.1c-1.1,0-1.3-0.6-1.3-1.7
	c0-0.8,0.4-2.2,0.8-3.5l2.3-8.1c0.4-1.5,0.9-2.5,0.9-4.1c0-1.3-0.7-2.5-2.8-2.5c-3.4,0-6.3,4.6-7.2,6l0.8,0.4
	c0.4-0.7,2.9-4.4,4.3-4.4c0.5,0,0.8,0.2,0.8,1c0,0.6-0.3,1.7-0.7,2.7l-2.6,8.7c-0.1,0.3-0.7,2.6-0.7,3.5c0,2.3,1.6,3.7,3.8,3.7
	c3.3,0,5.8-2.8,7.7-5.7c1.3-2,2.2-4.1,2.4-4.8l0.1,0.1c-0.1,0.3-0.7,3-0.7,4.3c0,3.3,1.3,6.1,4.5,6.1c7.1,0,11.5-11.7,11.5-17.5
	c0-2-0.9-4-2.7-4c-1.3,0-2,0.9-2,2.1c0,0.7,0.3,1.5,1.2,1.8c0.7,0.3,2.2,0,2.2,2c0,3.9-4.4,13.9-8.6,13.9c-2.1,0-2.5-1.6-2.5-3.9
	c0-2,0.7-5.1,1.4-7.8L257.6,202.1z M218.7,217.8c0-1.4,0.3-6.4,2.2-11.2c1.3-3.1,2.7-4.3,5.1-4.3c2.4,0,3.7,1.5,3.7,3.9
	c0,1.4-0.3,6.4-2.2,11.2c-1.3,3.1-2.7,4.3-5.1,4.3C220,221.7,218.7,220.3,218.7,217.8 M222.2,222.7c6.6,0,11.8-7,11.8-13
	c0-4.7-3.1-8.4-7.9-8.4c-6.6,0-11.8,7-11.8,13C214.3,219,217.4,222.7,222.2,222.7 M197.4,216.9c0-3.8,2.2-14.6,8.6-14.6
	c2,0,3,1.5,3,3.5c0,1.9-1.7,15.9-6.9,15.9C199.4,221.7,197.4,219.7,197.4,216.9 M185.7,230.9h12.2l0.2-1h-4.2l2.6-10.4
	c0.3,0.7,1.6,3.3,5.3,3.3c6.1,0,11.5-7.6,11.5-13.2c0-4.7-3-8.2-7.2-8.2c-3.4,0-5.2,2.2-6.1,3.2l-0.1-0.1l0.7-2.7
	c-1.7,0.2-3.4,0.3-5.1,0.3h-3l-0.2,1h4.1l-6.5,26.7H186L185.7,230.9z M168.5,228.9c0.7-0.4,2.4-1.1,4-2.5c1-0.9,2.8-3,2.8-5.1
	c0-2-1.3-3.9-3.6-3.9c-1.3,0-2.8,1-2.8,2.7c0,0.8,0.5,2.2,2.3,2.2c0.8,0,1.2-0.4,1.5-0.8c0.3-0.3,0.4-0.7,0.7-0.7
	c0.5,0,0.7,0.5,0.7,1.1c0,0.8-0.8,2.6-2.1,3.7c-1.4,1.2-2.9,2.1-3.8,2.5L168.5,228.9z M143.7,222h4.1l2.7-10.6
	c0.7-2.9,3.3-8.5,7.9-8.5c1.1,0,1.9,0.6,1.9,1.5c0,0.8-0.3,2-0.7,3.2l-2.2,8.5c-0.3,1.1-0.7,2.6-0.7,3.7c0,1.8,1.5,2.9,3.3,2.9
	c4.5,0,6.4-4.5,7.1-6.4l-0.8-0.3c-0.4,0.8-2.4,5.1-4.4,5.1c-0.8,0-1.1-0.5-1.1-1.3c0-1,0.4-2.5,0.8-4.1l1.9-7.4
	c0.3-1.3,0.7-2.6,0.7-4c0-2.1-1.6-3.1-4-3.1c-4.4,0-7.1,2.4-8.9,4.8l-0.1-0.1l1.1-4.3c-1.8,0.2-3.5,0.3-5.7,0.3h-2.2l-0.3,1h3.9
	L143.7,222z M127,217.8c0-1.4,0.3-6.4,2.2-11.2c1.3-3.1,2.7-4.3,5.1-4.3c2.4,0,3.7,1.5,3.7,3.9c0,1.4-0.3,6.4-2.2,11.2
	c-1.3,3.1-2.7,4.3-5.1,4.3C128.3,221.7,127,220.3,127,217.8 M130.6,222.7c6.6,0,11.8-7,11.8-13c0-4.7-3.1-8.4-7.9-8.4
	c-6.6,0-11.8,7-11.8,13C122.7,219,125.8,222.7,130.6,222.7 M118.8,196.9c1.4,0,2.5-1.1,2.5-2.5c0-1.4-1.1-2.5-2.5-2.5
	c-1.4,0-2.5,1.1-2.5,2.5C116.3,195.8,117.4,196.9,118.8,196.9 M120.8,216c-0.4,0.8-2.4,5.1-4.4,5.1c-0.8,0-1.1-0.5-1.1-1.3
	c0-1,0.4-2.5,0.8-4.1l3.7-14.1c-1.6,0.2-3.1,0.3-5.1,0.3h-3l-0.3,1h3.8l-3.4,13c-0.3,1.1-0.7,2.6-0.7,3.7c0,1.8,1.5,2.9,3.3,2.9
	c4.5,0,6.4-4.5,7.1-6.4L120.8,216z M107.9,216c-0.4,0.8-2.4,5.1-4.4,5.1c-1.1,0-1.6-0.3-1.6-1.3c0-0.7,0.2-1.9,0.6-3.2l3.6-13.5h3.9
	l0.3-1h-4l1.4-5.1c-1.7,0.3-3.2,0.3-4.1,0.3l-1.3,4.9h-3.2l-0.3,1h3.2l-3.5,13c-0.3,1.2-0.7,2.3-0.7,3.3c0,2.6,1.7,3.3,3.7,3.3
	c4.5,0,6.4-4.5,7.1-6.4L107.9,216z M95,216.5c-1,1.5-3.8,5.1-8,5.1c-2.6,0-4.2-1.7-4.2-5.8c0-0.9,0.6-4.9,2.6-9.3
	c1.4-3.3,3.5-4.3,5.9-4.3c1.5,0,3,0.6,3,1.3c0,0.7-1.1,1-1.1,2.2c0,1.3,0.7,2,2,2c1.4,0,2.1-1,2.1-2.3c0-2-2.6-4.2-5.9-4.2
	c-7.3,0-12.9,7-12.9,12.2c0,5.5,3.2,9.2,8.2,9.2c5.1,0,8.1-4.1,9.1-5.8L95,216.5z M54.5,222h4.1l2.7-10.6c0.7-2.9,3.3-8.5,7.9-8.5
	c1.1,0,1.9,0.6,1.9,1.5c0,0.8-0.3,2-0.7,3.2l-2.2,8.5c-0.3,1.1-0.7,2.6-0.7,3.7c0,1.8,1.5,2.9,3.3,2.9c4.5,0,6.4-4.5,7.1-6.4
	l-0.8-0.3c-0.4,0.8-2.4,5.1-4.4,5.1c-0.8,0-1.1-0.5-1.1-1.3c0-1,0.4-2.5,0.8-4.1l1.9-7.4c0.3-1.3,0.7-2.6,0.7-4c0-2.1-1.6-3.1-4-3.1
	c-4.4,0-7.1,2.4-8.9,4.8l-0.1-0.1l1.1-4.3c-1.8,0.2-3.5,0.3-5.7,0.3h-2.2l-0.3,1h3.9L54.5,222z M53.6,216c-0.4,0.8-2.4,5.1-4.4,5.1
	c-0.8,0-1.1-0.5-1.1-1.3c0-1,0.2-2.4,0.4-3.3l3.5-14.5H48l-2.7,10.6c-0.7,2.9-3.3,8.5-7.9,8.5c-1.1,0-1.8-0.7-1.8-2
	c0-0.9,0.4-2.3,0.7-3.4l3.4-13.6h-7.8l-0.3,1h3.7L32,215.6c-0.2,0.9-0.5,2.3-0.5,3.5c0,2.6,1.5,3.6,3.9,3.6c4.4,0,6.9-2.1,8.8-4.8
	l0.1,0.1c-0.1,0.5-0.2,1.2-0.2,1.8c0,1.8,1.5,2.9,3.3,2.9c4.5,0,6.4-4.5,7.1-6.4L53.6,216z M31,203.1l0.3-1H27
	c0.3-1.8,1.7-10.4,6.6-10.4c0.9,0,1.7,0.3,1.7,0.7c0,0.6-1,1.1-1,2c0,1.3,0.7,1.9,2.1,1.9c1.2,0,2-1,2-2.2c0-1.8-1.9-3.5-4.8-3.5
	c-7.1,0-10,9.2-10.7,11.4h-4.4l-0.2,1h4.4c-1.7,6.9-2,11.9-4.2,20.6c-0.3,1.2-1.9,6.9-5.3,6.9c-0.5,0-0.8-0.4-0.8-0.8
	c0-0.3,0.2-0.7,0.2-1.2c0-1-0.7-1.8-1.9-1.8c-1.4,0-2.2,0.7-2.2,2.1c0,1.9,1.6,2.7,3.6,2.7c5.1,0,8.4-6.4,9.1-7.9
	c3.4-6.9,4.9-17.9,5.5-20.6H31z"/>
<path fill="#010101" d="M713.7,183.4c0.7-0.4,2.4-1.1,4-2.5c1-0.9,2.8-3,2.8-5.1c0-2-1.3-3.9-3.6-3.9c-1.3,0-2.8,1-2.8,2.7
	c0,0.8,0.5,2.2,2.3,2.2c0.8,0,1.2-0.4,1.5-0.8c0.3-0.3,0.4-0.7,0.7-0.7c0.5,0,0.7,0.5,0.7,1.1c0,0.8-0.8,2.6-2.1,3.7
	c-1.4,1.2-2.9,2.1-3.8,2.5L713.7,183.4z M705.2,163c-0.7-1.9-1.9-7.2-5-7.2c-3.2,0-5.1,5-5.6,6.3l0.7,0.3c0.5-1,1.6-4.1,3-4.1
	c0.9,0,1.9,3.2,2.3,4.4l3,8.6c0.3,0.9,1,2.5,1,3.7c0,2-5.6,9.6-9.5,9.6c-0.8,0-1.1-0.5-1.1-1.5c0-0.8-0.7-1.4-1.7-1.4
	c-1.1,0-2,0.7-2,2c0,1.7,1.6,2.6,3.1,2.6c7.8,0,12.9-11,15.3-16.3c1.6-3.6,4.3-11,5.7-11c0.4,0,0.8,0.6,1.6,0.6c1.2,0,2-0.7,2-1.8
	c0-1-0.7-1.9-1.9-1.9c-2.2,0-3.3,2.3-4.4,4.8c-1.4,3.2-3.4,7.9-4.1,9.4L705.2,163z M692.9,170.5c-0.4,0.8-2.4,5.1-4.4,5.1
	c-1.1,0-1.6-0.3-1.6-1.3c0-0.7,0.2-1.9,0.6-3.2l3.6-13.5h3.9l0.3-1h-4l1.4-5.1c-1.7,0.3-3.2,0.3-4.1,0.3l-1.4,4.9h-3.2l-0.3,1h3.2
	l-3.5,13c-0.3,1.2-0.7,2.3-0.7,3.3c0,2.6,1.7,3.3,3.7,3.3c4.5,0,6.4-4.5,7.1-6.4L692.9,170.5z M678.9,151.3c1.4,0,2.5-1.1,2.5-2.5
	c0-1.4-1.1-2.5-2.5-2.5s-2.5,1.1-2.5,2.5C676.5,150.2,677.5,151.3,678.9,151.3 M680.9,170.5c-0.4,0.8-2.4,5.1-4.4,5.1
	c-0.8,0-1.1-0.5-1.1-1.3c0-1,0.4-2.5,0.8-4.1l3.7-14.1c-1.6,0.2-3.1,0.3-5.1,0.3h-3l-0.3,1h3.8l-3.4,13c-0.3,1.1-0.7,2.6-0.7,3.7
	c0,1.8,1.5,2.9,3.3,2.9c4.5,0,6.4-4.5,7.1-6.4L680.9,170.5z M654.2,176.4h4.1l2.2-9.1c0.8-3.3,4-9.1,6-9.1c1.1,0,0.9,1.9,2.4,1.9
	c1.5,0,2.3-0.7,2.3-2c0-1.4-0.8-2.3-2.3-2.3c-3.9,0-6.5,4.8-7.4,6.4l-0.1-0.1l1.4-5.8c-1.4,0.2-2.9,0.3-4.7,0.3h-3.4l-0.2,1h4.1
	L654.2,176.4z M634.6,172.4c0-1.6,1-7.4,3.1-12.5c0.9-2.3,2.4-3.2,4.1-3.2c2.2,0,3.7,1.5,3.7,4.3c0,2.6-2.8,15-8.4,15
	C635.3,176.2,634.6,174.5,634.6,172.4 M651.7,170.9c-0.7,1.2-2.5,4.3-3.9,4.3c-0.7,0-0.9-0.6-0.9-1.3c0-0.6,0.3-1.9,0.5-2.7
	l3.8-14.6h-3.9l-0.7,2.5c-0.4-0.9-1.5-3.3-4.9-3.3c-4.8,0-11.5,6.3-11.5,12.9c0,4.7,2.4,8.5,6,8.5c3.6,0,5.5-2.4,6.4-3.7h0.1
	c0,1.3,0.1,3.7,3,3.7c3.6,0,5.8-4.2,6.7-5.8L651.7,170.9z M628.9,170.5c-0.4,0.8-2.4,5.1-4.4,5.1c-0.8,0-1.1-0.5-1.1-1.3
	c0-1,0.4-2.5,0.8-4.1l6.3-24.7c-1.6,0.2-3.1,0.3-5.1,0.3H622l-0.3,1h4.2l-6,23.7c-0.3,1.1-0.7,2.6-0.7,3.7c0,1.8,1.5,2.9,3.3,2.9
	c4.5,0,6.4-4.5,7.1-6.4L628.9,170.5z M616.5,171c-1,1.5-3.8,5.1-8,5.1c-2.6,0-4.2-1.7-4.2-5.7c0-0.9,0.6-4.9,2.6-9.3
	c1.4-3.3,3.5-4.3,5.9-4.3c1.5,0,3,0.6,3,1.3c0,0.7-1.1,1-1.1,2.2c0,1.3,0.7,2,2,2c1.4,0,2.1-1,2.1-2.3c0-2-2.6-4.2-5.9-4.2
	c-7.3,0-12.9,7-12.9,12.2c0,5.5,3.2,9.2,8.2,9.2c5.1,0,8.1-4.1,9.1-5.8L616.5,171z M588,157.6l0.3-1H584c0.3-1.8,1.7-10.4,6.6-10.4
	c0.9,0,1.7,0.3,1.7,0.7c0,0.6-1,1.1-1,2c0,1.3,0.7,1.9,2.1,1.9c1.2,0,2-1,2-2.2c0-1.8-1.9-3.5-4.8-3.5c-7.1,0-10,9.2-10.7,11.4h-4.4
	l-0.2,1h4.4c-1.7,6.9-2,11.9-4.2,20.6c-0.3,1.2-1.9,6.9-5.3,6.9c-0.5,0-0.8-0.4-0.8-0.8c0-0.3,0.2-0.7,0.2-1.2c0-1-0.7-1.8-1.9-1.8
	c-1.3,0-2.2,0.7-2.2,2.1c0,1.9,1.6,2.7,3.6,2.7c5.1,0,8.4-6.4,9.1-7.9c3.4-6.9,4.9-17.9,5.5-20.6H588z M557.8,172.3
	c0-1.4,0.3-6.4,2.2-11.2c1.3-3.1,2.7-4.3,5.1-4.3c2.4,0,3.7,1.5,3.7,3.9c0,1.4-0.3,6.4-2.2,11.2c-1.3,3.1-2.7,4.3-5.1,4.3
	C559.1,176.2,557.8,174.7,557.8,172.3 M561.3,177.2c6.6,0,11.8-7,11.8-13c0-4.7-3.1-8.4-7.9-8.4c-6.6,0-11.8,7-11.8,13
	C553.4,173.5,556.5,177.2,561.3,177.2 M533.4,156.8c1.9,0,2.8,1.1,2.8,2.8c0,5.2-4,6.4-7.9,6.4c-0.4,0-1.3,0-1.9-0.2
	C527,163.9,529,156.8,533.4,156.8 M537.7,170.7c-1,1.5-3.7,5.5-7.9,5.5c-2.8,0-4.1-2-4.1-5.1c0-1.8,0.3-3.4,0.5-4.1
	c0.7,0.1,1.4,0.2,2.2,0.2c3.4,0,11.6-1,11.6-6.5c0-3-2.7-4.8-5.9-4.8c-5.5,0-12.8,5.7-12.8,12.9c0,4.3,3.4,8.6,8.1,8.6
	c5,0,8.1-4.4,9.1-6.1L537.7,170.7z M518.5,171c-1,1.5-3.8,5.1-8,5.1c-2.6,0-4.2-1.7-4.2-5.7c0-0.9,0.6-4.9,2.6-9.3
	c1.4-3.3,3.5-4.3,5.9-4.3c1.5,0,3,0.6,3,1.3c0,0.7-1.1,1-1.1,2.2c0,1.3,0.7,2,2,2c1.4,0,2.1-1,2.1-2.3c0-2-2.6-4.2-5.9-4.2
	c-7.3,0-12.9,7-12.9,12.2c0,5.5,3.2,9.2,8.2,9.2c5.1,0,8.1-4.1,9.1-5.8L518.5,171z M478,176.4h4.1l2.7-10.6c0.7-2.9,3.3-8.4,7.9-8.4
	c1.1,0,1.9,0.6,1.9,1.5c0,0.8-0.3,2-0.7,3.2l-2.2,8.5c-0.3,1.1-0.7,2.6-0.7,3.7c0,1.8,1.5,2.9,3.3,2.9c4.5,0,6.4-4.5,7.1-6.4
	l-0.8-0.3c-0.4,0.8-2.4,5.1-4.4,5.1c-0.8,0-1.1-0.5-1.1-1.3c0-1,0.4-2.5,0.8-4.1l1.9-7.4c0.3-1.3,0.7-2.6,0.7-4c0-2.1-1.6-3.1-4-3.1
	c-4.4,0-7.1,2.4-8.9,4.8l-0.1-0.1l1.1-4.3c-1.8,0.2-3.5,0.3-5.7,0.3H479l-0.3,1h3.9L478,176.4z M470.7,156.8c1.9,0,2.8,1.1,2.8,2.8
	c0,5.2-4,6.4-7.9,6.4c-0.4,0-1.3,0-1.9-0.2C464.2,163.9,466.3,156.8,470.7,156.8 M475,170.7c-1,1.5-3.7,5.5-7.9,5.5
	c-2.8,0-4.1-2-4.1-5.1c0-1.8,0.3-3.4,0.5-4.1c0.7,0.1,1.4,0.2,2.2,0.2c3.4,0,11.6-1,11.6-6.5c0-3-2.7-4.8-5.9-4.8
	c-5.5,0-12.8,5.7-12.8,12.9c0,4.3,3.4,8.6,8.1,8.6c5,0,8.1-4.4,9.1-6.1L475,170.7z M447.4,177.2c4.3,0,8-2.6,8-6.6
	c0-3-1.6-4.5-3.4-5.9c-2.3-1.7-5.1-3.2-5.1-5.1c0-2.1,2.6-2.9,4.2-2.9c1.1,0,2.6,0.2,2.6,0.9c0,0.5-0.7,1.1-0.7,1.7
	c0,1,0.7,1.7,1.8,1.7c1.4,0,2-0.9,2-2c0-2.3-2.7-3.4-5.6-3.4c-3.7,0-7.2,2.7-7.2,6c0,3.2,3,4.9,5.4,6.7c1.6,1.2,3.1,2.3,3.1,4.1
	c0,2.4-2.4,3.6-4.7,3.6c-1.7,0-4.1-0.4-4.1-1.7c0-0.5,0.7-1.2,0.7-1.9c0-1-0.8-1.7-1.7-1.7c-1.4,0-2,1-2,1.9
	C440.5,175.2,443.2,177.2,447.4,177.2 M430.6,177.2c4.3,0,8-2.6,8-6.6c0-3-1.6-4.5-3.4-5.9c-2.3-1.7-5.1-3.2-5.1-5.1
	c0-2.1,2.6-2.9,4.2-2.9c1.1,0,2.6,0.2,2.6,0.9c0,0.5-0.7,1.1-0.7,1.7c0,1,0.7,1.7,1.8,1.7c1.4,0,2-0.9,2-2c0-2.3-2.7-3.4-5.6-3.4
	c-3.7,0-7.2,2.7-7.2,6c0,3.2,3,4.9,5.4,6.7c1.6,1.2,3.1,2.3,3.1,4.1c0,2.4-2.4,3.6-4.7,3.6c-1.7,0-4.1-0.4-4.1-1.7
	c0-0.5,0.7-1.2,0.7-1.9c0-1-0.8-1.7-1.7-1.7c-1.4,0-2,1-2,1.9C423.7,175.2,426.3,177.2,430.6,177.2 M416.9,156.8
	c1.9,0,2.8,1.1,2.8,2.8c0,5.2-4,6.4-7.9,6.4c-0.4,0-1.3,0-1.9-0.2C410.4,163.9,412.5,156.8,416.9,156.8 M421.2,170.7
	c-1,1.5-3.7,5.5-7.9,5.5c-2.8,0-4.1-2-4.1-5.1c0-1.8,0.3-3.4,0.5-4.1c0.7,0.1,1.4,0.2,2.2,0.2c3.4,0,11.6-1,11.6-6.5
	c0-3-2.7-4.8-5.9-4.8c-5.5,0-12.8,5.7-12.8,12.9c0,4.3,3.4,8.6,8.1,8.6c5,0,8.1-4.4,9.1-6.1L421.2,170.7z M373.5,172.3
	c0-1.4,0.3-6.4,2.2-11.2c1.3-3.1,2.7-4.3,5.1-4.3c2.3,0,3.8,1.7,3.8,4.1c0,3.1-2.4,15.2-8.4,15.2
	C374.5,176.2,373.5,174.7,373.5,172.3 M390.8,170.7c-0.3,0.5-2.7,4.1-3.7,4.1c-0.6,0-1.1-0.1-1.1-1.1c0-0.9,0.3-2.1,0.6-3.3
	l6.1-24.9c-1.6,0.1-3.7,0.3-6.1,0.3h-2.3l-0.2,1h4.3l-2.9,11.5c-0.6-1-1.8-2.7-4.4-2.7c-6.6,0-11.8,7-11.8,13c0,4.7,2.6,8.4,6.6,8.4
	c3.7,0,5.8-3.4,6.4-4.4h0.1c0,1.4,0,4.1,2.8,4.1c3.4,0,5.8-4.5,6.5-5.6L390.8,170.7z M361.5,156.8c1.9,0,2.8,1.1,2.8,2.8
	c0,5.2-4,6.4-7.9,6.4c-0.4,0-1.3,0-1.9-0.2C355,163.9,357,156.8,361.5,156.8 M365.7,170.7c-1,1.5-3.7,5.5-7.9,5.5
	c-2.8,0-4.1-2-4.1-5.1c0-1.8,0.3-3.4,0.5-4.1c0.7,0.1,1.4,0.2,2.2,0.2c3.4,0,11.6-1,11.6-6.5c0-3-2.7-4.8-5.9-4.8
	c-5.5,0-12.8,5.7-12.8,12.9c0,4.3,3.4,8.6,8.1,8.6c5,0,8.1-4.4,9.1-6.1L365.7,170.7z M338.1,175.5c2.6,0.2,5.7,0,5.7,3
	c0,3.7-4.1,6.7-9,6.7c-3.5,0-6.6-1.7-6.6-4.9c0-3.1,2.9-4.4,4.2-5.1L338.1,175.5z M333.9,164.7c0-2.1,1-7.9,4.4-7.9
	c1.7,0,3.2,0.8,3.2,2.9c0,2.6-1,7.9-4.7,7.9C335.4,167.7,333.9,166.8,333.9,164.7 M335.4,171.6c-2.3-0.2-5.4-0.2-5.4-2.1
	c0-1.4,1.5-2,2.3-2.4c1,0.6,2,1.6,5.1,1.6c3.7,0,6.6-2,7.8-6c0.4-1.5,0.7-5.5,1.7-5.5c0.9,0,0.7,1,1.7,1c0.8,0,1.4-0.5,1.4-1.4
	c0-1-0.9-1.5-1.8-1.5c-2.7,0-3.1,3.1-3.4,4.4h-0.1c-0.6-1.7-2.1-3.8-6.2-3.8c-4.7,0-8.3,3.1-8.3,6.8c0,2.2,0.8,3.2,1.5,4
	c-1.3,0.7-3.9,1.7-3.9,4.7c0,2.4,2,3.1,3.4,3.7c-1.3,0.5-5.7,1.9-5.7,5.3c0,3.9,3.8,6,8.5,6c6.4,0,11.3-3.6,11.3-9.2
	c0-4.7-3.4-4.7-5.7-5L335.4,171.6z M311.1,176.4h4.1l2.2-9.1c0.8-3.3,4-9.1,6-9.1c1.1,0,0.9,1.9,2.4,1.9c1.5,0,2.3-0.7,2.3-2
	c0-1.4-0.8-2.3-2.3-2.3c-3.9,0-6.5,4.8-7.4,6.4l-0.1-0.1l1.4-5.8c-1.4,0.2-2.9,0.3-4.7,0.3h-3.4l-0.2,1h4.1L311.1,176.4z
	 M291.5,172.4c0-1.6,1-7.4,3.1-12.5c0.9-2.3,2.4-3.2,4.1-3.2c2.2,0,3.7,1.5,3.7,4.3c0,2.6-2.8,15-8.4,15
	C292.2,176.2,291.5,174.5,291.5,172.4 M308.6,170.9c-0.7,1.2-2.5,4.3-3.9,4.3c-0.7,0-0.9-0.6-0.9-1.3c0-0.6,0.3-1.9,0.5-2.7
	l3.8-14.6h-3.9l-0.7,2.5c-0.4-0.9-1.5-3.3-4.9-3.3c-4.8,0-11.5,6.3-11.5,12.9c0,4.7,2.4,8.5,6,8.5c3.6,0,5.5-2.4,6.4-3.7h0.1
	c0,1.3,0.1,3.7,3,3.7c3.6,0,5.8-4.2,6.7-5.8L308.6,170.9z M263,176.4h4.1l2.7-10.6c0.8-2.9,3.5-8.4,8.4-8.4c1.1,0,1.9,0.6,1.9,1.5
	c0,0.8-0.3,2-0.7,3.2l-2.2,8.5c-0.3,1.1-0.7,2.6-0.7,3.7c0,1.8,1.5,2.9,3.3,2.9c4.5,0,6.4-4.5,7.1-6.4l-0.8-0.3
	c-0.4,0.8-2.4,5.1-4.4,5.1c-0.8,0-1.1-0.5-1.1-1.3c0-1,0.4-2.5,0.8-4.1l1.9-7.4c0.3-1.3,0.7-2.7,0.7-4.1c0-1.8-1.8-3-4-3
	c-4.6,0-7.4,2.4-9.4,4.8l-0.1-0.1l3.7-14.9c-1.8,0.2-3.5,0.3-5.7,0.3h-2.2l-0.3,1h3.9L263,176.4z M261.3,171c-1,1.5-3.8,5.1-8,5.1
	c-2.6,0-4.2-1.7-4.2-5.7c0-0.9,0.6-4.9,2.6-9.3c1.4-3.3,3.5-4.3,5.9-4.3c1.5,0,3.1,0.6,3.1,1.3c0,0.7-1.1,1-1.1,2.2c0,1.3,0.7,2,2,2
	c1.4,0,2.1-1,2.1-2.3c0-2-2.6-4.2-5.9-4.2c-7.3,0-12.9,7-12.9,12.2c0,5.5,3.2,9.2,8.2,9.2c5.1,0,8.1-4.1,9.1-5.8L261.3,171z
	 M229.1,168h10.8l1.8-3.1h-10.8L229.1,168z M218.3,163c-0.7-1.9-1.9-7.2-5-7.2c-3.2,0-5.1,5-5.6,6.3l0.7,0.3c0.5-1,1.6-4.1,3-4.1
	c0.9,0,1.9,3.2,2.3,4.4l3,8.6c0.3,0.9,1,2.5,1,3.7c0,2-5.6,9.6-9.5,9.6c-0.8,0-1.1-0.5-1.1-1.5c0-0.8-0.7-1.4-1.7-1.4
	c-1.1,0-2,0.7-2,2c0,1.7,1.6,2.6,3.1,2.6c7.8,0,12.9-11,15.3-16.3c1.6-3.6,4.3-11,5.7-11c0.4,0,0.8,0.6,1.6,0.6c1.2,0,2-0.7,2-1.8
	c0-1-0.7-1.9-1.9-1.9c-2.2,0-3.3,2.3-4.4,4.8c-1.4,3.2-3.4,7.9-4.1,9.4L218.3,163z M207,170.5c-0.4,0.8-2.4,5.1-4.4,5.1
	c-0.8,0-1.1-0.5-1.1-1.3c0-1,0.4-2.5,0.8-4.1l6.3-24.7c-1.6,0.2-3.1,0.3-5.1,0.3h-3.4l-0.3,1h4.2l-6,23.7c-0.3,1.1-0.7,2.6-0.7,3.7
	c0,1.8,1.5,2.9,3.3,2.9c4.5,0,6.4-4.5,7.1-6.4L207,170.5z M173,176.4h4.1l2.7-10.6c0.8-2.9,3.5-8.4,8.4-8.4c1.1,0,1.9,0.6,1.9,1.5
	c0,0.8-0.3,2-0.7,3.2l-2.2,8.5c-0.3,1.1-0.7,2.6-0.7,3.7c0,1.8,1.5,2.9,3.3,2.9c4.5,0,6.4-4.5,7.1-6.4l-0.8-0.3
	c-0.4,0.8-2.4,5.1-4.4,5.1c-0.8,0-1.1-0.5-1.1-1.3c0-1,0.4-2.5,0.8-4.1l1.9-7.4c0.3-1.3,0.7-2.7,0.7-4.1c0-1.8-1.8-3-4-3
	c-4.6,0-7.4,2.4-9.4,4.8l-0.1-0.1l3.7-14.9c-1.8,0.2-3.5,0.3-5.7,0.3h-2.2l-0.3,1h3.9L173,176.4z M162.8,175.5c2.6,0.2,5.7,0,5.7,3
	c0,3.7-4.1,6.7-9,6.7c-3.5,0-6.6-1.7-6.6-4.9c0-3.1,2.9-4.4,4.2-5.1L162.8,175.5z M158.7,164.7c0-2.1,1-7.9,4.4-7.9
	c1.7,0,3.2,0.8,3.2,2.9c0,2.6-1,7.9-4.7,7.9C160.1,167.7,158.7,166.8,158.7,164.7 M160.1,171.6c-2.3-0.2-5.4-0.2-5.4-2.1
	c0-1.4,1.5-2,2.3-2.4c1,0.6,2,1.6,5.1,1.6c3.7,0,6.6-2,7.8-6c0.4-1.5,0.7-5.5,1.7-5.5c0.9,0,0.7,1,1.7,1c0.8,0,1.4-0.5,1.4-1.4
	c0-1-0.9-1.5-1.8-1.5c-2.7,0-3.1,3.1-3.4,4.4h-0.1c-0.6-1.7-2.1-3.8-6.2-3.8c-4.7,0-8.3,3.1-8.3,6.8c0,2.2,0.8,3.2,1.5,4
	c-1.3,0.7-3.9,1.7-3.9,4.7c0,2.4,2,3.1,3.4,3.7c-1.3,0.5-5.7,1.9-5.7,5.3c0,3.9,3.8,6,8.5,6c6.4,0,11.3-3.6,11.3-9.2
	c0-4.7-3.4-4.7-5.7-5L160.1,171.6z M147.7,151.3c1.4,0,2.5-1.1,2.5-2.5c0-1.4-1.1-2.5-2.5-2.5s-2.5,1.1-2.5,2.5
	C145.2,150.2,146.3,151.3,147.7,151.3 M149.6,170.5c-0.4,0.8-2.4,5.1-4.4,5.1c-0.8,0-1.1-0.5-1.1-1.3c0-1,0.4-2.5,0.8-4.1l3.7-14.1
	c-1.6,0.2-3.1,0.3-5.1,0.3h-3l-0.3,1h3.8l-3.4,13c-0.3,1.1-0.7,2.6-0.7,3.7c0,1.8,1.5,2.9,3.3,2.9c4.5,0,6.4-4.5,7.1-6.4
	L149.6,170.5z M115.1,176.4h4.1l2.7-10.6c0.8-2.9,3.5-8.4,8.4-8.4c1.1,0,1.9,0.6,1.9,1.5c0,0.8-0.3,2-0.7,3.2l-2.2,8.5
	c-0.3,1.1-0.7,2.6-0.7,3.7c0,1.8,1.5,2.9,3.3,2.9c4.5,0,6.4-4.5,7.1-6.4l-0.8-0.3c-0.4,0.8-2.4,5.1-4.4,5.1c-0.8,0-1.1-0.5-1.1-1.3
	c0-1,0.4-2.5,0.8-4.1l1.9-7.4c0.3-1.3,0.7-2.7,0.7-4.1c0-1.8-1.8-3-4-3c-4.6,0-7.4,2.4-9.4,4.8l-0.1-0.1l3.7-14.9
	c-1.8,0.2-3.5,0.3-5.7,0.3h-2.2l-0.3,1h3.9L115.1,176.4z M84.9,172.4c0-1.6,1-7.4,3.1-12.5c0.9-2.3,2.4-3.2,4.1-3.2
	c2.2,0,3.7,1.5,3.7,4.3c0,2.6-2.8,15-8.4,15C85.5,176.2,84.9,174.5,84.9,172.4 M101.9,170.9c-0.7,1.2-2.5,4.3-3.9,4.3
	c-0.7,0-0.9-0.6-0.9-1.3c0-0.6,0.3-1.9,0.5-2.7l3.8-14.6h-3.9l-0.7,2.5c-0.4-0.9-1.5-3.3-4.9-3.3c-4.8,0-11.5,6.3-11.5,12.9
	c0,4.7,2.4,8.5,6,8.5c3.6,0,5.5-2.4,6.4-3.7H93c0,1.3,0.1,3.7,3,3.7c3.6,0,5.8-4.2,6.7-5.8L101.9,170.9z M52.2,176.4h4.1l2.2-9.1
	c0.8-3.3,4-9.1,6-9.1c1.1,0,0.9,1.9,2.4,1.9c1.5,0,2.3-0.7,2.3-2c0-1.4-0.8-2.3-2.3-2.3c-3.9,0-6.5,4.8-7.4,6.4l-0.1-0.1l1.4-5.8
	c-1.4,0.2-2.9,0.3-4.7,0.3h-3.4l-0.2,1h4.1L52.2,176.4z M34.6,172.3c0-1.4,0.3-6.4,2.2-11.2c1.3-3.1,2.7-4.3,5.1-4.3
	c2.4,0,3.7,1.5,3.7,3.9c0,1.4-0.3,6.4-2.2,11.2c-1.3,3.1-2.7,4.3-5.1,4.3C35.9,176.2,34.6,174.7,34.6,172.3 M38.1,177.2
	c6.6,0,11.8-7,11.8-13c0-4.7-3.1-8.4-7.9-8.4c-6.6,0-11.8,7-11.8,13C30.2,173.5,33.3,177.2,38.1,177.2 M31,157.6l0.3-1H27
	c0.3-1.8,1.7-10.4,6.6-10.4c0.9,0,1.7,0.3,1.7,0.7c0,0.6-1,1.1-1,2c0,1.3,0.7,1.9,2.1,1.9c1.2,0,2-1,2-2.2c0-1.8-1.9-3.5-4.8-3.5
	c-7.1,0-10,9.2-10.7,11.4h-4.4l-0.2,1h4.4c-1.7,6.9-2,11.9-4.2,20.6c-0.3,1.2-1.9,6.9-5.3,6.9c-0.5,0-0.8-0.4-0.8-0.8
	c0-0.3,0.2-0.7,0.2-1.2c0-1-0.7-1.8-1.9-1.8c-1.4,0-2.2,0.7-2.2,2.1c0,1.9,1.6,2.7,3.6,2.7c5.1,0,8.4-6.4,9.1-7.9
	c3.4-6.9,4.9-17.9,5.5-20.6H31z"/>
<path fill="#010101" d="M842.7,111.3c1.9,0,2.8,1.1,2.8,2.8c0,5.2-4,6.4-7.9,6.4c-0.4,0-1.3,0-1.9-0.2
	C836.2,118.3,838.3,111.3,842.7,111.3 M847,125.1c-1,1.5-3.7,5.5-7.9,5.5c-2.8,0-4.1-2-4.1-5.1c0-1.8,0.3-3.4,0.5-4.1
	c0.7,0.1,1.4,0.2,2.2,0.2c3.4,0,11.6-1,11.6-6.5c0-3-2.7-4.8-5.9-4.8c-5.5,0-12.8,5.7-12.8,12.9c0,4.3,3.4,8.6,8.1,8.6
	c5,0,8.1-4.4,9.1-6.1L847,125.1z M818.1,117.5c0.4-1.5,1.1-3.4,1.1-4.5c0-1.7-1.1-2.8-3.1-2.8c-3.9,0-6.1,4.4-7.1,5.9l0.7,0.5
	c0.5-0.8,3-4.8,4.6-4.8c0.6,0,0.9,0.3,0.9,1.1c0,0.7-0.4,2.1-0.7,3l-2.1,7.4c-0.3,1-0.9,2.9-0.9,3.9c0,2.4,1.7,4.4,5,4.4
	c7.8,0,12.7-12.4,12.7-18c0-1.7-0.7-3.4-2.7-3.4c-0.8,0-1.8,0.8-1.8,2c0,1,0.4,1.5,1,1.7c0.9,0.4,2.1,0.2,2.1,1.7
	c0,4.4-5.1,14.4-10,14.4c-1.5,0-2.3-0.4-2.3-2c0-1.2,0.4-2.7,0.7-3.8L818.1,117.5z M805.8,105.8c1.4,0,2.5-1.1,2.5-2.5
	s-1.1-2.5-2.5-2.5c-1.4,0-2.5,1.1-2.5,2.5S804.4,105.8,805.8,105.8 M807.8,124.9c-0.4,0.8-2.4,5.1-4.4,5.1c-0.8,0-1.1-0.5-1.1-1.3
	c0-1,0.4-2.5,0.8-4.1l3.7-14.1c-1.6,0.2-3.1,0.3-5.1,0.3h-3l-0.3,1h3.8l-3.4,13c-0.3,1.1-0.7,2.6-0.7,3.7c0,1.8,1.5,2.9,3.3,2.9
	c4.5,0,6.4-4.5,7.1-6.4L807.8,124.9z M781.1,130.9h4.1l2.2-9.1c0.8-3.3,4-9.1,6-9.1c1.1,0,0.9,1.9,2.4,1.9c1.5,0,2.3-0.7,2.3-2
	c0-1.4-0.8-2.3-2.3-2.3c-3.9,0-6.5,4.8-7.4,6.4l-0.1-0.1l1.4-5.8c-1.4,0.2-2.9,0.3-4.7,0.3h-3.4l-0.2,1h4.1L781.1,130.9z M778,124.9
	c-0.4,0.8-2.4,5.1-4.4,5.1c-1.1,0-1.6-0.3-1.6-1.3c0-0.7,0.2-1.9,0.6-3.2l3.6-13.5h3.9l0.3-1h-4l1.4-5.1c-1.7,0.3-3.2,0.3-4.1,0.3
	l-1.3,4.9h-3.2l-0.3,1h3.2l-3.5,13c-0.3,1.2-0.7,2.3-0.7,3.3c0,2.6,1.7,3.3,3.7,3.3c4.5,0,6.4-4.5,7.1-6.4L778,124.9z M756.8,131.7
	c4.3,0,8-2.6,8-6.6c0-3-1.6-4.5-3.4-5.9c-2.3-1.7-5.1-3.2-5.1-5.1c0-2.1,2.6-2.9,4.2-2.9c1.1,0,2.6,0.2,2.6,0.9
	c0,0.5-0.7,1.1-0.7,1.7c0,1,0.7,1.7,1.8,1.7c1.4,0,2-0.9,2-2c0-2.3-2.7-3.4-5.6-3.4c-3.7,0-7.2,2.7-7.2,6c0,3.2,3,4.9,5.4,6.7
	c1.6,1.2,3.1,2.3,3.1,4.1c0,2.4-2.4,3.6-4.7,3.6c-1.7,0-4.1-0.4-4.1-1.7c0-0.5,0.7-1.2,0.7-1.9c0-1-0.8-1.7-1.7-1.7
	c-1.3,0-2,1-2,1.9C749.9,129.7,752.5,131.7,756.8,131.7 M731.1,111.3c1.9,0,2.8,1.1,2.8,2.8c0,5.2-4,6.4-7.9,6.4
	c-0.4,0-1.3,0-1.9-0.2C724.6,118.3,726.7,111.3,731.1,111.3 M735.4,125.1c-1,1.5-3.7,5.5-7.9,5.5c-2.8,0-4.1-2-4.1-5.1
	c0-1.8,0.3-3.4,0.5-4.1c0.7,0.1,1.4,0.2,2.2,0.2c3.4,0,11.6-1,11.6-6.5c0-3-2.7-4.8-5.9-4.8c-5.5,0-12.8,5.7-12.8,12.9
	c0,4.3,3.4,8.6,8.1,8.6c5,0,8.1-4.4,9.1-6.1L735.4,125.1z M708.3,111h-3.7c-0.4,2.4-5.7,19.1-11.2,19.1c-1.1,0-1.3-0.6-1.3-1.7
	c0-0.8,0.4-2.2,0.8-3.5l2.3-8.1c0.4-1.5,0.9-2.5,0.9-4.1c0-1.3-0.7-2.5-2.8-2.5c-3.4,0-6.3,4.6-7.2,6l0.8,0.4
	c0.4-0.7,2.9-4.4,4.3-4.4c0.5,0,0.8,0.2,0.8,1c0,0.6-0.3,1.7-0.7,2.7l-2.6,8.7c-0.1,0.3-0.7,2.6-0.7,3.5c0,2.3,1.6,3.7,3.8,3.7
	c3.3,0,5.8-2.8,7.7-5.7c1.3-2,2.2-4.1,2.4-4.8l0.1,0.1c-0.1,0.3-0.7,3-0.7,4.3c0,3.3,1.3,6.1,4.5,6.1c7.1,0,11.5-11.7,11.5-17.5
	c0-2-0.9-4-2.7-4c-1.3,0-2,0.9-2,2.1c0,0.7,0.3,1.5,1.2,1.8c0.7,0.3,2.2,0,2.2,2c0,3.9-4.4,13.9-8.6,13.9c-2.1,0-2.5-1.6-2.5-3.9
	c0-2,0.7-5.1,1.4-7.8L708.3,111z M663.5,137.8c0.7-0.4,2.4-1.1,4-2.5c1-0.9,2.8-3,2.8-5.1c0-2-1.3-3.9-3.6-3.9c-1.3,0-2.8,1-2.8,2.7
	c0,0.8,0.5,2.2,2.3,2.2c0.8,0,1.2-0.4,1.5-0.8c0.3-0.3,0.4-0.7,0.7-0.7c0.5,0,0.7,0.5,0.7,1.1c0,0.8-0.8,2.6-2.1,3.7
	c-1.4,1.2-2.9,2.1-3.8,2.5L663.5,137.8z M640.3,130.9h4.1L647,120c0.2,0,0.5,0.1,0.7,0.1c0.8,0,1.3-0.1,1.7-0.3
	c0.4-0.2,0.7-0.5,1.2-0.8c0.7,0.1,1.7,0.5,1.7,1.4c0,1.6-1.4,5.9-1.4,8c0,1.9,1.1,3.2,3.7,3.2c4.1,0,6.4-4.9,7.2-7.1l-0.8-0.3
	c-0.7,1.6-2.8,5.9-4.7,5.9c-0.8,0-1-0.8-1-1.7c0-0.6,0.1-2.6,0.1-4.3c0-4.4-2.6-5.3-4.1-5.8c1.3-1.4,2.6-4.4,4.1-6
	c0.6-0.7,1.3-1.1,2-1.1c0.5,0,0.9,0.2,0.9,0.8c0,0.2-0.7,0.7-0.7,1.6c0,1,0.9,1.7,1.9,1.7c1.4,0,2.2-0.8,2.2-2.3c0-1.6-1.6-3-3.3-3
	c-1.8,0-3.2,0.7-4.5,2.6c-0.3,0.4-2.7,4.4-3.6,5.3c-0.5,0-1.1,0-1.7,0c-0.3,0-0.8,0.1-1.3,0.3l4.5-18.4c-1.1,0.2-2.7,0.3-4.5,0.3
	h-3.7l-0.2,1h3.9L640.3,130.9z M623.7,130.9h4.1l2.2-9.1c0.8-3.3,4-9.1,6-9.1c1.1,0,0.9,1.9,2.4,1.9c1.5,0,2.3-0.7,2.3-2
	c0-1.4-0.8-2.3-2.3-2.3c-3.9,0-6.5,4.8-7.4,6.4l-0.1-0.1l1.4-5.8c-1.4,0.2-2.9,0.3-4.7,0.3h-3.4l-0.2,1h4.1L623.7,130.9z M606,126.7
	c0-1.4,0.3-6.4,2.2-11.2c1.3-3.1,2.7-4.3,5.1-4.3c2.4,0,3.7,1.5,3.7,3.9c0,1.4-0.3,6.4-2.2,11.2c-1.3,3.1-2.7,4.3-5.1,4.3
	C607.3,130.6,606,129.2,606,126.7 M609.5,131.7c6.6,0,11.8-7,11.8-13c0-4.7-3.1-8.4-7.9-8.4c-6.6,0-11.8,7-11.8,13
	C601.7,128,604.8,131.7,609.5,131.7 M591,111h-3.7c-0.4,2.4-5.7,19.1-11.2,19.1c-1.1,0-1.3-0.6-1.3-1.7c0-0.8,0.4-2.2,0.8-3.5
	l2.3-8.1c0.4-1.5,0.9-2.5,0.9-4.1c0-1.3-0.7-2.5-2.8-2.5c-3.4,0-6.3,4.6-7.2,6l0.8,0.4c0.4-0.7,2.9-4.4,4.3-4.4c0.5,0,0.8,0.2,0.8,1
	c0,0.6-0.3,1.7-0.7,2.7l-2.6,8.7c-0.1,0.3-0.7,2.6-0.7,3.5c0,2.3,1.6,3.7,3.8,3.7c3.3,0,5.8-2.8,7.7-5.7c1.3-2,2.2-4.1,2.4-4.8
	l0.1,0.1c-0.1,0.3-0.7,3-0.7,4.3c0,3.3,1.3,6.1,4.5,6.1c7.1,0,11.5-11.7,11.5-17.5c0-2-0.9-4-2.7-4c-1.3,0-2,0.9-2,2.1
	c0,0.7,0.3,1.5,1.2,1.8c0.7,0.3,2.2,0,2.2,2c0,3.9-4.4,13.9-8.6,13.9c-2.1,0-2.5-1.6-2.5-3.9c0-2,0.7-5.1,1.4-7.8L591,111z
	 M540.9,130.9h4.1l2.2-9.1c0.8-3.3,4-9.1,6-9.1c1.1,0,0.9,1.9,2.4,1.9c1.5,0,2.3-0.7,2.3-2c0-1.4-0.8-2.3-2.3-2.3
	c-3.9,0-6.5,4.8-7.4,6.4l-0.1-0.1l1.4-5.8c-1.4,0.2-2.9,0.3-4.7,0.3h-3.4l-0.2,1h4.1L540.9,130.9z M539.1,124.9
	c-0.4,0.8-2.4,5.1-4.4,5.1c-0.8,0-1.1-0.5-1.1-1.3c0-1,0.2-2.4,0.4-3.3l3.5-14.5h-4.1l-2.7,10.6c-0.7,2.9-3.3,8.4-7.9,8.4
	c-1.1,0-1.8-0.7-1.8-2c0-0.9,0.4-2.3,0.7-3.4L525,111h-7.8l-0.3,1h3.7l-3.2,12.5c-0.2,0.9-0.5,2.3-0.5,3.5c0,2.6,1.5,3.6,3.9,3.6
	c4.4,0,6.9-2.1,8.8-4.8l0.1,0.1c-0.1,0.5-0.2,1.2-0.2,1.8c0,1.8,1.5,2.9,3.3,2.9c4.5,0,6.4-4.5,7.1-6.4L539.1,124.9z M499.1,126.7
	c0-1.4,0.3-6.4,2.2-11.2c1.3-3.1,2.7-4.3,5.1-4.3c2.4,0,3.7,1.5,3.7,3.9c0,1.4-0.3,6.4-2.2,11.2c-1.3,3.1-2.7,4.3-5.1,4.3
	C500.4,130.6,499.1,129.2,499.1,126.7 M502.6,131.7c6.6,0,11.8-7,11.8-13c0-4.7-3.1-8.4-7.9-8.4c-6.6,0-11.8,7-11.8,13
	C494.7,128,497.8,131.7,502.6,131.7 M481,124.9c-0.4,0.8-2.4,5.1-4.4,5.1c-0.8,0-1.1-0.5-1.1-1.3c0-1,0.4-2.5,0.8-4.1l6.3-24.7
	c-1.6,0.2-3.1,0.3-5.1,0.3h-3.4l-0.3,1h4.2l-6,23.7c-0.3,1.1-0.7,2.6-0.7,3.7c0,1.8,1.5,2.9,3.3,2.9c4.5,0,6.4-4.5,7.1-6.4
	L481,124.9z M469.8,124.9c-0.4,0.8-2.4,5.1-4.4,5.1c-0.8,0-1.1-0.5-1.1-1.3c0-1,0.4-2.5,0.8-4.1l6.3-24.7c-1.6,0.2-3.1,0.3-5.1,0.3
	h-3.4l-0.3,1h4.2l-6,23.7c-0.3,1.1-0.7,2.6-0.7,3.7c0,1.8,1.5,2.9,3.3,2.9c4.5,0,6.4-4.5,7.1-6.4L469.8,124.9z M440.9,126.9
	c0-1.6,1-7.4,3.1-12.5c0.9-2.3,2.4-3.2,4.1-3.2c2.2,0,3.7,1.5,3.7,4.3c0,2.6-2.8,15-8.4,15C441.6,130.6,440.9,129,440.9,126.9
	 M458,125.4c-0.7,1.2-2.5,4.3-3.9,4.3c-0.7,0-0.9-0.6-0.9-1.3c0-0.6,0.3-1.9,0.5-2.7l3.8-14.6h-3.9l-0.7,2.5
	c-0.4-0.9-1.5-3.3-4.9-3.3c-4.8,0-11.5,6.3-11.5,12.9c0,4.7,2.4,8.5,6,8.5c3.6,0,5.5-2.4,6.4-3.7h0.1c0,1.3,0.1,3.7,3,3.7
	c3.6,0,5.8-4.2,6.7-5.8L458,125.4z M400.8,130.9h4.1l2.7-10.6c0.7-2.9,3.3-8.5,7.9-8.5c1.1,0,1.9,0.6,1.9,1.5c0,0.8-0.3,2-0.7,3.2
	l-2.2,8.5c-0.3,1.1-0.7,2.6-0.7,3.7c0,1.8,1.5,2.9,3.3,2.9c4.5,0,6.4-4.5,7.1-6.4l-0.8-0.3c-0.4,0.8-2.4,5.1-4.4,5.1
	c-0.8,0-1.1-0.5-1.1-1.3c0-1,0.4-2.5,0.8-4.1l1.9-7.4c0.3-1.3,0.7-2.6,0.7-4c0-2.1-1.6-3.1-4-3.1c-4.4,0-7.1,2.4-8.9,4.8l-0.1-0.1
	l1.1-4.3c-1.8,0.2-3.5,0.3-5.7,0.3h-2.2l-0.3,1h3.9L400.8,130.9z M384.4,130.9h12.4l0.2-1h-3.8l6.1-28.4h3.8l0.2-1h-12.5l-0.2,1h3.8
	l-6.1,28.4h-3.8L384.4,130.9z M366.8,131.7c1.5,0,2.7-1.2,2.7-2.7c0-1.5-1.2-2.7-2.7-2.7c-1.5,0-2.7,1.2-2.7,2.7
	C364.1,130.5,365.3,131.7,366.8,131.7 M356.6,111.3c1.9,0,2.8,1.1,2.8,2.8c0,5.2-4,6.4-7.9,6.4c-0.4,0-1.3,0-1.9-0.2
	C350.1,118.3,352.2,111.3,356.6,111.3 M360.9,125.1c-1,1.5-3.7,5.5-7.9,5.5c-2.8,0-4.1-2-4.1-5.1c0-1.8,0.3-3.4,0.5-4.1
	c0.7,0.1,1.4,0.2,2.2,0.2c3.4,0,11.6-1,11.6-6.5c0-3-2.7-4.8-5.9-4.8c-5.5,0-12.8,5.7-12.8,12.9c0,4.3,3.4,8.6,8.1,8.6
	c5,0,8.1-4.4,9.1-6.1L360.9,125.1z M342.8,124.9c-0.4,0.8-2.4,5.1-4.4,5.1c-0.8,0-1.1-0.5-1.1-1.3c0-1,0.4-2.5,0.8-4.1l6.3-24.7
	c-1.6,0.2-3.1,0.3-5.1,0.3h-3.4l-0.3,1h4.2l-6,23.7c-0.3,1.1-0.7,2.6-0.7,3.7c0,1.8,1.5,2.9,3.3,2.9c4.5,0,6.4-4.5,7.1-6.4
	L342.8,124.9z M320.4,117.5c-0.7-1.9-1.9-7.2-5-7.2c-3.2,0-5.1,5-5.6,6.3l0.7,0.3c0.5-1,1.6-4.1,3-4.1c0.9,0,1.9,3.2,2.3,4.4l3,8.6
	c0.3,0.9,1,2.5,1,3.7c0,2-5.6,9.6-9.5,9.6c-0.8,0-1.1-0.5-1.1-1.5c0-0.8-0.7-1.4-1.7-1.4c-1.1,0-2,0.7-2,2c0,1.7,1.6,2.6,3.1,2.6
	c7.8,0,12.9-11,15.3-16.3c1.6-3.6,4.3-11,5.7-11c0.4,0,0.8,0.6,1.6,0.6c1.2,0,2-0.7,2-1.8c0-1-0.7-1.9-1.9-1.9
	c-2.2,0-3.3,2.3-4.4,4.8c-1.4,3.2-3.4,7.9-4.1,9.4L320.4,117.5z M308,124.9c-0.4,0.8-2.4,5.1-4.4,5.1c-1.1,0-1.6-0.3-1.6-1.3
	c0-0.7,0.2-1.9,0.6-3.2l3.6-13.5h3.9l0.3-1h-4l1.4-5.1c-1.7,0.3-3.2,0.3-4.1,0.3l-1.4,4.9h-3.2l-0.3,1h3.2l-3.5,13
	c-0.3,1.2-0.7,2.3-0.7,3.3c0,2.6,1.7,3.3,3.7,3.3c4.5,0,6.4-4.5,7.1-6.4L308,124.9z M286.7,131.7c4.3,0,8-2.6,8-6.6
	c0-3-1.6-4.5-3.4-5.9c-2.3-1.7-5.1-3.2-5.1-5.1c0-2.1,2.6-2.9,4.2-2.9c1.1,0,2.6,0.2,2.6,0.9c0,0.5-0.7,1.1-0.7,1.7
	c0,1,0.7,1.7,1.8,1.7c1.3,0,2-0.9,2-2c0-2.3-2.7-3.4-5.6-3.4c-3.7,0-7.2,2.7-7.2,6c0,3.2,3,4.9,5.4,6.7c1.6,1.2,3.1,2.3,3.1,4.1
	c0,2.4-2.4,3.6-4.7,3.6c-1.7,0-4.1-0.4-4.1-1.7c0-0.5,0.7-1.2,0.7-1.9c0-1-0.8-1.7-1.7-1.7c-1.4,0-2,1-2,1.9
	C279.8,129.7,282.5,131.7,286.7,131.7 M269,112.1l0.3-1H265c0.3-1.8,1.7-10.4,6.6-10.4c0.9,0,1.7,0.3,1.7,0.7c0,0.6-1,1.1-1,2
	c0,1.3,0.7,1.9,2.1,1.9c1.2,0,2-1,2-2.2c0-1.8-1.9-3.5-4.8-3.5c-7.1,0-10,9.2-10.7,11.4h-4.4l-0.2,1h4.4c-1.7,6.9-2,11.9-4.2,20.6
	c-0.3,1.2-1.9,6.9-5.3,6.9c-0.5,0-0.8-0.4-0.8-0.8c0-0.3,0.2-0.7,0.2-1.2c0-1-0.7-1.8-1.9-1.8c-1.4,0-2.2,0.7-2.2,2.1
	c0,1.9,1.6,2.7,3.6,2.7c5.1,0,8.4-6.4,9.1-7.9c3.4-6.9,4.9-17.9,5.5-20.6H269z M238.8,126.7c0-1.4,0.3-6.4,2.2-11.2
	c1.3-3.1,2.7-4.3,5.1-4.3c2.4,0,3.7,1.5,3.7,3.9c0,1.4-0.3,6.4-2.2,11.2c-1.3,3.1-2.7,4.3-5.1,4.3
	C240.1,130.6,238.8,129.2,238.8,126.7 M242.3,131.7c6.6,0,11.8-7,11.8-13c0-4.7-3.1-8.4-7.9-8.4c-6.6,0-11.8,7-11.8,13
	C234.5,128,237.5,131.7,242.3,131.7 M198.4,130.9h4.1l2.7-10.6c0.7-2.9,3.3-8.5,7.9-8.5c1.1,0,1.9,0.6,1.9,1.5c0,0.8-0.3,2-0.7,3.2
	l-2.2,8.5c-0.3,1.1-0.7,2.6-0.7,3.7c0,1.8,1.5,2.9,3.3,2.9c4.5,0,6.4-4.5,7.1-6.4l-0.8-0.3c-0.4,0.8-2.4,5.1-4.4,5.1
	c-0.8,0-1.1-0.5-1.1-1.3c0-1,0.4-2.5,0.8-4.1l1.9-7.4c0.3-1.3,0.7-2.6,0.7-4c0-2.1-1.6-3.1-4-3.1c-4.4,0-7.1,2.4-8.9,4.8l-0.1-0.1
	l1.1-4.3c-1.8,0.2-3.5,0.3-5.7,0.3h-2.2l-0.3,1h3.9L198.4,130.9z M181.7,126.7c0-1.4,0.3-6.4,2.2-11.2c1.3-3.1,2.7-4.3,5.1-4.3
	c2.4,0,3.7,1.5,3.7,3.9c0,1.4-0.3,6.4-2.2,11.2c-1.3,3.1-2.7,4.3-5.1,4.3C183,130.6,181.7,129.2,181.7,126.7 M185.2,131.7
	c6.6,0,11.8-7,11.8-13c0-4.7-3.1-8.4-7.9-8.4c-6.6,0-11.8,7-11.8,13C177.3,128,180.4,131.7,185.2,131.7 M173.5,105.8
	c1.4,0,2.5-1.1,2.5-2.5s-1.1-2.5-2.5-2.5c-1.4,0-2.5,1.1-2.5,2.5S172.1,105.8,173.5,105.8 M175.4,124.9c-0.4,0.8-2.4,5.1-4.4,5.1
	c-0.8,0-1.1-0.5-1.1-1.3c0-1,0.4-2.5,0.8-4.1l3.7-14.1c-1.6,0.2-3.1,0.3-5.1,0.3h-3l-0.3,1h3.8l-3.4,13c-0.3,1.1-0.7,2.6-0.7,3.7
	c0,1.8,1.5,2.9,3.3,2.9c4.5,0,6.4-4.5,7.1-6.4L175.4,124.9z M162.5,124.9c-0.4,0.8-2.4,5.1-4.4,5.1c-1.1,0-1.6-0.3-1.6-1.3
	c0-0.7,0.2-1.9,0.6-3.2l3.6-13.5h3.9l0.3-1h-4l1.4-5.1c-1.7,0.3-3.2,0.3-4.1,0.3L157,111h-3.2l-0.3,1h3.2l-3.5,13
	c-0.3,1.2-0.7,2.3-0.7,3.3c0,2.6,1.7,3.3,3.7,3.3c4.5,0,6.4-4.5,7.1-6.4L162.5,124.9z M133.2,126.9c0-1.6,1-7.4,3.1-12.5
	c0.9-2.3,2.4-3.2,4.1-3.2c2.2,0,3.7,1.5,3.7,4.3c0,2.6-2.8,15-8.4,15C133.8,130.6,133.2,129,133.2,126.9 M150.2,125.4
	c-0.7,1.2-2.5,4.3-3.9,4.3c-0.7,0-0.9-0.6-0.9-1.3c0-0.6,0.3-1.9,0.5-2.7l3.8-14.6h-3.9l-0.7,2.5c-0.4-0.9-1.5-3.3-4.9-3.3
	c-4.8,0-11.5,6.3-11.5,12.9c0,4.7,2.4,8.5,6,8.5c3.6,0,5.5-2.4,6.4-3.7h0.1c0,1.3,0.1,3.7,3,3.7c3.6,0,5.8-4.2,6.7-5.8L150.2,125.4z
	 M126.3,125.5c-1,1.5-3.8,5.1-8,5.1c-2.6,0-4.2-1.7-4.2-5.8c0-0.9,0.6-4.9,2.6-9.3c1.4-3.3,3.5-4.3,5.9-4.3c1.5,0,3,0.6,3,1.3
	c0,0.7-1.1,1-1.1,2.2c0,1.3,0.7,2,2,2c1.4,0,2.1-1,2.1-2.3c0-2-2.6-4.2-5.9-4.2c-7.3,0-12.9,7-12.9,12.2c0,5.5,3.2,9.2,8.2,9.2
	c5.1,0,8.1-4.1,9.1-5.8L126.3,125.5z M106,105.8c1.4,0,2.5-1.1,2.5-2.5s-1.1-2.5-2.5-2.5c-1.4,0-2.5,1.1-2.5,2.5
	S104.6,105.8,106,105.8 M107.9,124.9c-0.4,0.8-2.4,5.1-4.4,5.1c-0.8,0-1.1-0.5-1.1-1.3c0-1,0.4-2.5,0.8-4.1l3.7-14.1
	c-1.6,0.2-3.1,0.3-5.1,0.3h-3l-0.3,1h3.8l-3.4,13c-0.3,1.1-0.7,2.6-0.7,3.7c0,1.8,1.5,2.9,3.3,2.9c4.5,0,6.4-4.5,7.1-6.4
	L107.9,124.9z M96.1,124.9c-0.4,0.8-2.4,5.1-4.4,5.1c-0.8,0-1.1-0.5-1.1-1.3c0-1,0.4-2.5,0.8-4.1l6.3-24.7c-1.6,0.2-3.1,0.3-5.1,0.3
	h-3.4l-0.3,1h4.2l-6,23.7c-0.3,1.1-0.7,2.6-0.7,3.7c0,1.8,1.5,2.9,3.3,2.9c4.5,0,6.4-4.5,7.1-6.4L96.1,124.9z M69.6,125.9
	c0-3.8,2.2-14.6,8.6-14.6c2,0,3,1.5,3,3.5c0,1.9-1.7,15.9-6.9,15.9C71.7,130.6,69.6,128.7,69.6,125.9 M58,139.8h12.2l0.2-1h-4.2
	l2.6-10.4c0.3,0.7,1.6,3.3,5.3,3.3c6.1,0,11.5-7.6,11.5-13.2c0-4.7-3-8.2-7.2-8.2c-3.4,0-5.2,2.2-6.1,3.2l-0.1-0.1l0.7-2.7
	c-1.7,0.2-3.4,0.3-5.1,0.3h-3l-0.2,1h4.1L62,138.8h-3.8L58,139.8z M47.1,125.9c0-3.8,2.2-14.6,8.6-14.6c2,0,3,1.5,3,3.5
	c0,1.9-1.7,15.9-6.9,15.9C49.2,130.6,47.1,128.7,47.1,125.9 M35.4,139.8h12.2l0.2-1h-4.2l2.6-10.4c0.3,0.7,1.6,3.3,5.3,3.3
	c6.1,0,11.5-7.6,11.5-13.2c0-4.7-3-8.2-7.2-8.2c-3.4,0-5.2,2.2-6.1,3.2l-0.1-0.1l0.7-2.7c-1.7,0.2-3.4,0.3-5.1,0.3h-3l-0.2,1h4.1
	l-6.5,26.7h-3.8L35.4,139.8z M22.2,126.9c0-1.6,1-7.4,3.1-12.5c0.9-2.3,2.4-3.2,4.1-3.2c2.2,0,3.7,1.5,3.7,4.3c0,2.6-2.8,15-8.4,15
	C22.9,130.6,22.2,129,22.2,126.9 M39.3,125.4c-0.7,1.2-2.5,4.3-3.9,4.3c-0.7,0-0.9-0.6-0.9-1.3c0-0.6,0.3-1.9,0.5-2.7l3.8-14.6h-3.9
	l-0.7,2.5c-0.4-0.9-1.5-3.3-4.9-3.3c-4.8,0-11.5,6.3-11.5,12.9c0,4.7,2.4,8.5,6,8.5c3.6,0,5.5-2.4,6.4-3.7h0.1c0,1.3,0.1,3.7,3,3.7
	c3.6,0,5.8-4.2,6.7-5.8L39.3,125.4z"/>
<path fill="#010101" d="M841.5,71.9c-0.7-1.9-1.9-7.2-5-7.2c-3.2,0-5.1,5-5.6,6.3l0.7,0.3c0.5-1,1.6-4.1,3-4.1
	c0.9,0,1.9,3.2,2.3,4.4l3,8.6c0.3,0.9,1,2.5,1,3.7c0,2-5.6,9.6-9.5,9.6c-0.8,0-1.1-0.5-1.1-1.5c0-0.8-0.7-1.4-1.7-1.4
	c-1.1,0-2,0.7-2,2c0,1.7,1.6,2.6,3.1,2.6c7.8,0,12.9-11,15.3-16.3c1.6-3.6,4.3-11,5.7-11c0.4,0,0.8,0.6,1.6,0.6c1.2,0,2-0.7,2-1.8
	c0-1-0.7-1.9-1.9-1.9c-2.2,0-3.3,2.3-4.4,4.8c-1.4,3.2-3.4,7.9-4.1,9.4L841.5,71.9z M813.3,85.3h4.1l2.2-9.1c0.8-3.3,4-9.1,6-9.1
	c1.1,0,0.9,1.9,2.4,1.9c1.5,0,2.3-0.7,2.3-2c0-1.4-0.8-2.3-2.3-2.3c-3.9,0-6.5,4.8-7.4,6.4l-0.1-0.1l1.4-5.8
	c-1.4,0.2-2.9,0.3-4.7,0.3h-3.4l-0.2,1h4.1L813.3,85.3z M793.7,81.4c0-1.6,1-7.4,3.1-12.5c0.9-2.3,2.4-3.2,4.1-3.2
	c2.2,0,3.7,1.5,3.7,4.3c0,2.6-2.8,15-8.4,15C794.4,85.1,793.7,83.4,793.7,81.4 M810.7,79.8c-0.7,1.2-2.5,4.3-3.9,4.3
	c-0.7,0-0.9-0.6-0.9-1.3c0-0.6,0.3-1.9,0.5-2.7l3.8-14.6h-3.9l-0.7,2.5c-0.4-0.9-1.5-3.3-4.9-3.3c-4.8,0-11.5,6.3-11.5,12.9
	c0,4.7,2.4,8.5,6,8.5c3.6,0,5.5-2.4,6.4-3.7h0.1c0,1.3,0.1,3.7,3,3.7c3.6,0,5.8-4.2,6.7-5.8L810.7,79.8z M773.9,85.3h4.1l2.2-9.1
	c0.8-3.3,4-9.1,6-9.1c1.1,0,0.9,1.9,2.4,1.9c1.5,0,2.3-0.7,2.3-2c0-1.4-0.8-2.3-2.3-2.3c-3.9,0-6.5,4.8-7.4,6.4l-0.1-0.1l1.4-5.8
	c-1.4,0.2-2.9,0.3-4.7,0.3h-3.4l-0.2,1h4.1L773.9,85.3z M770.8,79.4c-0.4,0.8-2.4,5.1-4.4,5.1c-1.1,0-1.6-0.3-1.6-1.3
	c0-0.7,0.2-1.9,0.6-3.2l3.6-13.5h3.9l0.3-1h-4l1.4-5.1c-1.7,0.3-3.2,0.3-4.1,0.3l-1.3,4.9h-3.2l-0.3,1h3.2l-3.5,13
	c-0.3,1.2-0.7,2.3-0.7,3.3c0,2.6,1.7,3.3,3.7,3.3c4.5,0,6.4-4.5,7.1-6.4L770.8,79.4z M756.9,60.2c1.4,0,2.5-1.1,2.5-2.5
	s-1.1-2.5-2.5-2.5c-1.4,0-2.5,1.1-2.5,2.5S755.5,60.2,756.9,60.2 M758.9,79.4c-0.4,0.8-2.4,5.1-4.4,5.1c-0.8,0-1.1-0.5-1.1-1.3
	c0-1,0.4-2.5,0.8-4.1l3.7-14.1c-1.6,0.2-3.1,0.3-5.1,0.3h-3l-0.3,1h3.8l-3.4,13c-0.3,1.1-0.7,2.6-0.7,3.7c0,1.8,1.5,2.9,3.3,2.9
	c4.5,0,6.4-4.5,7.1-6.4L758.9,79.4z M730.7,81.2c0-1.7,1-9,3.5-12.5c0.8-1,2.8-2.9,5-2.9c1.8,0,2.8,1.4,2.8,3.9
	c0,1.4,0,4.7-2.2,11.2c-1.3,3.1-2.7,4.3-5.1,4.3C732.3,85.1,730.7,83.9,730.7,81.2 M736.7,54.5c-1.8,0.3-3.6,0.3-5.9,0.3h-2.2
	l-0.2,1h3.8l-4.6,19.2c-0.3,1.1-0.9,3.6-0.9,5.2c0,3,2.7,5.9,6.9,5.9c7.3,0,12.8-7.4,12.8-13c0-5-2.6-8.4-6.6-8.4
	c-3.5,0-5.5,2.4-6.5,3.6l-0.1-0.1L736.7,54.5z M709.6,85.3h4.1l2.2-9.1c0.8-3.3,4-9.1,6-9.1c1.1,0,0.9,1.9,2.4,1.9
	c1.5,0,2.3-0.7,2.3-2c0-1.4-0.8-2.3-2.3-2.3c-3.9,0-6.5,4.8-7.4,6.4l-0.1-0.1l1.4-5.8c-1.4,0.2-2.9,0.3-4.7,0.3h-3.4l-0.2,1h4.1
	L709.6,85.3z M690.1,81.4c0-1.6,1-7.4,3.1-12.5c0.9-2.3,2.4-3.2,4.1-3.2c2.2,0,3.7,1.5,3.7,4.3c0,2.6-2.8,15-8.4,15
	C690.7,85.1,690.1,83.4,690.1,81.4 M707.1,79.8c-0.7,1.2-2.5,4.3-3.9,4.3c-0.7,0-0.9-0.6-0.9-1.3c0-0.6,0.3-1.9,0.5-2.7l3.8-14.6
	h-3.9l-0.7,2.5c-0.4-0.9-1.5-3.3-4.9-3.3c-4.8,0-11.5,6.3-11.5,12.9c0,4.7,2.4,8.5,6,8.5c3.6,0,5.5-2.4,6.4-3.7h0.1
	c0,1.3,0.1,3.7,3,3.7c3.6,0,5.8-4.2,6.7-5.8L707.1,79.8z M650,85.3h4.1l2.7-10.6c0.7-2.9,3.3-8.5,7.9-8.5c1.1,0,1.9,0.6,1.9,1.5
	c0,0.8-0.3,2-0.7,3.2l-2.2,8.5c-0.3,1.1-0.7,2.6-0.7,3.7c0,1.8,1.5,2.9,3.3,2.9c4.5,0,6.4-4.5,7.1-6.4l-0.8-0.3
	c-0.4,0.8-2.4,5.1-4.4,5.1c-0.8,0-1.1-0.5-1.1-1.3c0-1,0.4-2.5,0.8-4.1l1.9-7.4c0.3-1.3,0.7-2.6,0.7-4c0-2.1-1.6-3.1-4-3.1
	c-4.4,0-7.1,2.4-8.9,4.8l-0.1-0.1l1.1-4.3c-1.8,0.2-3.5,0.3-5.7,0.3h-2.2l-0.3,1h3.9L650,85.3z M631.4,81.4c0-1.6,1-7.4,3.1-12.5
	c0.9-2.3,2.4-3.2,4.1-3.2c2.2,0,3.7,1.5,3.7,4.3c0,2.6-2.8,15-8.4,15C632,85.1,631.4,83.4,631.4,81.4 M648.4,79.8
	c-0.7,1.2-2.5,4.3-3.9,4.3c-0.7,0-0.9-0.6-0.9-1.3c0-0.6,0.3-1.9,0.5-2.7l3.8-14.6H644l-0.7,2.5c-0.4-0.9-1.5-3.3-4.9-3.3
	c-4.8,0-11.5,6.3-11.5,12.9c0,4.7,2.4,8.5,6,8.5c3.6,0,5.5-2.4,6.4-3.7h0.1c0,1.3,0.1,3.7,3,3.7c3.6,0,5.8-4.2,6.7-5.8L648.4,79.8z
	 M612.5,79.4c-0.4,0.8-2.4,5.1-4.4,5.1c-1.1,0-1.6-0.3-1.6-1.3c0-0.7,0.2-1.9,0.6-3.2l3.6-13.5h3.9l0.3-1h-4l1.4-5.1
	c-1.7,0.3-3.2,0.3-4.1,0.3l-1.4,4.9h-3.2l-0.3,1h3.2l-3.5,13c-0.3,1.2-0.7,2.3-0.7,3.3c0,2.6,1.7,3.3,3.7,3.3c4.5,0,6.4-4.5,7.1-6.4
	L612.5,79.4z M591.3,86.1c4.3,0,8-2.6,8-6.6c0-3-1.6-4.5-3.4-5.9c-2.3-1.7-5.1-3.2-5.1-5.1c0-2.1,2.6-2.9,4.2-2.9
	c1.1,0,2.6,0.2,2.6,0.9c0,0.5-0.7,1.1-0.7,1.7c0,1,0.7,1.7,1.8,1.7c1.4,0,2-0.9,2-2c0-2.3-2.7-3.4-5.6-3.4c-3.7,0-7.2,2.7-7.2,6
	c0,3.2,3,4.9,5.4,6.7c1.6,1.2,3.1,2.3,3.1,4.1c0,2.4-2.4,3.6-4.7,3.6c-1.7,0-4.1-0.4-4.1-1.7c0-0.5,0.7-1.2,0.7-1.9
	c0-1-0.8-1.7-1.7-1.7c-1.3,0-2,1-2,1.9C584.4,84.2,587,86.1,591.3,86.1 M584.1,79.4c-0.4,0.8-2.4,5.1-4.4,5.1
	c-0.8,0-1.1-0.5-1.1-1.3c0-1,0.2-2.4,0.4-3.3l3.5-14.5h-4.1l-2.7,10.6c-0.7,2.9-3.3,8.5-7.9,8.5c-1.1,0-1.8-0.7-1.8-2
	c0-0.9,0.4-2.3,0.7-3.4l3.4-13.6h-7.8l-0.3,1h3.7L562.4,79c-0.2,0.9-0.5,2.3-0.5,3.5c0,2.6,1.5,3.6,3.9,3.6c4.4,0,6.9-2.1,8.8-4.8
	l0.1,0.1c-0.1,0.5-0.2,1.2-0.2,1.8c0,1.8,1.5,2.9,3.3,2.9c4.5,0,6.4-4.5,7.1-6.4L584.1,79.4z M558.8,60.2c1.4,0,2.5-1.1,2.5-2.5
	s-1.1-2.5-2.5-2.5c-1.4,0-2.5,1.1-2.5,2.5S557.4,60.2,558.8,60.2 M559.7,65.1c-1.6,0.2-3.1,0.3-5.1,0.3h-3.8l-0.2,1h4.6l-5.5,21.1
	c-0.3,1.3-1.4,6.4-3,6.4c-0.5,0-0.7-0.3-0.7-0.7c0-0.3,0.3-0.6,0.3-1.2c0-1-1-1.8-1.9-1.8c-1.4,0-2.2,0.9-2.2,2.1
	c0,1.7,1.6,2.7,3.3,2.7c6.6,0,8.8-8.7,9.4-10.9L559.7,65.1z M535.4,79.4c-0.4,0.8-2.4,5.1-4.4,5.1c-1.1,0-1.6-0.3-1.6-1.3
	c0-0.7,0.2-1.9,0.6-3.2l3.6-13.5h3.9l0.3-1h-4l1.4-5.1c-1.7,0.3-3.2,0.3-4.1,0.3l-1.4,4.9h-3.2l-0.3,1h3.2l-3.5,13
	c-0.3,1.2-0.7,2.3-0.7,3.3c0,2.6,1.7,3.3,3.7,3.3c4.5,0,6.4-4.5,7.1-6.4L535.4,79.4z M508,81.2c0-1.4,0.3-6.4,2.2-11.2
	c1.3-3.1,2.7-4.3,5.1-4.3c2.4,0,3.7,1.5,3.7,3.9c0,1.4-0.3,6.4-2.2,11.2c-1.3,3.1-2.7,4.3-5.1,4.3C509.3,85.1,508,83.6,508,81.2
	 M511.5,86.1c6.6,0,11.8-7,11.8-13c0-4.7-3.1-8.4-7.9-8.4c-6.6,0-11.8,7-11.8,13C503.6,82.4,506.7,86.1,511.5,86.1 M479.6,85.3h4.1
	l2.7-10.6c0.7-2.9,3.3-8.5,7.9-8.5c1.1,0,1.9,0.6,1.9,1.5c0,0.8-0.3,2-0.7,3.2l-2.2,8.5c-0.3,1.1-0.7,2.6-0.7,3.7
	c0,1.8,1.5,2.9,3.3,2.9c4.5,0,6.4-4.5,7.1-6.4l-0.8-0.3c-0.4,0.8-2.4,5.1-4.4,5.1c-0.8,0-1.1-0.5-1.1-1.3c0-1,0.4-2.5,0.8-4.1
	l1.9-7.4c0.3-1.3,0.7-2.6,0.7-4c0-2.1-1.6-3.1-4-3.1c-4.4,0-7.1,2.4-8.9,4.8l-0.1-0.1l1.1-4.3c-1.8,0.2-3.5,0.3-5.7,0.3h-2.2l-0.3,1
	h3.9L479.6,85.3z M457,92.3c0.7-0.4,2.4-1.1,4-2.5c1-0.9,2.8-3,2.8-5.1c0-2-1.3-3.9-3.6-3.9c-1.3,0-2.8,1-2.8,2.7
	c0,0.8,0.5,2.2,2.3,2.2c0.8,0,1.2-0.4,1.5-0.8c0.3-0.3,0.4-0.7,0.7-0.7c0.5,0,0.7,0.5,0.7,1.1c0,0.8-0.8,2.6-2.1,3.7
	c-1.4,1.2-2.9,2.1-3.8,2.5L457,92.3z M445,86.1c4.3,0,8-2.6,8-6.6c0-3-1.6-4.5-3.4-5.9c-2.3-1.7-5.1-3.2-5.1-5.1
	c0-2.1,2.6-2.9,4.2-2.9c1.1,0,2.6,0.2,2.6,0.9c0,0.5-0.7,1.1-0.7,1.7c0,1,0.7,1.7,1.8,1.7c1.4,0,2-0.9,2-2c0-2.3-2.7-3.4-5.6-3.4
	c-3.7,0-7.2,2.7-7.2,6c0,3.2,3,4.9,5.4,6.7c1.6,1.2,3.1,2.3,3.1,4.1c0,2.4-2.4,3.6-4.7,3.6c-1.7,0-4.1-0.4-4.1-1.7
	c0-0.5,0.7-1.2,0.7-1.9c0-1-0.8-1.7-1.7-1.7c-1.3,0-2,1-2,1.9C438.1,84.2,440.8,86.1,445,86.1 M428.2,86.1c4.3,0,8-2.6,8-6.6
	c0-3-1.6-4.5-3.4-5.9c-2.3-1.7-5.1-3.2-5.1-5.1c0-2.1,2.6-2.9,4.2-2.9c1.1,0,2.6,0.2,2.6,0.9c0,0.5-0.7,1.1-0.7,1.7
	c0,1,0.7,1.7,1.8,1.7c1.3,0,2-0.9,2-2c0-2.3-2.7-3.4-5.6-3.4c-3.7,0-7.2,2.7-7.2,6c0,3.2,3,4.9,5.4,6.7c1.6,1.2,3.1,2.3,3.1,4.1
	c0,2.4-2.4,3.6-4.7,3.6c-1.7,0-4.1-0.4-4.1-1.7c0-0.5,0.7-1.2,0.7-1.9c0-1-0.8-1.7-1.7-1.7c-1.3,0-2,1-2,1.9
	C421.3,84.2,423.9,86.1,428.2,86.1 M414.5,65.7c1.9,0,2.8,1.1,2.8,2.8c0,5.2-4,6.4-7.9,6.4c-0.4,0-1.3,0-1.9-0.2
	C408,72.8,410.1,65.7,414.5,65.7 M418.8,79.6c-1,1.5-3.7,5.5-7.9,5.5c-2.8,0-4.1-2-4.1-5.1c0-1.8,0.3-3.4,0.5-4.1
	c0.7,0.1,1.4,0.2,2.2,0.2c3.4,0,11.6-1,11.6-6.5c0-3-2.7-4.8-5.9-4.8c-5.5,0-12.8,5.7-12.8,12.8c0,4.3,3.4,8.6,8.1,8.6
	c5,0,8.1-4.4,9.1-6.1L418.8,79.6z M399.6,79.9c-1,1.5-3.8,5.1-8,5.1c-2.6,0-4.2-1.7-4.2-5.8c0-0.9,0.6-4.9,2.6-9.3
	c1.4-3.3,3.5-4.3,5.9-4.3c1.5,0,3,0.6,3,1.3c0,0.7-1.1,1-1.1,2.2c0,1.3,0.7,2,2,2c1.4,0,2.1-1,2.1-2.3c0-2-2.6-4.2-5.9-4.2
	c-7.3,0-12.9,7-12.9,12.2c0,5.5,3.2,9.2,8.2,9.2c5.1,0,8.1-4.1,9.1-5.8L399.6,79.9z M365.7,81.2c0-1.4,0.3-6.4,2.2-11.2
	c1.3-3.1,2.7-4.3,5.1-4.3c2.4,0,3.7,1.5,3.7,3.9c0,1.4-0.3,6.4-2.2,11.2c-1.3,3.1-2.7,4.3-5.1,4.3C367.1,85.1,365.7,83.6,365.7,81.2
	 M369.3,86.1c6.6,0,11.8-7,11.8-13c0-4.7-3.1-8.4-7.9-8.4c-6.6,0-11.8,7-11.8,13C361.4,82.4,364.5,86.1,369.3,86.1 M345.6,85.3h4.1
	l2.2-9.1c0.8-3.3,4-9.1,6-9.1c1.1,0,0.9,1.9,2.4,1.9c1.5,0,2.3-0.7,2.3-2c0-1.4-0.8-2.3-2.3-2.3c-3.9,0-6.5,4.8-7.4,6.4l-0.1-0.1
	l1.4-5.8c-1.4,0.2-2.9,0.3-4.7,0.3h-3.4l-0.2,1h4.1L345.6,85.3z M328.4,80.3c0-3.8,2.2-14.6,8.6-14.6c2,0,3,1.5,3,3.5
	c0,1.9-1.7,15.9-6.9,15.9C330.5,85.1,328.4,83.1,328.4,80.3 M316.7,94.3h12.2l0.2-1h-4.2l2.6-10.4c0.3,0.7,1.6,3.3,5.3,3.3
	c6.1,0,11.5-7.6,11.5-13.2c0-4.7-3-8.2-7.2-8.2c-3.4,0-5.2,2.2-6.1,3.2l-0.1-0.1l0.7-2.7c-1.7,0.2-3.4,0.3-5.1,0.3h-3l-0.2,1h4.1
	l-6.5,26.7H317L316.7,94.3z M299.5,84.4c2.6,0.2,5.7,0,5.7,3c0,3.7-4.1,6.7-9,6.7c-3.5,0-6.6-1.7-6.6-4.9c0-3.1,2.9-4.4,4.2-5.1
	L299.5,84.4z M295.4,73.7c0-2.1,1-7.9,4.4-7.9c1.7,0,3.2,0.8,3.2,2.9c0,2.6-1,7.9-4.7,7.9C296.8,76.6,295.4,75.7,295.4,73.7
	 M296.8,80.5c-2.3-0.2-5.4-0.2-5.4-2.1c0-1.4,1.5-2,2.3-2.4c1,0.6,2,1.6,5.1,1.6c3.7,0,6.6-2,7.8-6c0.4-1.5,0.7-5.5,1.7-5.5
	c0.9,0,0.7,1,1.7,1c0.8,0,1.4-0.5,1.4-1.4c0-1-0.9-1.5-1.8-1.5c-2.7,0-3.1,3.1-3.4,4.4h-0.1c-0.6-1.7-2.1-3.8-6.2-3.8
	c-4.7,0-8.3,3.1-8.3,6.8c0,2.2,0.8,3.2,1.5,4c-1.3,0.7-3.9,1.7-3.9,4.7c0,2.4,2,3.1,3.4,3.7c-1.3,0.5-5.7,1.9-5.7,5.3
	c0,3.9,3.8,6,8.5,6c6.4,0,11.3-3.6,11.3-9.2c0-4.7-3.4-4.7-5.7-5L296.8,80.5z M264.3,85.3h4.1l2.7-10.6c0.7-2.9,3.3-8.5,7.9-8.5
	c1.1,0,1.9,0.6,1.9,1.5c0,0.8-0.3,2-0.7,3.2l-2.2,8.5c-0.3,1.1-0.7,2.6-0.7,3.7c0,1.8,1.5,2.9,3.3,2.9c4.5,0,6.4-4.5,7.1-6.4
	l-0.8-0.3c-0.4,0.8-2.4,5.1-4.4,5.1c-0.8,0-1.1-0.5-1.1-1.3c0-1,0.4-2.5,0.8-4.1l1.9-7.4c0.3-1.3,0.7-2.6,0.7-4c0-2.1-1.6-3.1-4-3.1
	c-4.4,0-7.1,2.4-8.9,4.8l-0.1-0.1l1.1-4.3c-1.8,0.2-3.5,0.3-5.7,0.3h-2.2l-0.3,1h3.9L264.3,85.3z M261.1,60.2c1.4,0,2.5-1.1,2.5-2.5
	s-1.1-2.5-2.5-2.5c-1.4,0-2.5,1.1-2.5,2.5S259.7,60.2,261.1,60.2 M263,79.4c-0.4,0.8-2.4,5.1-4.4,5.1c-0.8,0-1.1-0.5-1.1-1.3
	c0-1,0.4-2.5,0.8-4.1l3.7-14.1c-1.6,0.2-3.1,0.3-5.1,0.3h-3l-0.3,1h3.8l-3.4,13c-0.3,1.1-0.7,2.6-0.7,3.7c0,1.8,1.5,2.9,3.3,2.9
	c4.5,0,6.4-4.5,7.1-6.4L263,79.4z M240.5,72c0.4-1.5,1.1-3.4,1.1-4.5c0-1.7-1.1-2.8-3.1-2.8c-3.9,0-6.1,4.4-7.1,5.9l0.7,0.5
	c0.5-0.8,3-4.8,4.6-4.8c0.6,0,0.9,0.3,0.9,1.1c0,0.7-0.4,2.1-0.7,3l-2.1,7.4c-0.3,1-0.9,2.9-0.9,3.9c0,2.4,1.7,4.4,5,4.4
	c7.8,0,12.7-12.4,12.7-18c0-1.7-0.7-3.4-2.7-3.4c-0.8,0-1.8,0.8-1.8,2c0,1,0.4,1.5,1,1.7c0.9,0.4,2.1,0.2,2.1,1.7
	c0,4.4-5.1,14.4-10,14.4c-1.5,0-2.3-0.4-2.3-2c0-1.2,0.4-2.7,0.7-3.8L240.5,72z M230.3,79.4c-0.4,0.8-2.4,5.1-4.4,5.1
	c-0.8,0-1.1-0.5-1.1-1.3c0-1,0.4-2.5,0.8-4.1l6.3-24.7c-1.6,0.2-3.1,0.3-5.1,0.3h-3.4l-0.3,1h4.2l-6,23.7c-0.3,1.1-0.7,2.6-0.7,3.7
	c0,1.8,1.5,2.9,3.3,2.9c4.5,0,6.4-4.5,7.1-6.4L230.3,79.4z M203.4,81.2c0-1.4,0.3-6.4,2.2-11.2c1.3-3.1,2.7-4.3,5.1-4.3
	c2.4,0,3.7,1.5,3.7,3.9c0,1.4-0.3,6.4-2.2,11.2c-1.3,3.1-2.7,4.3-5.1,4.3C204.7,85.1,203.4,83.6,203.4,81.2 M206.9,86.1
	c6.6,0,11.8-7,11.8-13c0-4.7-3.1-8.4-7.9-8.4c-6.6,0-11.8,7-11.8,13C199,82.4,202.1,86.1,206.9,86.1 M187.8,86.1c4.3,0,8-2.6,8-6.6
	c0-3-1.6-4.5-3.4-5.9c-2.3-1.7-5.1-3.2-5.1-5.1c0-2.1,2.6-2.9,4.2-2.9c1.1,0,2.6,0.2,2.6,0.9c0,0.5-0.7,1.1-0.7,1.7
	c0,1,0.7,1.7,1.8,1.7c1.3,0,2-0.9,2-2c0-2.3-2.7-3.4-5.6-3.4c-3.7,0-7.2,2.7-7.2,6c0,3.2,3,4.9,5.4,6.7c1.6,1.2,3.1,2.3,3.1,4.1
	c0,2.4-2.4,3.6-4.7,3.6c-1.7,0-4.1-0.4-4.1-1.7c0-0.5,0.7-1.2,0.7-1.9c0-1-0.8-1.7-1.7-1.7c-1.4,0-2,1-2,1.9
	C181,84.2,183.6,86.1,187.8,86.1 M168.5,77h10.8l0.8-3.1h-10.8L168.5,77z M131.7,85.3h4.1l2.7-10.6c0.7-2.9,3.3-8.5,7.9-8.5
	c1.1,0,1.8,0.6,1.8,1.5c0,0.8-0.7,4.6-1,5.9l-3,11.6h4.1l3-11.6c0.7-2.8,4.2-7.4,7.8-7.4c1.1,0,1.9,0.6,1.9,1.5c0,0.8-0.3,2-0.7,3.2
	l-2.2,8.5c-0.3,1.1-0.7,2.6-0.7,3.7c0,1.8,1.5,2.9,3.3,2.9c4.5,0,6.4-4.5,7.1-6.4l-0.8-0.3c-0.4,0.8-2.4,5.1-4.4,5.1
	c-0.8,0-1.1-0.5-1.1-1.3c0-1,0.4-2.5,0.8-4.1l1.9-7.4c0.3-1.3,0.7-2.6,0.7-4c0-2-1.5-3.1-4-3.1c-4.4,0-7.4,3-9,4.8l-0.1-0.1
	c0.1-0.4,0.3-1.3,0.3-1.8c0-1.8-1.5-2.9-3.9-2.9c-4.4,0-7.1,2.4-8.9,4.8l-0.1-0.1l1.1-4.3c-1.8,0.2-3.5,0.3-5.7,0.3h-2.2l-0.3,1h3.9
	L131.7,85.3z M124.3,65.7c1.9,0,2.8,1.1,2.8,2.8c0,5.2-4,6.4-7.9,6.4c-0.4,0-1.3,0-1.9-0.2C117.8,72.8,119.9,65.7,124.3,65.7
	 M128.6,79.6c-1,1.5-3.7,5.5-7.9,5.5c-2.8,0-4.1-2-4.1-5.1c0-1.8,0.3-3.4,0.5-4.1c0.7,0.1,1.4,0.2,2.2,0.2c3.4,0,11.6-1,11.6-6.5
	c0-3-2.7-4.8-5.9-4.8c-5.5,0-12.8,5.7-12.8,12.8c0,4.3,3.4,8.6,8.1,8.6c5,0,8.1-4.4,9.1-6.1L128.6,79.6z M110.5,79.4
	c-0.4,0.8-2.4,5.1-4.4,5.1c-0.8,0-1.1-0.5-1.1-1.3c0-1,0.4-2.5,0.8-4.1l6.3-24.7c-1.6,0.2-3.1,0.3-5.1,0.3h-3.4l-0.3,1h4.2l-6,23.7
	c-0.3,1.1-0.7,2.6-0.7,3.7c0,1.8,1.5,2.9,3.3,2.9c4.5,0,6.4-4.5,7.1-6.4L110.5,79.4z M83,81.2c0-1.7,1-9,3.5-12.5
	c0.8-1,2.8-2.9,5-2.9c1.8,0,2.8,1.4,2.8,3.9c0,1.4,0,4.7-2.2,11.2c-1.3,3.1-2.7,4.3-5.1,4.3C84.5,85.1,83,83.9,83,81.2 M88.9,54.5
	c-1.8,0.3-3.6,0.3-5.9,0.3h-2.2l-0.2,1h3.8l-4.6,19.2c-0.3,1.1-0.9,3.6-0.9,5.2c0,3,2.7,5.9,6.9,5.9c7.3,0,12.8-7.4,12.8-13
	c0-5-2.6-8.4-6.6-8.4c-3.5,0-5.5,2.4-6.5,3.6l-0.1-0.1L88.9,54.5z M61.1,81.2c0-1.4,0.3-6.4,2.2-11.2c1.3-3.1,2.7-4.3,5.1-4.3
	c2.4,0,3.7,1.5,3.7,3.9c0,1.4-0.3,6.4-2.2,11.2c-1.3,3.1-2.7,4.3-5.1,4.3C62.4,85.1,61.1,83.6,61.1,81.2 M64.6,86.1
	c6.6,0,11.8-7,11.8-13c0-4.7-3.1-8.4-7.9-8.4c-6.6,0-11.8,7-11.8,13C56.7,82.4,59.8,86.1,64.6,86.1 M41,85.3h4.1l2.2-9.1
	c0.8-3.3,4-9.1,6-9.1c1.1,0,0.9,1.9,2.4,1.9c1.5,0,2.3-0.7,2.3-2c0-1.4-0.8-2.3-2.3-2.3c-3.9,0-6.5,4.8-7.4,6.4L48.2,71l1.4-5.8
	c-1.4,0.2-2.9,0.3-4.7,0.3h-3.4l-0.2,1h4.1L41,85.3z M23.8,80.3c0-3.8,2.2-14.6,8.6-14.6c2,0,3,1.5,3,3.5c0,1.9-1.7,15.9-6.9,15.9
	C25.8,85.1,23.8,83.1,23.8,80.3 M12.1,94.3h12.2l0.2-1h-4.2l2.6-10.4c0.3,0.7,1.6,3.3,5.3,3.3c6.1,0,11.5-7.6,11.5-13.2
	c0-4.7-3-8.2-7.2-8.2c-3.4,0-5.2,2.2-6.1,3.2l-0.1-0.1l0.7-2.7c-1.7,0.2-3.4,0.3-5.1,0.3h-3l-0.2,1h4.1l-6.5,26.7h-3.8L12.1,94.3z"
	/>
<path fill="#010101" d="M794.3,33.9c-0.4,0.8-2.4,5.1-4.4,5.1c-0.8,0-1.1-0.5-1.1-1.3c0-1,0.4-2.5,0.8-4.1L795.9,9
	c-1.6,0.2-3.1,0.3-5.1,0.3h-3.4l-0.3,1h4.2l-6,23.7c-0.3,1.1-0.7,2.6-0.7,3.7c0,1.8,1.5,2.9,3.3,2.9c4.5,0,6.4-4.5,7.1-6.4
	L794.3,33.9z M765.5,35.8c0-1.6,1-7.4,3.1-12.5c0.9-2.3,2.4-3.2,4.1-3.2c2.2,0,3.7,1.5,3.7,4.3c0,2.6-2.8,15-8.4,15
	C766.1,39.5,765.5,37.9,765.5,35.8 M782.5,34.3c-0.7,1.2-2.5,4.3-3.9,4.3c-0.7,0-0.9-0.6-0.9-1.3c0-0.6,0.3-1.9,0.5-2.7l3.8-14.6
	h-3.9l-0.7,2.5c-0.4-0.9-1.5-3.3-4.9-3.3c-4.8,0-11.5,6.3-11.5,12.9c0,4.7,2.4,8.5,6,8.5c3.6,0,5.5-2.4,6.4-3.7h0.1
	c0,1.3,0.1,3.7,3,3.7c3.6,0,5.8-4.2,6.7-5.8L782.5,34.3z M758.6,34.4c-1,1.5-3.8,5.1-8,5.1c-2.6,0-4.2-1.7-4.2-5.8
	c0-0.9,0.6-4.9,2.6-9.3c1.4-3.3,3.5-4.3,5.9-4.3c1.5,0,3,0.6,3,1.3c0,0.7-1.1,1-1.1,2.2c0,1.3,0.7,2,2,2c1.4,0,2.1-1,2.1-2.3
	c0-2-2.6-4.2-5.9-4.2c-7.3,0-12.9,7-12.9,12.2c0,5.5,3.2,9.2,8.2,9.2c5.1,0,8.1-4.1,9.1-5.8L758.6,34.4z M738.3,14.7
	c1.4,0,2.5-1.1,2.5-2.5c0-1.4-1.1-2.5-2.5-2.5c-1.4,0-2.5,1.1-2.5,2.5C735.8,13.6,736.9,14.7,738.3,14.7 M740.2,33.9
	c-0.4,0.8-2.4,5.1-4.4,5.1c-0.8,0-1.1-0.5-1.1-1.3c0-1,0.4-2.5,0.8-4.1l3.7-14.1c-1.6,0.2-3.1,0.3-5.1,0.3h-3l-0.3,1h3.8l-3.4,13
	c-0.3,1.1-0.7,2.6-0.7,3.7c0,1.8,1.5,2.9,3.3,2.9c4.5,0,6.4-4.5,7.1-6.4L740.2,33.9z M718.8,38.9c2.6,0.2,5.7,0,5.7,3
	c0,3.7-4.1,6.7-9,6.7c-3.5,0-6.6-1.7-6.6-4.9c0-3.1,2.9-4.4,4.2-5.1L718.8,38.9z M714.7,28.1c0-2.1,1-7.9,4.4-7.9
	c1.7,0,3.2,0.8,3.2,2.9c0,2.6-1,7.9-4.7,7.9C716.1,31,714.7,30.2,714.7,28.1 M716.1,35c-2.3-0.2-5.4-0.2-5.4-2.1
	c0-1.4,1.5-2,2.3-2.4c1,0.6,2,1.6,5.1,1.6c3.7,0,6.6-2,7.8-6c0.4-1.5,0.7-5.5,1.7-5.5c0.9,0,0.7,1,1.7,1c0.8,0,1.4-0.5,1.4-1.4
	c0-1-0.9-1.5-1.8-1.5c-2.7,0-3.1,3.1-3.4,4.4h-0.1c-0.6-1.7-2.1-3.8-6.2-3.8c-4.7,0-8.3,3.1-8.3,6.8c0,2.2,0.8,3.2,1.5,4
	c-1.3,0.7-3.9,1.7-3.9,4.7c0,2.4,2,3.1,3.4,3.7c-1.3,0.5-5.7,1.9-5.7,5.3c0,3.9,3.8,6,8.5,6c6.4,0,11.3-3.6,11.3-9.2
	c0-4.7-3.4-4.7-5.7-5L716.1,35z M690.2,35.7c0-1.4,0.3-6.4,2.2-11.2c1.3-3.1,2.7-4.3,5.1-4.3c2.4,0,3.7,1.5,3.7,3.9
	c0,1.4-0.3,6.4-2.2,11.2c-1.3,3.1-2.7,4.3-5.1,4.3C691.5,39.5,690.2,38.1,690.2,35.7 M693.7,40.6c6.6,0,11.8-7,11.8-13
	c0-4.7-3.1-8.4-7.9-8.4c-6.6,0-11.8,7-11.8,13C685.9,36.9,689,40.6,693.7,40.6 M684.2,33.9c-0.4,0.8-2.4,5.1-4.4,5.1
	c-0.8,0-1.1-0.5-1.1-1.3c0-1,0.4-2.5,0.8-4.1L685.8,9c-1.6,0.2-3.1,0.3-5.1,0.3h-3.4l-0.3,1h4.2l-6,23.7c-0.3,1.1-0.7,2.6-0.7,3.7
	c0,1.8,1.5,2.9,3.3,2.9c4.5,0,6.4-4.5,7.1-6.4L684.2,33.9z M643.3,35.8c0-1.6,1-7.4,3.1-12.5c0.9-2.3,2.4-3.2,4.1-3.2
	c2.2,0,3.7,1.5,3.7,4.3c0,2.6-2.8,15-8.4,15C644,39.5,643.3,37.9,643.3,35.8 M660.3,34.3c-0.7,1.2-2.5,4.3-3.9,4.3
	c-0.7,0-0.9-0.6-0.9-1.3c0-0.6,0.3-1.9,0.5-2.7l3.8-14.6H656l-0.7,2.5c-0.4-0.9-1.5-3.3-4.9-3.3c-4.8,0-11.5,6.3-11.5,12.9
	c0,4.7,2.4,8.5,6,8.5c3.6,0,5.5-2.4,6.4-3.7h0.1c0,1.3,0.1,3.7,3,3.7c3.6,0,5.8-4.2,6.7-5.8L660.3,34.3z M616,40.6
	c4.3,0,8-2.6,8-6.6c0-3-1.6-4.5-3.4-5.9c-2.3-1.7-5.1-3.2-5.1-5.1c0-2.1,2.6-2.9,4.2-2.9c1.1,0,2.6,0.2,2.6,0.9
	c0,0.5-0.7,1.1-0.7,1.7c0,1,0.7,1.7,1.8,1.7c1.4,0,2-0.9,2-2c0-2.3-2.7-3.4-5.6-3.4c-3.7,0-7.2,2.7-7.2,6c0,3.2,3,4.9,5.4,6.7
	c1.6,1.2,3.1,2.3,3.1,4.1c0,2.4-2.4,3.6-4.7,3.6c-1.7,0-4.1-0.4-4.1-1.7c0-0.5,0.7-1.2,0.7-1.9c0-1-0.8-1.7-1.7-1.7
	c-1.3,0-2,1-2,1.9C609.2,38.6,611.8,40.6,616,40.6 M606.5,14.7c1.4,0,2.5-1.1,2.5-2.5c0-1.4-1.1-2.5-2.5-2.5c-1.4,0-2.5,1.1-2.5,2.5
	C604,13.6,605.1,14.7,606.5,14.7 M608.5,33.9c-0.4,0.8-2.4,5.1-4.4,5.1c-0.8,0-1.1-0.5-1.1-1.3c0-1,0.4-2.5,0.8-4.1l3.7-14.1
	c-1.6,0.2-3.1,0.3-5.1,0.3h-3l-0.3,1h3.8l-3.4,13c-0.3,1.1-0.7,2.6-0.7,3.7c0,1.8,1.5,2.9,3.3,2.9c4.5,0,6.4-4.5,7.1-6.4L608.5,33.9
	z M562.3,39.8h4.1l2.7-10.6c0.7-2.9,3.3-8.4,7.9-8.4c1.1,0,1.9,0.6,1.9,1.5c0,0.8-0.3,2-0.7,3.2L576,34c-0.3,1.1-0.7,2.6-0.7,3.7
	c0,1.8,1.5,2.9,3.3,2.9c4.5,0,6.4-4.5,7.1-6.4l-0.8-0.3c-0.4,0.8-2.4,5.1-4.4,5.1c-0.8,0-1.1-0.5-1.1-1.3c0-1,0.4-2.5,0.8-4.1
	l1.9-7.4c0.3-1.3,0.7-2.6,0.7-4c0-2.1-1.6-3.1-4-3.1c-4.4,0-7.1,2.4-8.9,4.8l-0.1-0.1l1.1-4.3c-1.8,0.2-3.5,0.3-5.7,0.3h-2.2l-0.3,1
	h3.9L562.3,39.8z M551.7,38.9c2.6,0.2,5.7,0,5.7,3c0,3.7-4.1,6.7-9,6.7c-3.5,0-6.6-1.7-6.6-4.9c0-3.1,2.9-4.4,4.2-5.1L551.7,38.9z
	 M547.6,28.1c0-2.1,1-7.9,4.4-7.9c1.7,0,3.2,0.8,3.2,2.9c0,2.6-1,7.9-4.7,7.9C549,31,547.6,30.2,547.6,28.1 M549,35
	c-2.3-0.2-5.4-0.2-5.4-2.1c0-1.4,1.5-2,2.3-2.4c1,0.6,2,1.6,5.1,1.6c3.7,0,6.6-2,7.8-6c0.4-1.5,0.7-5.5,1.7-5.5c0.9,0,0.7,1,1.7,1
	c0.8,0,1.4-0.5,1.4-1.4c0-1-0.9-1.5-1.8-1.5c-2.7,0-3.1,3.1-3.4,4.4h-0.1c-0.6-1.7-2.1-3.8-6.2-3.8c-4.7,0-8.3,3.1-8.3,6.8
	c0,2.2,0.8,3.2,1.5,4c-1.3,0.7-3.9,1.7-3.9,4.7c0,2.4,2,3.1,3.4,3.7c-1.3,0.5-5.7,1.9-5.7,5.3c0,3.9,3.8,6,8.5,6
	c6.4,0,11.3-3.6,11.3-9.2c0-4.7-3.4-4.7-5.7-5L549,35z M536.6,14.7c1.4,0,2.5-1.1,2.5-2.5c0-1.4-1.1-2.5-2.5-2.5
	c-1.4,0-2.5,1.1-2.5,2.5C534.1,13.6,535.2,14.7,536.6,14.7 M538.5,33.9c-0.4,0.8-2.4,5.1-4.4,5.1c-0.8,0-1.1-0.5-1.1-1.3
	c0-1,0.4-2.5,0.8-4.1l3.7-14.1c-1.6,0.2-3.1,0.3-5.1,0.3h-3l-0.3,1h3.8l-3.4,13c-0.3,1.1-0.7,2.6-0.7,3.7c0,1.8,1.5,2.9,3.3,2.9
	c4.5,0,6.4-4.5,7.1-6.4L538.5,33.9z M517.2,40.6c4.3,0,8-2.6,8-6.6c0-3-1.6-4.5-3.4-5.9c-2.3-1.7-5.1-3.2-5.1-5.1
	c0-2.1,2.6-2.9,4.2-2.9c1.1,0,2.6,0.2,2.6,0.9c0,0.5-0.7,1.1-0.7,1.7c0,1,0.7,1.7,1.8,1.7c1.4,0,2-0.9,2-2c0-2.3-2.7-3.4-5.6-3.4
	c-3.7,0-7.2,2.7-7.2,6c0,3.2,3,4.9,5.4,6.7c1.6,1.2,3.1,2.3,3.1,4.1c0,2.4-2.4,3.6-4.7,3.6c-1.7,0-4.1-0.4-4.1-1.7
	c0-0.5,0.7-1.2,0.7-1.9c0-1-0.8-1.7-1.7-1.7c-1.4,0-2,1-2,1.9C510.4,38.6,513,40.6,517.2,40.6 M503.6,20.2c1.9,0,2.8,1.1,2.8,2.8
	c0,5.2-4,6.4-7.9,6.4c-0.4,0-1.3,0-1.9-0.2C497.1,27.2,499.2,20.2,503.6,20.2 M507.9,34c-1,1.5-3.7,5.5-7.9,5.5
	c-2.8,0-4.1-2-4.1-5.1c0-1.8,0.3-3.4,0.5-4.1c0.7,0.1,1.4,0.2,2.2,0.2c3.4,0,11.6-1,11.6-6.5c0-3-2.7-4.8-5.9-4.8
	c-5.5,0-12.8,5.7-12.8,12.8c0,4.3,3.4,8.6,8.1,8.6c5,0,8.1-4.4,9.1-6.1L507.9,34z M472.2,35.7c0-1.4,0.3-6.4,2.2-11.2
	c1.3-3.1,2.7-4.3,5.1-4.3c2.3,0,3.8,1.7,3.8,4.1c0,3.1-2.4,15.2-8.4,15.2C473.2,39.5,472.2,38.1,472.2,35.7 M489.5,34.1
	c-0.3,0.5-2.7,4.1-3.7,4.1c-0.6,0-1.1-0.1-1.1-1.1c0-0.9,0.3-2.1,0.6-3.3L491.4,9c-1.6,0.1-3.7,0.3-6.1,0.3h-2.3l-0.2,1h4.3
	l-2.9,11.5c-0.6-1-1.8-2.7-4.4-2.7c-6.6,0-11.8,7-11.8,13c0,4.7,2.6,8.4,6.6,8.4c3.7,0,5.8-3.4,6.4-4.4h0.1c0,1.4,0,4.1,2.8,4.1
	c3.4,0,5.8-4.5,6.5-5.6L489.5,34.1z M448.2,20.2c1.9,0,2.8,1.1,2.8,2.8c0,5.2-4,6.4-7.9,6.4c-0.4,0-1.3,0-1.9-0.2
	C441.7,27.2,443.7,20.2,448.2,20.2 M452.4,34c-1,1.5-3.7,5.5-7.9,5.5c-2.8,0-4.1-2-4.1-5.1c0-1.8,0.3-3.4,0.5-4.1
	c0.7,0.1,1.4,0.2,2.2,0.2c3.4,0,11.6-1,11.6-6.5c0-3-2.7-4.8-5.9-4.8c-5.5,0-12.8,5.7-12.8,12.8c0,4.3,3.4,8.6,8.1,8.6
	c5,0,8.1-4.4,9.1-6.1L452.4,34z M423.6,26.5c0.4-1.5,1.1-3.4,1.1-4.5c0-1.7-1.1-2.8-3.1-2.8c-3.9,0-6.1,4.4-7.1,5.9l0.7,0.5
	c0.5-0.8,3-4.8,4.6-4.8c0.6,0,0.9,0.3,0.9,1.1c0,0.7-0.4,2.1-0.7,3l-2.1,7.4c-0.3,1-0.9,2.9-0.9,3.9c0,2.4,1.7,4.4,5,4.4
	c7.8,0,12.7-12.4,12.7-18c0-1.7-0.7-3.4-2.7-3.4c-0.8,0-1.8,0.8-1.8,2c0,1,0.4,1.5,1,1.7c0.9,0.4,2.1,0.2,2.1,1.7
	c0,4.4-5.1,14.4-10,14.4c-1.5,0-2.3-0.4-2.3-2c0-1.2,0.4-2.7,0.7-3.8L423.6,26.5z M408,20.2c1.9,0,2.8,1.1,2.8,2.8
	c0,5.2-4,6.4-7.9,6.4c-0.4,0-1.3,0-1.9-0.2C401.5,27.2,403.6,20.2,408,20.2 M412.3,34c-1,1.5-3.7,5.5-7.9,5.5c-2.8,0-4.1-2-4.1-5.1
	c0-1.8,0.3-3.4,0.5-4.1c0.7,0.1,1.4,0.2,2.2,0.2c3.4,0,11.6-1,11.6-6.5c0-3-2.7-4.8-5.9-4.8c-5.5,0-12.8,5.7-12.8,12.8
	c0,4.3,3.4,8.6,8.1,8.6c5,0,8.1-4.4,9.1-6.1L412.3,34z M392,14.7c1.4,0,2.5-1.1,2.5-2.5c0-1.4-1.1-2.5-2.5-2.5
	c-1.4,0-2.5,1.1-2.5,2.5C389.5,13.6,390.6,14.7,392,14.7 M394,33.9c-0.4,0.8-2.4,5.1-4.4,5.1c-0.8,0-1.1-0.5-1.1-1.3
	c0-1,0.4-2.5,0.8-4.1l3.7-14.1c-1.6,0.2-3.1,0.3-5.1,0.3h-3l-0.3,1h3.8L385,34c-0.3,1.1-0.7,2.6-0.7,3.7c0,1.8,1.5,2.9,3.3,2.9
	c4.5,0,6.4-4.5,7.1-6.4L394,33.9z M382.2,33.9c-0.4,0.8-2.4,5.1-4.4,5.1c-0.8,0-1.1-0.5-1.1-1.3c0-1,0.4-2.5,0.8-4.1L383.8,9
	c-1.6,0.2-3.1,0.3-5.1,0.3h-3.4l-0.3,1h4.2l-6,23.7c-0.3,1.1-0.7,2.6-0.7,3.7c0,1.8,1.5,2.9,3.3,2.9c4.5,0,6.4-4.5,7.1-6.4
	L382.2,33.9z M364.7,20.2c1.9,0,2.8,1.1,2.8,2.8c0,5.2-4,6.4-7.9,6.4c-0.4,0-1.3,0-1.9-0.2C358.2,27.2,360.2,20.2,364.7,20.2
	 M368.9,34c-1,1.5-3.7,5.5-7.9,5.5c-2.8,0-4.1-2-4.1-5.1c0-1.8,0.3-3.4,0.5-4.1c0.7,0.1,1.4,0.2,2.2,0.2c3.4,0,11.6-1,11.6-6.5
	c0-3-2.7-4.8-5.9-4.8c-5.5,0-12.8,5.7-12.8,12.8c0,4.3,3.4,8.6,8.1,8.6c5,0,8.1-4.4,9.1-6.1L368.9,34z M334.5,35.6
	c0-1.7,1-9,3.5-12.5c0.8-1,2.8-2.9,5-2.9c1.8,0,2.8,1.4,2.8,3.9c0,1.4,0,4.7-2.2,11.2c-1.3,3.1-2.7,4.3-5.1,4.3
	C336.1,39.5,334.5,38.3,334.5,35.6 M340.4,9c-1.8,0.3-3.6,0.3-5.9,0.3h-2.2l-0.2,1h3.8l-4.6,19.2c-0.3,1.1-0.9,3.6-0.9,5.2
	c0,3.1,2.7,5.9,6.9,5.9c7.3,0,12.9-7.4,12.9-13c0-5-2.6-8.4-6.6-8.4c-3.5,0-5.5,2.4-6.5,3.6l-0.1-0.1L340.4,9z M310,20.2
	c1.9,0,2.8,1.1,2.8,2.8c0,5.2-4,6.4-7.9,6.4c-0.4,0-1.3,0-1.9-0.2C303.5,27.2,305.6,20.2,310,20.2 M314.3,34c-1,1.5-3.7,5.5-7.9,5.5
	c-2.8,0-4.1-2-4.1-5.1c0-1.8,0.3-3.4,0.5-4.1c0.7,0.1,1.4,0.2,2.2,0.2c3.4,0,11.6-1,11.6-6.5c0-3-2.7-4.8-5.9-4.8
	c-5.5,0-12.8,5.7-12.8,12.8c0,4.3,3.4,8.6,8.1,8.6c5,0,8.1-4.4,9.1-6.1L314.3,34z M287.3,19.9h-3.7c-0.4,2.4-5.7,19.1-11.2,19.1
	c-1.1,0-1.3-0.6-1.3-1.7c0-0.8,0.4-2.2,0.8-3.5l2.3-8.1c0.4-1.5,0.9-2.5,0.9-4.1c0-1.3-0.7-2.5-2.8-2.5c-3.4,0-6.3,4.6-7.2,6
	l0.8,0.4c0.4-0.7,2.9-4.4,4.3-4.4c0.5,0,0.8,0.2,0.8,1c0,0.6-0.3,1.7-0.7,2.7l-2.6,8.7c-0.1,0.3-0.7,2.6-0.7,3.5
	c0,2.3,1.6,3.7,3.8,3.7c3.3,0,5.8-2.8,7.7-5.7c1.3-2,2.2-4.1,2.4-4.8l0.1,0.1c-0.1,0.3-0.7,3-0.7,4.3c0,3.3,1.3,6.1,4.5,6.1
	c7.1,0,11.5-11.7,11.5-17.5c0-2-0.9-4-2.7-4c-1.3,0-2,0.9-2,2.1c0,0.7,0.3,1.5,1.2,1.8c0.7,0.3,2.2,0,2.2,2c0,3.9-4.4,13.9-8.6,13.9
	c-2.1,0-2.5-1.6-2.5-3.9c0-2,0.7-5.1,1.4-7.8L287.3,19.9z M242.4,46.8c0.7-0.4,2.4-1.1,4-2.5c1-0.9,2.8-3,2.8-5.1
	c0-2-1.3-3.9-3.6-3.9c-1.3,0-2.8,1-2.8,2.7c0,0.8,0.5,2.2,2.3,2.2c0.8,0,1.2-0.4,1.5-0.8c0.3-0.3,0.4-0.7,0.7-0.7
	c0.5,0,0.7,0.5,0.7,1.1c0,0.8-0.8,2.6-2.1,3.7c-1.4,1.2-2.9,2.1-3.8,2.5L242.4,46.8z M235.3,20.2c1.9,0,2.8,1.1,2.8,2.8
	c0,5.2-4,6.4-7.9,6.4c-0.4,0-1.3,0-1.9-0.2C228.8,27.2,230.9,20.2,235.3,20.2 M239.6,34c-1,1.5-3.7,5.5-7.9,5.5
	c-2.8,0-4.1-2-4.1-5.1c0-1.8,0.3-3.4,0.5-4.1c0.7,0.1,1.4,0.2,2.2,0.2c3.4,0,11.6-1,11.6-6.5c0-3-2.7-4.8-5.9-4.8
	c-5.5,0-12.8,5.7-12.8,12.8c0,4.3,3.4,8.6,8.1,8.6c5,0,8.1-4.4,9.1-6.1L239.6,34z M221.5,33.9c-0.4,0.8-2.4,5.1-4.4,5.1
	c-0.8,0-1.1-0.5-1.1-1.3c0-1,0.4-2.5,0.8-4.1L223.1,9c-1.6,0.2-3.1,0.3-5.1,0.3h-3.4l-0.3,1h4.2l-6,23.7c-0.3,1.1-0.7,2.6-0.7,3.7
	c0,1.8,1.5,2.9,3.3,2.9c4.5,0,6.4-4.5,7.1-6.4L221.5,33.9z M192.7,35.8c0-1.6,1-7.4,3.1-12.5c0.9-2.3,2.4-3.2,4.1-3.2
	c2.2,0,3.7,1.5,3.7,4.3c0,2.6-2.8,15-8.4,15C193.3,39.5,192.7,37.9,192.7,35.8 M209.7,34.3c-0.7,1.2-2.5,4.3-3.9,4.3
	c-0.7,0-0.9-0.6-0.9-1.3c0-0.6,0.3-1.9,0.5-2.7l3.8-14.6h-3.9l-0.7,2.5c-0.4-0.9-1.5-3.3-4.9-3.3c-4.8,0-11.5,6.3-11.5,12.9
	c0,4.7,2.4,8.5,6,8.5c3.6,0,5.5-2.4,6.4-3.7h0.1c0,1.3,0.1,3.7,3,3.7c3.6,0,5.8-4.2,6.7-5.8L209.7,34.3z M164.6,39.8h4.1l2.7-10.6
	c0.7-2.9,3.3-8.4,7.9-8.4c1.1,0,1.9,0.6,1.9,1.5c0,0.8-0.3,2-0.7,3.2l-2.2,8.5c-0.3,1.1-0.7,2.6-0.7,3.7c0,1.8,1.5,2.9,3.3,2.9
	c4.5,0,6.4-4.5,7.1-6.4l-0.8-0.3c-0.4,0.8-2.4,5.1-4.4,5.1c-0.8,0-1.1-0.5-1.1-1.3c0-1,0.4-2.5,0.8-4.1l1.9-7.4
	c0.3-1.3,0.7-2.6,0.7-4c0-2.1-1.6-3.1-4-3.1c-4.4,0-7.1,2.4-8.9,4.8l-0.1-0.1l1.1-4.3c-1.8,0.2-3.5,0.3-5.7,0.3h-2.2l-0.3,1h3.9
	L164.6,39.8z M147.9,35.7c0-1.4,0.3-6.4,2.2-11.2c1.3-3.1,2.7-4.3,5.1-4.3c2.4,0,3.7,1.5,3.7,3.9c0,1.4-0.3,6.4-2.2,11.2
	c-1.3,3.1-2.7,4.3-5.1,4.3C149.2,39.5,147.9,38.1,147.9,35.7 M151.4,40.6c6.6,0,11.8-7,11.8-13c0-4.7-3.1-8.4-7.9-8.4
	c-6.6,0-11.8,7-11.8,13C143.5,36.9,146.6,40.6,151.4,40.6 M139.7,14.7c1.4,0,2.5-1.1,2.5-2.5c0-1.4-1.1-2.5-2.5-2.5
	c-1.4,0-2.5,1.1-2.5,2.5C137.2,13.6,138.3,14.7,139.7,14.7 M141.6,33.9c-0.4,0.8-2.4,5.1-4.4,5.1c-0.8,0-1.1-0.5-1.1-1.3
	c0-1,0.4-2.5,0.8-4.1l3.7-14.1c-1.6,0.2-3.1,0.3-5.1,0.3h-3l-0.3,1h3.8l-3.4,13c-0.3,1.1-0.7,2.6-0.7,3.7c0,1.8,1.5,2.9,3.3,2.9
	c4.5,0,6.4-4.5,7.1-6.4L141.6,33.9z M128.7,33.9c-0.4,0.8-2.4,5.1-4.4,5.1c-1.1,0-1.6-0.3-1.6-1.3c0-0.7,0.2-1.9,0.6-3.2L127,21h3.9
	l0.3-1h-4l1.4-5.1c-1.7,0.3-3.2,0.3-4.1,0.3l-1.3,4.9H120l-0.3,1h3.2l-3.5,13c-0.3,1.2-0.7,2.3-0.7,3.3c0,2.6,1.7,3.3,3.7,3.3
	c4.5,0,6.4-4.5,7.1-6.4L128.7,33.9z M99.4,35.8c0-1.6,1-7.4,3.1-12.5c0.9-2.3,2.4-3.2,4.1-3.2c2.2,0,3.7,1.5,3.7,4.3
	c0,2.6-2.8,15-8.4,15C100,39.5,99.4,37.9,99.4,35.8 M116.4,34.3c-0.7,1.2-2.5,4.3-3.9,4.3c-0.7,0-0.9-0.6-0.9-1.3
	c0-0.6,0.3-1.9,0.5-2.7l3.8-14.6h-3.9l-0.7,2.5c-0.4-0.9-1.5-3.3-4.9-3.3c-4.8,0-11.5,6.3-11.5,12.9c0,4.7,2.4,8.5,6,8.5
	c3.6,0,5.5-2.4,6.4-3.7h0.1c0,1.3,0.1,3.7,3,3.7c3.6,0,5.8-4.2,6.7-5.8L116.4,34.3z M65.8,39.8h12.4l0.2-1h-3.8l3.1-15h1.4
	c1.6,0,3.6,0.2,4.7,3.1c0.7,2.1,0.3,6.5,1.2,9.5c0.7,2.2,2.7,3.8,5.3,3.8c1.6,0,2.6-0.3,3.2-0.6l-0.2-1C93,38.8,92.1,39,91.6,39
	c-1,0-2.1-0.8-2.1-3.4c0-4.5,0-7.1-2-9.4c-1.4-1.5-3.3-2-5.3-2.7v-0.1c3.2-0.2,10.6-1.3,10.6-7.8c0-6.2-7-6.3-10.4-6.3H71.8l-0.2,1
	h4.3l-6.1,28.4h-3.8L65.8,39.8z M80.7,10.3h1.4c2.5,0,5.8,0,5.8,4.6c0,6.5-3.6,7.8-8.2,7.8H78L80.7,10.3z M54,33.9
	c-0.4,0.8-2.4,5.1-4.4,5.1c-1.1,0-1.6-0.3-1.6-1.3c0-0.7,0.2-1.9,0.6-3.2L52.3,21h3.9l0.3-1h-4l1.4-5.1C52.2,15,50.7,15,49.8,15
	l-1.4,4.9h-3.2L45,21h3.2l-3.5,13c-0.3,1.2-0.7,2.3-0.7,3.3c0,2.6,1.7,3.3,3.7,3.3c4.5,0,6.4-4.5,7.1-6.4L54,33.9z M35.1,16.8
	L35.1,16.8l-1,12.2h-7.9L35.1,16.8z M14.2,39.8H23l0.2-1H19l6.4-8.6H34l-0.7,8.6h-4.1l-0.2,1h12.5l0.1-1H38l2.4-29.9h-0.9L17.4,38.7
	h-3L14.2,39.8z"/>
</svg>
