<?xml version="1.0" encoding="utf-8"?>
<!-- Generator: Adobe Illustrator 17.1.0, SVG Export Plug-In . SVG Version: 6.00 Build 0)  -->
<!DOCTYPE svg PUBLIC "-//W3C//DTD SVG 1.1//EN" "http://www.w3.org/Graphics/SVG/1.1/DTD/svg11.dtd">
<svg version="1.1" id="Layer_1" xmlns="http://www.w3.org/2000/svg" xmlns:xlink="http://www.w3.org/1999/xlink" x="0px" y="0px"
	 viewBox="0 0 642.5 188.5" enable-background="new 0 0 642.5 188.5" xml:space="preserve">
<g>
	<path fill="#010101" d="M471.1,166.6c1.1,0,1.9-0.8,1.9-1.9s-0.8-1.9-1.9-1.9c-1.1,0-1.9,0.8-1.9,1.9S470,166.6,471.1,166.6
		 M461.4,156.4c-0.5-1.4-1.4-5.2-3.6-5.2c-2.3,0-3.7,3.6-4,4.5l0.5,0.2c0.3-0.8,1.2-2.9,2.2-2.9c0.7,0,1.3,2.3,1.7,3.2l2.1,6.2
		c0.2,0.7,0.8,1.8,0.8,2.6c0,1.5-4,6.9-6.8,6.9c-0.6,0-0.8-0.4-0.8-1.1c0-0.6-0.5-1-1.2-1c-0.8,0-1.5,0.5-1.5,1.4
		c0,1.2,1.2,1.8,2.2,1.8c5.6,0,9.3-7.9,11-11.7c1.1-2.6,3.1-7.9,4.1-7.9c0.3,0,0.6,0.4,1.1,0.4c0.8,0,1.4-0.5,1.4-1.3
		c0-0.8-0.5-1.3-1.4-1.3c-1.6,0-2.3,1.7-3.1,3.4c-1,2.3-2.4,5.7-2.9,6.7L461.4,156.4z M452.5,161.7c-0.3,0.6-1.7,3.7-3.1,3.7
		c-0.8,0-1.1-0.2-1.1-0.9c0-0.5,0.2-1.3,0.4-2.3l2.6-9.7h2.8l0.2-0.8h-2.8l1-3.7c-1.2,0.2-2.3,0.2-3,0.2l-1,3.5h-2.3l-0.2,0.8h2.3
		l-2.5,9.3c-0.2,0.8-0.5,1.7-0.5,2.3c0,1.8,1.2,2.4,2.7,2.4c3.2,0,4.6-3.2,5.1-4.6L452.5,161.7z M442.5,148c1,0,1.8-0.8,1.8-1.8
		s-0.8-1.8-1.8-1.8s-1.8,0.8-1.8,1.8S441.5,148,442.5,148 M443.9,161.7c-0.3,0.6-1.7,3.7-3.1,3.7c-0.6,0-0.8-0.3-0.8-0.9
		c0-0.7,0.3-1.8,0.6-2.9l2.6-10.1c-1.1,0.2-2.2,0.2-3.7,0.2h-2.1l-0.2,0.8h2.7l-2.4,9.3c-0.2,0.8-0.5,1.9-0.5,2.7
		c0,1.3,1.1,2.1,2.3,2.1c3.2,0,4.6-3.2,5.1-4.6L443.9,161.7z M435.5,161.7c-0.3,0.6-1.7,3.7-3.1,3.7c-0.6,0-0.8-0.3-0.8-0.9
		c0-0.7,0.3-1.8,0.6-2.9l4.5-17.7c-1.1,0.2-2.3,0.2-3.7,0.2h-2.4l-0.2,0.8h3l-4.3,17c-0.2,0.8-0.5,1.9-0.5,2.7
		c0,1.3,1.1,2.1,2.3,2.1c3.2,0,4.6-3.2,5.1-4.6L435.5,161.7z M425.8,148c1,0,1.8-0.8,1.8-1.8s-0.8-1.8-1.8-1.8s-1.8,0.8-1.8,1.8
		S424.8,148,425.8,148 M427.2,161.7c-0.3,0.6-1.7,3.7-3.1,3.7c-0.6,0-0.8-0.3-0.8-0.9c0-0.7,0.3-1.8,0.6-2.9l2.6-10.1
		c-1.1,0.2-2.2,0.2-3.7,0.2h-2.1l-0.2,0.8h2.7l-2.4,9.3c-0.2,0.8-0.5,1.9-0.5,2.7c0,1.3,1.1,2.1,2.3,2.1c3.2,0,4.6-3.2,5.1-4.6
		L427.2,161.7z M407,163c0-1.2,0.7-6.4,2.5-9c0.6-0.7,2-2.1,3.6-2.1c1.3,0,2,1,2,2.8c0,1,0,3.4-1.6,8c-0.9,2.2-1.9,3.1-3.7,3.1
		C408.2,165.8,407,164.9,407,163 M411.3,143.9c-1.3,0.2-2.6,0.2-4.2,0.2h-1.6l-0.2,0.8h2.7l-3.3,13.8c-0.2,0.8-0.7,2.6-0.7,3.7
		c0,2.2,1.9,4.2,5,4.2c5.3,0,9.2-5.3,9.2-9.3c0-3.6-1.8-6-4.7-6c-2.5,0-3.9,1.7-4.7,2.6l-0.1-0.1L411.3,143.9z M401,148
		c1,0,1.8-0.8,1.8-1.8s-0.8-1.8-1.8-1.8c-1,0-1.8,0.8-1.8,1.8S400,148,401,148 M402.5,161.7c-0.3,0.6-1.7,3.7-3.1,3.7
		c-0.6,0-0.8-0.3-0.8-0.9c0-0.7,0.3-1.8,0.6-2.9l2.6-10.1c-1.1,0.2-2.2,0.2-3.7,0.2H396l-0.2,0.8h2.7l-2.4,9.3
		c-0.2,0.8-0.5,1.9-0.5,2.7c0,1.3,1.1,2.1,2.3,2.1c3.2,0,4.6-3.2,5.1-4.6L402.5,161.7z M381.4,163c0-1,0.2-4.6,1.6-8
		c0.9-2.2,1.9-3.1,3.7-3.1c1.6,0,2.7,1.2,2.7,3c0,2.2-1.7,10.9-6,10.9C382.1,165.8,381.4,164.8,381.4,163 M393.8,161.9
		c-0.2,0.3-1.9,2.9-2.7,2.9c-0.4,0-0.8-0.1-0.8-0.8c0-0.7,0.2-1.5,0.4-2.3l4.3-17.9c-1.1,0.1-2.7,0.2-4.4,0.2H389l-0.2,0.8h3.1
		l-2.1,8.3c-0.4-0.7-1.3-2-3.2-2c-4.8,0-8.5,5-8.5,9.3c0,3.4,1.8,6,4.7,6c2.6,0,4.1-2.5,4.6-3.2h0.1c0,1,0,2.9,2,2.9
		c2.5,0,4.2-3.2,4.7-4L393.8,161.9z M361.2,166h2.9l1.9-7.6c0.5-2.1,2.4-6.1,5.7-6.1c0.8,0,1.3,0.4,1.3,1.1c0,0.6-0.2,1.4-0.5,2.3
		l-1.6,6.1c-0.2,0.8-0.5,1.9-0.5,2.7c0,1.3,1.1,2.1,2.3,2.1c3.2,0,4.6-3.2,5.1-4.6l-0.6-0.2c-0.3,0.6-1.7,3.7-3.1,3.7
		c-0.6,0-0.8-0.3-0.8-0.9c0-0.7,0.3-1.8,0.6-2.9l1.4-5.3c0.2-0.9,0.5-1.9,0.5-2.8c0-1.5-1.1-2.2-2.8-2.2c-3.1,0-5.1,1.7-6.4,3.4
		l-0.1-0.1l0.8-3.1c-1.3,0.1-2.5,0.2-4.1,0.2h-1.6l-0.2,0.8h2.8L361.2,166z M356,151.9c1.3,0,2,0.8,2,2c0,3.8-2.9,4.6-5.7,4.6
		c-0.3,0-0.9,0-1.3-0.1C351.3,157,352.8,151.9,356,151.9 M359,161.9c-0.7,1.1-2.7,3.9-5.7,3.9c-2,0-3-1.4-3-3.6c0-1.3,0.2-2.4,0.4-3
		c0.5,0.1,1,0.1,1.6,0.1c2.4,0,8.3-0.7,8.3-4.7c0-2.1-1.9-3.5-4.2-3.5c-3.9,0-9.2,4.1-9.2,9.2c0,3.1,2.4,6.2,5.8,6.2
		c3.6,0,5.8-3.2,6.5-4.3L359,161.9z M345.3,161.7c-0.3,0.6-1.7,3.7-3.1,3.7c-0.8,0-1.1-0.2-1.1-0.9c0-0.5,0.2-1.3,0.4-2.3l2.6-9.7
		h2.8l0.2-0.8h-2.8l1-3.7c-1.2,0.2-2.3,0.2-3,0.2l-1,3.5H339l-0.2,0.8h2.3l-2.5,9.3c-0.2,0.8-0.5,1.7-0.5,2.3c0,1.8,1.2,2.4,2.7,2.4
		c3.2,0,4.6-3.2,5.1-4.6L345.3,161.7z M336.8,161.9c-0.4,0.7-1.8,3.2-3,3.2c-0.8,0-1.2-1.2-1.4-2.2l-1.3-5.2c0.4-1,3.1-4.6,4.1-4.6
		c0.4,0,0.7,0.8,1.6,0.8c0.8,0,1.2-0.6,1.2-1.4s-0.6-1.3-1.4-1.3c-1.2,0-2.2,1.1-3.5,2.6c-1,1.3-2,2.6-2.3,3
		c-0.4-1.7-0.8-5.6-2.9-5.6c-2.6,0-4,3.1-4.6,4.2l0.5,0.3c0.4-0.6,1.5-3.1,2.6-3.1c0.6,0,0.8,1.3,1,2.2l1.1,4.4
		c-0.8,1.1-3.6,5.2-4.7,5.2c-0.6,0-0.7-0.7-1.7-0.7c-0.8,0-1.3,0.7-1.3,1.3c0,0.9,0.6,1.4,1.5,1.4c2.2,0,5.7-5.5,6.3-6.4
		c0.6,1.7,0.9,6.4,3.7,6.4c2.8,0,4.3-3.2,5-4.3L336.8,161.9z M317.3,151.9c1.3,0,2,0.8,2,2c0,3.8-2.9,4.6-5.7,4.6
		c-0.3,0-0.9,0-1.3-0.1C312.7,157,314.2,151.9,317.3,151.9 M320.4,161.9c-0.7,1.1-2.7,3.9-5.7,3.9c-2,0-3-1.4-3-3.6
		c0-1.3,0.2-2.4,0.4-3c0.5,0.1,1,0.1,1.6,0.1c2.4,0,8.3-0.7,8.3-4.7c0-2.1-1.9-3.5-4.2-3.5c-3.9,0-9.2,4.1-9.2,9.2
		c0,3.1,2.4,6.2,5.8,6.2c3.6,0,5.8-3.2,6.5-4.3L320.4,161.9z M286.2,163c0-1,0.2-4.6,1.6-8c0.9-2.2,1.9-3.1,3.7-3.1
		c1.6,0,2.7,1.2,2.7,3c0,2.2-1.7,10.9-6,10.9C286.9,165.8,286.2,164.8,286.2,163 M298.6,161.9c-0.2,0.3-1.9,2.9-2.7,2.9
		c-0.4,0-0.8-0.1-0.8-0.8c0-0.7,0.2-1.5,0.4-2.3l4.3-17.9c-1.1,0.1-2.7,0.2-4.4,0.2h-1.7l-0.2,0.8h3.1l-2.1,8.3
		c-0.4-0.7-1.3-2-3.2-2c-4.8,0-8.5,5-8.5,9.3c0,3.4,1.8,6,4.7,6c2.6,0,4.1-2.5,4.6-3.2h0.1c0,1,0,2.9,2,2.9c2.5,0,4.2-3.2,4.7-4
		L298.6,161.9z M266,166h2.9l1.9-7.6c0.5-2.1,2.4-6.1,5.7-6.1c0.8,0,1.3,0.4,1.3,1.1c0,0.6-0.2,1.4-0.5,2.3l-1.6,6.1
		c-0.2,0.8-0.5,1.9-0.5,2.7c0,1.3,1.1,2.1,2.3,2.1c3.2,0,4.6-3.2,5.1-4.6l-0.6-0.2c-0.3,0.6-1.7,3.7-3.1,3.7c-0.6,0-0.8-0.3-0.8-0.9
		c0-0.7,0.3-1.8,0.6-2.9l1.4-5.3c0.2-0.9,0.5-1.9,0.5-2.8c0-1.5-1.1-2.2-2.8-2.2c-3.1,0-5.1,1.7-6.4,3.4l-0.1-0.1l0.8-3.1
		c-1.3,0.1-2.5,0.2-4.1,0.2h-1.6l-0.2,0.8h2.8L266,166z M252.7,163.2c0-1.2,0.8-5.3,2.2-8.9c0.7-1.7,1.7-2.3,3-2.3
		c1.6,0,2.7,1.1,2.7,3.1c0,1.8-2,10.8-6,10.8C253.2,165.8,252.7,164.6,252.7,163.2 M264.9,162.1c-0.5,0.9-1.8,3.1-2.8,3.1
		c-0.5,0-0.6-0.4-0.6-0.9c0-0.4,0.2-1.3,0.3-2l2.8-10.5h-2.8l-0.5,1.8c-0.3-0.6-1.1-2.4-3.5-2.4c-3.5,0-8.2,4.5-8.2,9.3
		c0,3.3,1.7,6.1,4.3,6.1c2.6,0,3.9-1.8,4.6-2.7h0.1c0,0.9,0.1,2.7,2.2,2.7c2.6,0,4.2-3,4.8-4.2L264.9,162.1z M233.1,171
		c0.5-0.3,1.7-0.8,2.9-1.8c0.8-0.7,2-2.1,2-3.6c0-1.4-0.9-2.8-2.6-2.8c-0.9,0-2,0.7-2,2c0,0.6,0.4,1.6,1.7,1.6
		c0.6,0,0.9-0.3,1.1-0.6c0.2-0.2,0.3-0.5,0.5-0.5c0.3,0,0.5,0.4,0.5,0.8c0,0.6-0.6,1.8-1.5,2.6c-1,0.8-2.1,1.5-2.8,1.8L233.1,171z
		 M222.9,166h2.9l1.6-6.6c0.6-2.4,2.9-6.5,4.3-6.5c0.8,0,0.6,1.4,1.7,1.4c1.1,0,1.7-0.5,1.7-1.5c0-1-0.6-1.7-1.7-1.7
		c-2.8,0-4.7,3.5-5.3,4.6l-0.1-0.1l1-4.2c-1,0.2-2.1,0.2-3.3,0.2h-2.4l-0.1,0.8h3L222.9,166z M217,151.9c1.3,0,2,0.8,2,2
		c0,3.8-2.9,4.6-5.7,4.6c-0.3,0-0.9,0-1.3-0.1C212.4,157,213.8,151.9,217,151.9 M220.1,161.9c-0.7,1.1-2.7,3.9-5.7,3.9
		c-2,0-3-1.4-3-3.6c0-1.3,0.2-2.4,0.4-3c0.5,0.1,1,0.1,1.6,0.1c2.4,0,8.3-0.7,8.3-4.7c0-2.1-1.9-3.5-4.2-3.5c-3.9,0-9.2,4.1-9.2,9.2
		c0,3.1,2.4,6.2,5.8,6.2c3.6,0,5.8-3.2,6.5-4.3L220.1,161.9z M200.7,151.7H198c-0.3,1.7-4.1,13.7-8,13.7c-0.8,0-0.9-0.4-0.9-1.2
		c0-0.6,0.3-1.6,0.6-2.5l1.7-5.8c0.3-1.1,0.6-1.8,0.6-2.9c0-0.9-0.5-1.8-2-1.8c-2.4,0-4.5,3.3-5.2,4.3l0.6,0.3
		c0.3-0.5,2.1-3.2,3.1-3.2c0.4,0,0.6,0.2,0.6,0.7c0,0.4-0.2,1.2-0.5,1.9l-1.8,6.2c-0.1,0.2-0.5,1.8-0.5,2.5c0,1.6,1.2,2.6,2.7,2.6
		c2.3,0,4.2-2,5.5-4.1c0.9-1.4,1.6-3,1.8-3.4l0.1,0.1c-0.1,0.2-0.5,2.2-0.5,3.1c0,2.3,0.9,4.3,3.3,4.3c5.1,0,8.3-8.4,8.3-12.5
		c0-1.4-0.7-2.8-1.9-2.8c-0.9,0-1.4,0.7-1.4,1.5c0,0.5,0.2,1.1,0.8,1.3c0.5,0.2,1.6,0,1.6,1.4c0,2.8-3.1,10-6.2,10
		c-1.5,0-1.8-1.2-1.8-2.8c0-1.4,0.5-3.6,1-5.6L200.7,151.7z M172.8,163c0-1,0.2-4.6,1.6-8c0.9-2.2,1.9-3.1,3.7-3.1
		c1.7,0,2.6,1.1,2.6,2.8c0,1-0.2,4.6-1.6,8c-0.9,2.2-1.9,3.1-3.6,3.1C173.7,165.8,172.8,164.8,172.8,163 M175.3,166.6
		c4.8,0,8.5-5,8.5-9.3c0-3.4-2.2-6-5.7-6c-4.8,0-8.5,5-8.5,9.3C169.6,163.9,171.9,166.6,175.3,166.6 M157.5,162.4
		c0-2.7,1.6-10.5,6.2-10.5c1.5,0,2.1,1.1,2.1,2.5c0,1.4-1.2,11.4-5,11.4C159,165.8,157.5,164.4,157.5,162.4 M149.1,172.4h8.7
		l0.2-0.8h-3l1.8-7.5c0.2,0.5,1.2,2.3,3.8,2.3c4.4,0,8.3-5.5,8.3-9.5c0-3.4-2.2-5.9-5.2-5.9c-2.4,0-3.7,1.6-4.4,2.3l-0.1-0.1
		l0.5-1.9c-1.2,0.2-2.5,0.2-3.7,0.2H154l-0.2,0.8h2.9l-4.7,19.2h-2.7L149.1,172.4z M136.8,171c0.5-0.3,1.7-0.8,2.9-1.8
		c0.8-0.7,2-2.1,2-3.6c0-1.4-0.9-2.8-2.6-2.8c-0.9,0-2,0.7-2,2c0,0.6,0.4,1.6,1.7,1.6c0.6,0,0.9-0.3,1.1-0.6
		c0.2-0.2,0.3-0.5,0.5-0.5c0.3,0,0.5,0.4,0.5,0.8c0,0.6-0.6,1.8-1.5,2.6c-1,0.8-2.1,1.5-2.8,1.8L136.8,171z M119,166h2.9l1.9-7.6
		c0.5-2.1,2.4-6.1,5.7-6.1c0.8,0,1.3,0.4,1.3,1.1c0,0.6-0.2,1.4-0.5,2.3l-1.6,6.1c-0.2,0.8-0.5,1.9-0.5,2.7c0,1.3,1.1,2.1,2.3,2.1
		c3.2,0,4.6-3.2,5.1-4.6l-0.6-0.2c-0.3,0.6-1.7,3.7-3.1,3.7c-0.6,0-0.8-0.3-0.8-0.9c0-0.7,0.3-1.8,0.6-2.9l1.4-5.3
		c0.2-0.9,0.5-1.9,0.5-2.8c0-1.5-1.1-2.2-2.8-2.2c-3.1,0-5.1,1.7-6.4,3.4l-0.1-0.1l0.8-3.1c-1.3,0.1-2.5,0.2-4.1,0.2h-1.6l-0.2,0.8
		h2.8L119,166z M107,163c0-1,0.2-4.6,1.6-8c0.9-2.2,1.9-3.1,3.7-3.1c1.7,0,2.6,1.1,2.6,2.8c0,1-0.2,4.6-1.6,8
		c-0.9,2.2-1.9,3.1-3.6,3.1C107.9,165.8,107,164.8,107,163 M109.5,166.6c4.8,0,8.5-5,8.5-9.3c0-3.4-2.2-6-5.7-6
		c-4.8,0-8.5,5-8.5,9.3C103.9,163.9,106.1,166.6,109.5,166.6 M101.1,148c1,0,1.8-0.8,1.8-1.8s-0.8-1.8-1.8-1.8c-1,0-1.8,0.8-1.8,1.8
		S100.1,148,101.1,148 M102.5,161.7c-0.3,0.6-1.7,3.7-3.1,3.7c-0.6,0-0.8-0.3-0.8-0.9c0-0.7,0.3-1.8,0.6-2.9l2.6-10.1
		c-1.1,0.2-2.2,0.2-3.7,0.2H96l-0.2,0.8h2.7l-2.4,9.3c-0.2,0.8-0.5,1.9-0.5,2.7c0,1.3,1.1,2.1,2.3,2.1c3.2,0,4.6-3.2,5.1-4.6
		L102.5,161.7z M93.3,161.7c-0.3,0.6-1.7,3.7-3.1,3.7c-0.8,0-1.1-0.2-1.1-0.9c0-0.5,0.2-1.3,0.4-2.3l2.6-9.7h2.8l0.2-0.8h-2.8l1-3.7
		c-1.2,0.2-2.3,0.2-3,0.2l-1,3.5H87l-0.2,0.8h2.3l-2.5,9.3c-0.2,0.8-0.5,1.7-0.5,2.3c0,1.8,1.2,2.4,2.7,2.4c3.2,0,4.6-3.2,5.1-4.6
		L93.3,161.7z M84,162.1c-0.8,1.1-2.8,3.7-5.7,3.7c-1.9,0-3-1.2-3-4.1c0-0.7,0.4-3.5,1.8-6.7c1-2.3,2.5-3.1,4.2-3.1
		c1.1,0,2.2,0.4,2.2,0.9c0,0.5-0.8,0.7-0.8,1.6c0,0.9,0.5,1.4,1.4,1.4c1,0,1.5-0.8,1.5-1.7c0-1.4-1.9-3-4.2-3c-5.2,0-9.3,5-9.3,8.8
		c0,4,2.3,6.6,5.9,6.6c3.7,0,5.8-2.9,6.5-4.1L84,162.1z M54.9,166h2.9l1.9-7.6c0.5-2.1,2.4-6.1,5.7-6.1c0.8,0,1.3,0.4,1.3,1.1
		c0,0.6-0.2,1.4-0.5,2.3l-1.6,6.1c-0.2,0.8-0.5,1.9-0.5,2.7c0,1.3,1.1,2.1,2.3,2.1c3.2,0,4.6-3.2,5.1-4.6l-0.6-0.2
		c-0.3,0.6-1.7,3.7-3.1,3.7c-0.6,0-0.8-0.3-0.8-0.9c0-0.7,0.3-1.8,0.6-2.9l1.4-5.3c0.2-0.9,0.5-1.9,0.5-2.8c0-1.5-1.1-2.2-2.8-2.2
		c-3.1,0-5.1,1.7-6.4,3.4l-0.1-0.1l0.8-3.1c-1.3,0.1-2.5,0.2-4.1,0.2h-1.6l-0.2,0.8h2.8L54.9,166z M54.3,161.7
		c-0.3,0.6-1.7,3.7-3.1,3.7c-0.6,0-0.8-0.3-0.8-0.9c0-0.7,0.2-1.7,0.3-2.4l2.5-10.4h-2.9l-1.9,7.6c-0.5,2.1-2.4,6.1-5.7,6.1
		c-0.8,0-1.3-0.5-1.3-1.5c0-0.7,0.3-1.7,0.5-2.4l2.4-9.8h-5.6l-0.2,0.8h2.6l-2.3,9c-0.2,0.6-0.4,1.7-0.4,2.5c0,1.8,1.1,2.6,2.8,2.6
		c3.1,0,5-1.5,6.3-3.4l0.1,0.1c-0.1,0.3-0.1,0.9-0.1,1.3c0,1.3,1.1,2.1,2.3,2.1c3.2,0,4.6-3.2,5.1-4.6L54.3,161.7z M38.1,152.5
		l0.2-0.8h-3.1c0.2-1.3,1.2-7.4,4.8-7.4c0.6,0,1.2,0.2,1.2,0.5c0,0.4-0.7,0.8-0.7,1.5c0,0.9,0.5,1.4,1.5,1.4c0.9,0,1.4-0.7,1.4-1.6
		c0-1.3-1.4-2.5-3.5-2.5c-5.1,0-7.2,6.6-7.7,8.2h-3.1l-0.2,0.8h3.2c-1.2,5-1.5,8.5-3,14.8c-0.2,0.9-1.4,5-3.8,5
		c-0.3,0-0.6-0.3-0.6-0.6c0-0.2,0.2-0.5,0.2-0.8c0-0.8-0.5-1.3-1.4-1.3c-1,0-1.6,0.5-1.6,1.5c0,1.4,1.1,2,2.6,2c3.7,0,6-4.6,6.6-5.7
		c2.4-5,3.5-12.8,3.9-14.8H38.1z"/>
	<path fill="#010101" d="M529.4,138.3c0.5-0.3,1.7-0.8,2.9-1.8c0.8-0.7,2-2.1,2-3.6c0-1.4-0.9-2.8-2.6-2.8c-0.9,0-2,0.7-2,2
		c0,0.6,0.4,1.6,1.7,1.6c0.6,0,0.9-0.3,1.1-0.6c0.2-0.2,0.3-0.5,0.5-0.5c0.3,0,0.5,0.4,0.5,0.8c0,0.6-0.6,1.8-1.5,2.6
		c-1,0.8-2.1,1.5-2.8,1.8L529.4,138.3z M521.9,123.7c-0.5-1.4-1.4-5.2-3.6-5.2c-2.3,0-3.7,3.6-4,4.5l0.5,0.2
		c0.3-0.8,1.2-2.9,2.2-2.9c0.7,0,1.3,2.3,1.7,3.2l2.1,6.2c0.2,0.7,0.8,1.8,0.8,2.6c0,1.5-4,6.9-6.8,6.9c-0.6,0-0.8-0.4-0.8-1.1
		c0-0.6-0.5-1-1.2-1c-0.8,0-1.5,0.5-1.5,1.4c0,1.2,1.2,1.8,2.3,1.8c5.6,0,9.3-7.9,11-11.7c1.1-2.6,3.1-7.9,4.1-7.9
		c0.3,0,0.6,0.4,1.1,0.4c0.8,0,1.4-0.5,1.4-1.3c0-0.8-0.5-1.3-1.4-1.3c-1.6,0-2.3,1.7-3.1,3.4c-1,2.3-2.4,5.7-2.9,6.7L521.9,123.7z
		 M513,129.1c-0.3,0.6-1.7,3.7-3.1,3.7c-0.8,0-1.1-0.2-1.1-0.9c0-0.5,0.2-1.3,0.4-2.3l2.6-9.7h2.8l0.2-0.8h-2.8l1-3.7
		c-1.2,0.2-2.3,0.2-3,0.2l-1,3.5h-2.3l-0.2,0.8h2.3l-2.5,9.3c-0.2,0.8-0.5,1.7-0.5,2.3c0,1.8,1.2,2.4,2.7,2.4c3.2,0,4.6-3.2,5.1-4.6
		L513,129.1z M503,115.3c1,0,1.8-0.8,1.8-1.8s-0.8-1.8-1.8-1.8s-1.8,0.8-1.8,1.8S502,115.3,503,115.3 M504.4,129.1
		c-0.3,0.6-1.7,3.7-3.1,3.7c-0.6,0-0.8-0.3-0.8-0.9c0-0.7,0.3-1.8,0.6-2.9l2.6-10.1c-1.1,0.2-2.3,0.2-3.7,0.2h-2.1l-0.2,0.8h2.7
		l-2.4,9.3c-0.2,0.8-0.5,1.9-0.5,2.7c0,1.3,1.1,2.1,2.3,2.1c3.2,0,4.6-3.2,5.1-4.6L504.4,129.1z M485.2,133.3h2.9l1.6-6.6
		c0.6-2.4,2.9-6.5,4.3-6.5c0.8,0,0.6,1.4,1.7,1.4c1.1,0,1.7-0.5,1.7-1.5c0-1-0.6-1.7-1.7-1.7c-2.8,0-4.7,3.5-5.3,4.6l-0.1-0.1l1-4.2
		c-1,0.2-2.1,0.2-3.3,0.2h-2.4l-0.1,0.8h3L485.2,133.3z M471.2,130.5c0-1.2,0.8-5.3,2.2-8.9c0.7-1.7,1.7-2.3,3-2.3
		c1.6,0,2.7,1.1,2.7,3.1c0,1.8-2,10.8-6,10.8C471.7,133.1,471.2,131.9,471.2,130.5 M483.4,129.4c-0.5,0.9-1.8,3.1-2.8,3.1
		c-0.5,0-0.6-0.4-0.6-0.9c0-0.4,0.2-1.3,0.3-2l2.8-10.5h-2.8l-0.5,1.8c-0.3-0.6-1.1-2.4-3.5-2.4c-3.5,0-8.2,4.5-8.2,9.3
		c0,3.3,1.7,6.1,4.3,6.1c2.6,0,3.9-1.8,4.6-2.7h0.1c0,0.9,0.1,2.7,2.2,2.7c2.6,0,4.2-3,4.8-4.2L483.4,129.4z M467.1,129.1
		c-0.3,0.6-1.7,3.7-3.1,3.7c-0.6,0-0.8-0.3-0.8-0.9c0-0.7,0.3-1.8,0.6-2.9l4.5-17.7c-1.1,0.2-2.2,0.2-3.7,0.2h-2.4l-0.2,0.8h3
		l-4.3,17c-0.2,0.8-0.5,1.9-0.5,2.7c0,1.3,1.1,2.1,2.3,2.1c3.2,0,4.6-3.2,5.1-4.6L467.1,129.1z M458.2,129.4
		c-0.8,1.1-2.8,3.7-5.7,3.7c-1.9,0-3-1.2-3-4.1c0-0.7,0.4-3.5,1.8-6.7c1-2.3,2.5-3.1,4.2-3.1c1.1,0,2.2,0.4,2.2,0.9
		c0,0.5-0.8,0.7-0.8,1.6c0,0.9,0.5,1.4,1.4,1.4c1,0,1.5-0.8,1.5-1.7c0-1.4-1.9-3-4.2-3c-5.2,0-9.3,5-9.3,8.8c0,4,2.3,6.6,5.9,6.6
		c3.7,0,5.8-2.9,6.5-4.1L458.2,129.4z M437.8,119.8l0.2-0.8h-3.1c0.2-1.3,1.2-7.4,4.8-7.4c0.6,0,1.2,0.2,1.2,0.5
		c0,0.4-0.7,0.8-0.7,1.5c0,0.9,0.5,1.4,1.5,1.4c0.9,0,1.4-0.7,1.4-1.6c0-1.3-1.4-2.5-3.5-2.5c-5.1,0-7.2,6.6-7.7,8.2h-3.1l-0.2,0.8
		h3.2c-1.3,5-1.5,8.5-3,14.8c-0.2,0.9-1.4,5-3.8,5c-0.3,0-0.6-0.3-0.6-0.6c0-0.2,0.2-0.5,0.2-0.8c0-0.8-0.5-1.3-1.4-1.3
		c-1,0-1.6,0.5-1.6,1.5c0,1.4,1.1,2,2.6,2c3.7,0,6-4.6,6.6-5.7c2.4-5,3.5-12.8,3.9-14.8H437.8z M416.1,130.4c0-1,0.2-4.6,1.6-8
		c0.9-2.2,1.9-3.1,3.7-3.1c1.7,0,2.6,1.1,2.6,2.8c0,1-0.2,4.6-1.6,8c-0.9,2.2-1.9,3.1-3.6,3.1C417,133.1,416.1,132.1,416.1,130.4
		 M418.6,133.9c4.8,0,8.5-5,8.5-9.3c0-3.4-2.2-6-5.7-6c-4.8,0-8.5,5-8.5,9.3C413,131.2,415.2,133.9,418.6,133.9 M398.6,119.3
		c1.3,0,2,0.8,2,2c0,3.8-2.9,4.6-5.7,4.6c-0.3,0-0.9,0-1.3-0.1C394,124.3,395.4,119.3,398.6,119.3 M401.7,129.2
		c-0.7,1.1-2.7,3.9-5.7,3.9c-2,0-3-1.4-3-3.6c0-1.3,0.2-2.4,0.4-3c0.5,0.1,1,0.1,1.6,0.1c2.4,0,8.3-0.7,8.3-4.7
		c0-2.1-1.9-3.5-4.2-3.5c-3.9,0-9.2,4.1-9.2,9.2c0,3.1,2.4,6.2,5.8,6.2c3.6,0,5.8-3.2,6.5-4.3L401.7,129.2z M387.9,129.4
		c-0.8,1.1-2.8,3.7-5.7,3.7c-1.9,0-3-1.2-3-4.1c0-0.7,0.4-3.5,1.8-6.7c1-2.3,2.5-3.1,4.2-3.1c1.1,0,2.2,0.4,2.2,0.9
		c0,0.5-0.8,0.7-0.8,1.6c0,0.9,0.5,1.4,1.4,1.4c1,0,1.5-0.8,1.5-1.7c0-1.4-1.9-3-4.2-3c-5.2,0-9.3,5-9.3,8.8c0,4,2.3,6.6,5.9,6.6
		c3.7,0,5.8-2.9,6.5-4.1L387.9,129.4z M358.8,133.3h2.9l1.9-7.6c0.5-2.1,2.4-6.1,5.7-6.1c0.8,0,1.3,0.4,1.3,1.1
		c0,0.6-0.2,1.4-0.5,2.3l-1.6,6.1c-0.2,0.8-0.5,1.9-0.5,2.7c0,1.3,1.1,2.1,2.3,2.1c3.2,0,4.6-3.2,5.1-4.6l-0.6-0.2
		c-0.3,0.6-1.7,3.7-3.1,3.7c-0.6,0-0.8-0.3-0.8-0.9c0-0.7,0.3-1.8,0.6-2.9l1.4-5.3c0.2-0.9,0.5-1.9,0.5-2.8c0-1.5-1.1-2.2-2.8-2.2
		c-3.1,0-5.1,1.7-6.4,3.4l-0.1-0.1l0.8-3.1c-1.3,0.1-2.5,0.2-4.1,0.2h-1.6l-0.2,0.8h2.8L358.8,133.3z M353.6,119.3c1.3,0,2,0.8,2,2
		c0,3.8-2.9,4.6-5.7,4.6c-0.3,0-0.9,0-1.3-0.1C348.9,124.3,350.4,119.3,353.6,119.3 M356.7,129.2c-0.7,1.1-2.7,3.9-5.7,3.9
		c-2,0-3-1.4-3-3.6c0-1.3,0.2-2.4,0.4-3c0.5,0.1,1,0.1,1.6,0.1c2.4,0,8.3-0.7,8.3-4.7c0-2.1-1.9-3.5-4.2-3.5c-3.9,0-9.2,4.1-9.2,9.2
		c0,3.1,2.4,6.2,5.8,6.2c3.6,0,5.8-3.2,6.5-4.3L356.7,129.2z M336.9,133.9c3.1,0,5.7-1.9,5.7-4.7c0-2.2-1.1-3.2-2.4-4.2
		c-1.6-1.2-3.7-2.3-3.7-3.6c0-1.5,1.8-2.1,3-2.1c0.8,0,1.9,0.2,1.9,0.6c0,0.4-0.5,0.8-0.5,1.2c0,0.7,0.5,1.2,1.3,1.2
		c1,0,1.4-0.7,1.4-1.4c0-1.7-1.9-2.4-4-2.4c-2.7,0-5.2,2-5.2,4.3c0,2.3,2.1,3.5,3.9,4.8c1.2,0.8,2.2,1.7,2.2,3
		c0,1.8-1.8,2.6-3.4,2.6c-1.2,0-2.9-0.3-2.9-1.2c0-0.3,0.5-0.8,0.5-1.4c0-0.7-0.6-1.2-1.2-1.2c-1,0-1.5,0.7-1.5,1.4
		C331.9,132.5,333.9,133.9,336.9,133.9 M324.8,133.9c3.1,0,5.7-1.9,5.7-4.7c0-2.2-1.1-3.2-2.4-4.2c-1.6-1.2-3.7-2.3-3.7-3.6
		c0-1.5,1.8-2.1,3-2.1c0.8,0,1.9,0.2,1.9,0.6c0,0.4-0.5,0.8-0.5,1.2c0,0.7,0.5,1.2,1.3,1.2c1,0,1.4-0.7,1.4-1.4c0-1.7-1.9-2.4-4-2.4
		c-2.7,0-5.2,2-5.2,4.3c0,2.3,2.1,3.5,3.9,4.8c1.2,0.8,2.2,1.7,2.2,3c0,1.8-1.8,2.6-3.4,2.6c-1.2,0-2.9-0.3-2.9-1.2
		c0-0.3,0.5-0.8,0.5-1.4c0-0.7-0.6-1.2-1.2-1.2c-1,0-1.5,0.7-1.5,1.4C319.9,132.5,321.8,133.9,324.8,133.9 M315,119.3
		c1.3,0,2,0.8,2,2c0,3.8-2.9,4.6-5.7,4.6c-0.3,0-0.9,0-1.3-0.1C310.3,124.3,311.8,119.3,315,119.3 M318.1,129.2
		c-0.7,1.1-2.7,3.9-5.7,3.9c-2,0-3-1.4-3-3.6c0-1.3,0.2-2.4,0.4-3c0.5,0.1,1,0.1,1.6,0.1c2.4,0,8.3-0.7,8.3-4.7
		c0-2.1-1.9-3.5-4.2-3.5c-3.9,0-9.2,4.1-9.2,9.2c0,3.1,2.4,6.2,5.8,6.2c3.6,0,5.8-3.2,6.5-4.3L318.1,129.2z M283.9,130.4
		c0-1,0.2-4.6,1.6-8c0.9-2.2,1.9-3.1,3.7-3.1c1.6,0,2.7,1.2,2.7,3c0,2.2-1.7,10.9-6,10.9C284.6,133.1,283.9,132.1,283.9,130.4
		 M296.3,129.3c-0.3,0.3-1.9,2.9-2.7,2.9c-0.4,0-0.8-0.1-0.8-0.8c0-0.7,0.2-1.5,0.4-2.3l4.3-17.9c-1.1,0.1-2.7,0.2-4.4,0.2h-1.7
		l-0.2,0.8h3.1l-2.1,8.3c-0.4-0.7-1.3-2-3.2-2c-4.8,0-8.5,5-8.5,9.3c0,3.4,1.8,6,4.7,6c2.6,0,4.1-2.5,4.6-3.2h0.1c0,1,0,2.9,2,2.9
		c2.5,0,4.2-3.2,4.7-4L296.3,129.3z M275.2,119.3c1.3,0,2,0.8,2,2c0,3.8-2.9,4.6-5.7,4.6c-0.3,0-0.9,0-1.3-0.1
		C270.6,124.3,272,119.3,275.2,119.3 M278.3,129.2c-0.7,1.1-2.7,3.9-5.7,3.9c-2,0-3-1.4-3-3.6c0-1.3,0.2-2.4,0.4-3
		c0.5,0.1,1,0.1,1.6,0.1c2.4,0,8.3-0.7,8.3-4.7c0-2.1-1.9-3.5-4.2-3.5c-3.9,0-9.2,4.1-9.2,9.2c0,3.1,2.4,6.2,5.8,6.2
		c3.6,0,5.8-3.2,6.5-4.3L278.3,129.2z M258.4,132.7c1.8,0.2,4.1,0,4.1,2.1c0,2.7-2.9,4.8-6.5,4.8c-2.5,0-4.8-1.2-4.8-3.5
		c0-2.2,2.1-3.2,3-3.7L258.4,132.7z M255.5,124.9c0-1.5,0.7-5.7,3.2-5.7c1.2,0,2.3,0.6,2.3,2.1c0,1.9-0.8,5.7-3.3,5.7
		C256.5,127,255.5,126.4,255.5,124.9 M256.5,129.9c-1.7-0.1-3.9-0.1-3.9-1.5c0-1,1.1-1.5,1.7-1.8c0.7,0.4,1.4,1.2,3.6,1.2
		c2.6,0,4.7-1.4,5.6-4.3c0.3-1.1,0.5-4,1.3-4c0.6,0,0.5,0.7,1.2,0.7c0.6,0,1-0.3,1-1c0-0.8-0.7-1.1-1.3-1.1c-1.9,0-2.2,2.2-2.4,3.2
		h-0.1c-0.4-1.2-1.5-2.8-4.4-2.8c-3.3,0-6,2.3-6,4.8c0,1.6,0.6,2.3,1.1,2.8c-0.9,0.5-2.8,1.2-2.8,3.3c0,1.8,1.4,2.2,2.4,2.7
		c-0.9,0.4-4.1,1.3-4.1,3.8c0,2.8,2.7,4.3,6.1,4.3c4.6,0,8.1-2.6,8.1-6.6c0-3.4-2.4-3.4-4.1-3.6L256.5,129.9z M239.1,133.3h2.9
		l1.6-6.6c0.6-2.4,2.9-6.5,4.3-6.5c0.8,0,0.6,1.4,1.7,1.4c1.1,0,1.7-0.5,1.7-1.5c0-1-0.6-1.7-1.7-1.7c-2.8,0-4.7,3.5-5.3,4.6
		l-0.1-0.1l1-4.2c-1,0.2-2.1,0.2-3.3,0.2h-2.4l-0.1,0.8h3L239.1,133.3z M225,130.5c0-1.2,0.8-5.3,2.2-8.9c0.7-1.7,1.7-2.3,3-2.3
		c1.6,0,2.7,1.1,2.7,3.1c0,1.8-2,10.8-6,10.8C225.5,133.1,225,131.9,225,130.5 M237.2,129.4c-0.5,0.9-1.8,3.1-2.8,3.1
		c-0.5,0-0.6-0.4-0.6-0.9c0-0.4,0.2-1.3,0.3-2l2.8-10.5h-2.8l-0.5,1.8c-0.3-0.6-1.1-2.4-3.5-2.4c-3.5,0-8.2,4.5-8.2,9.3
		c0,3.3,1.7,6.1,4.3,6.1s3.9-1.8,4.6-2.7h0.1c0,0.9,0.1,2.7,2.2,2.7c2.6,0,4.2-3,4.8-4.2L237.2,129.4z M204.6,133.3h2.9l1.9-7.6
		c0.6-2.1,2.5-6.1,6-6.1c0.8,0,1.3,0.4,1.3,1.1c0,0.6-0.2,1.4-0.5,2.3l-1.6,6.1c-0.2,0.8-0.5,1.9-0.5,2.7c0,1.3,1.1,2.1,2.3,2.1
		c3.2,0,4.6-3.2,5.1-4.6l-0.6-0.2c-0.3,0.6-1.7,3.7-3.1,3.7c-0.6,0-0.8-0.3-0.8-0.9c0-0.7,0.3-1.8,0.6-2.9l1.4-5.3
		c0.2-0.9,0.5-1.9,0.5-2.9c0-1.3-1.3-2.1-2.8-2.1c-3.3,0-5.3,1.7-6.7,3.4l-0.1-0.1l2.7-10.7c-1.3,0.1-2.5,0.2-4.1,0.2h-1.6l-0.2,0.8
		h2.8L204.6,133.3z M203.3,129.4c-0.8,1.1-2.8,3.7-5.7,3.7c-1.9,0-3-1.2-3-4.1c0-0.7,0.4-3.5,1.8-6.7c1-2.3,2.5-3.1,4.2-3.1
		c1.1,0,2.2,0.4,2.2,0.9c0,0.5-0.8,0.7-0.8,1.6c0,0.9,0.5,1.4,1.4,1.4c1,0,1.5-0.8,1.5-1.7c0-1.4-1.9-3-4.2-3c-5.2,0-9.3,5-9.3,8.8
		c0,4,2.3,6.6,5.9,6.6c3.7,0,5.8-2.9,6.5-4.1L203.3,129.4z M181.7,127.3h7.8l0.6-2.2h-7.8L181.7,127.3z M172.5,123.7
		c-0.5-1.4-1.4-5.2-3.6-5.2c-2.3,0-3.7,3.6-4,4.5l0.5,0.2c0.3-0.8,1.2-2.9,2.2-2.9c0.7,0,1.3,2.3,1.7,3.2l2.1,6.2
		c0.2,0.7,0.8,1.8,0.8,2.6c0,1.5-4,6.9-6.8,6.9c-0.6,0-0.8-0.4-0.8-1.1c0-0.6-0.5-1-1.2-1c-0.8,0-1.5,0.5-1.5,1.4
		c0,1.2,1.2,1.8,2.2,1.8c5.6,0,9.3-7.9,11-11.7c1.1-2.6,3.1-7.9,4.1-7.9c0.3,0,0.6,0.4,1.1,0.4c0.8,0,1.4-0.5,1.4-1.3
		c0-0.8-0.5-1.3-1.4-1.3c-1.6,0-2.3,1.7-3.1,3.4c-1,2.3-2.4,5.7-2.9,6.7L172.5,123.7z M164.4,129.1c-0.3,0.6-1.7,3.7-3.1,3.7
		c-0.6,0-0.8-0.3-0.8-0.9c0-0.7,0.3-1.8,0.6-2.9l4.5-17.7c-1.1,0.2-2.2,0.2-3.7,0.2h-2.4l-0.2,0.8h3l-4.3,17
		c-0.2,0.8-0.5,1.9-0.5,2.7c0,1.3,1.1,2.1,2.3,2.1c3.2,0,4.6-3.2,5.1-4.6L164.4,129.1z M140,133.3h2.9l1.9-7.6
		c0.6-2.1,2.5-6.1,6-6.1c0.8,0,1.3,0.4,1.3,1.1c0,0.6-0.2,1.4-0.5,2.3l-1.6,6.1c-0.2,0.8-0.5,1.9-0.5,2.7c0,1.3,1.1,2.1,2.3,2.1
		c3.2,0,4.6-3.2,5.1-4.6l-0.6-0.2c-0.3,0.6-1.7,3.7-3.1,3.7c-0.6,0-0.8-0.3-0.8-0.9c0-0.7,0.3-1.8,0.6-2.9l1.4-5.3
		c0.2-0.9,0.5-1.9,0.5-2.9c0-1.3-1.3-2.1-2.8-2.1c-3.3,0-5.3,1.7-6.7,3.4l-0.1-0.1l2.7-10.7c-1.3,0.1-2.5,0.2-4.1,0.2h-1.6l-0.2,0.8
		h2.8L140,133.3z M132.7,132.7c1.8,0.2,4.1,0,4.1,2.1c0,2.7-2.9,4.8-6.5,4.8c-2.5,0-4.8-1.2-4.8-3.5c0-2.2,2.1-3.2,3-3.7
		L132.7,132.7z M129.7,124.9c0-1.5,0.7-5.7,3.2-5.7c1.2,0,2.3,0.6,2.3,2.1c0,1.9-0.8,5.7-3.3,5.7C130.7,127,129.7,126.4,129.7,124.9
		 M130.7,129.9c-1.7-0.1-3.9-0.1-3.9-1.5c0-1,1.1-1.5,1.7-1.8c0.7,0.4,1.4,1.2,3.6,1.2c2.6,0,4.7-1.4,5.6-4.3c0.3-1.1,0.5-4,1.2-4
		c0.6,0,0.5,0.7,1.2,0.7c0.6,0,1-0.3,1-1c0-0.8-0.7-1.1-1.3-1.1c-1.9,0-2.2,2.2-2.4,3.2h-0.1c-0.4-1.2-1.5-2.8-4.4-2.8
		c-3.3,0-6,2.3-6,4.8c0,1.6,0.6,2.3,1.1,2.8c-0.9,0.5-2.8,1.2-2.8,3.3c0,1.8,1.4,2.2,2.4,2.7c-0.9,0.4-4.1,1.3-4.1,3.8
		c0,2.8,2.7,4.3,6.1,4.3c4.6,0,8.1-2.6,8.1-6.6c0-3.4-2.4-3.4-4.1-3.6L130.7,129.9z M121.8,115.3c1,0,1.8-0.8,1.8-1.8
		s-0.8-1.8-1.8-1.8s-1.8,0.8-1.8,1.8S120.8,115.3,121.8,115.3 M123.2,129.1c-0.3,0.6-1.7,3.7-3.1,3.7c-0.6,0-0.8-0.3-0.8-0.9
		c0-0.7,0.3-1.8,0.6-2.9l2.6-10.1c-1.1,0.2-2.3,0.2-3.7,0.2h-2.1l-0.2,0.8h2.7l-2.4,9.3c-0.2,0.8-0.5,1.9-0.5,2.7
		c0,1.3,1.1,2.1,2.3,2.1c3.2,0,4.6-3.2,5.1-4.6L123.2,129.1z M98.4,133.3h2.9l1.9-7.6c0.6-2.1,2.5-6.1,6-6.1c0.8,0,1.3,0.4,1.3,1.1
		c0,0.6-0.2,1.4-0.5,2.3l-1.6,6.1c-0.2,0.8-0.5,1.9-0.5,2.7c0,1.3,1.1,2.1,2.3,2.1c3.2,0,4.6-3.2,5.1-4.6l-0.6-0.2
		c-0.3,0.6-1.7,3.7-3.1,3.7c-0.6,0-0.8-0.3-0.8-0.9c0-0.7,0.3-1.8,0.6-2.9l1.4-5.3c0.2-0.9,0.5-1.9,0.5-2.9c0-1.3-1.3-2.1-2.8-2.1
		c-3.3,0-5.3,1.7-6.7,3.4l-0.1-0.1l2.7-10.7c-1.3,0.1-2.5,0.2-4.1,0.2h-1.6l-0.2,0.8h2.8L98.4,133.3z M76.8,130.5
		c0-1.2,0.8-5.3,2.2-8.9c0.7-1.7,1.7-2.3,3-2.3c1.6,0,2.7,1.1,2.7,3.1c0,1.8-2,10.8-6,10.8C77.2,133.1,76.8,131.9,76.8,130.5
		 M89,129.4c-0.5,0.9-1.8,3.1-2.8,3.1c-0.5,0-0.6-0.4-0.6-0.9c0-0.4,0.2-1.3,0.3-2l2.8-10.5h-2.8l-0.5,1.8c-0.3-0.6-1.1-2.4-3.5-2.4
		c-3.5,0-8.2,4.5-8.2,9.3c0,3.3,1.7,6.1,4.3,6.1c2.6,0,3.9-1.8,4.6-2.7h0.1c0,0.9,0.1,2.7,2.2,2.7c2.6,0,4.2-3,4.8-4.2L89,129.4z
		 M53.3,133.3h2.9l1.6-6.6c0.6-2.4,2.9-6.5,4.3-6.5c0.8,0,0.6,1.4,1.7,1.4c1.1,0,1.7-0.5,1.7-1.5c0-1-0.6-1.7-1.7-1.7
		c-2.8,0-4.7,3.5-5.3,4.6l-0.1-0.1l1-4.2c-1,0.2-2.1,0.2-3.3,0.2h-2.4l-0.1,0.8h3L53.3,133.3z M40.7,130.4c0-1,0.2-4.6,1.6-8
		c0.9-2.2,1.9-3.1,3.7-3.1c1.7,0,2.6,1.1,2.6,2.8c0,1-0.2,4.6-1.6,8c-0.9,2.2-1.9,3.1-3.6,3.1C41.6,133.1,40.7,132.1,40.7,130.4
		 M43.2,133.9c4.8,0,8.5-5,8.5-9.3c0-3.4-2.2-6-5.7-6c-4.8,0-8.5,5-8.5,9.3C37.5,131.2,39.8,133.9,43.2,133.9 M38.1,119.8l0.2-0.8
		h-3.1c0.2-1.3,1.2-7.4,4.8-7.4c0.6,0,1.2,0.2,1.2,0.5c0,0.4-0.7,0.8-0.7,1.5c0,0.9,0.5,1.4,1.5,1.4c0.9,0,1.4-0.7,1.4-1.6
		c0-1.3-1.4-2.5-3.5-2.5c-5.1,0-7.2,6.6-7.7,8.2h-3.1l-0.2,0.8h3.2c-1.2,5-1.5,8.5-3,14.8c-0.2,0.9-1.4,5-3.8,5
		c-0.3,0-0.6-0.3-0.6-0.6c0-0.2,0.2-0.5,0.2-0.8c0-0.8-0.5-1.3-1.4-1.3c-1,0-1.6,0.5-1.6,1.5c0,1.4,1.1,2,2.6,2c3.7,0,6-4.6,6.6-5.7
		c2.4-5,3.5-12.8,3.9-14.8H38.1z"/>
	<path fill="#010101" d="M620.5,86.6c1.3,0,2,0.8,2,2c0,3.8-2.9,4.6-5.7,4.6c-0.3,0-0.9,0-1.3-0.1C615.9,91.6,617.3,86.6,620.5,86.6
		 M623.6,96.5c-0.7,1.1-2.7,3.9-5.7,3.9c-2,0-3-1.4-3-3.6c0-1.3,0.2-2.4,0.4-3c0.5,0.1,1,0.1,1.6,0.1c2.4,0,8.3-0.7,8.3-4.7
		c0-2.1-1.9-3.5-4.2-3.5c-3.9,0-9.2,4.1-9.2,9.2c0,3.1,2.4,6.2,5.8,6.2c3.6,0,5.8-3.2,6.5-4.3L623.6,96.5z M602.9,91.1
		c0.3-1.1,0.8-2.5,0.8-3.2c0-1.2-0.8-2-2.3-2c-2.8,0-4.3,3.2-5.1,4.3l0.5,0.3c0.4-0.6,2.2-3.5,3.3-3.5c0.4,0,0.6,0.2,0.6,0.8
		c0,0.5-0.3,1.5-0.5,2.2l-1.5,5.3c-0.2,0.7-0.7,2.1-0.7,2.8c0,1.8,1.2,3.2,3.6,3.2c5.6,0,9.1-8.9,9.1-12.9c0-1.2-0.5-2.5-1.9-2.5
		c-0.6,0-1.3,0.6-1.3,1.4c0,0.7,0.3,1.1,0.8,1.2c0.7,0.3,1.5,0.1,1.5,1.3c0,3.2-3.7,10.3-7.2,10.3c-1.1,0-1.7-0.3-1.7-1.4
		c0-0.8,0.3-1.9,0.5-2.8L602.9,91.1z M594,82.6c1,0,1.8-0.8,1.8-1.8c0-1-0.8-1.8-1.8-1.8s-1.8,0.8-1.8,1.8
		C592.3,81.9,593,82.6,594,82.6 M595.4,96.4c-0.3,0.6-1.7,3.7-3.1,3.7c-0.6,0-0.8-0.3-0.8-0.9c0-0.7,0.3-1.8,0.6-2.9l2.6-10.1
		c-1.1,0.2-2.2,0.2-3.7,0.2h-2.1l-0.2,0.8h2.7l-2.4,9.3c-0.2,0.8-0.5,1.9-0.5,2.7c0,1.3,1.1,2.1,2.3,2.1c3.2,0,4.6-3.3,5.1-4.6
		L595.4,96.4z M576.3,100.6h2.9l1.6-6.6c0.6-2.4,2.9-6.5,4.3-6.5c0.8,0,0.6,1.4,1.7,1.4c1.1,0,1.7-0.5,1.7-1.5c0-1-0.6-1.7-1.7-1.7
		c-2.8,0-4.7,3.5-5.3,4.6l-0.1-0.1l1-4.2c-1,0.2-2.1,0.2-3.3,0.2h-2.4l-0.1,0.8h3L576.3,100.6z M574.1,96.4
		c-0.3,0.6-1.7,3.7-3.1,3.7c-0.8,0-1.1-0.2-1.1-0.9c0-0.5,0.2-1.3,0.4-2.3l2.6-9.7h2.8l0.2-0.8H573l1-3.7c-1.2,0.2-2.3,0.2-3,0.2
		l-1,3.5h-2.3l-0.2,0.8h2.3l-2.5,9.3c-0.3,0.8-0.5,1.7-0.5,2.3c0,1.8,1.2,2.4,2.7,2.4c3.2,0,4.6-3.3,5.1-4.6L574.1,96.4z
		 M558.8,101.2c3.1,0,5.7-1.9,5.7-4.7c0-2.2-1.1-3.2-2.4-4.2c-1.6-1.2-3.7-2.3-3.7-3.6c0-1.5,1.8-2.1,3-2.1c0.8,0,1.9,0.2,1.9,0.6
		c0,0.4-0.5,0.8-0.5,1.2c0,0.7,0.5,1.2,1.3,1.2c1,0,1.4-0.7,1.4-1.4c0-1.7-1.9-2.4-4-2.4c-2.7,0-5.2,2-5.2,4.3
		c0,2.3,2.1,3.5,3.9,4.8c1.2,0.8,2.2,1.7,2.2,3c0,1.8-1.8,2.6-3.4,2.6c-1.2,0-2.9-0.3-2.9-1.2c0-0.3,0.5-0.8,0.5-1.4
		c0-0.7-0.6-1.2-1.2-1.2c-1,0-1.5,0.7-1.5,1.4C553.9,99.8,555.8,101.2,558.8,101.2 M540.4,86.6c1.3,0,2,0.8,2,2
		c0,3.8-2.9,4.6-5.7,4.6c-0.3,0-0.9,0-1.3-0.1C535.8,91.6,537.3,86.6,540.4,86.6 M543.5,96.5c-0.7,1.1-2.7,3.9-5.7,3.9
		c-2,0-3-1.4-3-3.6c0-1.3,0.2-2.4,0.4-3c0.5,0.1,1,0.1,1.6,0.1c2.4,0,8.3-0.7,8.3-4.7c0-2.1-1.9-3.5-4.2-3.5c-3.9,0-9.2,4.1-9.2,9.2
		c0,3.1,2.4,6.2,5.8,6.2c3.6,0,5.8-3.2,6.5-4.3L543.5,96.5z M524.1,86.4h-2.7c-0.3,1.7-4.1,13.7-8,13.7c-0.8,0-0.9-0.4-0.9-1.2
		c0-0.6,0.3-1.6,0.6-2.5l1.7-5.8c0.3-1.1,0.6-1.8,0.6-2.9c0-0.9-0.5-1.8-2-1.8c-2.4,0-4.5,3.3-5.2,4.3l0.6,0.3
		c0.3-0.5,2.1-3.2,3.1-3.2c0.4,0,0.6,0.2,0.6,0.7c0,0.4-0.2,1.2-0.5,1.9l-1.8,6.2c-0.1,0.2-0.5,1.8-0.5,2.5c0,1.6,1.2,2.6,2.7,2.6
		c2.3,0,4.2-2,5.5-4.1c0.9-1.4,1.6-3,1.8-3.4l0.1,0.1c-0.1,0.2-0.5,2.2-0.5,3.1c0,2.3,0.9,4.3,3.3,4.3c5.1,0,8.3-8.4,8.3-12.5
		c0-1.4-0.7-2.8-1.9-2.8c-0.9,0-1.4,0.7-1.4,1.5c0,0.5,0.2,1.1,0.8,1.3c0.5,0.2,1.6,0,1.6,1.4c0,2.8-3.1,10-6.2,10
		c-1.5,0-1.8-1.2-1.8-2.8c0-1.4,0.5-3.6,1-5.6L524.1,86.4z M491.9,105.7c0.5-0.3,1.7-0.8,2.9-1.8c0.8-0.7,2-2.1,2-3.6
		c0-1.4-0.9-2.8-2.6-2.8c-0.9,0-2,0.7-2,2c0,0.6,0.4,1.6,1.7,1.6c0.6,0,0.9-0.3,1.1-0.6c0.2-0.2,0.3-0.5,0.5-0.5
		c0.3,0,0.5,0.4,0.5,0.8c0,0.6-0.6,1.8-1.5,2.6c-1,0.8-2.1,1.5-2.8,1.8L491.9,105.7z M475.2,100.6h2.9l1.9-7.8
		c0.2,0,0.3,0.1,0.5,0.1c0.6,0,0.9-0.1,1.3-0.2c0.3-0.2,0.5-0.3,0.8-0.6c0.5,0.1,1.2,0.4,1.2,1c0,1.1-1,4.3-1,5.8
		c0,1.3,0.8,2.3,2.7,2.3c2.9,0,4.6-3.5,5.2-5.1l-0.6-0.2c-0.5,1.2-2,4.2-3.4,4.2c-0.6,0-0.7-0.6-0.7-1.2c0-0.4,0.1-1.9,0.1-3.1
		c0-3.1-1.8-3.8-2.9-4.1c0.9-1,1.9-3.2,2.9-4.3c0.4-0.5,1-0.8,1.4-0.8c0.4,0,0.7,0.2,0.7,0.6c0,0.2-0.5,0.5-0.5,1.2
		c0,0.8,0.7,1.2,1.4,1.2c1,0,1.6-0.6,1.6-1.6c0-1.2-1.1-2.1-2.4-2.1c-1.3,0-2.3,0.5-3.3,1.9c-0.2,0.3-1.9,3.2-2.6,3.8
		c-0.4,0-0.8,0-1.2,0c-0.2,0-0.6,0.1-0.9,0.2l3.3-13.2c-0.8,0.2-1.9,0.2-3.3,0.2h-2.7l-0.1,0.8h2.8L475.2,100.6z M463.3,100.6h2.9
		l1.6-6.6c0.6-2.4,2.9-6.5,4.3-6.5c0.8,0,0.6,1.4,1.7,1.4c1.1,0,1.7-0.5,1.7-1.5c0-1-0.6-1.7-1.7-1.7c-2.8,0-4.7,3.5-5.3,4.6
		l-0.1-0.1l1-4.2c-1,0.2-2.1,0.2-3.3,0.2h-2.4l-0.1,0.8h3L463.3,100.6z M450.7,97.7c0-1,0.2-4.6,1.6-8c0.9-2.2,1.9-3.1,3.7-3.1
		c1.7,0,2.6,1.1,2.6,2.8c0,1-0.2,4.6-1.6,8c-0.9,2.2-1.9,3.1-3.6,3.1C451.6,100.5,450.7,99.4,450.7,97.7 M453.2,101.2
		c4.8,0,8.5-5,8.5-9.3c0-3.4-2.2-6-5.7-6c-4.8,0-8.5,5-8.5,9.3C447.6,98.6,449.8,101.2,453.2,101.2 M439.9,86.4h-2.7
		c-0.3,1.7-4.1,13.7-8,13.7c-0.8,0-0.9-0.4-0.9-1.2c0-0.6,0.3-1.6,0.6-2.5l1.7-5.8c0.3-1.1,0.6-1.8,0.6-2.9c0-0.9-0.5-1.8-2-1.8
		c-2.4,0-4.5,3.3-5.2,4.3l0.6,0.3c0.3-0.5,2.1-3.2,3.1-3.2c0.4,0,0.6,0.2,0.6,0.7c0,0.4-0.2,1.2-0.5,1.9l-1.8,6.2
		c-0.1,0.2-0.5,1.8-0.5,2.5c0,1.6,1.2,2.6,2.7,2.6c2.3,0,4.2-2,5.5-4.1c0.9-1.4,1.6-3,1.8-3.4l0.1,0.1c-0.1,0.2-0.5,2.2-0.5,3.1
		c0,2.3,0.9,4.3,3.2,4.3c5.1,0,8.3-8.4,8.3-12.5c0-1.4-0.7-2.8-1.9-2.8c-0.9,0-1.4,0.7-1.4,1.5c0,0.5,0.2,1.1,0.8,1.3
		c0.5,0.2,1.6,0,1.6,1.4c0,2.8-3.1,10-6.2,10c-1.5,0-1.8-1.2-1.8-2.8c0-1.4,0.5-3.6,1-5.6L439.9,86.4z M403.9,100.6h2.9l1.6-6.6
		c0.6-2.4,2.9-6.5,4.3-6.5c0.8,0,0.6,1.4,1.7,1.4c1.1,0,1.7-0.5,1.7-1.5c0-1-0.6-1.7-1.7-1.7c-2.8,0-4.7,3.5-5.3,4.6l-0.1-0.1l1-4.2
		c-1,0.2-2.1,0.2-3.3,0.2h-2.4l-0.1,0.8h3L403.9,100.6z M402.6,96.4c-0.3,0.6-1.7,3.7-3.1,3.7c-0.6,0-0.8-0.3-0.8-0.9
		c0-0.7,0.2-1.7,0.3-2.4l2.5-10.4h-2.9l-1.9,7.6c-0.5,2.1-2.4,6.1-5.7,6.1c-0.8,0-1.3-0.5-1.3-1.5c0-0.7,0.3-1.7,0.5-2.4l2.4-9.8
		H387l-0.2,0.8h2.6l-2.3,9c-0.2,0.6-0.4,1.7-0.4,2.5c0,1.8,1.1,2.6,2.8,2.6c3.1,0,5-1.5,6.3-3.4l0.1,0.1c-0.1,0.3-0.1,0.9-0.1,1.3
		c0,1.3,1.1,2.1,2.3,2.1c3.2,0,4.6-3.3,5.1-4.6L402.6,96.4z M374,97.7c0-1,0.2-4.6,1.6-8c0.9-2.2,1.9-3.1,3.7-3.1
		c1.7,0,2.6,1.1,2.6,2.8c0,1-0.2,4.6-1.6,8c-0.9,2.2-1.9,3.1-3.6,3.1C374.9,100.5,374,99.4,374,97.7 M376.5,101.2
		c4.8,0,8.5-5,8.5-9.3c0-3.4-2.2-6-5.7-6c-4.8,0-8.5,5-8.5,9.3C370.8,98.6,373,101.2,376.5,101.2 M361,96.4
		c-0.3,0.6-1.7,3.7-3.1,3.7c-0.6,0-0.8-0.3-0.8-0.9c0-0.7,0.3-1.8,0.6-2.9l4.5-17.7c-1.1,0.2-2.3,0.2-3.7,0.2H356l-0.2,0.8h3
		l-4.3,17c-0.2,0.8-0.5,1.9-0.5,2.7c0,1.3,1.1,2.1,2.3,2.1c3.2,0,4.6-3.3,5.1-4.6L361,96.4z M352.9,96.4c-0.3,0.6-1.7,3.7-3.1,3.7
		c-0.6,0-0.8-0.3-0.8-0.9c0-0.7,0.3-1.8,0.6-2.9l4.5-17.7c-1.1,0.2-2.2,0.2-3.7,0.2H348l-0.2,0.8h3l-4.3,17
		c-0.2,0.8-0.5,1.9-0.5,2.7c0,1.3,1.1,2.1,2.3,2.1c3.2,0,4.6-3.3,5.1-4.6L352.9,96.4z M332.2,97.8c0-1.2,0.8-5.3,2.2-8.9
		c0.7-1.7,1.7-2.3,3-2.3c1.6,0,2.7,1.1,2.7,3.1c0,1.8-2,10.8-6,10.8C332.7,100.5,332.2,99.3,332.2,97.8 M344.4,96.7
		c-0.5,0.9-1.8,3.1-2.8,3.1c-0.5,0-0.6-0.4-0.6-0.9c0-0.4,0.2-1.3,0.3-2l2.8-10.5h-2.8l-0.5,1.8c-0.3-0.6-1.1-2.4-3.5-2.4
		c-3.5,0-8.2,4.5-8.2,9.3c0,3.3,1.7,6.1,4.3,6.1s3.9-1.8,4.6-2.7h0.1c0,0.9,0.1,2.7,2.2,2.7c2.6,0,4.2-3,4.8-4.2L344.4,96.7z
		 M303.4,100.6h2.9l1.9-7.6c0.5-2.1,2.4-6.1,5.7-6.1c0.8,0,1.3,0.4,1.3,1.1c0,0.6-0.2,1.4-0.5,2.3l-1.6,6.1
		c-0.2,0.8-0.5,1.9-0.5,2.7c0,1.3,1.1,2.1,2.3,2.1c3.2,0,4.6-3.3,5.1-4.6l-0.6-0.3c-0.3,0.6-1.7,3.7-3.1,3.7c-0.6,0-0.8-0.3-0.8-0.9
		c0-0.7,0.3-1.8,0.6-2.9l1.4-5.3c0.2-0.9,0.5-1.9,0.5-2.8c0-1.5-1.1-2.2-2.8-2.2c-3.1,0-5.1,1.7-6.4,3.4l-0.1-0.1l0.8-3.1
		c-1.3,0.1-2.5,0.2-4.1,0.2h-1.6l-0.2,0.8h2.8L303.4,100.6z M291.7,100.6h8.9l0.1-0.8H298l4.3-20.4h2.8l0.2-0.8h-8.9l-0.2,0.8h2.8
		l-4.3,20.4h-2.7L291.7,100.6z M279,101.2c1.1,0,1.9-0.8,1.9-1.9c0-1.1-0.8-1.9-1.9-1.9c-1.1,0-1.9,0.8-1.9,1.9
		C277.1,100.4,278,101.2,279,101.2 M271.7,86.6c1.3,0,2,0.8,2,2c0,3.8-2.9,4.6-5.7,4.6c-0.3,0-0.9,0-1.3-0.1
		C267.1,91.6,268.6,86.6,271.7,86.6 M274.8,96.5c-0.7,1.1-2.7,3.9-5.7,3.9c-2,0-3-1.4-3-3.6c0-1.3,0.2-2.4,0.4-3
		c0.5,0.1,1,0.1,1.6,0.1c2.4,0,8.3-0.7,8.3-4.7c0-2.1-1.9-3.5-4.2-3.5c-3.9,0-9.2,4.1-9.2,9.2c0,3.1,2.4,6.2,5.8,6.2
		c3.6,0,5.8-3.2,6.5-4.3L274.8,96.5z M261.8,96.4c-0.3,0.6-1.7,3.7-3.1,3.7c-0.6,0-0.8-0.3-0.8-0.9c0-0.7,0.3-1.8,0.6-2.9l4.5-17.7
		c-1.1,0.2-2.2,0.2-3.7,0.2h-2.4l-0.2,0.8h3l-4.3,17c-0.2,0.8-0.5,1.9-0.5,2.7c0,1.3,1.1,2.1,2.3,2.1c3.2,0,4.6-3.3,5.1-4.6
		L261.8,96.4z M245.7,91c-0.5-1.4-1.4-5.2-3.6-5.2c-2.3,0-3.7,3.6-4,4.5l0.5,0.2c0.3-0.8,1.2-2.9,2.2-2.9c0.7,0,1.3,2.3,1.7,3.2
		l2.1,6.2c0.2,0.7,0.8,1.8,0.8,2.6c0,1.5-4,6.9-6.8,6.9c-0.6,0-0.8-0.4-0.8-1.1c0-0.6-0.5-1-1.2-1c-0.8,0-1.5,0.5-1.5,1.4
		c0,1.2,1.2,1.8,2.2,1.8c5.6,0,9.3-7.9,11-11.7c1.1-2.6,3.1-7.9,4.1-7.9c0.3,0,0.6,0.4,1.1,0.4c0.8,0,1.4-0.5,1.4-1.3
		c0-0.8-0.5-1.3-1.4-1.3c-1.6,0-2.3,1.7-3.1,3.4c-1,2.3-2.4,5.7-2.9,6.7L245.7,91z M236.8,96.4c-0.3,0.6-1.7,3.7-3.1,3.7
		c-0.8,0-1.1-0.2-1.1-0.9c0-0.5,0.2-1.3,0.4-2.3l2.6-9.7h2.8l0.2-0.8h-2.8l1-3.7c-1.2,0.2-2.3,0.2-3,0.2l-1,3.5h-2.3l-0.2,0.8h2.3
		l-2.5,9.3c-0.2,0.8-0.5,1.7-0.5,2.3c0,1.8,1.2,2.4,2.7,2.4c3.2,0,4.6-3.3,5.1-4.6L236.8,96.4z M221.6,101.2c3.1,0,5.7-1.9,5.7-4.7
		c0-2.2-1.1-3.2-2.4-4.2c-1.6-1.2-3.7-2.3-3.7-3.6c0-1.5,1.8-2.1,3-2.1c0.8,0,1.9,0.2,1.9,0.6c0,0.4-0.5,0.8-0.5,1.2
		c0,0.7,0.5,1.2,1.3,1.2c1,0,1.4-0.7,1.4-1.4c0-1.7-1.9-2.4-4-2.4c-2.7,0-5.2,2-5.2,4.3c0,2.3,2.1,3.5,3.9,4.8
		c1.2,0.8,2.2,1.7,2.2,3c0,1.8-1.8,2.6-3.4,2.6c-1.2,0-2.9-0.3-2.9-1.2c0-0.3,0.5-0.8,0.5-1.4c0-0.7-0.6-1.2-1.2-1.2
		c-1,0-1.5,0.7-1.5,1.4C216.6,99.8,218.6,101.2,221.6,101.2 M208.9,87.1l0.2-0.8H206c0.2-1.3,1.2-7.4,4.8-7.4c0.6,0,1.2,0.2,1.2,0.5
		c0,0.4-0.7,0.8-0.7,1.5c0,0.9,0.5,1.4,1.5,1.4c0.9,0,1.4-0.7,1.4-1.6c0-1.3-1.4-2.5-3.5-2.5c-5.1,0-7.2,6.6-7.7,8.2h-3.1l-0.2,0.8
		h3.2c-1.2,5-1.5,8.5-3,14.8c-0.2,0.9-1.4,5-3.8,5c-0.3,0-0.6-0.3-0.6-0.6c0-0.2,0.2-0.5,0.2-0.8c0-0.8-0.5-1.3-1.4-1.3
		c-1,0-1.6,0.5-1.6,1.5c0,1.4,1.1,2,2.6,2c3.7,0,6-4.6,6.6-5.7c2.4-5,3.5-12.8,3.9-14.8H208.9z M187.2,97.7c0-1,0.2-4.6,1.6-8
		c0.9-2.2,1.9-3.1,3.7-3.1c1.7,0,2.6,1.1,2.6,2.8c0,1-0.2,4.6-1.6,8c-0.9,2.2-1.9,3.1-3.6,3.1C188.1,100.5,187.2,99.4,187.2,97.7
		 M189.7,101.2c4.8,0,8.5-5,8.5-9.3c0-3.4-2.2-6-5.7-6c-4.8,0-8.5,5-8.5,9.3C184.1,98.6,186.3,101.2,189.7,101.2 M158.2,100.6h2.9
		l1.9-7.6c0.5-2.1,2.4-6.1,5.7-6.1c0.8,0,1.3,0.4,1.3,1.1c0,0.6-0.2,1.4-0.5,2.3l-1.6,6.1c-0.2,0.8-0.5,1.9-0.5,2.7
		c0,1.3,1.1,2.1,2.3,2.1c3.2,0,4.6-3.3,5.1-4.6l-0.6-0.3c-0.3,0.6-1.7,3.7-3.1,3.7c-0.6,0-0.8-0.3-0.8-0.9c0-0.7,0.3-1.8,0.6-2.9
		l1.4-5.3c0.2-0.9,0.5-1.9,0.5-2.8c0-1.5-1.1-2.2-2.8-2.2c-3.1,0-5.1,1.7-6.4,3.4l-0.1-0.1l0.8-3.1c-1.3,0.1-2.5,0.2-4.1,0.2h-1.6
		l-0.2,0.8h2.8L158.2,100.6z M146.2,97.7c0-1,0.2-4.6,1.6-8c0.9-2.2,1.9-3.1,3.7-3.1c1.7,0,2.6,1.1,2.6,2.8c0,1-0.2,4.6-1.6,8
		c-0.9,2.2-1.9,3.1-3.6,3.1C147.2,100.5,146.2,99.4,146.2,97.7 M148.8,101.2c4.8,0,8.5-5,8.5-9.3c0-3.4-2.2-6-5.7-6
		c-4.8,0-8.5,5-8.5,9.3C143.1,98.6,145.3,101.2,148.8,101.2 M140.3,82.6c1,0,1.8-0.8,1.8-1.8c0-1-0.8-1.8-1.8-1.8s-1.8,0.8-1.8,1.8
		C138.5,81.9,139.3,82.6,140.3,82.6 M141.7,96.4c-0.3,0.6-1.7,3.7-3.1,3.7c-0.6,0-0.8-0.3-0.8-0.9c0-0.7,0.3-1.8,0.6-2.9l2.6-10.1
		c-1.1,0.2-2.3,0.2-3.7,0.2h-2.1l-0.2,0.8h2.7l-2.4,9.3c-0.2,0.8-0.5,1.9-0.5,2.7c0,1.3,1.1,2.1,2.3,2.1c3.2,0,4.6-3.3,5.1-4.6
		L141.7,96.4z M132.5,96.4c-0.3,0.6-1.7,3.7-3.1,3.7c-0.8,0-1.1-0.2-1.1-0.9c0-0.5,0.2-1.3,0.4-2.3l2.6-9.7h2.8l0.2-0.8h-2.8l1-3.7
		c-1.2,0.2-2.3,0.2-3,0.2l-1,3.5h-2.3l-0.2,0.8h2.3l-2.5,9.3c-0.2,0.8-0.5,1.7-0.5,2.3c0,1.8,1.2,2.4,2.7,2.4c3.2,0,4.6-3.3,5.1-4.6
		L132.5,96.4z M111.4,97.8c0-1.2,0.8-5.3,2.2-8.9c0.7-1.7,1.7-2.3,3-2.3c1.6,0,2.7,1.1,2.7,3.1c0,1.8-2,10.8-6,10.8
		C111.9,100.5,111.4,99.3,111.4,97.8 M123.6,96.7c-0.5,0.9-1.8,3.1-2.8,3.1c-0.5,0-0.6-0.4-0.6-0.9c0-0.4,0.2-1.3,0.3-2l2.8-10.5
		h-2.8l-0.5,1.8c-0.3-0.6-1.1-2.4-3.5-2.4c-3.5,0-8.2,4.5-8.2,9.3c0,3.3,1.7,6.1,4.3,6.1s3.9-1.8,4.6-2.7h0.1c0,0.9,0.1,2.7,2.2,2.7
		c2.6,0,4.2-3,4.8-4.2L123.6,96.7z M106.5,96.8c-0.8,1.1-2.8,3.7-5.7,3.7c-1.9,0-3-1.2-3-4.1c0-0.7,0.4-3.5,1.8-6.7
		c1-2.3,2.5-3.1,4.2-3.1c1.1,0,2.2,0.4,2.2,0.9c0,0.5-0.8,0.7-0.8,1.6c0,0.9,0.5,1.4,1.4,1.4c1,0,1.5-0.8,1.5-1.7c0-1.4-1.9-3-4.2-3
		c-5.2,0-9.3,5-9.3,8.8c0,4,2.3,6.6,5.9,6.6c3.7,0,5.8-2.9,6.5-4.1L106.5,96.8z M91.9,82.6c1,0,1.8-0.8,1.8-1.8c0-1-0.8-1.8-1.8-1.8
		c-1,0-1.8,0.8-1.8,1.8C90.1,81.9,90.9,82.6,91.9,82.6 M93.3,96.4c-0.3,0.6-1.7,3.7-3.1,3.7c-0.6,0-0.8-0.3-0.8-0.9
		c0-0.7,0.3-1.8,0.6-2.9l2.6-10.1c-1.1,0.2-2.2,0.2-3.7,0.2h-2.1l-0.2,0.8h2.7l-2.4,9.3c-0.2,0.8-0.5,1.9-0.5,2.7
		c0,1.3,1.1,2.1,2.3,2.1c3.2,0,4.6-3.3,5.1-4.6L93.3,96.4z M84.8,96.4c-0.3,0.6-1.7,3.7-3.1,3.7c-0.6,0-0.8-0.3-0.8-0.9
		c0-0.7,0.3-1.8,0.6-2.9L86,78.5c-1.1,0.2-2.3,0.2-3.7,0.2h-2.4l-0.2,0.8h3l-4.3,17c-0.2,0.8-0.5,1.9-0.5,2.7c0,1.3,1.1,2.1,2.3,2.1
		c3.2,0,4.6-3.3,5.1-4.6L84.8,96.4z M65.8,97.1c0-2.7,1.6-10.5,6.2-10.5c1.5,0,2.1,1.1,2.1,2.5c0,1.4-1.2,11.4-5,11.4
		C67.3,100.5,65.8,99.1,65.8,97.1 M57.4,107.1h8.7l0.2-0.8h-3l1.8-7.5c0.2,0.5,1.2,2.3,3.8,2.3c4.4,0,8.3-5.5,8.3-9.5
		c0-3.4-2.2-5.9-5.2-5.9c-2.4,0-3.7,1.6-4.4,2.3l-0.1-0.1l0.5-1.9c-1.2,0.2-2.5,0.2-3.7,0.2h-2.1l-0.2,0.8h2.9l-4.7,19.2h-2.8
		L57.4,107.1z M49.7,97.1c0-2.7,1.6-10.5,6.2-10.5c1.5,0,2.1,1.1,2.1,2.5c0,1.4-1.2,11.4-5,11.4C51.1,100.5,49.7,99.1,49.7,97.1
		 M41.3,107.1H50l0.2-0.8h-3l1.8-7.5c0.2,0.5,1.2,2.3,3.8,2.3c4.4,0,8.3-5.5,8.3-9.5c0-3.4-2.2-5.9-5.2-5.9c-2.4,0-3.7,1.6-4.4,2.3
		l-0.1-0.1l0.5-1.9c-1.2,0.2-2.5,0.2-3.7,0.2h-2.1L46,87.1h2.9l-4.7,19.2h-2.8L41.3,107.1z M31.8,97.8c0-1.2,0.8-5.3,2.2-8.9
		c0.7-1.7,1.7-2.3,3-2.3c1.6,0,2.7,1.1,2.7,3.1c0,1.8-2,10.8-6,10.8C32.3,100.5,31.8,99.3,31.8,97.8 M44,96.7
		c-0.5,0.9-1.8,3.1-2.8,3.1c-0.5,0-0.6-0.4-0.6-0.9c0-0.4,0.2-1.3,0.3-2l2.8-10.5h-2.8l-0.5,1.8c-0.3-0.6-1.1-2.4-3.5-2.4
		c-3.5,0-8.2,4.5-8.2,9.3c0,3.3,1.7,6.1,4.3,6.1c2.6,0,3.9-1.8,4.6-2.7h0.1c0,0.9,0.1,2.7,2.2,2.7c2.6,0,4.2-3,4.8-4.2L44,96.7z"/>
	<path fill="#010101" d="M618.2,58.3c-0.5-1.4-1.4-5.2-3.6-5.2c-2.3,0-3.7,3.6-4,4.5l0.5,0.2c0.3-0.8,1.2-2.9,2.2-2.9
		c0.7,0,1.3,2.3,1.7,3.2l2.1,6.2c0.2,0.7,0.8,1.8,0.8,2.6c0,1.5-4,6.9-6.8,6.9c-0.6,0-0.8-0.4-0.8-1.1c0-0.6-0.5-1-1.2-1
		c-0.8,0-1.5,0.5-1.5,1.4c0,1.2,1.2,1.8,2.2,1.8c5.6,0,9.3-7.9,11-11.7c1.1-2.6,3.1-7.9,4.1-7.9c0.3,0,0.6,0.4,1.1,0.4
		c0.8,0,1.4-0.5,1.4-1.3c0-0.8-0.5-1.3-1.4-1.3c-1.6,0-2.3,1.7-3.1,3.4c-1,2.3-2.4,5.7-2.9,6.7L618.2,58.3z M599.4,68h2.9l1.6-6.6
		c0.6-2.4,2.9-6.5,4.3-6.5c0.8,0,0.6,1.4,1.7,1.4c1.1,0,1.7-0.5,1.7-1.5c0-1-0.6-1.7-1.7-1.7c-2.8,0-4.7,3.5-5.3,4.6l-0.1-0.1l1-4.2
		c-1,0.2-2.1,0.2-3.3,0.2h-2.4l-0.1,0.8h3L599.4,68z M585.4,65.1c0-1.2,0.8-5.3,2.2-8.9c0.7-1.7,1.7-2.3,3-2.3
		c1.6,0,2.7,1.1,2.7,3.1c0,1.8-2,10.8-6,10.8C585.8,67.8,585.4,66.6,585.4,65.1 M597.6,64c-0.5,0.9-1.8,3.1-2.8,3.1
		c-0.5,0-0.6-0.4-0.6-0.9c0-0.4,0.2-1.3,0.3-2l2.8-10.5h-2.8l-0.5,1.8c-0.3-0.6-1.1-2.4-3.5-2.4c-3.5,0-8.2,4.5-8.2,9.3
		c0,3.3,1.7,6.1,4.3,6.1s3.9-1.8,4.6-2.7h0.1c0,0.9,0.1,2.7,2.2,2.7c2.6,0,4.2-3,4.8-4.2L597.6,64z M571.1,68h2.9l1.6-6.6
		c0.6-2.4,2.9-6.5,4.3-6.5c0.8,0,0.6,1.4,1.7,1.4c1.1,0,1.7-0.5,1.7-1.5c0-1-0.6-1.7-1.7-1.7c-2.8,0-4.7,3.5-5.3,4.6l-0.1-0.1l1-4.2
		c-1,0.2-2.1,0.2-3.3,0.2h-2.4l-0.1,0.8h3L571.1,68z M568.9,63.7c-0.3,0.6-1.7,3.7-3.1,3.7c-0.8,0-1.1-0.2-1.1-0.9
		c0-0.5,0.2-1.3,0.4-2.3l2.6-9.7h2.8l0.2-0.8h-2.8l1-3.7c-1.2,0.2-2.3,0.2-3,0.2l-1,3.5h-2.3l-0.2,0.8h2.3l-2.5,9.3
		c-0.2,0.8-0.5,1.7-0.5,2.3c0,1.8,1.2,2.4,2.7,2.4c3.2,0,4.6-3.2,5.1-4.6L568.9,63.7z M558.9,50c1,0,1.8-0.8,1.8-1.8
		c0-1-0.8-1.8-1.8-1.8s-1.8,0.8-1.8,1.8C557.2,49.2,557.9,50,558.9,50 M560.3,63.7c-0.3,0.6-1.7,3.7-3.1,3.7c-0.6,0-0.8-0.3-0.8-0.9
		c0-0.7,0.3-1.8,0.6-2.9l2.6-10.1c-1.1,0.2-2.3,0.2-3.7,0.2h-2.1l-0.2,0.8h2.7l-2.4,9.3c-0.2,0.8-0.5,1.9-0.5,2.7
		c0,1.3,1.1,2.1,2.3,2.1c3.2,0,4.6-3.2,5.1-4.6L560.3,63.7z M540.2,65c0-1.2,0.7-6.4,2.5-9c0.6-0.7,2-2.1,3.6-2.1c1.3,0,2,1,2,2.8
		c0,1,0,3.4-1.6,8c-0.9,2.2-1.9,3.1-3.7,3.1C541.3,67.8,540.2,66.9,540.2,65 M544.4,45.8c-1.3,0.2-2.6,0.3-4.2,0.3h-1.6l-0.2,0.8
		h2.7l-3.3,13.8c-0.2,0.8-0.7,2.6-0.7,3.7c0,2.2,1.9,4.2,5,4.2c5.3,0,9.2-5.3,9.2-9.3c0-3.6-1.8-6-4.7-6c-2.5,0-3.9,1.7-4.7,2.6
		l-0.1-0.1L544.4,45.8z M525,68h2.9l1.6-6.6c0.6-2.4,2.9-6.5,4.3-6.5c0.8,0,0.6,1.4,1.7,1.4c1.1,0,1.7-0.5,1.7-1.5
		c0-1-0.6-1.7-1.7-1.7c-2.8,0-4.7,3.5-5.3,4.6l-0.1-0.1l1-4.2c-1,0.2-2.1,0.2-3.3,0.2h-2.4l-0.1,0.8h3L525,68z M511,65.1
		c0-1.2,0.8-5.3,2.2-8.9c0.7-1.7,1.7-2.3,3-2.3c1.6,0,2.7,1.1,2.7,3.1c0,1.8-2,10.8-6,10.8C511.5,67.8,511,66.6,511,65.1 M523.2,64
		c-0.5,0.9-1.8,3.1-2.8,3.1c-0.5,0-0.6-0.4-0.6-0.9c0-0.4,0.2-1.3,0.3-2l2.8-10.5h-2.8l-0.5,1.8c-0.3-0.6-1.1-2.4-3.5-2.4
		c-3.5,0-8.2,4.5-8.2,9.3c0,3.3,1.7,6.1,4.3,6.1s3.9-1.8,4.6-2.7h0.1c0,0.9,0.1,2.7,2.2,2.7c2.6,0,4.2-3,4.8-4.2L523.2,64z
		 M482.2,68h2.9l1.9-7.6c0.5-2.1,2.4-6.1,5.7-6.1c0.8,0,1.3,0.4,1.3,1.1c0,0.6-0.2,1.4-0.5,2.3l-1.6,6.1c-0.2,0.8-0.5,1.9-0.5,2.7
		c0,1.3,1.1,2.1,2.3,2.1c3.2,0,4.6-3.2,5.1-4.6l-0.6-0.2c-0.3,0.6-1.7,3.7-3.1,3.7c-0.6,0-0.8-0.3-0.8-0.9c0-0.7,0.3-1.8,0.6-2.9
		l1.4-5.3c0.2-0.9,0.5-1.9,0.5-2.8c0-1.5-1.1-2.2-2.8-2.2c-3.1,0-5.1,1.7-6.4,3.4l-0.1-0.1l0.8-3.1c-1.3,0.1-2.5,0.2-4.1,0.2h-1.6
		l-0.2,0.8h2.8L482.2,68z M468.9,65.1c0-1.2,0.8-5.3,2.2-8.9c0.7-1.7,1.7-2.3,3-2.3c1.6,0,2.7,1.1,2.7,3.1c0,1.8-2,10.8-6,10.8
		C469.3,67.8,468.9,66.6,468.9,65.1 M481.1,64c-0.5,0.9-1.8,3.1-2.8,3.1c-0.5,0-0.6-0.4-0.6-0.9c0-0.4,0.2-1.3,0.3-2l2.8-10.5H478
		l-0.5,1.8c-0.3-0.6-1.1-2.4-3.5-2.4c-3.5,0-8.2,4.5-8.2,9.3c0,3.3,1.7,6.1,4.3,6.1c2.6,0,3.9-1.8,4.6-2.7h0.1
		c0,0.9,0.1,2.7,2.2,2.7c2.6,0,4.2-3,4.8-4.2L481.1,64z M455.3,63.7c-0.3,0.6-1.7,3.7-3.1,3.7c-0.8,0-1.1-0.2-1.1-0.9
		c0-0.5,0.2-1.3,0.4-2.3l2.6-9.7h2.8l0.2-0.8h-2.8l1-3.7c-1.2,0.2-2.3,0.2-3,0.2l-1,3.5h-2.3l-0.2,0.8h2.3l-2.5,9.3
		c-0.2,0.8-0.5,1.7-0.5,2.3c0,1.8,1.2,2.4,2.7,2.4c3.2,0,4.6-3.2,5.1-4.6L455.3,63.7z M440.1,68.5c3.1,0,5.7-1.9,5.7-4.7
		c0-2.2-1.1-3.2-2.4-4.2c-1.6-1.2-3.7-2.3-3.7-3.6c0-1.5,1.8-2.1,3-2.1c0.8,0,1.9,0.2,1.9,0.6c0,0.4-0.5,0.8-0.5,1.2
		c0,0.7,0.5,1.3,1.3,1.3c1,0,1.4-0.7,1.4-1.4c0-1.7-1.9-2.4-4-2.4c-2.7,0-5.2,2-5.2,4.3c0,2.3,2.1,3.5,3.9,4.8
		c1.2,0.8,2.2,1.7,2.2,3c0,1.8-1.8,2.6-3.4,2.6c-1.2,0-2.9-0.3-2.9-1.2c0-0.3,0.5-0.8,0.5-1.4c0-0.7-0.6-1.2-1.2-1.2
		c-1,0-1.5,0.7-1.5,1.4C435.1,67.1,437.1,68.5,440.1,68.5 M434.9,63.7c-0.3,0.6-1.7,3.7-3.1,3.7c-0.6,0-0.8-0.3-0.8-0.9
		c0-0.7,0.2-1.7,0.3-2.4l2.5-10.4h-2.9l-1.9,7.6c-0.5,2.1-2.4,6.1-5.7,6.1c-0.8,0-1.3-0.5-1.3-1.5c0-0.7,0.3-1.7,0.5-2.4l2.4-9.8
		h-5.6l-0.2,0.8h2.6l-2.3,9c-0.2,0.6-0.4,1.7-0.4,2.5c0,1.8,1.1,2.6,2.8,2.6c3.1,0,5-1.5,6.3-3.4l0.1,0.1c-0.1,0.3-0.1,0.9-0.1,1.3
		c0,1.3,1.1,2.1,2.3,2.1c3.2,0,4.6-3.2,5.1-4.6L434.9,63.7z M416.8,50c1,0,1.8-0.8,1.8-1.8c0-1-0.8-1.8-1.8-1.8s-1.8,0.8-1.8,1.8
		C415,49.2,415.8,50,416.8,50 M417.5,53.5c-1.1,0.2-2.2,0.2-3.7,0.2H411l-0.1,0.8h3.3l-4,15.1c-0.2,0.9-1,4.6-2.2,4.6
		c-0.3,0-0.5-0.2-0.5-0.5c0-0.2,0.2-0.4,0.2-0.9c0-0.8-0.8-1.3-1.3-1.3c-1,0-1.6,0.6-1.6,1.5c0,1.2,1.1,1.9,2.3,1.9
		c4.8,0,6.3-6.2,6.8-7.8L417.5,53.5z M400,63.7c-0.3,0.6-1.7,3.7-3.1,3.7c-0.8,0-1.1-0.2-1.1-0.9c0-0.5,0.2-1.3,0.4-2.3l2.6-9.7h2.8
		l0.2-0.8H399l1-3.7c-1.2,0.2-2.3,0.2-3,0.2l-1,3.5h-2.3l-0.2,0.8h2.3l-2.5,9.3c-0.2,0.8-0.5,1.7-0.5,2.3c0,1.8,1.2,2.4,2.7,2.4
		c3.2,0,4.6-3.2,5.1-4.6L400,63.7z M380.3,65c0-1,0.2-4.6,1.6-8c0.9-2.2,1.9-3.1,3.7-3.1c1.7,0,2.6,1.1,2.6,2.8c0,1-0.2,4.6-1.6,8
		c-0.9,2.2-1.9,3.1-3.6,3.1C381.3,67.8,380.3,66.8,380.3,65 M382.9,68.5c4.8,0,8.5-5,8.5-9.3c0-3.4-2.2-6-5.7-6
		c-4.8,0-8.5,5-8.5,9.3C377.2,65.9,379.4,68.5,382.9,68.5 M359.9,68h2.9l1.9-7.6c0.5-2.1,2.4-6.1,5.7-6.1c0.8,0,1.3,0.4,1.3,1.1
		c0,0.6-0.2,1.4-0.5,2.3l-1.6,6.1c-0.2,0.8-0.5,1.9-0.5,2.7c0,1.3,1.1,2.1,2.3,2.1c3.2,0,4.6-3.2,5.1-4.6l-0.6-0.2
		c-0.3,0.6-1.7,3.7-3.1,3.7c-0.6,0-0.8-0.3-0.8-0.9c0-0.7,0.3-1.8,0.6-2.9l1.4-5.3c0.2-0.9,0.5-1.9,0.5-2.8c0-1.5-1.1-2.2-2.8-2.2
		c-3.1,0-5.1,1.7-6.4,3.4l-0.1-0.1l0.8-3.1c-1.3,0.1-2.5,0.2-4.1,0.2h-1.6l-0.2,0.8h2.8L359.9,68z M343.7,73
		c0.5-0.3,1.7-0.8,2.9-1.8c0.8-0.7,2-2.1,2-3.6c0-1.4-0.9-2.8-2.6-2.8c-0.9,0-2,0.7-2,2c0,0.6,0.4,1.6,1.7,1.6
		c0.6,0,0.9-0.3,1.1-0.6c0.2-0.2,0.3-0.5,0.5-0.5c0.3,0,0.5,0.4,0.5,0.8c0,0.6-0.6,1.8-1.5,2.6c-1,0.8-2.1,1.5-2.8,1.8L343.7,73z
		 M335.2,68.5c3.1,0,5.7-1.9,5.7-4.7c0-2.2-1.1-3.2-2.4-4.2c-1.6-1.2-3.7-2.3-3.7-3.6c0-1.5,1.8-2.1,3-2.1c0.8,0,1.9,0.2,1.9,0.6
		c0,0.4-0.5,0.8-0.5,1.2c0,0.7,0.5,1.3,1.3,1.3c1,0,1.4-0.7,1.4-1.4c0-1.7-1.9-2.4-4-2.4c-2.7,0-5.2,2-5.2,4.3
		c0,2.3,2.1,3.5,3.9,4.8c1.2,0.8,2.2,1.7,2.2,3c0,1.8-1.8,2.6-3.4,2.6c-1.2,0-2.9-0.3-2.9-1.2c0-0.3,0.5-0.8,0.5-1.4
		c0-0.7-0.6-1.2-1.2-1.2c-1,0-1.5,0.7-1.5,1.4C330.2,67.1,332.1,68.5,335.2,68.5 M323.1,68.5c3.1,0,5.7-1.9,5.7-4.7
		c0-2.2-1.1-3.2-2.4-4.2c-1.6-1.2-3.7-2.3-3.7-3.6c0-1.5,1.8-2.1,3-2.1c0.8,0,1.9,0.2,1.9,0.6c0,0.4-0.5,0.8-0.5,1.2
		c0,0.7,0.5,1.3,1.3,1.3c1,0,1.4-0.7,1.4-1.4c0-1.7-1.9-2.4-4-2.4c-2.7,0-5.2,2-5.2,4.3c0,2.3,2.1,3.5,3.9,4.8
		c1.2,0.8,2.2,1.7,2.2,3c0,1.8-1.8,2.6-3.4,2.6c-1.2,0-2.9-0.3-2.9-1.2c0-0.3,0.5-0.8,0.5-1.4c0-0.7-0.6-1.2-1.2-1.2
		c-1,0-1.5,0.7-1.5,1.4C318.1,67.1,320,68.5,323.1,68.5 M313.3,53.9c1.3,0,2,0.8,2,2c0,3.8-2.9,4.6-5.7,4.6c-0.3,0-0.9,0-1.3-0.1
		C308.6,59,310.1,53.9,313.3,53.9 M316.4,63.8c-0.7,1.1-2.7,3.9-5.7,3.9c-2,0-3-1.4-3-3.6c0-1.3,0.2-2.4,0.4-3
		c0.5,0.1,1,0.1,1.6,0.1c2.4,0,8.3-0.7,8.3-4.7c0-2.1-1.9-3.5-4.2-3.5c-3.9,0-9.2,4.1-9.2,9.2c0,3.1,2.4,6.2,5.8,6.2
		c3.6,0,5.8-3.2,6.5-4.3L316.4,63.8z M302.6,64.1c-0.8,1.1-2.8,3.7-5.7,3.7c-1.9,0-3-1.2-3-4.1c0-0.7,0.4-3.5,1.8-6.7
		c1-2.3,2.5-3.1,4.2-3.1c1.1,0,2.2,0.4,2.2,0.9c0,0.5-0.8,0.7-0.8,1.6c0,0.9,0.5,1.4,1.4,1.4c1,0,1.5-0.8,1.5-1.7c0-1.4-1.9-3-4.2-3
		c-5.2,0-9.3,5-9.3,8.8c0,4,2.3,6.6,5.9,6.6c3.7,0,5.8-2.9,6.5-4.1L302.6,64.1z M278.3,65c0-1,0.2-4.6,1.6-8
		c0.9-2.2,1.9-3.1,3.7-3.1c1.7,0,2.6,1.1,2.6,2.8c0,1-0.2,4.6-1.6,8c-0.9,2.2-1.9,3.1-3.6,3.1C279.2,67.8,278.3,66.8,278.3,65
		 M280.8,68.5c4.8,0,8.5-5,8.5-9.3c0-3.4-2.2-6-5.7-6c-4.8,0-8.5,5-8.5,9.3C275.2,65.9,277.4,68.5,280.8,68.5 M263.8,68h2.9l1.6-6.6
		c0.6-2.4,2.9-6.5,4.3-6.5c0.8,0,0.6,1.4,1.7,1.4c1.1,0,1.7-0.5,1.7-1.5c0-1-0.6-1.7-1.7-1.7c-2.8,0-4.7,3.5-5.3,4.6l-0.1-0.1l1-4.2
		c-1,0.2-2.1,0.2-3.3,0.2h-2.4l-0.1,0.8h3L263.8,68z M251.5,64.4c0-2.7,1.6-10.5,6.2-10.5c1.5,0,2.1,1.1,2.1,2.5
		c0,1.4-1.2,11.4-5,11.4C253,67.8,251.5,66.4,251.5,64.4 M243.1,74.4h8.7l0.2-0.8h-3l1.8-7.5c0.2,0.5,1.2,2.3,3.8,2.3
		c4.4,0,8.3-5.5,8.3-9.5c0-3.4-2.2-5.9-5.2-5.9c-2.4,0-3.7,1.6-4.4,2.3l-0.1-0.1l0.5-1.9c-1.2,0.2-2.5,0.2-3.7,0.2H248l-0.2,0.8h2.9
		l-4.7,19.2h-2.8L243.1,74.4z M230.8,67.3c1.8,0.2,4.1,0,4.1,2.1c0,2.7-2.9,4.8-6.5,4.8c-2.5,0-4.8-1.2-4.8-3.5c0-2.3,2.1-3.2,3-3.7
		L230.8,67.3z M227.8,59.6c0-1.5,0.7-5.7,3.2-5.7c1.2,0,2.3,0.6,2.3,2.1c0,1.9-0.8,5.7-3.3,5.7C228.8,61.7,227.8,61.1,227.8,59.6
		 M228.8,64.5c-1.7-0.1-3.9-0.1-3.9-1.5c0-1,1.1-1.5,1.7-1.8c0.7,0.4,1.4,1.2,3.6,1.2c2.6,0,4.7-1.4,5.6-4.3c0.3-1.1,0.5-4,1.2-4
		c0.6,0,0.5,0.7,1.2,0.7c0.6,0,1-0.3,1-1c0-0.8-0.7-1.1-1.3-1.1c-1.9,0-2.2,2.2-2.4,3.2h-0.1c-0.4-1.2-1.5-2.8-4.4-2.8
		c-3.3,0-6,2.2-6,4.8c0,1.6,0.6,2.3,1.1,2.8c-0.9,0.5-2.8,1.2-2.8,3.3c0,1.8,1.4,2.2,2.4,2.7c-0.9,0.4-4.1,1.3-4.1,3.8
		c0,2.8,2.7,4.3,6.1,4.3c4.6,0,8.1-2.6,8.1-6.6c0-3.4-2.4-3.4-4.1-3.6L228.8,64.5z M205.5,68h2.9l1.9-7.6c0.5-2.1,2.4-6.1,5.7-6.1
		c0.8,0,1.3,0.4,1.3,1.1c0,0.6-0.2,1.4-0.5,2.3l-1.6,6.1c-0.2,0.8-0.5,1.9-0.5,2.7c0,1.3,1.1,2.1,2.3,2.1c3.2,0,4.6-3.2,5.1-4.6
		l-0.6-0.2c-0.3,0.6-1.7,3.7-3.1,3.7c-0.6,0-0.8-0.3-0.8-0.9c0-0.7,0.3-1.8,0.6-2.9l1.4-5.3c0.2-0.9,0.5-1.9,0.5-2.8
		c0-1.5-1.1-2.2-2.8-2.2c-3.1,0-5.1,1.7-6.4,3.4l-0.1-0.1l0.8-3.1c-1.3,0.1-2.5,0.2-4.1,0.2h-1.6l-0.2,0.8h2.8L205.5,68z M203.2,50
		c1,0,1.8-0.8,1.8-1.8c0-1-0.8-1.8-1.8-1.8s-1.8,0.8-1.8,1.8C201.4,49.2,202.2,50,203.2,50 M204.6,63.7c-0.3,0.6-1.7,3.7-3.1,3.7
		c-0.6,0-0.8-0.3-0.8-0.9c0-0.7,0.3-1.8,0.6-2.9l2.6-10.1c-1.1,0.2-2.3,0.2-3.7,0.2h-2.1l-0.2,0.8h2.7l-2.4,9.3
		c-0.2,0.8-0.5,1.9-0.5,2.7c0,1.3,1.1,2.1,2.3,2.1c3.2,0,4.6-3.2,5.1-4.6L204.6,63.7z M188.4,58.4c0.3-1.1,0.8-2.5,0.8-3.3
		c0-1.2-0.8-2-2.2-2c-2.8,0-4.3,3.2-5.1,4.3l0.5,0.3c0.4-0.6,2.2-3.5,3.3-3.5c0.4,0,0.6,0.2,0.6,0.8c0,0.5-0.3,1.5-0.5,2.2l-1.5,5.3
		c-0.2,0.7-0.7,2.1-0.7,2.8c0,1.8,1.2,3.2,3.6,3.2c5.6,0,9.1-8.9,9.1-12.9c0-1.2-0.5-2.5-1.9-2.5c-0.6,0-1.3,0.6-1.3,1.4
		c0,0.7,0.3,1.1,0.8,1.2c0.7,0.3,1.5,0.1,1.5,1.2c0,3.2-3.7,10.3-7.2,10.3c-1.1,0-1.7-0.3-1.7-1.4c0-0.8,0.3-1.9,0.5-2.8L188.4,58.4
		z M181.1,63.7c-0.3,0.6-1.7,3.7-3.1,3.7c-0.6,0-0.8-0.3-0.8-0.9c0-0.7,0.3-1.8,0.6-2.9l4.5-17.7c-1.1,0.2-2.2,0.3-3.7,0.3h-2.4
		l-0.2,0.8h3l-4.3,17c-0.2,0.8-0.5,1.9-0.5,2.7c0,1.3,1.1,2.1,2.3,2.1c3.2,0,4.6-3.2,5.1-4.6L181.1,63.7z M161.8,65
		c0-1,0.2-4.6,1.6-8c0.9-2.2,1.9-3.1,3.7-3.1c1.7,0,2.6,1.1,2.6,2.8c0,1-0.2,4.6-1.6,8c-0.9,2.2-1.9,3.1-3.6,3.1
		C162.7,67.8,161.8,66.8,161.8,65 M164.3,68.5c4.8,0,8.5-5,8.5-9.3c0-3.4-2.2-6-5.7-6c-4.8,0-8.5,5-8.5,9.3
		C158.7,65.9,160.9,68.5,164.3,68.5 M150.6,68.5c3.1,0,5.7-1.9,5.7-4.7c0-2.2-1.1-3.2-2.4-4.2c-1.6-1.2-3.7-2.3-3.7-3.6
		c0-1.5,1.8-2.1,3-2.1c0.8,0,1.9,0.2,1.9,0.6c0,0.4-0.5,0.8-0.5,1.2c0,0.7,0.5,1.3,1.3,1.3c1,0,1.4-0.7,1.4-1.4c0-1.7-1.9-2.4-4-2.4
		c-2.7,0-5.2,2-5.2,4.3c0,2.3,2.1,3.5,3.9,4.8c1.2,0.8,2.2,1.7,2.2,3c0,1.8-1.8,2.6-3.4,2.6c-1.2,0-2.9-0.3-2.9-1.2
		c0-0.3,0.5-0.8,0.5-1.4c0-0.7-0.6-1.2-1.2-1.2c-1,0-1.5,0.7-1.5,1.4C145.7,67.1,147.6,68.5,150.6,68.5 M136.7,62h7.8l0.6-2.3h-7.8
		L136.7,62z M110.4,68h2.9l1.9-7.6c0.5-2.1,2.4-6.1,5.7-6.1c0.8,0,1.3,0.4,1.3,1.1c0,0.6-0.5,3.3-0.8,4.3l-2.1,8.3h2.9l2.1-8.3
		c0.5-2,3-5.3,5.6-5.3c0.8,0,1.3,0.4,1.3,1.1c0,0.6-0.2,1.4-0.5,2.3l-1.6,6.1c-0.2,0.8-0.5,1.9-0.5,2.7c0,1.3,1.1,2.1,2.3,2.1
		c3.2,0,4.6-3.2,5.1-4.6l-0.6-0.2c-0.3,0.6-1.8,3.7-3.1,3.7c-0.6,0-0.8-0.3-0.8-0.9c0-0.7,0.3-1.8,0.6-2.9l1.4-5.3
		c0.2-0.9,0.5-1.9,0.5-2.8c0-1.4-1.1-2.2-2.8-2.2c-3.2,0-5.3,2.2-6.4,3.4l-0.1-0.1c0.1-0.3,0.2-0.9,0.2-1.3c0-1.3-1.1-2.1-2.8-2.1
		c-3.1,0-5.1,1.7-6.4,3.4l-0.1-0.1l0.8-3.1c-1.3,0.1-2.5,0.2-4.1,0.2H111l-0.2,0.8h2.8L110.4,68z M105.1,53.9c1.3,0,2,0.8,2,2
		c0,3.8-2.9,4.6-5.7,4.6c-0.3,0-0.9,0-1.3-0.1C100.4,59,101.9,53.9,105.1,53.9 M108.1,63.8c-0.7,1.1-2.7,3.9-5.7,3.9
		c-2,0-3-1.4-3-3.6c0-1.3,0.2-2.4,0.4-3c0.5,0.1,1,0.1,1.6,0.1c2.4,0,8.3-0.7,8.3-4.7c0-2.1-1.9-3.5-4.2-3.5c-3.9,0-9.2,4.1-9.2,9.2
		c0,3.1,2.4,6.2,5.8,6.2c3.6,0,5.8-3.2,6.5-4.3L108.1,63.8z M95.2,63.7c-0.3,0.6-1.7,3.7-3.1,3.7c-0.6,0-0.8-0.3-0.8-0.9
		c0-0.7,0.3-1.8,0.6-2.9l4.5-17.7c-1.1,0.2-2.2,0.3-3.7,0.3h-2.4L90,46.8h3l-4.3,17c-0.2,0.8-0.5,1.9-0.5,2.7c0,1.3,1.1,2.1,2.3,2.1
		c3.2,0,4.6-3.2,5.1-4.6L95.2,63.7z M75.4,65c0-1.2,0.7-6.4,2.5-9c0.6-0.7,2-2.1,3.6-2.1c1.3,0,2,1,2,2.8c0,1,0,3.4-1.6,8
		c-0.9,2.2-1.9,3.1-3.7,3.1C76.5,67.8,75.4,66.9,75.4,65 M79.6,45.8c-1.3,0.2-2.6,0.3-4.3,0.3h-1.6l-0.2,0.8h2.7l-3.3,13.8
		c-0.2,0.8-0.7,2.6-0.7,3.7c0,2.2,1.9,4.2,5,4.2c5.3,0,9.2-5.3,9.2-9.3c0-3.6-1.8-6-4.7-6c-2.5,0-3.9,1.7-4.7,2.6l-0.1-0.1
		L79.6,45.8z M59.7,65c0-1,0.2-4.6,1.6-8c0.9-2.2,1.9-3.1,3.7-3.1c1.7,0,2.6,1.1,2.6,2.8c0,1-0.2,4.6-1.6,8
		c-0.9,2.2-1.9,3.1-3.6,3.1C60.6,67.8,59.7,66.8,59.7,65 M62.2,68.5c4.8,0,8.5-5,8.5-9.3c0-3.4-2.2-6-5.7-6c-4.8,0-8.5,5-8.5,9.3
		C56.6,65.9,58.8,68.5,62.2,68.5 M45.3,68h2.9l1.6-6.6c0.6-2.4,2.9-6.5,4.3-6.5c0.8,0,0.6,1.4,1.7,1.4c1.1,0,1.7-0.5,1.7-1.5
		c0-1-0.6-1.7-1.7-1.7c-2.8,0-4.7,3.5-5.3,4.6l-0.1-0.1l1-4.2c-1,0.2-2.1,0.2-3.3,0.2h-2.4l-0.1,0.8h3L45.3,68z M32.9,64.4
		c0-2.7,1.6-10.5,6.2-10.5c1.5,0,2.1,1.1,2.1,2.5c0,1.4-1.2,11.4-5,11.4C34.4,67.8,32.9,66.4,32.9,64.4 M24.5,74.4h8.7l0.2-0.8h-3
		l1.8-7.5c0.2,0.5,1.2,2.3,3.8,2.3c4.4,0,8.3-5.5,8.3-9.5c0-3.4-2.2-5.9-5.2-5.9c-2.4,0-3.7,1.6-4.4,2.3l-0.1-0.1l0.5-1.9
		c-1.2,0.2-2.5,0.2-3.7,0.2h-2.1l-0.2,0.8h2.9l-4.7,19.2h-2.8L24.5,74.4z"/>
	<path fill="#010101" d="M585.8,31c-0.3,0.6-1.7,3.7-3.1,3.7c-0.6,0-0.8-0.3-0.8-0.9c0-0.7,0.3-1.8,0.6-2.9l4.5-17.7
		c-1.1,0.2-2.2,0.2-3.7,0.2h-2.4l-0.2,0.8h3l-4.3,17c-0.2,0.8-0.5,1.9-0.5,2.7c0,1.3,1.1,2.1,2.3,2.1c3.2,0,4.6-3.3,5.1-4.6
		L585.8,31z M565.1,32.5c0-1.2,0.8-5.3,2.2-8.9c0.7-1.7,1.7-2.3,3-2.3c1.6,0,2.7,1.1,2.7,3.1c0,1.8-2,10.8-6,10.8
		C565.6,35.1,565.1,33.9,565.1,32.5 M577.3,31.4c-0.5,0.9-1.8,3.1-2.8,3.1c-0.5,0-0.6-0.4-0.6-0.9c0-0.4,0.2-1.3,0.3-2L577,21h-2.8
		l-0.5,1.8c-0.3-0.6-1.1-2.4-3.5-2.4c-3.5,0-8.2,4.5-8.2,9.3c0,3.3,1.7,6.1,4.3,6.1s3.9-1.8,4.6-2.7h0.1c0,0.9,0.1,2.7,2.2,2.7
		c2.6,0,4.2-3,4.8-4.2L577.3,31.4z M560.2,31.4c-0.8,1.1-2.8,3.7-5.7,3.7c-1.9,0-3-1.2-3-4.1c0-0.7,0.4-3.5,1.8-6.7
		c1-2.3,2.5-3.1,4.2-3.1c1.1,0,2.2,0.4,2.2,0.9c0,0.5-0.8,0.7-0.8,1.6c0,0.9,0.5,1.4,1.4,1.4c1,0,1.5-0.8,1.5-1.7c0-1.4-1.9-3-4.2-3
		c-5.2,0-9.3,5-9.3,8.8c0,4,2.3,6.6,5.9,6.6c3.7,0,5.8-2.9,6.5-4.1L560.2,31.4z M545.6,17.3c1,0,1.8-0.8,1.8-1.8s-0.8-1.8-1.8-1.8
		c-1,0-1.8,0.8-1.8,1.8S544.6,17.3,545.6,17.3 M547,31c-0.3,0.6-1.7,3.7-3.1,3.7c-0.6,0-0.8-0.3-0.8-0.9c0-0.7,0.3-1.8,0.6-2.9
		l2.6-10.1c-1.1,0.2-2.2,0.2-3.7,0.2h-2.1l-0.2,0.8h2.7l-2.4,9.3c-0.2,0.8-0.5,1.9-0.5,2.7c0,1.3,1.1,2.1,2.3,2.1
		c3.2,0,4.6-3.3,5.1-4.6L547,31z M531.6,34.6c1.8,0.2,4.1,0,4.1,2.1c0,2.7-2.9,4.8-6.5,4.8c-2.5,0-4.8-1.2-4.8-3.5
		c0-2.2,2.1-3.2,3-3.7L531.6,34.6z M528.7,26.9c0-1.5,0.7-5.7,3.2-5.7c1.2,0,2.3,0.6,2.3,2.1c0,1.9-0.7,5.7-3.3,5.7
		C529.7,29,528.7,28.4,528.7,26.9 M529.7,31.9c-1.7-0.1-3.9-0.1-3.9-1.5c0-1,1.1-1.5,1.7-1.8c0.7,0.4,1.4,1.2,3.6,1.2
		c2.6,0,4.7-1.4,5.6-4.3c0.3-1.1,0.5-4,1.3-4c0.6,0,0.5,0.7,1.2,0.7c0.6,0,1-0.3,1-1c0-0.8-0.7-1.1-1.3-1.1c-1.9,0-2.2,2.2-2.4,3.2
		h-0.1c-0.4-1.2-1.5-2.8-4.4-2.8c-3.3,0-6,2.3-6,4.8c0,1.6,0.6,2.3,1.1,2.8c-0.9,0.5-2.8,1.2-2.8,3.3c0,1.8,1.4,2.3,2.4,2.7
		c-0.9,0.4-4.1,1.3-4.1,3.8c0,2.8,2.7,4.3,6.1,4.3c4.6,0,8.1-2.6,8.1-6.6c0-3.4-2.4-3.4-4.1-3.6L529.7,31.9z M511.1,32.3
		c0-1,0.2-4.6,1.6-8c0.9-2.2,1.9-3.1,3.7-3.1c1.7,0,2.6,1.1,2.6,2.8c0,1-0.2,4.6-1.6,8c-0.9,2.2-1.9,3.1-3.6,3.1
		C512,35.1,511.1,34.1,511.1,32.3 M513.6,35.9c4.8,0,8.5-5,8.5-9.3c0-3.4-2.2-6-5.7-6c-4.8,0-8.5,5-8.5,9.3
		C508,33.2,510.2,35.9,513.6,35.9 M506.7,31c-0.3,0.6-1.7,3.7-3.1,3.7c-0.6,0-0.8-0.3-0.8-0.9c0-0.7,0.3-1.8,0.6-2.9l4.5-17.7
		c-1.1,0.2-2.2,0.2-3.7,0.2h-2.4l-0.2,0.8h3l-4.3,17c-0.2,0.8-0.5,1.9-0.5,2.7c0,1.3,1.1,2.1,2.3,2.1c3.2,0,4.6-3.3,5.1-4.6
		L506.7,31z M477.4,32.5c0-1.2,0.8-5.3,2.2-8.9c0.7-1.7,1.7-2.3,3-2.3c1.6,0,2.7,1.1,2.7,3.1c0,1.8-2,10.8-6,10.8
		C477.9,35.1,477.4,33.9,477.4,32.5 M489.7,31.4c-0.5,0.9-1.8,3.1-2.8,3.1c-0.5,0-0.6-0.4-0.6-0.9c0-0.4,0.2-1.3,0.3-2l2.8-10.5
		h-2.8l-0.5,1.8c-0.3-0.6-1.1-2.4-3.5-2.4c-3.5,0-8.2,4.5-8.2,9.3c0,3.3,1.7,6.1,4.3,6.1c2.6,0,3.9-1.8,4.6-2.7h0.1
		c0,0.9,0.1,2.7,2.2,2.7c2.6,0,4.2-3,4.8-4.2L489.7,31.4z M457.9,35.9c3.1,0,5.7-1.9,5.7-4.7c0-2.2-1.1-3.2-2.4-4.2
		c-1.6-1.2-3.7-2.3-3.7-3.6c0-1.5,1.8-2.1,3-2.1c0.8,0,1.9,0.2,1.9,0.6c0,0.4-0.5,0.8-0.5,1.2c0,0.7,0.5,1.2,1.3,1.2
		c1,0,1.4-0.7,1.4-1.4c0-1.7-1.9-2.4-4-2.4c-2.7,0-5.2,2-5.2,4.3c0,2.3,2.1,3.5,3.9,4.8c1.2,0.8,2.2,1.7,2.2,3
		c0,1.8-1.8,2.6-3.4,2.6c-1.2,0-2.9-0.3-2.9-1.2c0-0.3,0.5-0.8,0.5-1.4c0-0.7-0.6-1.2-1.2-1.2c-1,0-1.5,0.7-1.5,1.4
		C452.9,34.5,454.8,35.9,457.9,35.9 M451,17.3c1,0,1.8-0.8,1.8-1.8s-0.8-1.8-1.8-1.8c-1,0-1.8,0.8-1.8,1.8S450,17.3,451,17.3
		 M452.4,31c-0.3,0.6-1.7,3.7-3.1,3.7c-0.6,0-0.8-0.3-0.8-0.9c0-0.7,0.3-1.8,0.6-2.9l2.6-10.1c-1.1,0.2-2.2,0.2-3.7,0.2h-2.1
		l-0.2,0.8h2.7l-2.4,9.3c-0.2,0.8-0.5,1.9-0.5,2.7c0,1.3,1.1,2.1,2.3,2.1c3.2,0,4.6-3.3,5.1-4.6L452.4,31z M419.3,35.3h2.9l1.9-7.6
		c0.5-2.1,2.4-6.1,5.7-6.1c0.8,0,1.3,0.4,1.3,1.1c0,0.6-0.3,1.4-0.5,2.3l-1.6,6.1c-0.2,0.8-0.5,1.9-0.5,2.7c0,1.3,1.1,2.1,2.3,2.1
		c3.2,0,4.6-3.3,5.1-4.6l-0.6-0.2c-0.3,0.6-1.7,3.7-3.1,3.7c-0.6,0-0.8-0.3-0.8-0.9c0-0.7,0.3-1.8,0.6-2.9l1.4-5.3
		c0.2-0.9,0.5-1.9,0.5-2.8c0-1.5-1.1-2.2-2.8-2.2c-3.1,0-5.1,1.7-6.4,3.4l-0.1-0.1l0.8-3.1c-1.3,0.1-2.5,0.2-4.1,0.2H420l-0.2,0.8
		h2.8L419.3,35.3z M411.7,34.6c1.8,0.2,4.1,0,4.1,2.1c0,2.7-2.9,4.8-6.5,4.8c-2.5,0-4.8-1.2-4.8-3.5c0-2.2,2.1-3.2,3-3.7L411.7,34.6
		z M408.7,26.9c0-1.5,0.7-5.7,3.2-5.7c1.2,0,2.3,0.6,2.3,2.1c0,1.9-0.8,5.7-3.3,5.7C409.8,29,408.7,28.4,408.7,26.9 M409.8,31.9
		c-1.7-0.1-3.9-0.1-3.9-1.5c0-1,1.1-1.5,1.7-1.8c0.7,0.4,1.4,1.2,3.6,1.2c2.6,0,4.7-1.4,5.6-4.3c0.3-1.1,0.5-4,1.2-4
		c0.6,0,0.5,0.7,1.2,0.7c0.6,0,1-0.3,1-1c0-0.8-0.7-1.1-1.3-1.1c-1.9,0-2.2,2.2-2.4,3.2h-0.1c-0.4-1.2-1.5-2.8-4.4-2.8
		c-3.3,0-6,2.3-6,4.8c0,1.6,0.6,2.3,1.1,2.8c-0.9,0.5-2.8,1.2-2.8,3.3c0,1.8,1.4,2.3,2.4,2.7c-0.9,0.4-4.1,1.3-4.1,3.8
		c0,2.8,2.7,4.3,6.1,4.3c4.6,0,8.1-2.6,8.1-6.6c0-3.4-2.4-3.4-4.1-3.6L409.8,31.9z M400.9,17.3c1,0,1.8-0.8,1.8-1.8
		s-0.8-1.8-1.8-1.8s-1.8,0.8-1.8,1.8S399.9,17.3,400.9,17.3 M402.3,31c-0.3,0.6-1.7,3.7-3.1,3.7c-0.6,0-0.8-0.3-0.8-0.9
		c0-0.7,0.3-1.8,0.6-2.9l2.6-10.1c-1.1,0.2-2.2,0.2-3.7,0.2h-2.1l-0.2,0.8h2.7l-2.4,9.3c-0.2,0.8-0.5,1.9-0.5,2.7
		c0,1.3,1.1,2.1,2.3,2.1c3.2,0,4.6-3.3,5.1-4.6L402.3,31z M387,35.9c3.1,0,5.7-1.9,5.7-4.7c0-2.2-1.1-3.2-2.4-4.2
		c-1.6-1.2-3.7-2.3-3.7-3.6c0-1.5,1.8-2.1,3-2.1c0.8,0,1.9,0.2,1.9,0.6c0,0.4-0.5,0.8-0.5,1.2c0,0.7,0.5,1.2,1.3,1.2
		c1,0,1.4-0.7,1.4-1.4c0-1.7-1.9-2.4-4-2.4c-2.7,0-5.2,2-5.2,4.3c0,2.3,2.1,3.5,3.9,4.8c1.2,0.8,2.2,1.7,2.2,3
		c0,1.8-1.8,2.6-3.4,2.6c-1.2,0-2.9-0.3-2.9-1.2c0-0.3,0.5-0.8,0.5-1.4c0-0.7-0.6-1.2-1.2-1.2c-1,0-1.5,0.7-1.5,1.4
		C382,34.5,384,35.9,387,35.9 M377.2,21.2c1.3,0,2,0.8,2,2c0,3.8-2.9,4.6-5.7,4.6c-0.3,0-0.9,0-1.3-0.1
		C372.5,26.3,374,21.2,377.2,21.2 M380.3,31.2c-0.7,1.1-2.7,3.9-5.7,3.9c-2,0-3-1.4-3-3.6c0-1.3,0.2-2.4,0.4-3
		c0.5,0.1,1,0.1,1.6,0.1c2.4,0,8.3-0.7,8.3-4.7c0-2.1-1.9-3.5-4.2-3.5c-3.9,0-9.2,4.1-9.2,9.2c0,3.1,2.4,6.2,5.8,6.2
		c3.6,0,5.8-3.2,6.5-4.3L380.3,31.2z M354.7,32.3c0-1,0.2-4.6,1.6-8c0.9-2.2,1.9-3.1,3.7-3.1c1.6,0,2.7,1.2,2.7,3
		c0,2.2-1.7,10.9-6,10.9C355.4,35.1,354.7,34.1,354.7,32.3 M367.1,31.2c-0.2,0.3-1.9,2.9-2.7,2.9c-0.4,0-0.8-0.1-0.8-0.8
		c0-0.7,0.2-1.5,0.4-2.3l4.3-17.9c-1.1,0.1-2.7,0.2-4.4,0.2h-1.7l-0.2,0.8h3.1l-2.1,8.3c-0.4-0.7-1.3-2-3.2-2c-4.8,0-8.5,5-8.5,9.3
		c0,3.4,1.8,6,4.7,6c2.6,0,4.1-2.5,4.6-3.2h0.1c0,1,0,2.9,2,2.9c2.5,0,4.2-3.2,4.7-4L367.1,31.2z M337.4,21.2c1.3,0,2,0.8,2,2
		c0,3.8-2.9,4.6-5.7,4.6c-0.3,0-0.9,0-1.3-0.1C332.8,26.3,334.2,21.2,337.4,21.2 M340.5,31.2c-0.7,1.1-2.7,3.9-5.7,3.9
		c-2,0-3-1.4-3-3.6c0-1.3,0.2-2.4,0.4-3c0.5,0.1,1,0.1,1.6,0.1c2.4,0,8.3-0.7,8.3-4.7c0-2.1-1.9-3.5-4.2-3.5c-3.9,0-9.2,4.1-9.2,9.2
		c0,3.1,2.4,6.2,5.8,6.2c3.6,0,5.8-3.2,6.5-4.3L340.5,31.2z M319.8,25.7c0.3-1.1,0.8-2.5,0.8-3.2c0-1.2-0.8-2-2.2-2
		c-2.8,0-4.3,3.2-5.1,4.3l0.5,0.3c0.4-0.6,2.2-3.5,3.3-3.5c0.4,0,0.6,0.2,0.6,0.8c0,0.5-0.3,1.5-0.5,2.2l-1.5,5.3
		c-0.2,0.7-0.7,2.1-0.7,2.8c0,1.8,1.3,3.2,3.6,3.2c5.6,0,9.1-8.9,9.1-12.9c0-1.2-0.5-2.5-1.9-2.5c-0.6,0-1.3,0.6-1.3,1.4
		c0,0.7,0.3,1.1,0.8,1.2c0.7,0.3,1.5,0.1,1.5,1.2c0,3.2-3.7,10.3-7.2,10.3c-1.1,0-1.7-0.3-1.7-1.4c0-0.8,0.3-1.9,0.5-2.8L319.8,25.7
		z M308.6,21.2c1.3,0,2,0.8,2,2c0,3.8-2.9,4.6-5.7,4.6c-0.3,0-0.9,0-1.3-0.1C303.9,26.3,305.4,21.2,308.6,21.2 M311.7,31.2
		c-0.7,1.1-2.7,3.9-5.7,3.9c-2,0-3-1.4-3-3.6c0-1.3,0.2-2.4,0.4-3c0.5,0.1,1,0.1,1.6,0.1c2.4,0,8.3-0.7,8.3-4.7
		c0-2.1-1.9-3.5-4.2-3.5c-3.9,0-9.2,4.1-9.2,9.2c0,3.1,2.4,6.2,5.8,6.2c3.6,0,5.8-3.2,6.5-4.3L311.7,31.2z M297.1,17.3
		c1,0,1.8-0.8,1.8-1.8s-0.8-1.8-1.8-1.8s-1.8,0.8-1.8,1.8S296.1,17.3,297.1,17.3 M298.5,31c-0.3,0.6-1.7,3.7-3.1,3.7
		c-0.6,0-0.8-0.3-0.8-0.9c0-0.7,0.3-1.8,0.6-2.9l2.6-10.1c-1.1,0.2-2.2,0.2-3.7,0.2H292l-0.2,0.8h2.7l-2.4,9.3
		c-0.2,0.8-0.5,1.9-0.5,2.7c0,1.3,1.1,2.1,2.3,2.1c3.2,0,4.6-3.3,5.1-4.6L298.5,31z M290.1,31c-0.3,0.6-1.7,3.7-3.1,3.7
		c-0.6,0-0.8-0.3-0.8-0.9c0-0.7,0.3-1.8,0.6-2.9l4.5-17.7c-1.1,0.2-2.3,0.2-3.7,0.2h-2.4l-0.2,0.8h3l-4.3,17
		c-0.2,0.8-0.5,1.9-0.5,2.7c0,1.3,1.1,2.1,2.3,2.1c3.2,0,4.6-3.3,5.1-4.6L290.1,31z M277.5,21.2c1.3,0,2,0.8,2,2
		c0,3.8-2.9,4.6-5.7,4.6c-0.3,0-0.9,0-1.3-0.1C272.8,26.3,274.3,21.2,277.5,21.2 M280.6,31.2c-0.7,1.1-2.7,3.9-5.7,3.9
		c-2,0-3-1.4-3-3.6c0-1.3,0.2-2.4,0.4-3c0.5,0.1,1,0.1,1.6,0.1c2.4,0,8.3-0.7,8.3-4.7c0-2.1-1.9-3.5-4.2-3.5c-3.9,0-9.2,4.1-9.2,9.2
		c0,3.1,2.4,6.2,5.8,6.2c3.6,0,5.8-3.2,6.5-4.3L280.6,31.2z M255.9,32.3c0-1.2,0.7-6.4,2.5-9c0.6-0.7,2-2.1,3.6-2.1c1.3,0,2,1,2,2.8
		c0,1,0,3.4-1.6,8c-0.9,2.2-1.9,3.1-3.7,3.1C257,35.1,255.9,34.2,255.9,32.3 M260.1,13.2c-1.3,0.2-2.6,0.2-4.3,0.2h-1.6l-0.2,0.8
		h2.7l-3.3,13.8c-0.2,0.8-0.7,2.6-0.7,3.7c0,2.2,1.9,4.2,5,4.2c5.3,0,9.2-5.3,9.2-9.3c0-3.6-1.8-6-4.7-6c-2.5,0-3.9,1.7-4.7,2.6
		l-0.1-0.1L260.1,13.2z M238.3,21.2c1.3,0,2,0.8,2,2c0,3.8-2.9,4.6-5.7,4.6c-0.3,0-0.9,0-1.3-0.1C233.7,26.3,235.1,21.2,238.3,21.2
		 M241.4,31.2c-0.7,1.1-2.7,3.9-5.7,3.9c-2,0-3-1.4-3-3.6c0-1.3,0.2-2.4,0.4-3c0.5,0.1,1,0.1,1.6,0.1c2.4,0,8.3-0.7,8.3-4.7
		c0-2.1-1.9-3.5-4.2-3.5c-3.9,0-9.2,4.1-9.2,9.2c0,3.1,2.4,6.2,5.8,6.2c3.6,0,5.8-3.2,6.5-4.3L241.4,31.2z M222,21h-2.7
		c-0.3,1.7-4.1,13.7-8,13.7c-0.8,0-0.9-0.4-0.9-1.2c0-0.6,0.3-1.6,0.6-2.5l1.7-5.8c0.3-1.1,0.6-1.8,0.6-2.9c0-0.9-0.5-1.8-2-1.8
		c-2.4,0-4.5,3.3-5.2,4.3l0.6,0.3c0.3-0.5,2.1-3.2,3.1-3.2c0.4,0,0.6,0.2,0.6,0.7c0,0.4-0.2,1.2-0.5,1.9l-1.8,6.2
		c-0.1,0.2-0.5,1.8-0.5,2.5c0,1.6,1.2,2.6,2.7,2.6c2.3,0,4.2-2,5.5-4.1c0.9-1.4,1.6-3,1.8-3.4l0.1,0.1c-0.1,0.2-0.5,2.2-0.5,3.1
		c0,2.3,0.9,4.3,3.2,4.3c5.1,0,8.3-8.4,8.3-12.5c0-1.4-0.7-2.8-1.9-2.8c-0.9,0-1.4,0.7-1.4,1.5c0,0.5,0.2,1.1,0.8,1.3
		c0.5,0.2,1.6,0,1.6,1.4c0,2.8-3.1,10-6.2,10c-1.5,0-1.8-1.2-1.8-2.8c0-1.4,0.5-3.6,1-5.6L222,21z M189.8,40.3
		c0.5-0.3,1.7-0.8,2.9-1.8c0.8-0.7,2-2.1,2-3.6c0-1.4-0.9-2.8-2.6-2.8c-0.9,0-2,0.7-2,2c0,0.6,0.4,1.6,1.7,1.6
		c0.6,0,0.9-0.3,1.1-0.6c0.2-0.2,0.3-0.5,0.5-0.5c0.3,0,0.5,0.4,0.5,0.8c0,0.6-0.6,1.8-1.5,2.6c-1,0.8-2.1,1.5-2.8,1.8L189.8,40.3z
		 M184.7,21.2c1.3,0,2,0.8,2,2c0,3.8-2.9,4.6-5.7,4.6c-0.3,0-0.9,0-1.3-0.1C180.1,26.3,181.5,21.2,184.7,21.2 M187.8,31.2
		c-0.7,1.1-2.7,3.9-5.7,3.9c-2,0-3-1.4-3-3.6c0-1.3,0.2-2.4,0.4-3c0.5,0.1,1,0.1,1.6,0.1c2.4,0,8.3-0.7,8.3-4.7
		c0-2.1-1.9-3.5-4.2-3.5c-3.9,0-9.2,4.1-9.2,9.2c0,3.1,2.4,6.2,5.8,6.2c3.6,0,5.8-3.2,6.5-4.3L187.8,31.2z M174.8,31
		c-0.3,0.6-1.7,3.7-3.1,3.7c-0.6,0-0.8-0.3-0.8-0.9c0-0.7,0.3-1.8,0.6-2.9l4.5-17.7c-1.1,0.2-2.2,0.2-3.7,0.2h-2.4l-0.2,0.8h3
		l-4.3,17c-0.2,0.8-0.5,1.9-0.5,2.7c0,1.3,1.1,2.1,2.3,2.1c3.2,0,4.6-3.3,5.1-4.6L174.8,31z M154.1,32.5c0-1.2,0.8-5.3,2.2-8.9
		c0.7-1.7,1.7-2.3,3-2.3c1.6,0,2.7,1.1,2.7,3.1c0,1.8-2,10.8-6,10.8C154.6,35.1,154.1,33.9,154.1,32.5 M166.3,31.4
		c-0.5,0.9-1.8,3.1-2.8,3.1c-0.5,0-0.6-0.4-0.6-0.9c0-0.4,0.2-1.3,0.3-2L166,21h-2.8l-0.5,1.8c-0.3-0.6-1.1-2.4-3.5-2.4
		c-3.5,0-8.2,4.5-8.2,9.3c0,3.3,1.7,6.1,4.3,6.1c2.6,0,3.9-1.8,4.6-2.7h0.1c0,0.9,0.1,2.7,2.2,2.7c2.6,0,4.2-3,4.8-4.2L166.3,31.4z
		 M134,35.3h2.9l1.9-7.6c0.5-2.1,2.4-6.1,5.7-6.1c0.8,0,1.3,0.4,1.3,1.1c0,0.6-0.2,1.4-0.5,2.3l-1.6,6.1c-0.2,0.8-0.5,1.9-0.5,2.7
		c0,1.3,1.1,2.1,2.3,2.1c3.2,0,4.6-3.3,5.1-4.6l-0.6-0.2c-0.3,0.6-1.7,3.7-3.1,3.7c-0.6,0-0.8-0.3-0.8-0.9c0-0.7,0.3-1.8,0.6-2.9
		l1.4-5.3c0.2-0.9,0.5-1.9,0.5-2.8c0-1.5-1.1-2.2-2.8-2.2c-3.1,0-5.1,1.7-6.4,3.4l-0.1-0.1l0.8-3.1c-1.3,0.1-2.5,0.2-4.1,0.2h-1.6
		l-0.2,0.8h2.8L134,35.3z M122,32.3c0-1,0.2-4.6,1.6-8c0.9-2.2,1.9-3.1,3.7-3.1c1.7,0,2.6,1.1,2.6,2.8c0,1-0.2,4.6-1.6,8
		c-0.9,2.2-1.9,3.1-3.6,3.1C122.9,35.1,122,34.1,122,32.3 M124.5,35.9c4.8,0,8.5-5,8.5-9.3c0-3.4-2.2-6-5.7-6c-4.8,0-8.5,5-8.5,9.3
		C118.9,33.2,121.1,35.9,124.5,35.9 M116.1,17.3c1,0,1.8-0.8,1.8-1.8s-0.8-1.8-1.8-1.8s-1.8,0.8-1.8,1.8S115.1,17.3,116.1,17.3
		 M117.5,31c-0.3,0.6-1.7,3.7-3.1,3.7c-0.6,0-0.8-0.3-0.8-0.9c0-0.7,0.3-1.8,0.6-2.9l2.6-10.1c-1.1,0.2-2.3,0.2-3.7,0.2H111
		l-0.2,0.8h2.7l-2.4,9.3c-0.2,0.8-0.5,1.9-0.5,2.7c0,1.3,1.1,2.1,2.3,2.1c3.2,0,4.6-3.3,5.1-4.6L117.5,31z M108.2,31
		c-0.3,0.6-1.7,3.7-3.1,3.7c-0.8,0-1.1-0.2-1.1-0.9c0-0.5,0.2-1.3,0.4-2.3l2.6-9.7h2.8L110,21h-2.8l1-3.7c-1.2,0.2-2.3,0.2-3,0.2
		l-1,3.5h-2.3l-0.2,0.8h2.3l-2.5,9.3c-0.2,0.8-0.5,1.7-0.5,2.3c0,1.8,1.2,2.4,2.7,2.4c3.2,0,4.6-3.3,5.1-4.6L108.2,31z M87.2,32.5
		c0-1.2,0.8-5.3,2.2-8.9c0.7-1.7,1.7-2.3,3-2.3c1.6,0,2.7,1.1,2.7,3.1c0,1.8-2,10.8-6,10.8C87.6,35.1,87.2,33.9,87.2,32.5
		 M99.4,31.4c-0.5,0.9-1.8,3.1-2.8,3.1c-0.5,0-0.6-0.4-0.6-0.9c0-0.4,0.2-1.3,0.3-2L99,21h-2.8l-0.5,1.8c-0.3-0.6-1.1-2.4-3.5-2.4
		c-3.5,0-8.2,4.5-8.2,9.3c0,3.3,1.7,6.1,4.3,6.1c2.6,0,3.9-1.8,4.6-2.7H93c0,0.9,0.1,2.7,2.2,2.7c2.6,0,4.2-3,4.8-4.2L99.4,31.4z
		 M63.1,35.3H72l0.1-0.8h-2.7l2.2-10.8h1c1.1,0,2.6,0.1,3.3,2.2c0.5,1.5,0.2,4.7,0.9,6.8c0.5,1.6,1.9,2.8,3.8,2.8
		c1.1,0,1.8-0.3,2.3-0.4l-0.2-0.7c-0.3,0.1-0.9,0.2-1.2,0.2c-0.8,0-1.5-0.6-1.5-2.4c0-3.2,0-5.1-1.4-6.8c-1-1.1-2.3-1.5-3.8-1.9
		v-0.1c2.3-0.1,7.6-1,7.6-5.6c0-4.5-5-4.5-7.4-4.5h-7.6l-0.2,0.8h3.1L66,34.5h-2.7L63.1,35.3z M73.8,14.1h1c1.8,0,4.1,0,4.1,3.3
		c0,4.7-2.6,5.6-5.9,5.6h-1.2L73.8,14.1z M54.6,31c-0.3,0.6-1.7,3.7-3.1,3.7c-0.8,0-1.1-0.2-1.1-0.9c0-0.5,0.2-1.3,0.4-2.3l2.6-9.7
		h2.8l0.2-0.8h-2.8l1-3.7c-1.2,0.2-2.3,0.2-3,0.2l-1,3.5h-2.3l-0.2,0.8h2.3l-2.5,9.3c-0.2,0.8-0.5,1.7-0.5,2.3
		c0,1.8,1.2,2.4,2.7,2.4c3.2,0,4.6-3.3,5.1-4.6L54.6,31z M41,18.8L41,18.8l-0.7,8.8h-5.7L41,18.8z M26.1,35.3h6.3l0.1-0.8h-3
		l4.6-6.2h6.2l-0.5,6.2h-2.9l-0.1,0.8h8.9l0.1-0.8h-2.6l1.7-21.4h-0.7L28.3,34.5h-2.1L26.1,35.3z"/>
</g>
</svg>
