<?xml version="1.0" standalone="no"?>
<!DOCTYPE svg PUBLIC "-//W3C//DTD SVG 20010904//EN"
 "http://www.w3.org/TR/2001/REC-SVG-20010904/DTD/svg10.dtd">
<svg version="1.0" xmlns="http://www.w3.org/2000/svg"
 width="600.000000pt" height="600.000000pt" viewBox="0 0 600.000000 600.000000"
 preserveAspectRatio="xMidYMid meet">
<metadata>
Created by potrace 1.11, written by Peter Selinger 2001-2013
</metadata>
<g transform="translate(0.000000,600.000000) scale(0.100000,-0.100000)"
fill="#000000" stroke="none">
<path d="M0 3000 l0 -3000 3000 0 3000 0 0 3000 0 3000 -3000 0 -3000 0 0
-3000z m3510 2219 c599 -54 1040 -319 1234 -740 69 -151 106 -332 106 -524 0
-493 -233 -851 -672 -1030 -45 -19 -84 -38 -86 -43 -1 -5 30 -22 69 -37 165
-67 316 -183 402 -310 47 -69 96 -181 126 -287 32 -114 69 -370 81 -561 32
-528 38 -581 65 -691 15 -58 48 -116 66 -116 5 0 9 -13 9 -30 l0 -30 -534 0
-535 0 -20 25 c-38 49 -66 225 -101 640 -26 304 -45 428 -80 538 -73 228 -223
371 -445 423 -57 14 -146 17 -487 21 l-418 5 0 -826 0 -826 -545 0 -545 0 0
2205 0 2205 1098 0 c686 0 1140 -4 1212 -11z"/>
<path d="M2290 3821 l0 -541 453 0 c347 0 475 4 550 15 298 45 467 232 467
515 -1 267 -141 454 -395 527 -52 15 -124 17 -567 21 l-508 3 0 -540z"/>
</g>
</svg>
