<svg xmlns="http://www.w3.org/2000/svg" version="1.1" x="0px" y="0px" width="190px" height="31.5px" viewBox="-0.042 0 190 31.5" enable-background="new -0.042 0 190 31.5" xml:space="preserve"><path d="M38.264 19.254c-0.292 0.584-1.755 3.801-3.217 3.801 -0.585 0-0.804-0.365-0.804-0.951 0-0.729 0.292-1.898 0.585-2.996l4.678-18.275c-1.169 0.146-2.339 0.293-3.728 0.293h-2.485L33.074 1.93h3.143L31.758 19.4c-0.219 0.805-0.512 1.9-0.512 2.705 0 1.316 1.096 2.119 2.412 2.119 3.29 0 4.679-3.361 5.263-4.678L38.264 19.254zM30.003 19.254c-0.292 0.584-1.754 3.801-3.217 3.801 -0.584 0-0.804-0.365-0.804-0.951 0-0.729 0.292-1.898 0.584-2.996l4.604-18.275c-1.169 0.146-2.339 0.293-3.728 0.293h-2.485L24.739 1.93h3.143L23.423 19.4c-0.219 0.805-0.512 1.9-0.512 2.705 0 1.316 1.096 2.119 2.412 2.119 3.29 0 4.679-3.361 5.263-4.678L30.003 19.254zM15.821 6.68L15.821 6.68l-0.731 9.064H9.242L15.821 6.68zM0.397 23.639H6.83l0.146-0.803h-3.07l4.679-6.361h6.434l-0.513 6.361h-2.997l-0.146 0.803h9.21l0.073-0.803h-2.632l1.754-22.078H19.11L2.736 22.836H0.543L0.397 23.639z"/></svg>