<svg xmlns="http://www.w3.org/2000/svg" version="1.1" x="0px" y="0px" width="190px" height="31.5px" viewBox="-0.042 0 190 31.5" enable-background="new -0.042 0 190 31.5" xml:space="preserve"><path d="M97.183 13.825c-0.514-1.39-1.391-5.336-3.655-5.336 -2.412 0-3.801 3.728-4.094 4.604l0.512 0.219c0.366-0.804 1.17-2.997 2.267-2.997 0.658 0 1.39 2.412 1.683 3.29l2.19 6.36c0.221 0.658 0.807 1.901 0.807 2.706 0 1.535-4.095 7.09-7.019 7.09 -0.585 0-0.805-0.365-0.805-1.096 0-0.584-0.512-1.098-1.242-1.098 -0.805 0-1.535 0.514-1.535 1.463 0 1.242 1.169 1.9 2.339 1.9 5.775 0 9.502-8.115 11.258-12.063 1.17-2.631 3.217-8.113 4.238-8.113 0.293 0 0.586 0.438 1.17 0.438 0.877 0 1.463-0.512 1.463-1.314 0-0.805-0.512-1.389-1.389-1.389 -1.607 0-2.412 1.68-3.217 3.508 -1.098 2.34-2.486 5.849-2.998 6.945L97.183 13.825zM88.118 19.38c-0.292 0.585-1.754 3.802-3.217 3.802 -0.804 0-1.169-0.219-1.169-0.951 0-0.512 0.146-1.389 0.438-2.413l2.705-9.941h2.924l0.22-0.803h-2.924l1.022-3.802c-1.243 0.22-2.339 0.22-3.07 0.22l-1.022 3.582h-2.339l-0.221 0.803h2.412l-2.631 9.649c-0.293 0.877-0.512 1.683-0.512 2.414 0 1.9 1.242 2.412 2.704 2.412 3.29 0 4.679-3.362 5.264-4.679L88.118 19.38zM77.812 5.198c1.022 0 1.828-0.804 1.828-1.828 0-1.022-0.806-1.826-1.828-1.826 -1.023 0-1.828 0.804-1.828 1.826C75.983 4.394 76.787 5.198 77.812 5.198M79.2 19.38c-0.293 0.585-1.755 3.802-3.217 3.802 -0.585 0-0.805-0.367-0.805-0.951 0-0.731 0.293-1.901 0.586-2.997l2.705-10.38c-1.17 0.146-2.34 0.292-3.729 0.292h-2.193L72.329 9.95h2.778l-2.486 9.648c-0.219 0.804-0.512 1.9-0.512 2.706 0 1.316 1.097 2.119 2.413 2.119 3.29 0 4.679-3.363 5.264-4.679L79.2 19.38zM69.697 19.38c-0.292 0.585-1.754 3.802-3.216 3.802 -0.805 0-1.17-0.219-1.17-0.951 0-0.512 0.146-1.389 0.438-2.413l2.705-9.941h2.925l0.219-0.803h-2.924l1.023-3.802c-1.243 0.22-2.339 0.22-3.07 0.22l-1.022 3.582h-2.339l-0.219 0.803h2.412l-2.632 9.649c-0.292 0.877-0.512 1.683-0.512 2.414 0 1.9 1.243 2.412 2.705 2.412 3.288 0 4.678-3.362 5.263-4.679L69.697 19.38zM44.55 23.766h2.998l1.974-7.821c0.512-2.121 2.411-6.215 5.848-6.215 0.804 0 1.39 0.438 1.39 1.098 0 0.584-0.293 1.461-0.513 2.412l-1.608 6.286c-0.219 0.804-0.512 1.901-0.512 2.705 0 1.316 1.096 2.121 2.412 2.121 3.29 0 4.678-3.362 5.264-4.679l-0.584-0.293c-0.293 0.586-1.754 3.802-3.218 3.802 -0.584 0-0.804-0.365-0.804-0.949 0-0.731 0.292-1.901 0.585-2.998l1.39-5.483c0.219-0.949 0.512-1.899 0.512-2.924 0-1.535-1.17-2.266-2.924-2.266 -3.217 0-5.19 1.754-6.58 3.509l-0.072-0.073 0.804-3.143c-1.315 0.146-2.558 0.292-4.239 0.292h-1.609L44.843 9.95h2.924L44.55 23.766zM39.14 9.292c1.39 0 2.048 0.804 2.048 2.119 0 3.875-2.925 4.752-5.849 4.752 -0.291 0-0.949 0-1.389-0.146C34.39 14.481 35.851 9.292 39.14 9.292M42.284 19.454c-0.73 1.096-2.705 4.021-5.848 4.021 -2.12 0-3.07-1.461-3.07-3.728 0-1.316 0.219-2.486 0.365-3.07 0.512 0.072 1.097 0.146 1.607 0.146 2.485 0 8.553-0.731 8.553-4.826 0-2.192-1.973-3.582-4.312-3.582 -4.021 0-9.43 4.24-9.43 9.504 0 3.216 2.484 6.36 5.994 6.36 3.728 0 5.921-3.29 6.725-4.46L42.284 19.454zM15.968 20.696c0-1.023 0.293-4.752 1.608-8.261 0.951-2.267 1.974-3.144 3.729-3.144 1.681 0 2.777 1.242 2.777 3.07 0 2.338-1.754 11.257-6.214 11.257C16.772 23.547 15.968 22.451 15.968 20.696M28.761 19.525c-0.293 0.366-1.975 2.998-2.705 2.998 -0.438 0-0.805-0.072-0.805-0.803 0-0.659 0.293-1.536 0.438-2.414l4.459-18.349c-1.17 0.074-2.778 0.293-4.532 0.293h-1.682l-0.146 0.804h3.217l-2.121 8.553c-0.438-0.731-1.314-2.047-3.289-2.047 -4.897 0-8.698 5.19-8.698 9.649 0 3.509 1.899 6.214 4.825 6.214 2.705 0 4.24-2.559 4.75-3.291h0.074c0 1.098 0 2.998 2.047 2.998 2.559 0 4.312-3.291 4.824-4.169L28.761 19.525zM0.397 23.766h9.138l0.146-0.803H6.903l4.459-20.981h2.852l0.146-0.804h-9.21L5.003 1.981h2.852L3.396 22.963H0.617L0.397 23.766z"/></svg>