<svg xmlns="http://www.w3.org/2000/svg" version="1.1" x="0px" y="0px" width="190px" height="31.5px" viewBox="-0.042 0 190 31.5" enable-background="new -0.042 0 190 31.5" xml:space="preserve"><path d="M135.42 22.953c1.9 0.145 4.166 0 4.166 2.191 0 2.779-2.996 4.898-6.65 4.898 -2.561 0-4.898-1.242-4.898-3.654 0-2.34 2.119-3.217 3.145-3.729L135.42 22.953zM132.35 15.057c0-1.535 0.73-5.849 3.289-5.849 1.314 0 2.412 0.586 2.412 2.121 0 1.899-0.805 5.848-3.438 5.848C133.445 17.176 132.35 16.518 132.35 15.057M133.445 20.1c-1.682-0.145-4.02-0.145-4.02-1.535 0-1.021 1.096-1.533 1.68-1.826 0.73 0.438 1.463 1.17 3.729 1.17 2.705 0 4.826-1.463 5.703-4.459 0.291-1.097 0.512-4.095 1.314-4.095 0.658 0 0.512 0.731 1.244 0.731 0.584 0 1.021-0.365 1.021-1.096 0-0.805-0.658-1.098-1.314-1.098 -1.975 0-2.268 2.266-2.486 3.29h-0.072c-0.438-1.243-1.535-2.851-4.531-2.851 -3.438 0-6.143 2.338-6.143 4.971 0 1.607 0.586 2.412 1.098 2.924 -0.949 0.512-2.852 1.317-2.852 3.436 0 1.828 1.463 2.34 2.486 2.705 -0.951 0.365-4.168 1.389-4.168 3.947 0 2.852 2.777 4.459 6.287 4.459 4.68 0 8.334-2.705 8.334-6.799 0-3.508-2.486-3.508-4.166-3.654L133.445 20.1zM109.322 23.682h2.998l1.973-7.821c0.514-2.121 2.412-6.215 5.85-6.215 0.805 0 1.389 0.438 1.389 1.098 0 0.584-0.293 1.461-0.512 2.412l-1.607 6.286c-0.221 0.805-0.512 1.902-0.512 2.705 0 1.316 1.096 2.121 2.412 2.121 3.289 0 4.678-3.361 5.262-4.678l-0.584-0.293c-0.293 0.586-1.754 3.801-3.217 3.801 -0.584 0-0.803-0.365-0.803-0.949 0-0.73 0.291-1.9 0.584-2.998l1.389-5.483c0.219-0.949 0.512-1.899 0.512-2.924 0-1.535-1.17-2.266-2.924-2.266 -3.217 0-5.189 1.754-6.58 3.509l-0.072-0.073 0.805-3.143c-1.314 0.146-2.559 0.292-4.24 0.292h-1.607l-0.219 0.804h2.924L109.322 23.682zM106.982 5.115c1.023 0 1.828-0.804 1.828-1.828 0-1.022-0.805-1.826-1.828-1.826s-1.826 0.804-1.826 1.826C105.156 4.31 105.959 5.115 106.982 5.115M108.445 19.297c-0.293 0.584-1.754 3.801-3.217 3.801 -0.584 0-0.805-0.367-0.805-0.951 0-0.73 0.293-1.9 0.586-2.996l2.703-10.38c-1.17 0.146-2.34 0.292-3.729 0.292h-2.193l-0.219 0.805h2.777l-2.484 9.649c-0.219 0.803-0.512 1.9-0.512 2.705 0 1.316 1.096 2.119 2.412 2.119 3.289 0 4.678-3.363 5.264-4.678L108.445 19.297zM92.657 22.953c1.9 0.145 4.166 0 4.166 2.191 0 2.779-2.998 4.898-6.652 4.898 -2.559 0-4.896-1.242-4.896-3.654 0-2.34 2.119-3.217 3.143-3.729L92.657 22.953zM89.586 15.057c0-1.535 0.73-5.849 3.289-5.849 1.316 0 2.412 0.586 2.412 2.121 0 1.899-0.804 5.848-3.435 5.848C90.682 17.176 89.586 16.518 89.586 15.057M90.682 20.1c-1.682-0.145-4.021-0.145-4.021-1.535 0-1.021 1.096-1.533 1.682-1.826 0.73 0.438 1.463 1.17 3.729 1.17 2.705 0 4.824-1.463 5.701-4.459 0.293-1.097 0.512-4.095 1.316-4.095 0.658 0 0.512 0.731 1.242 0.731 0.584 0 1.023-0.365 1.023-1.096 0-0.805-0.658-1.098-1.316-1.098 -1.973 0-2.266 2.266-2.484 3.29H97.48c-0.439-1.243-1.535-2.851-4.533-2.851 -3.436 0-6.141 2.338-6.141 4.971 0 1.607 0.586 2.412 1.098 2.924 -0.951 0.512-2.852 1.317-2.852 3.436 0 1.828 1.463 2.34 2.484 2.705 -0.949 0.365-4.166 1.389-4.166 3.947 0 2.852 2.777 4.459 6.285 4.459 4.68 0 8.333-2.705 8.333-6.799 0-3.508-2.484-3.508-4.166-3.654L90.682 20.1zM70.141 20.686c0-1.17 0.805-5.411 2.266-9.211 0.658-1.682 1.754-2.339 3.07-2.339 1.607 0 2.777 1.097 2.777 3.217 0 1.899-2.119 11.111-6.215 11.111C70.579 23.463 70.141 22.221 70.141 20.686M82.713 19.59c-0.512 0.877-1.898 3.143-2.924 3.143 -0.512 0-0.658-0.438-0.658-0.949 0-0.439 0.221-1.391 0.367-2.049L82.35 8.916h-2.852l-0.512 1.901c-0.293-0.657-1.098-2.413-3.656-2.413 -3.582 0-8.479 4.68-8.479 9.577 0 3.436 1.754 6.287 4.459 6.287s4.021-1.828 4.752-2.777h0.072c0 0.949 0.072 2.777 2.193 2.777 2.705 0 4.312-3.143 4.896-4.312L82.713 19.59zM50.477 23.682h2.996l1.975-8.042c0.146 0 0.365 0.073 0.512 0.073 0.584 0 0.949-0.073 1.316-0.22 0.291-0.146 0.512-0.364 0.877-0.584 0.512 0.072 1.242 0.365 1.242 1.097 0 1.169-1.098 4.386-1.098 5.921 0 1.389 0.805 2.338 2.777 2.338 2.998 0 4.752-3.582 5.338-5.262l-0.586-0.293c-0.512 1.17-2.119 4.387-3.508 4.387 -0.586 0-0.732-0.586-0.732-1.244 0-0.438 0.074-1.9 0.074-3.143 0-3.217-1.9-3.948-2.998-4.241 0.951-1.096 1.9-3.29 2.998-4.459 0.438-0.512 1.023-0.805 1.461-0.805 0.365 0 0.658 0.146 0.658 0.586 0 0.146-0.512 0.512-0.512 1.168 0 0.805 0.658 1.316 1.389 1.316 1.023 0 1.609-0.585 1.609-1.682 0-1.169-1.172-2.193-2.412-2.193 -1.316 0-2.414 0.512-3.363 1.901 -0.219 0.292-1.975 3.29-2.631 3.946 -0.367 0-0.805 0-1.244 0 -0.219 0-0.584 0.074-0.949 0.293l3.436-13.67c-0.805 0.146-1.975 0.291-3.361 0.291h-2.779l-0.145 0.731h2.924L50.477 23.682zM48.43 19.662c-0.805 1.096-2.852 3.801-5.922 3.801 -1.9 0-3.145-1.242-3.145-4.24 0-0.658 0.439-3.582 1.9-6.871 1.098-2.413 2.559-3.144 4.312-3.144 1.098 0 2.266 0.438 2.266 0.949s-0.803 0.731-0.803 1.608c0 0.95 0.512 1.462 1.461 1.462 1.098 0 1.609-0.804 1.609-1.681 0-1.462-1.9-3.07-4.314-3.07 -5.336 0-9.574 5.117-9.574 9.064 0 4.094 2.412 6.799 6.066 6.799 3.729 0 5.922-2.998 6.727-4.24L48.43 19.662zM21.969 20.686c0-1.17 0.803-5.411 2.266-9.211 0.658-1.682 1.754-2.339 3.07-2.339 1.607 0 2.777 1.097 2.777 3.217 0 1.899-2.121 11.111-6.215 11.111C22.479 23.463 21.969 22.221 21.969 20.686M34.542 19.59c-0.512 0.877-1.9 3.143-2.924 3.143 -0.512 0-0.658-0.438-0.658-0.949 0-0.439 0.219-1.391 0.365-2.049l2.85-10.819h-2.85l-0.512 1.901c-0.293-0.657-1.098-2.413-3.656-2.413 -3.582 0-8.479 4.68-8.479 9.577 0 3.436 1.756 6.287 4.459 6.287 2.705 0 4.021-1.828 4.752-2.777h0.072c0 0.949 0.074 2.777 2.193 2.777 2.705 0 4.312-3.143 4.898-4.312L34.542 19.59zM11.075 1.898h1.316c2.266 0 4.531 0.073 4.531 3.363 0 2.12-0.805 4.605-1.607 5.628 -1.17 1.608-2.631 1.608-4.605 1.608H8.883L11.075 1.898zM0.11 23.682h9.43l0.146-0.803h-3.07l2.121-9.65h2.705c4.02 0 9.137-1.462 9.137-7.019 0-4.824-5.189-5.116-7.822-5.116h-7.82L4.79 1.898h2.852L3.108 22.879H0.331L0.11 23.682z"/></svg>