<svg xmlns="http://www.w3.org/2000/svg" version="1.1" x="0px" y="0px" width="190px" height="31.5px" viewBox="-0.042 0 190 31.5" enable-background="new -0.042 0 190 31.5" xml:space="preserve"><path d="M124.741 23.766h2.998l1.973-7.822c0.514-2.119 2.412-6.213 5.85-6.213 0.803 0 1.389 0.438 1.389 1.098 0 0.584-0.293 1.461-0.512 2.41l-1.609 6.287c-0.219 0.805-0.512 1.9-0.512 2.705 0 1.316 1.098 2.119 2.414 2.119 3.289 0 4.678-3.361 5.262-4.678l-0.584-0.293c-0.293 0.586-1.754 3.803-3.217 3.803 -0.584 0-0.805-0.367-0.805-0.951 0-0.73 0.293-1.9 0.586-2.996l1.389-5.482c0.219-0.951 0.512-1.9 0.512-2.926 0-1.533-1.17-2.266-2.924-2.266 -3.217 0-5.189 1.754-6.58 3.51l-0.072-0.072 0.805-3.145c-1.314 0.146-2.559 0.291-4.24 0.291h-1.607l-0.219 0.805h2.924L124.741 23.766zM112.388 20.695c0-1.021 0.291-4.752 1.607-8.26 0.949-2.268 1.975-3.145 3.729-3.145s2.705 1.098 2.705 2.852c0 1.023-0.293 4.752-1.609 8.26 -0.949 2.268-1.973 3.145-3.729 3.145C113.337 23.547 112.388 22.449 112.388 20.695M115.019 24.277c4.896 0 8.699-5.189 8.699-9.648 0-3.508-2.268-6.213-5.85-6.213 -4.896 0-8.699 5.189-8.699 9.648C109.171 21.572 111.437 24.277 115.019 24.277M106.319 5.197c1.023 0 1.828-0.803 1.828-1.826s-0.805-1.826-1.828-1.826 -1.826 0.803-1.826 1.826S105.296 5.197 106.319 5.197M107.782 19.379c-0.293 0.586-1.754 3.803-3.217 3.803 -0.584 0-0.805-0.367-0.805-0.951 0-0.73 0.293-1.9 0.586-2.998l2.705-10.379c-1.172 0.146-2.342 0.291-3.73 0.291h-2.191l-0.219 0.805h2.777l-2.486 9.65c-0.219 0.803-0.512 1.9-0.512 2.703 0 1.316 1.098 2.121 2.412 2.121 3.291 0 4.68-3.363 5.264-4.68L107.782 19.379zM98.278 19.379c-0.293 0.586-1.754 3.803-3.216 3.803 -0.805 0-1.169-0.221-1.169-0.951 0-0.512 0.146-1.389 0.438-2.412l2.703-9.941h2.926l0.219-0.805h-2.924l1.023-3.801c-1.244 0.219-2.34 0.219-3.07 0.219l-1.022 3.582h-2.339l-0.221 0.805h2.412l-2.632 9.648c-0.292 0.877-0.512 1.684-0.512 2.412 0 1.9 1.243 2.412 2.705 2.412 3.29 0 4.679-3.361 5.263-4.678L98.278 19.379zM77.957 20.695c0-1.021 0.293-4.752 1.608-8.26 0.95-2.268 1.974-3.145 3.729-3.145 1.754 0 2.704 1.098 2.704 2.852 0 1.023-0.292 4.752-1.607 8.26 -0.95 2.268-1.975 3.145-3.729 3.145C78.98 23.547 77.957 22.449 77.957 20.695M80.589 24.277c4.897 0 8.699-5.189 8.699-9.648 0-3.508-2.267-6.213-5.849-6.213 -4.897 0-8.699 5.189-8.699 9.648C74.74 21.572 77.08 24.277 80.589 24.277M47.548 23.766h2.996l1.975-7.822c0.512-2.119 2.412-6.213 5.848-6.213 0.805 0 1.316 0.438 1.316 1.098 0 0.584-0.512 3.361-0.805 4.387l-2.192 8.553h2.997l2.193-8.553c0.512-2.047 3.07-5.484 5.702-5.484 0.804 0 1.39 0.439 1.39 1.098 0 0.586-0.293 1.463-0.513 2.412l-1.608 6.287c-0.219 0.805-0.512 1.9-0.512 2.705 0 1.314 1.098 2.119 2.413 2.119 3.29 0 4.679-3.363 5.263-4.678l-0.584-0.293c-0.293 0.584-1.828 3.801-3.217 3.801 -0.584 0-0.804-0.365-0.804-0.949 0-0.73 0.292-1.9 0.585-2.998l1.389-5.482c0.219-0.949 0.512-1.9 0.512-2.924 0-1.463-1.096-2.266-2.924-2.266 -3.215 0-5.481 2.266-6.651 3.508l-0.073-0.072c0.073-0.293 0.292-0.949 0.292-1.316 0-1.314-1.096-2.119-2.924-2.119 -3.216 0-5.19 1.754-6.579 3.51L52.96 12l0.803-3.145c-1.315 0.146-2.559 0.291-4.239 0.291h-1.608l-0.219 0.805h2.924L47.548 23.766zM35.193 20.695c0-1.021 0.292-4.752 1.608-8.26 0.951-2.268 1.974-3.145 3.729-3.145s2.705 1.098 2.705 2.852c0 1.023-0.292 4.752-1.607 8.26 -0.951 2.268-1.975 3.145-3.729 3.145S35.193 22.449 35.193 20.695M37.753 24.277c4.896 0 8.698-5.189 8.698-9.648 0-3.508-2.267-6.213-5.848-6.213 -4.897 0-8.699 5.189-8.699 9.648C31.976 21.572 34.242 24.277 37.753 24.277M20.28 23.766h2.997l1.608-6.725c0.584-2.412 2.924-6.727 4.459-6.727 0.804 0 0.658 1.389 1.754 1.389s1.681-0.512 1.681-1.535c0-1.096-0.584-1.682-1.681-1.682 -2.924 0-4.825 3.582-5.482 4.68l-0.072-0.072 1.096-4.314c-1.096 0.146-2.119 0.293-3.436 0.293H20.72l-0.146 0.805h3.07L20.28 23.766zM10.997 1.982h1.315c2.266 0 4.532 0.072 4.532 3.361 0 2.121-0.805 4.605-1.608 5.629 -1.17 1.609-2.632 1.609-4.604 1.609H8.804L10.997 1.982zM0.031 23.766h9.431l0.146-0.805h-3.07l2.12-9.648h2.705c4.021 0 9.139-1.463 9.139-7.018 0-4.824-5.191-5.117-7.822-5.117H4.856L4.71 1.982h2.852L3.103 22.961H0.324L0.031 23.766z"/></svg>