<svg xmlns="http://www.w3.org/2000/svg" version="1.1" x="0px" y="0px" width="190px" height="31.5px" viewBox="-0.042 0 190 31.5" enable-background="new -0.042 0 190 31.5" xml:space="preserve"><path d="M137.174 23.727h2.998l1.975-7.822c0.512-2.12 2.412-6.214 5.848-6.214 0.803 0 1.389 0.439 1.389 1.098 0 0.584-0.293 1.463-0.512 2.412l-1.607 6.286c-0.221 0.805-0.514 1.902-0.514 2.705 0 1.314 1.098 2.121 2.414 2.121 3.289 0 4.678-3.363 5.264-4.678l-0.586-0.293c-0.293 0.584-1.754 3.801-3.217 3.801 -0.584 0-0.805-0.365-0.805-0.949 0-0.732 0.293-1.902 0.586-2.998l1.389-5.481c0.221-0.951 0.514-1.9 0.514-2.924 0-1.535-1.17-2.268-2.926-2.268 -3.217 0-5.189 1.754-6.578 3.51l-0.072-0.072 0.803-3.145c-1.314 0.146-2.559 0.293-4.24 0.293h-1.607l-0.219 0.805h2.924L137.174 23.727zM124.893 20.656c0-1.023 0.293-4.752 1.607-8.261 0.951-2.266 1.975-3.143 3.729-3.143 1.756 0 2.705 1.096 2.705 2.85 0 1.023-0.293 4.751-1.607 8.261 -0.951 2.266-1.975 3.143-3.729 3.143S124.893 22.41 124.893 20.656M127.525 24.236c4.896 0 8.697-5.189 8.697-9.648 0-3.509-2.266-6.214-5.848-6.214 -4.896 0-8.699 5.189-8.699 9.649C121.676 21.533 123.943 24.236 127.525 24.236M118.826 5.159c1.023 0 1.826-0.805 1.826-1.828 0-1.025-0.803-1.828-1.826-1.828s-1.828 0.805-1.828 1.828C116.998 4.353 117.803 5.159 118.826 5.159M120.287 19.34c-0.293 0.584-1.754 3.801-3.217 3.801 -0.584 0-0.803-0.365-0.803-0.949 0-0.732 0.291-1.902 0.584-2.998l2.705-10.38c-1.17 0.146-2.34 0.291-3.729 0.291h-2.193l-0.221 0.805h2.779l-2.486 9.649c-0.219 0.803-0.512 1.898-0.512 2.705 0 1.314 1.098 2.119 2.412 2.119 3.291 0 4.68-3.363 5.264-4.68L120.287 19.34zM110.711 19.34c-0.293 0.584-1.754 3.801-3.217 3.801 -0.803 0-1.168-0.219-1.168-0.949 0-0.512 0.146-1.389 0.438-2.414l2.705-9.94h2.924l0.219-0.805h-2.924l1.023-3.801c-1.242 0.219-2.34 0.219-3.07 0.219l-1.023 3.582h-2.338l-0.221 0.805h2.412l-2.633 9.647c-0.291 0.877-0.512 1.682-0.512 2.414 0 1.9 1.244 2.412 2.705 2.412 3.291 0 4.68-3.363 5.264-4.678L110.711 19.34zM89.075 20.729c0-1.17 0.803-5.41 2.266-9.21 0.658-1.682 1.756-2.34 3.07-2.34 1.607 0 2.777 1.098 2.777 3.217 0 1.901-2.119 11.11-6.212 11.11C89.512 23.506 89.075 22.264 89.075 20.729M101.646 19.633c-0.512 0.877-1.9 3.143-2.924 3.143 -0.512 0-0.658-0.439-0.658-0.951 0-0.438 0.219-1.389 0.365-2.047l2.852-10.817H98.43l-0.512 1.898c-0.293-0.656-1.098-2.41-3.654-2.41 -3.582 0-8.48 4.678-8.48 9.575 0 3.436 1.756 6.287 4.459 6.287 2.705 0 4.021-1.828 4.752-2.779h0.074c0 0.951 0.072 2.779 2.191 2.779 2.705 0 4.312-3.145 4.898-4.314L101.646 19.633zM83.958 19.705c-0.805 1.098-2.852 3.801-5.922 3.801 -1.9 0-3.143-1.242-3.143-4.24 0-0.658 0.438-3.582 1.898-6.872 1.098-2.412 2.561-3.143 4.312-3.143 1.098 0 2.268 0.438 2.268 0.951 0 0.512-0.805 0.73-0.805 1.607 0 0.949 0.512 1.461 1.463 1.461 1.096 0 1.607-0.803 1.607-1.68 0-1.463-1.9-3.07-4.312-3.07 -5.336 0-9.576 5.117-9.576 9.063 0 4.094 2.412 6.799 6.066 6.799 3.729 0 5.922-2.998 6.727-4.24L83.958 19.705zM68.971 5.159c1.021 0 1.826-0.805 1.826-1.828 0-1.025-0.805-1.828-1.826-1.828 -1.023 0-1.828 0.805-1.828 1.828C67.143 4.353 67.948 5.159 68.971 5.159M70.434 19.34c-0.293 0.584-1.756 3.801-3.217 3.801 -0.586 0-0.805-0.365-0.805-0.949 0-0.732 0.291-1.902 0.584-2.998l2.705-10.38c-1.17 0.146-2.34 0.291-3.729 0.291H63.78l-0.219 0.805h2.777l-2.559 9.503c-0.221 0.805-0.512 1.9-0.512 2.705 0 1.316 1.096 2.119 2.412 2.119 3.289 0 4.678-3.361 5.264-4.678L70.434 19.34zM61.661 19.34c-0.291 0.584-1.754 3.801-3.217 3.801 -0.584 0-0.803-0.365-0.803-0.949 0-0.732 0.291-1.902 0.584-2.998l4.605-18.202c-1.17 0.146-2.34 0.293-3.729 0.293h-2.486l-0.219 0.803h3.143l-4.459 17.472c-0.219 0.803-0.512 1.898-0.512 2.705 0 1.314 1.098 2.119 2.412 2.119 3.291 0 4.68-3.363 5.264-4.68L61.661 19.34zM41.338 20.582c0-1.242 0.732-6.651 2.633-9.284 0.586-0.73 2.047-2.119 3.654-2.119 1.316 0 2.121 1.096 2.121 2.852 0 1.021 0 3.507-1.607 8.259 -0.951 2.266-1.975 3.145-3.73 3.145C42.51 23.506 41.338 22.629 41.338 20.582M45.725 0.919C44.409 1.138 43.02 1.21 41.338 1.21h-1.607l-0.146 0.805h2.777l-3.363 14.181c-0.219 0.803-0.656 2.705-0.656 3.801 0 2.266 1.973 4.312 5.115 4.312 5.41 0 9.504-5.482 9.504-9.648 0-3.655-1.9-6.212-4.824-6.212 -2.633 0-4.021 1.754-4.824 2.631l-0.072-0.072L45.725 0.919zM36.879 19.34c-0.291 0.584-1.754 3.801-3.217 3.801 -0.584 0-0.803-0.365-0.803-0.949 0-0.732 0.145-1.756 0.291-2.414l2.559-10.673h-2.996l-1.975 7.823c-0.512 2.119-2.412 6.213-5.848 6.213 -0.805 0-1.316-0.512-1.316-1.535 0-0.658 0.293-1.682 0.512-2.484l2.486-10.087h-5.775l-0.219 0.803h2.705l-2.34 9.21c-0.146 0.658-0.365 1.682-0.365 2.561 0 1.898 1.096 2.705 2.852 2.705 3.217 0 5.117-1.609 6.506-3.51l0.072 0.072c-0.072 0.365-0.145 0.877-0.145 1.316 0 1.314 1.096 2.121 2.412 2.121 3.289 0 4.678-3.363 5.264-4.678L36.879 19.34zM11.075 1.942h1.316c2.266 0 4.531 0.072 4.531 3.361 0 2.121-0.805 4.605-1.607 5.629 -1.17 1.609-2.631 1.609-4.605 1.609H8.883L11.075 1.942zM0.11 23.727h9.43l0.146-0.805h-3.07l2.121-9.649h2.705c4.02 0 9.137-1.461 9.137-7.018 0-4.824-5.189-5.117-7.822-5.117h-7.82L4.79 1.942h2.852L3.108 22.922H0.331L0.11 23.727z"/></svg>