<svg xmlns="http://www.w3.org/2000/svg" version="1.1" x="0px" y="0px" width="190px" height="31.5px" viewBox="-0.042 0 190 31.5" enable-background="new -0.042 0 190 31.5" xml:space="preserve"><path d="M91.48 19.285c-0.292 0.584-1.754 3.801-3.216 3.801 -0.805 0-1.169-0.219-1.169-0.949 0-0.512 0.146-1.389 0.438-2.414l2.705-9.94h2.924l0.219-0.805h-2.924l1.023-3.801c-1.243 0.219-2.339 0.219-3.07 0.219l-1.022 3.582h-2.34l-0.219 0.805h2.412l-2.632 9.647c-0.292 0.877-0.512 1.682-0.512 2.414 0 1.9 1.242 2.412 2.704 2.412 3.29 0 4.679-3.363 5.264-4.678L91.48 19.285zM66.334 23.672h2.997l1.975-7.896c0.512-2.118 2.412-6.212 5.848-6.212 0.804 0 1.389 0.438 1.389 1.096 0 0.586-0.292 1.463-0.511 2.412l-1.608 6.286c-0.219 0.805-0.512 1.9-0.512 2.705 0 1.316 1.097 2.121 2.412 2.121 3.29 0 4.679-3.363 5.264-4.678l-0.585-0.293c-0.292 0.586-1.754 3.801-3.216 3.801 -0.585 0-0.804-0.365-0.804-0.949 0-0.73 0.292-1.9 0.584-2.998l1.389-5.481c0.219-0.951 0.512-1.9 0.512-2.924 0-1.535-1.169-2.266-2.924-2.266 -3.216 0-5.189 1.754-6.579 3.508v-0.072l0.805-3.143c-1.315 0.145-2.56 0.291-4.24 0.291H66.92L66.7 9.784h2.924L66.334 23.672zM60.924 9.198c1.39 0 2.048 0.803 2.048 2.119 0 3.874-2.925 4.751-5.849 4.751 -0.292 0-0.95 0-1.389-0.145C56.173 14.387 57.635 9.198 60.924 9.198M64.068 19.357c-0.731 1.098-2.705 4.021-5.848 4.021 -2.12 0-3.07-1.461-3.07-3.729 0-1.314 0.219-2.484 0.366-3.07 0.512 0.072 1.096 0.146 1.607 0.146 2.485 0 8.553-0.73 8.553-4.825 0-2.193-1.974-3.582-4.312-3.582 -4.021 0-9.43 4.24-9.43 9.503 0 3.217 2.484 6.359 5.994 6.359 3.728 0 5.921-3.291 6.725-4.459L64.068 19.357zM49.886 19.65c-0.804 1.098-2.851 3.801-5.921 3.801 -1.899 0-3.143-1.242-3.143-4.24 0-0.658 0.438-3.582 1.9-6.872 1.097-2.412 2.559-3.143 4.312-3.143 1.097 0 2.266 0.438 2.266 0.951 0 0.512-0.804 0.73-0.804 1.607 0 0.949 0.512 1.461 1.462 1.461 1.097 0 1.608-0.803 1.608-1.68 0-1.463-1.9-3.07-4.313-3.07 -5.336 0-9.576 5.117-9.576 9.063 0 4.094 2.413 6.799 6.067 6.799 3.729 0 5.921-2.998 6.727-4.24L49.886 19.65zM31.831 9.198c1.39 0 2.046 0.803 2.046 2.119 0 3.874-2.924 4.751-5.848 4.751 -0.292 0-0.951 0-1.389-0.145C27.079 14.387 28.541 9.198 31.831 9.198M34.975 19.357c-0.731 1.098-2.705 4.021-5.849 4.021 -2.12 0-3.069-1.461-3.069-3.729 0-1.314 0.22-2.484 0.365-3.07 0.513 0.072 1.098 0.146 1.608 0.146 2.485 0 8.553-0.73 8.553-4.825 0-2.193-1.974-3.582-4.312-3.582 -4.021 0-9.431 4.24-9.431 9.503 0 3.217 2.485 6.359 5.994 6.359 3.729 0 5.921-3.291 6.727-4.459L34.975 19.357zM1.128 23.672h9.139l0.146-0.805H7.634l2.34-11.11h1.023c1.169 0 2.632 0.146 3.437 2.338 0.512 1.536 0.22 4.825 0.877 7.019 0.512 1.607 1.974 2.852 3.946 2.852 1.17 0 1.901-0.293 2.413-0.439l-0.146-0.73c-0.292 0.074-0.95 0.219-1.315 0.219 -0.804 0-1.607-0.584-1.607-2.484 0-3.291 0-5.264-1.462-6.944 -1.023-1.096-2.413-1.535-3.875-1.975v-0.074c2.411-0.145 7.821-1.023 7.821-5.775 0-4.604-5.117-4.678-7.676-4.678H5.587L5.441 1.888h3.144L4.126 22.867H1.274L1.128 23.672zM12.093 1.815h1.097c1.9 0 4.24 0 4.24 3.361 0 4.826-2.633 5.775-6.067 5.775h-1.243L12.093 1.815z"/></svg>