<svg xmlns="http://www.w3.org/2000/svg" version="1.1" x="0px" y="0px" width="190px" height="31.5px" viewBox="-0.042 0 190 31.5" enable-background="new -0.042 0 190 31.5" xml:space="preserve"><path d="M103.986 9.212c1.389 0 2.047 0.803 2.047 2.119 0 3.875-2.924 4.752-5.848 4.752 -0.293 0-0.951 0-1.391-0.146C99.162 14.401 100.697 9.212 103.986 9.212M107.129 19.372c-0.73 1.096-2.705 4.021-5.848 4.021 -2.119 0-3.07-1.463-3.07-3.729 0-1.316 0.221-2.486 0.365-3.07 0.512 0.072 1.098 0.145 1.609 0.145 2.484 0 8.553-0.73 8.553-4.824 0-2.191-1.975-3.58-4.314-3.58 -4.02 0-9.429 4.238-9.429 9.502 0 3.217 2.486 6.359 5.994 6.359 3.73 0 5.922-3.289 6.727-4.459L107.129 19.372zM86.735 22.954c1.9 0.146 4.166 0 4.166 2.191 0 2.779-2.996 4.898-6.652 4.898 -2.559 0-4.896-1.242-4.896-3.654 0-2.34 2.121-3.217 3.145-3.73L86.735 22.954zM83.665 15.06c0-1.535 0.73-5.848 3.289-5.848 1.316 0 2.412 0.584 2.412 2.119 0 1.9-0.803 5.848-3.436 5.848C84.688 17.179 83.665 16.521 83.665 15.06M84.688 20.103c-1.682-0.145-4.021-0.145-4.021-1.535 0-1.021 1.098-1.535 1.682-1.826 0.73 0.438 1.463 1.17 3.729 1.17 2.705 0 4.824-1.463 5.701-4.461 0.293-1.096 0.512-4.092 1.316-4.092 0.656 0 0.512 0.73 1.242 0.73 0.584 0 1.023-0.365 1.023-1.098 0-0.805-0.658-1.098-1.316-1.098 -1.973 0-2.266 2.268-2.484 3.291h-0.072c-0.439-1.244-1.535-2.852-4.533-2.852 -3.436 0-6.141 2.34-6.141 4.971 0 1.609 0.586 2.412 1.098 2.924 -0.951 0.512-2.852 1.316-2.852 3.438 0 1.826 1.463 2.338 2.484 2.705 -0.949 0.363-4.166 1.389-4.166 3.945 0 2.852 2.777 4.459 6.285 4.459 4.68 0 8.334-2.705 8.334-6.797 0-3.51-2.484-3.51-4.166-3.656L84.688 20.103zM64.147 20.688c0-1.17 0.803-5.41 2.266-9.211 0.658-1.682 1.754-2.34 3.07-2.34 1.607 0 2.777 1.098 2.777 3.217 0 1.9-2.119 11.111-6.215 11.111C64.659 23.466 64.147 22.224 64.147 20.688M76.719 19.591c-0.512 0.877-1.9 3.145-2.924 3.145 -0.512 0-0.658-0.438-0.658-0.951 0-0.438 0.221-1.389 0.365-2.047l2.852-10.818h-2.852l-0.512 1.9c-0.293-0.656-1.096-2.412-3.654-2.412 -3.582 0-8.479 4.68-8.479 9.576 0 3.438 1.754 6.287 4.459 6.287 2.703 0 4.02-1.828 4.75-2.779h0.074c0 0.951 0.072 2.779 2.191 2.779 2.705 0 4.312-3.145 4.898-4.312L76.719 19.591zM43.385 23.685h2.996l1.975-7.82c0.512-2.121 2.414-6.215 5.85-6.215 0.805 0 1.389 0.439 1.389 1.098 0 0.586-0.291 1.463-0.512 2.412l-1.607 6.287c-0.221 0.805-0.514 1.9-0.514 2.703 0 1.316 1.098 2.121 2.412 2.121 3.291 0 4.68-3.363 5.266-4.68L60.053 19.3c-0.293 0.584-1.754 3.801-3.217 3.801 -0.584 0-0.805-0.365-0.805-0.951 0-0.729 0.293-1.898 0.586-2.996l1.389-5.482c0.221-0.949 0.512-1.9 0.512-2.924 0-1.535-1.168-2.268-2.924-2.268 -3.217 0-5.189 1.756-6.578 3.51l-0.074-0.072 0.805-3.145c-1.314 0.146-2.559 0.293-4.24 0.293h-1.607L43.68 9.868h2.924L43.385 23.685zM35.637 22.954c1.9 0.146 4.166 0 4.166 2.191 0 2.779-2.996 4.898-6.652 4.898 -2.559 0-4.896-1.242-4.896-3.654 0-2.34 2.119-3.217 3.145-3.73L35.637 22.954zM32.567 15.06c0-1.535 0.73-5.848 3.289-5.848 1.314 0 2.412 0.584 2.412 2.119 0 1.9-0.805 5.848-3.436 5.848C33.59 17.179 32.567 16.521 32.567 15.06M33.59 20.103c-1.682-0.145-4.02-0.145-4.02-1.535 0-1.021 1.096-1.535 1.68-1.826 0.732 0.438 1.463 1.17 3.73 1.17 2.703 0 4.824-1.463 5.701-4.461 0.293-1.096 0.512-4.092 1.314-4.092 0.658 0 0.514 0.73 1.242 0.73 0.586 0 1.023-0.365 1.023-1.098 0-0.805-0.656-1.098-1.314-1.098 -1.975 0-2.266 2.268-2.486 3.291h-0.072c-0.438-1.244-1.535-2.852-4.531-2.852 -3.438 0-6.141 2.34-6.141 4.971 0 1.609 0.584 2.412 1.096 2.924 -0.949 0.512-2.852 1.316-2.852 3.438 0 1.826 1.463 2.338 2.486 2.705 -0.951 0.363-4.168 1.389-4.168 3.945 0 2.852 2.779 4.459 6.287 4.459 4.678 0 8.334-2.705 8.334-6.797 0-3.51-2.486-3.51-4.168-3.656L33.59 20.103zM24.454 5.118c1.023 0 1.826-0.805 1.826-1.826 0-1.023-0.803-1.828-1.826-1.828s-1.828 0.805-1.828 1.828C22.625 4.313 23.43 5.118 24.454 5.118M25.915 19.3c-0.293 0.584-1.754 3.801-3.217 3.801 -0.584 0-0.803-0.365-0.803-0.951 0-0.729 0.291-1.898 0.584-2.996l2.705-10.381c-1.17 0.146-2.34 0.293-3.729 0.293h-2.193l-0.221 0.803h2.779l-2.486 9.65c-0.219 0.805-0.512 1.9-0.512 2.705 0 1.314 1.098 2.119 2.412 2.119 3.291 0 4.68-3.363 5.264-4.68L25.915 19.3zM0.987 23.685h0.586l1.973-1.754c1.098 1.17 2.193 2.34 5.338 2.34 4.604 0 7.529-3.803 7.529-7.604 0-3.436-1.682-4.605-3.729-5.92 -2.926-1.828-5.85-2.705-5.85-5.338 0-2.266 1.975-4.021 4.387-4.021 2.924 0 4.824 1.902 4.824 5.045 0 0.293-0.072 0.658-0.072 0.949h0.805l1.314-6.285h-0.512l-1.463 1.535c-0.803-0.732-2.119-1.975-4.604-1.975 -4.166 0-6.727 3.145-6.727 6.141 0 3.143 1.17 4.387 3.145 5.701 2.484 1.682 6.506 3.07 6.506 6.215 0 2.924-2.631 4.822-5.336 4.822 -4.605 0-5.775-4.311-5.85-7.09H2.596L0.987 23.685z"/></svg>