<svg xmlns="http://www.w3.org/2000/svg" version="1.1" x="0px" y="0px" width="190px" height="31.5px" viewBox="-0.042 0 190 31.5" enable-background="new -0.042 0 190 31.5" xml:space="preserve"><path d="M185.122 9.29c1.391 0 2.047 0.803 2.047 2.119 0 3.874-2.924 4.751-5.848 4.751 -0.293 0-0.951 0-1.389-0.145C180.298 14.479 181.833 9.29 185.122 9.29M188.267 19.449c-0.732 1.098-2.705 4.021-5.85 4.021 -2.121 0-3.07-1.461-3.07-3.729 0-1.314 0.221-2.484 0.365-3.07 0.514 0.072 1.098 0.146 1.607 0.146 2.486 0 8.555-0.73 8.555-4.825 0-2.193-1.975-3.582-4.312-3.582 -4.021 0-9.432 4.24-9.432 9.503 0 3.217 2.486 6.359 5.994 6.359 3.729 0 5.922-3.291 6.727-4.459L188.267 19.449zM174.085 19.742c-0.805 1.098-2.852 3.801-5.922 3.801 -1.9 0-3.143-1.242-3.143-4.24 0-0.658 0.438-3.582 1.898-6.872 1.098-2.412 2.561-3.143 4.312-3.143 1.098 0 2.268 0.438 2.268 0.951 0 0.512-0.805 0.73-0.805 1.607 0 0.949 0.512 1.461 1.463 1.461 1.096 0 1.607-0.803 1.607-1.68 0-1.463-1.9-3.07-4.312-3.07 -5.336 0-9.576 5.117-9.576 9.063 0 4.094 2.412 6.799 6.066 6.799 3.729 0 5.922-2.998 6.727-4.24L174.085 19.742zM147.622 20.766c0-1.17 0.805-5.41 2.268-9.21 0.656-1.682 1.754-2.34 3.068-2.34 1.607 0 2.777 1.098 2.777 3.217 0 1.901-2.119 11.11-6.213 11.11C148.134 23.543 147.622 22.301 147.622 20.766M160.194 19.67c-0.512 0.877-1.9 3.143-2.924 3.143 -0.512 0-0.658-0.439-0.658-0.951 0-0.438 0.221-1.389 0.367-2.047l2.85-10.817h-2.85l-0.512 1.898c-0.295-0.656-1.098-2.41-3.656-2.41 -3.582 0-8.479 4.678-8.479 9.575 0 3.436 1.754 6.287 4.459 6.287 2.703 0 4.021-1.828 4.75-2.779h0.074c0 0.951 0.072 2.779 2.193 2.779 2.705 0 4.311-3.145 4.896-4.314L160.194 19.67zM145.282 9.802l0.219-0.805h-3.215c0.291-1.316 1.242-7.676 4.896-7.676 0.658 0 1.244 0.221 1.244 0.512 0 0.439-0.732 0.805-0.732 1.535 0 0.951 0.512 1.389 1.535 1.389 0.877 0 1.463-0.73 1.463-1.607 0-1.316-1.389-2.631-3.582-2.631 -5.191 0-7.383 6.799-7.896 8.406h-3.143l-0.146 0.803h3.217c-1.314 5.118-1.535 8.772-3.145 15.206 -0.219 0.877-1.389 5.117-3.873 5.117 -0.365 0-0.586-0.293-0.586-0.586 0-0.219 0.146-0.512 0.146-0.877 0-0.805-0.512-1.314-1.389-1.314 -1.023 0-1.607 0.512-1.607 1.535 0 1.389 1.168 2.047 2.703 2.047 3.803 0 6.215-4.752 6.727-5.848 2.484-5.117 3.582-13.231 4.021-15.278h3.143V9.802L145.282 9.802zM123.499 23.764h2.996l1.609-6.727c0.584-2.412 2.924-6.726 4.459-6.726 0.803 0 0.658 1.391 1.754 1.391s1.682-0.514 1.682-1.535c0-1.096-0.586-1.682-1.682-1.682 -2.924 0-4.824 3.582-5.482 4.68l-0.072-0.074 1.096-4.312c-1.096 0.146-2.119 0.293-3.436 0.293h-2.484l-0.146 0.803h3.07L123.499 23.764zM117.431 9.29c1.389 0 2.047 0.803 2.047 2.119 0 3.874-2.924 4.751-5.85 4.751 -0.291 0-0.949 0-1.389-0.145C112.679 14.479 114.142 9.29 117.431 9.29M120.575 19.449c-0.73 1.098-2.705 4.021-5.85 4.021 -2.119 0-3.07-1.461-3.07-3.729 0-1.314 0.221-2.484 0.367-3.07 0.512 0.072 1.096 0.146 1.605 0.146 2.486 0 8.555-0.73 8.555-4.825 0-2.193-1.975-3.582-4.312-3.582 -4.021 0-9.43 4.24-9.43 9.503 0 3.217 2.484 6.359 5.994 6.359 3.729 0 5.92-3.291 6.725-4.459L120.575 19.449zM106.468 19.377c-0.295 0.584-1.756 3.801-3.219 3.801 -0.803 0-1.17-0.219-1.17-0.949 0-0.512 0.146-1.389 0.439-2.414l2.705-9.94h2.924l0.219-0.805h-2.924l1.023-3.801c-1.242 0.219-2.34 0.219-3.07 0.219l-1.023 3.582h-2.34l-0.219 0.805h2.412l-2.631 9.647c-0.293 0.877-0.514 1.682-0.514 2.414 0 1.9 1.244 2.412 2.705 2.412 3.289 0 4.68-3.363 5.264-4.678L106.468 19.377zM81.247 23.764h2.997l1.975-7.822c0.512-2.12 2.411-6.214 5.848-6.214 0.805 0 1.389 0.439 1.389 1.098 0 0.584-0.292 1.463-0.512 2.412l-1.607 6.286c-0.22 0.805-0.512 1.902-0.512 2.705 0 1.314 1.096 2.121 2.412 2.121 3.288 0 4.679-3.363 5.263-4.678l-0.584-0.293c-0.293 0.584-1.756 3.801-3.217 3.801 -0.585 0-0.804-0.365-0.804-0.949 0-0.732 0.292-1.902 0.584-2.998l1.39-5.481c0.219-0.951 0.512-1.9 0.512-2.924 0-1.535-1.17-2.268-2.925-2.268 -3.216 0-5.188 1.754-6.579 3.51l-0.071-0.072 0.804-3.145c-1.315 0.146-2.559 0.293-4.24 0.293h-1.389L81.761 9.95h2.924L81.247 23.764zM69.185 23.764h9.138l0.146-0.805H75.69l4.459-20.979H83l0.146-0.805h-9.212l-0.146 0.805h2.851l-4.459 20.979h-2.777L69.185 23.764zM49.96 23.764h2.996l1.608-6.727c0.585-2.412 2.924-6.726 4.459-6.726 0.804 0 0.657 1.391 1.754 1.391s1.683-0.514 1.683-1.535c0-1.096-0.586-1.682-1.683-1.682 -2.924 0-4.825 3.582-5.481 4.68l-0.074-0.074 1.098-4.312c-1.098 0.146-2.12 0.293-3.436 0.293h-2.486l-0.146 0.803h3.07L49.96 23.764zM43.892 9.29c1.39 0 2.048 0.803 2.048 2.119 0 3.874-2.925 4.751-5.849 4.751 -0.291 0-0.949 0-1.389-0.145C39.067 14.479 40.603 9.29 43.892 9.29M47.035 19.449c-0.731 1.098-2.705 4.021-5.848 4.021 -2.12 0-3.07-1.461-3.07-3.729 0-1.314 0.22-2.484 0.366-3.07 0.512 0.072 1.096 0.146 1.607 0.146 2.485 0 8.554-0.73 8.554-4.825 0-2.193-1.974-3.582-4.312-3.582 -4.021 0-9.43 4.24-9.43 9.503 0 3.217 2.485 6.359 5.994 6.359 3.728 0 5.921-3.291 6.725-4.459L47.035 19.449zM26.714 24.273c3.215 0 5.92-1.9 5.92-4.824 0-2.266-1.17-3.289-2.484-4.312 -1.682-1.243-3.729-2.339-3.729-3.728 0-1.609 1.9-2.121 3.069-2.121 0.804 0 1.901 0.146 1.901 0.658 0 0.365-0.512 0.805-0.512 1.316 0 0.73 0.512 1.316 1.315 1.316 1.022 0 1.462-0.658 1.462-1.463 0-1.682-1.975-2.486-4.167-2.486 -2.778 0-5.336 2.047-5.336 4.459 0 2.339 2.192 3.655 4.021 4.897 1.17 0.877 2.267 1.682 2.267 3.07 0 1.828-1.827 2.631-3.509 2.631 -1.243 0-2.997-0.291-2.997-1.242 0-0.367 0.512-0.877 0.512-1.389 0-0.732-0.584-1.244-1.243-1.244 -1.023 0-1.535 0.732-1.535 1.389C21.597 22.887 23.57 24.273 26.714 24.273M21.597 1.979h2.338l0.146-0.805h-6.214l-0.146 0.805h2.924l-2.924 13.743c-0.512 2.338-1.098 7.383-5.922 7.383 -2.559 0-4.312-1.316-4.312-4.168 0-1.096 0.365-3.363 0.512-4.312l2.778-12.72h2.705l0.146-0.805H4.564L4.419 1.905h2.704L4.491 14.114c-0.292 1.46-0.658 2.923-0.658 4.604 0 2.998 3.143 5.555 7.237 5.555 5.921 0 6.798-4.604 7.383-7.383L21.597 1.979z"/></svg>