<svg xmlns="http://www.w3.org/2000/svg" version="1.1" x="0px" y="0px" width="190px" height="31.5px" viewBox="-0.042 0 190 31.5" enable-background="new -0.042 0 190 31.5" xml:space="preserve"><path d="M97.255 9.166c1.391 0 2.049 0.803 2.049 2.119 0 3.875-2.926 4.752-5.85 4.752 -0.292 0-0.95 0-1.389-0.146C92.504 14.355 93.966 9.166 97.255 9.166M100.399 19.326c-0.732 1.096-2.705 4.021-5.85 4.021 -2.119 0-3.069-1.463-3.069-3.729 0-1.316 0.22-2.486 0.366-3.07 0.512 0.072 1.096 0.145 1.606 0.145 2.485 0 8.554-0.73 8.554-4.824 0-2.191-1.975-3.58-4.312-3.58 -4.021 0-9.43 4.238-9.43 9.502 0 3.217 2.484 6.359 5.993 6.359 3.729 0 5.921-3.289 6.726-4.459L100.399 19.326zM86.291 19.254c-0.293 0.584-1.755 3.801-3.217 3.801 -0.804 0-1.17-0.219-1.17-0.951 0-0.512 0.146-1.389 0.438-2.412l2.705-9.939h2.925l0.22-0.807h-2.924l1.022-3.801c-1.243 0.219-2.34 0.219-3.07 0.219l-1.022 3.582h-2.412l-0.22 0.807h2.412L79.345 19.4c-0.291 0.877-0.512 1.682-0.512 2.412 0 1.9 1.243 2.412 2.705 2.412 3.29 0 4.679-3.363 5.264-4.68L86.291 19.254zM75.983 5.072c1.023 0 1.828-0.805 1.828-1.826 0-1.023-0.805-1.828-1.828-1.828s-1.828 0.805-1.828 1.828C74.155 4.268 74.96 5.072 75.983 5.072M77.445 19.254c-0.292 0.584-1.754 3.801-3.216 3.801 -0.585 0-0.805-0.365-0.805-0.951 0-0.729 0.293-1.898 0.586-2.996l2.705-10.381c-1.17 0.146-2.34 0.293-3.729 0.293h-2.193l-0.219 0.803h2.777l-2.485 9.65c-0.219 0.805-0.512 1.9-0.512 2.705 0 1.314 1.097 2.119 2.413 2.119 3.289 0 4.678-3.363 5.263-4.68L77.445 19.254zM61.729 24.15c3.216 0 5.921-1.898 5.921-4.822 0-2.268-1.169-3.291-2.485-4.314 -1.681-1.242-3.728-2.338-3.728-3.727 0-1.609 1.899-2.121 3.069-2.121 0.805 0 1.9 0.146 1.9 0.656 0 0.367-0.512 0.807-0.512 1.316 0 0.73 0.512 1.316 1.316 1.316 1.022 0 1.461-0.658 1.461-1.463 0-1.682-1.974-2.484-4.166-2.484 -2.778 0-5.336 2.047-5.336 4.459 0 2.34 2.192 3.654 4.021 4.898 1.169 0.877 2.267 1.68 2.267 3.068 0 1.828-1.828 2.631-3.51 2.631 -1.243 0-2.997-0.291-2.997-1.24 0-0.367 0.513-0.879 0.513-1.391 0-0.73-0.586-1.242-1.244-1.242 -1.022 0-1.535 0.73-1.535 1.389C56.612 22.762 58.585 24.15 61.729 24.15M44.185 20.496c0-1.242 0.73-6.652 2.632-9.283 0.584-0.732 2.047-2.121 3.655-2.121 1.315 0 2.119 1.098 2.119 2.852 0 1.023 0 3.51-1.607 8.262 -0.95 2.266-1.975 3.143-3.729 3.143C45.354 23.42 44.185 22.543 44.185 20.496M48.571 0.832c-1.316 0.219-2.705 0.293-4.387 0.293h-1.607l-0.146 0.803h2.779l-3.363 14.182c-0.219 0.805-0.658 2.705-0.658 3.803 0 2.266 1.974 4.312 5.117 4.312 5.408 0 9.502-5.482 9.502-9.648 0-3.656-1.9-6.215-4.824-6.215 -2.633 0-4.021 1.756-4.825 2.633l-0.073-0.074L48.571 0.832zM35.048 9.166c1.389 0 2.047 0.803 2.047 2.119 0 3.875-2.924 4.752-5.849 4.752 -0.292 0-0.95 0-1.389-0.146C30.222 14.355 31.757 9.166 35.048 9.166M38.19 19.326c-0.73 1.096-2.705 4.021-5.848 4.021 -2.121 0-3.07-1.463-3.07-3.729 0-1.316 0.219-2.486 0.365-3.07 0.513 0.072 1.097 0.145 1.608 0.145 2.485 0 8.554-0.73 8.554-4.824 0-2.191-1.975-3.58-4.312-3.58 -4.021 0-9.43 4.238-9.43 9.502 0 3.217 2.484 6.359 5.994 6.359 3.728 0 5.92-3.289 6.726-4.459L38.19 19.326zM18.673 1.855h3.436L18.16 7.338l-0.073-0.072L18.673 1.855zM10.558 1.855h4.605l-0.658 8.846 -5.336 7.455 -0.072-0.072L10.558 1.855zM5.149 23.932h0.804l8.407-11.404 0.072 0.074 -1.022 11.33h0.804L30.442 1.855h2.047l0.146-0.805h-5.849l-0.146 0.805h2.705L17.357 18.23l-0.073-0.074 0.877-9.137 5.189-7.164h1.975l0.073-0.805H4.638L4.419 1.855H7.05L5.149 23.932z"/></svg>