<?xml version="1.0" encoding="utf-8"?>
<!-- Generator: Adobe Illustrator 16.0.0, SVG Export Plug-In . SVG Version: 6.00 Build 0)  -->
<!DOCTYPE svg PUBLIC "-//W3C//DTD SVG 1.1//EN" "http://www.w3.org/Graphics/SVG/1.1/DTD/svg11.dtd">
<svg version="1.1" id="Layer_1" xmlns="http://www.w3.org/2000/svg" xmlns:xlink="http://www.w3.org/1999/xlink" x="0px" y="0px"
	 width="612px" height="55px" viewBox="0 0 612 55" enable-background="new 0 0 612 55" xml:space="preserve">
<g>
	<g>
		<path d="M546.818,42.94h4.678l3.191-11.909c0.85-3.402,3.613-9.571,8.932-9.571c1.276,0,2.128,0.639,2.128,1.702
			c0,1.062-0.852,5.104-1.276,6.805l-3.403,13.188h4.68l3.4-13.188c0.852-3.189,4.893-8.294,8.721-8.294
			c1.276,0,2.126,0.638,2.126,1.702c0,1.063-0.426,2.338-0.85,3.402l-2.553,9.57c-0.426,1.276-0.85,2.979-0.85,4.253
			c0,2.127,1.702,3.404,3.615,3.404c5.104,0,7.019-5.105,8.083-7.02l-1.064-0.425c-0.426,0.852-2.765,5.743-5.103,5.743
			c-0.854,0-1.279-0.427-1.279-1.49c0-1.276,0.426-2.977,1.064-4.68l2.128-8.293c0.425-1.489,0.849-2.977,0.849-4.679
			c0-2.341-1.7-3.404-4.678-3.404c-5.104,0-8.295,3.404-9.997,5.318l0,0c0.213-0.427,0.428-1.49,0.428-2.127
			c0-2.128-1.702-3.403-4.469-3.403c-5.103,0-7.867,2.765-9.995,5.318l0,0l1.276-4.893c-2.126,0.213-4.041,0.425-6.38,0.425h-2.553
			l-0.211,1.276h4.465L546.818,42.94z M527.89,38.049c0-1.701,0.426-7.231,2.552-12.761c1.489-3.403,3.189-4.892,5.741-4.892
			c2.767,0,4.254,1.702,4.254,4.468c0,1.7-0.426,7.23-2.552,12.76c-1.489,3.402-3.189,4.891-5.528,4.891
			C529.377,42.728,527.89,41.026,527.89,38.049 M531.931,43.579c7.444,0,13.398-7.87,13.398-14.887c0-5.106-3.403-9.571-8.934-9.571
			c-7.444,0-13.398,7.868-13.398,14.888C522.997,39.537,526.4,43.579,531.931,43.579 M519.808,36.772
			c-1.277,1.701-4.467,5.742-8.934,5.742c-2.978,0-4.893-1.914-4.893-6.381c0-1.062,0.641-5.316,2.979-10.421
			c1.702-3.614,4.041-4.892,6.806-4.892c1.702,0,3.402,0.639,3.402,1.489c0,0.852-1.274,1.275-1.274,2.554
			c0,1.487,0.849,2.339,2.339,2.339c1.702,0,2.551-1.275,2.551-2.765c0-2.34-2.977-4.893-6.805-4.893
			c-8.295,0-14.675,7.869-14.675,13.612c0,6.168,3.402,10.421,9.358,10.421c5.954,0,9.145-4.68,10.208-6.381L519.808,36.772z
			 M491.732,43.579c1.702,0,3.192-1.488,3.192-3.189c0-1.703-1.49-3.191-3.192-3.191c-1.7,0-3.189,1.488-3.189,3.191
			C488.969,42.515,490.245,43.579,491.732,43.579 M460.683,42.94h4.68l3.189-11.909c0.85-3.402,3.616-9.571,8.932-9.571
			c1.276,0,2.128,0.639,2.128,1.702c0,1.062-0.426,2.34-0.852,3.402l-2.551,9.569c-0.426,1.278-0.852,2.979-0.852,4.256
			c0,2.125,1.7,3.401,3.615,3.401c5.105,0,7.019-5.104,8.082-7.019l-1.063-0.425c-0.426,0.851-2.765,5.743-5.105,5.743
			c-0.849,0-1.274-0.426-1.274-1.49c0-1.274,0.426-2.977,1.064-4.677l2.125-8.295c0.426-1.49,0.852-2.979,0.852-4.68
			c0-2.339-1.702-3.403-4.68-3.403c-5.103,0-7.869,2.765-9.995,5.318l0,0l1.276-4.893c-2.128,0.213-4.041,0.425-6.382,0.425h-2.551
			l-0.213,1.276h4.465L460.683,42.94z M448.772,41.877c2.979,0.214,6.382,0,6.382,3.402c0,4.254-4.68,7.446-10.211,7.446
			c-4.041,0-7.441-1.915-7.441-5.532c0-3.402,3.4-5.103,4.891-5.742L448.772,41.877z M444.095,29.756
			c0-2.341,1.063-8.935,5.103-8.935c1.916,0,3.403,0.852,3.403,3.402c0,2.979-1.274,8.935-5.104,8.935
			C445.795,32.732,444.095,32.095,444.095,29.756 M445.795,37.412c-2.765-0.214-5.954-0.214-5.954-2.341
			c0-1.701,1.7-2.339,2.765-2.766c1.063,0.639,2.338,1.914,5.528,1.914c4.254,0,7.443-2.339,8.721-6.805
			c0.426-1.702,0.851-6.167,1.915-6.167c1.062,0,0.85,1.062,1.913,1.062s1.702-0.638,1.702-1.7c0-1.276-1.063-1.702-2.128-1.702
			c-3.189,0-3.402,3.402-3.615,5.104l0,0c-0.639-1.914-2.339-4.467-6.806-4.467c-5.104,0-9.358,3.403-9.358,7.657
			c0,2.553,0.853,3.402,1.702,4.678c-1.487,0.852-4.467,1.915-4.467,5.104c0,2.766,2.341,3.404,3.617,4.255
			c-1.489,0.637-6.382,2.125-6.382,5.953c0,4.468,4.467,6.807,9.572,6.807c7.016,0,12.76-4.254,12.76-10.421
			c0-5.316-3.616-5.316-6.38-5.53L445.795,37.412z M431.759,14.442c1.7,0,2.977-1.277,2.977-2.978c0-1.702-1.276-2.979-2.977-2.979
			s-2.978,1.276-2.978,2.979C428.781,13.165,430.059,14.442,431.759,14.442 M433.885,36.134c-0.426,0.852-2.765,5.743-5.104,5.743
			c-0.851,0-1.276-0.426-1.276-1.487c0-1.277,0.426-2.978,1.063-4.681l4.254-15.737c-1.702,0.213-3.404,0.425-5.743,0.425h-3.402
			l-0.213,1.276h4.467l-3.616,14.888c-0.213,1.276-0.851,2.977-0.851,4.253c0,2.127,1.702,3.403,3.615,3.403
			c5.105,0,7.021-5.104,8.082-7.019L433.885,36.134z M409.853,43.579c5.104,0,8.932-2.979,8.932-7.445
			c0-3.401-1.7-5.103-3.613-6.804c-2.554-1.915-5.744-3.402-5.744-5.53c0-2.552,2.978-3.403,4.891-3.403
			c1.278,0,2.979,0.214,2.979,1.063c0,0.639-0.852,1.276-0.852,1.915c0,1.063,0.852,1.913,2.128,1.913
			c1.7,0,2.339-1.064,2.339-2.339c0-2.765-3.192-3.615-6.38-3.615c-4.254,0-8.082,3.189-8.082,6.805
			c0,3.617,3.402,5.531,5.954,7.445c1.913,1.487,3.402,2.764,3.402,4.89c0,2.767-2.764,4.041-5.103,4.041
			c-1.915,0-4.68-0.424-4.68-1.914c0-0.638,0.852-1.488,0.852-2.127c0-1.275-1.064-1.913-1.915-1.913
			c-1.701,0-2.339,1.063-2.339,2.126C402.196,41.665,404.961,43.579,409.853,43.579 M394.752,20.821c2.126,0,3.19,1.277,3.19,3.402
			c0,5.743-4.68,7.232-8.932,7.232c-0.426,0-1.489,0-2.128-0.213C387.309,28.692,389.649,20.821,394.752,20.821 M399.432,36.348
			c-1.276,1.701-4.254,6.167-8.934,6.167c-3.402,0-4.892-2.338-4.892-5.529c0-2.126,0.215-3.615,0.64-4.891
			c0.85,0,1.701,0.211,2.55,0.211c3.618,0,13.188-1.062,13.188-7.229c0-3.403-3.19-5.318-6.806-5.318
			c-6.167,0-14.249,6.381-14.249,14.676c0,5.104,3.615,9.783,9.146,9.783c5.528,0,9.144-5.104,10.206-6.805L399.432,36.348z
			 M359.235,38.049c0-1.701,0.426-7.231,2.552-12.761c1.487-3.403,3.192-4.892,5.741-4.892c2.554,0,4.467,1.914,4.467,4.892
			c0,3.404-2.764,17.016-9.569,17.016C360.298,42.728,359.235,41.026,359.235,38.049 M378.59,36.348
			c-0.426,0.638-3.191,4.679-4.254,4.679c-0.639,0-1.276,0-1.276-1.275c0-1.064,0.426-2.339,0.638-3.617l6.806-28.072
			c-1.702,0.213-4.254,0.425-6.806,0.425h-2.766l-0.424,1.276h5.104l-3.403,13.187c-0.639-1.064-2.126-3.191-5.103-3.191
			c-7.444,0-13.4,7.871-13.4,14.888c0,5.105,2.978,9.571,7.445,9.571c4.252,0,6.378-4.04,7.229-5.104l0,0
			c0,1.701,0,4.679,3.189,4.679c4.042,0,6.808-5.104,7.231-6.379L378.59,36.348z M339.03,33.37h12.123l1.064-3.403h-12.124
			L339.03,33.37z M330.312,20.821c2.126,0,3.19,1.277,3.19,3.402c0,5.743-4.68,7.232-8.934,7.232c-0.426,0-1.487,0-2.126-0.213
			C323.081,28.692,325.207,20.821,330.312,20.821 M335.202,36.348c-1.275,1.701-4.254,6.167-8.932,6.167
			c-3.402,0-4.893-2.338-4.893-5.529c0-2.126,0.426-3.615,0.639-4.891c0.852,0,1.7,0.211,2.552,0.211
			c3.615,0,13.188-1.062,13.188-7.229c0-3.403-3.19-5.318-6.808-5.318c-6.167,0-14.249,6.381-14.249,14.676
			c0,5.104,3.615,9.783,9.146,9.783c5.529,0,9.146-5.104,10.208-6.805L335.202,36.348z M314.785,36.134
			c-0.426,0.852-2.765,5.743-5.104,5.743c-0.851,0-1.275-0.426-1.275-1.487c0-1.277,0.425-2.978,1.063-4.681l7.018-27.86
			c-1.701,0.213-3.402,0.426-5.742,0.426h-3.615l-0.213,1.275h4.892l-6.806,26.374c-0.213,1.274-0.851,2.976-0.851,4.253
			c0,2.127,1.702,3.402,3.615,3.402c5.104,0,7.019-5.105,8.083-7.019L314.785,36.134z M282.458,38.263
			c0-1.915,1.276-8.296,3.402-13.824c1.064-2.766,2.765-3.402,4.892-3.402c2.552,0,4.253,1.7,4.253,5.103
			c0,2.978-3.403,16.802-9.57,16.802C283.096,42.728,282.458,40.813,282.458,38.263 M301.386,36.561
			c-0.85,1.488-2.977,4.891-4.466,4.891c-0.85,0-1.062-0.638-1.062-1.488c0-0.637,0.212-2.126,0.638-3.19l4.466-16.376h-4.466
			l-0.851,2.979c-0.425-1.064-1.701-3.617-5.529-3.617c-5.317,0-12.974,7.02-12.974,14.676c0,5.104,2.764,9.571,6.806,9.571
			c4.04,0,6.168-2.765,7.231-4.254l0,0c0,1.489,0.212,4.254,3.403,4.254c4.253,0,6.805-4.893,7.444-6.807L301.386,36.561z
			 M250.769,42.94h4.679l3.191-11.909c0.851-3.402,3.615-9.571,8.933-9.571c1.275,0,2.126,0.639,2.126,1.702
			c0,1.062-0.425,2.34-0.851,3.402l-2.552,9.569c-0.425,1.278-0.85,2.979-0.85,4.256c0,2.125,1.701,3.401,3.616,3.401
			c5.104,0,7.018-5.104,8.082-7.019l-1.064-0.425c-0.425,0.851-2.764,5.743-5.104,5.743c-0.851,0-1.277-0.426-1.277-1.49
			c0-1.274,0.426-2.977,1.063-4.677l2.128-8.295c0.425-1.49,0.85-2.979,0.85-4.68c0-2.339-1.701-3.403-4.678-3.403
			c-5.105,0-7.87,2.765-9.997,5.318l0,0l1.277-4.893c-2.127,0.213-4.041,0.425-6.38,0.425h-2.554l-0.212,1.276h4.467L250.769,42.94z
			 M231.628,38.049c0-1.701,0.425-7.231,2.552-12.761c1.489-3.403,3.19-4.892,5.742-4.892c2.553,0,4.254,1.702,4.254,4.468
			c0,1.7-0.426,7.23-2.553,12.76c-1.489,3.402-3.189,4.891-5.53,4.891C233.33,42.728,231.628,41.026,231.628,38.049 M235.881,43.579
			c7.444,0,13.399-7.87,13.399-14.887c0-5.106-3.403-9.571-8.932-9.571c-7.444,0-13.399,7.868-13.399,14.888
			C226.949,39.537,230.564,43.579,235.881,43.579 M222.695,14.442c1.701,0,2.978-1.277,2.978-2.978c0-1.702-1.277-2.979-2.978-2.979
			c-1.702,0-2.977,1.276-2.977,2.979C219.718,13.165,221.207,14.442,222.695,14.442 M224.822,36.134
			c-0.426,0.852-2.765,5.743-5.104,5.743c-0.851,0-1.276-0.426-1.276-1.487c0-1.277,0.425-2.978,1.064-4.681l4.253-15.737
			c-1.702,0.213-3.403,0.425-5.743,0.425h-3.19l-0.212,1.276h4.466l-3.615,14.888c-0.214,1.276-0.851,2.977-0.851,4.253
			c0,2.127,1.701,3.403,3.615,3.403c5.104,0,7.019-5.104,8.082-7.019L224.822,36.134z M210.361,36.134
			c-0.426,0.852-2.766,5.743-5.105,5.743c-1.276,0-1.701-0.212-1.701-1.487c0-0.853,0.212-2.127,0.638-3.404l4.254-15.312h4.466
			l0.213-1.276h-4.679l1.702-5.742c-1.914,0.214-3.403,0.214-4.892,0.214l-1.701,5.316h-3.403v1.275h3.403l-4.041,14.888
			c-0.426,1.489-0.85,2.765-0.85,3.615c0,2.978,1.914,3.616,4.253,3.616c5.104,0,7.018-5.105,8.082-7.019L210.361,36.134z
			 M177.182,38.263c0-1.915,1.276-8.296,3.403-13.824c1.063-2.766,2.765-3.402,4.891-3.402c2.552,0,4.254,1.7,4.254,5.103
			c0,2.978-3.403,16.802-9.571,16.802C178.033,42.728,177.182,40.813,177.182,38.263 M196.323,36.561
			c-0.851,1.488-2.977,4.891-4.466,4.891c-0.851,0-1.063-0.638-1.063-1.488c0-0.637,0.213-2.126,0.639-3.19l4.466-16.376h-4.466
			l-0.851,2.979c-0.425-1.064-1.701-3.617-5.529-3.617c-5.317,0-12.974,7.02-12.974,14.676c0,5.104,2.765,9.571,6.806,9.571
			c4.253,0,6.167-2.765,7.23-4.254l0,0c0,1.489,0.212,4.254,3.403,4.254c4.254,0,6.806-4.893,7.444-6.807L196.323,36.561z
			 M154.852,42.94h4.679l2.552-10.208c0.851-3.616,4.679-10.209,6.806-10.209c1.276,0,1.063,2.126,2.765,2.126
			c1.702,0,2.766-0.85,2.766-2.339c0-1.7-1.063-2.765-2.766-2.765c-4.465,0-7.23,5.318-8.294,7.019l0,0l1.701-6.807
			c-1.701,0.214-3.402,0.427-5.104,0.427h-3.616l-0.425,1.275h4.892L154.852,42.94z M127.203,37.412
			c0-1.064,1.702-15.102,8.082-15.102c2.339,0,3.616,1.702,3.616,3.402c0,1.064-0.425,2.979-1.489,5.743
			c-1.702,5.529-3.616,9.784-7.231,9.784C127.841,41.24,127.203,39.537,127.203,37.412 M142.516,45.068
			c-1.063,0.425-4.892,2.765-9.996,2.765c-9.571,0-16.164-7.232-16.164-16.163c0-8.934,8.294-16.59,17.865-16.59
			c9.997,0,16.589,6.805,16.589,14.036c0,6.808-5.956,11.697-8.507,11.697c-1.277,0-1.702-1.062-1.702-1.701
			c0-1.063,0.425-2.552,0.639-3.403l3.402-13.61h-4.678l-0.638,2.551c-0.638-1.274-1.702-3.189-4.678-3.189
			c-5.743,0-12.761,6.807-12.761,13.611c0,4.255,3.403,7.656,7.443,7.656c3.19,0,5.104-2.765,5.742-3.615l0,0
			c0,1.701,1.276,4.042,4.254,4.042c5.316,0,12.335-4.892,12.335-13.398c0-8.72-7.443-15.313-17.865-15.313
			c-10.421,0-19.354,7.656-19.354,17.863c0,9.146,6.806,17.228,17.439,17.228c5.53,0,9.358-2.34,10.422-2.977L142.516,45.068z
			 M94.237,38.049c0-1.701,0.426-7.231,2.553-12.761c1.489-3.403,3.19-4.892,5.742-4.892s4.253,1.702,4.253,4.468
			c0,1.7-0.425,7.23-2.552,12.76c-1.489,3.402-3.19,4.891-5.53,4.891C95.727,42.728,94.237,41.026,94.237,38.049 M98.491,43.579
			c7.444,0,13.399-7.87,13.399-14.887c0-5.106-3.404-9.571-8.933-9.571c-7.444,0-13.399,7.868-13.399,14.888
			C89.346,39.537,92.75,43.579,98.491,43.579 M87.219,36.134c-0.425,0.852-2.765,5.743-5.104,5.743
			c-0.851,0-1.277-0.426-1.277-1.487c0-1.277,0.426-2.978,1.064-4.681l7.018-27.86c-1.702,0.213-3.403,0.426-5.53,0.426h-3.616
			l-0.424,1.062h4.891l-6.806,26.587c-0.212,1.274-0.851,2.976-0.851,4.253c0,2.127,1.702,3.402,3.616,3.402
			c5.104,0,7.018-5.105,8.081-7.019L87.219,36.134z M74.884,36.134c-0.425,0.852-2.765,5.743-5.104,5.743
			c-0.851,0-1.275-0.426-1.275-1.487c0-1.277,0.424-2.978,1.063-4.681l7.018-27.86c-1.701,0.213-3.403,0.426-5.742,0.426h-4.042
			L66.59,9.55h4.891l-6.805,26.374c-0.213,1.274-0.639,2.976-0.639,4.253c0,2.127,1.702,3.402,3.616,3.402
			c5.104,0,7.018-5.105,8.081-7.019L74.884,36.134z M55.105,20.821c2.126,0,3.19,1.277,3.19,3.402c0,5.743-4.679,7.232-8.933,7.232
			c-0.425,0-1.489,0-2.127-0.213C47.662,28.692,50.001,20.821,55.105,20.821 M59.784,36.348c-1.276,1.701-4.253,6.167-8.932,6.167
			c-3.403,0-4.892-2.338-4.892-5.529c0-2.126,0.425-3.615,0.638-4.891c0.851,0,1.701,0.211,2.552,0.211
			c3.616,0,13.186-1.062,13.186-7.229c0-3.403-3.19-5.318-6.806-5.318c-6.167,0-14.249,6.381-14.249,14.676
			c0,5.104,3.615,9.783,9.145,9.783c5.529,0,9.145-5.104,10.208-6.805L59.784,36.348z M13.845,42.94h4.679l3.19-11.909
			c0.851-3.402,4.041-9.571,9.357-9.571c1.276,0,2.127,0.639,2.127,1.702c0,1.062-0.426,2.34-0.639,3.402l-2.552,9.569
			c-0.425,1.278-0.851,2.979-0.851,4.256c0,2.125,1.702,3.401,3.616,3.401c5.104,0,7.018-5.104,8.082-7.019l-1.063-0.425
			c-0.425,0.851-2.765,5.743-5.104,5.743c-0.851,0-1.276-0.426-1.276-1.49c0-1.274,0.425-2.977,1.063-4.677l2.127-8.295
			c0.425-1.49,0.851-3.19,0.851-4.68c0-2.128-2.127-3.403-4.679-3.403c-5.104,0-8.294,2.765-10.634,5.318l0,0l4.254-16.59
			c-2.127,0.212-4.041,0.427-6.38,0.427h-2.126L17.673,9.55h4.254L13.845,42.94z"/>
	</g>
</g>
</svg>
