<?xml version="1.0" encoding="utf-8"?>
<!-- Generator: Adobe Illustrator 16.0.0, SVG Export Plug-In . SVG Version: 6.00 Build 0)  -->
<!DOCTYPE svg PUBLIC "-//W3C//DTD SVG 1.1//EN" "http://www.w3.org/Graphics/SVG/1.1/DTD/svg11.dtd">
<svg version="1.1" id="Layer_1" xmlns="http://www.w3.org/2000/svg" xmlns:xlink="http://www.w3.org/1999/xlink" x="0px" y="0px"
	 width="612px" height="55px" viewBox="0 343.5 612 55" enable-background="new 0 343.5 612 55" xml:space="preserve">
<g>
	<path fill="#010101" d="M320.826,381.519c0-2.926,1.463-12.832,4.164-20.937c1.465-4.277,3.604-5.966,6.191-5.966
		c3.266,0,4.166,2.477,4.166,5.516c0,1.914-1.465,13.396-3.941,20.262c-1.912,5.178-3.375,6.641-6.078,6.641
		C322.064,386.922,320.826,384.221,320.826,381.519 M325.441,388.16c7.316,0,14.857-11.594,14.857-22.399
		c0-5.854-3.15-12.382-9.117-12.382c-7.541,0-15.195,11.256-15.195,22.062C315.986,381.068,319.25,388.16,325.441,388.16
		 M294.599,381.519c0-2.926,1.463-12.832,4.165-20.937c1.463-4.277,3.602-5.966,6.19-5.966c3.264,0,4.165,2.477,4.165,5.516
		c0,1.914-1.463,13.396-3.939,20.262c-1.914,5.178-3.377,6.641-6.078,6.641C295.837,386.922,294.599,384.221,294.599,381.519
		 M299.214,388.16c7.317,0,14.858-11.594,14.858-22.399c0-5.854-3.152-12.382-9.118-12.382c-7.541,0-15.195,11.256-15.195,22.062
		C289.759,381.068,293.023,388.16,299.214,388.16 M292.235,354.279h-18.01l-3.827,8.667h1.125l1.013-2.026
		c0.788-1.688,1.576-2.251,3.489-2.251h12.495l-8.555,13.845c-1.688,2.702-5.403,8.33-5.403,11.932c0,2.026,1.238,3.715,2.814,3.715
		c2.251,0,3.039-2.026,3.039-3.939c0-1.914-0.45-3.377-0.45-6.304c0-1.801,0.788-3.602,3.264-7.879
		c3.827-6.529,8.893-13.508,9.005-13.958V354.279z M251.15,381.068c0-3.377,1.576-8.892,2.139-10.58
		c1.125-1.126,3.602-3.603,6.529-3.603c3.039,0,4.165,2.026,4.165,4.728c0,2.814-1.238,15.309-7.767,15.309
		C252.726,386.922,251.15,384.333,251.15,381.068 M269.385,352.928c-9.005,1.464-23.075,10.019-23.075,23.863
		c0,5.966,3.377,11.369,9.906,11.369c7.992,0,12.719-7.992,12.719-13.395c0-4.503-3.377-9.005-8.33-9.005
		c-3.377,0-6.078,2.363-6.641,2.813l-0.112-0.112c2.364-6.304,6.753-11.932,15.646-14.633L269.385,352.928z M218.057,358.669h10.13
		c2.251,0,3.715-0.9,4.615-2.026c0.9-1.125,1.351-2.589,1.688-3.827h-1.125c-0.563,1.126-1.013,1.464-2.814,1.464h-10.581
		c-2.477,0-2.364,0.45-3.039,2.701l-3.377,13.508h1.125c0.788-0.563,2.477-1.688,5.291-1.688c4.277,0,6.303,2.476,6.303,6.753
		c0,4.503-2.139,11.369-8.442,11.369c-3.602,0-5.966-1.913-5.966-3.265c0-0.787,1.125-0.337,2.139-1.013
		c0.563-0.338,1.013-0.9,1.013-1.913c0-1.576-0.788-2.589-2.477-2.589c-1.463,0-2.927,1.575-2.927,3.489
		c0,3.714,3.602,6.416,9.005,6.416c7.767,0,13.057-5.628,13.057-11.932c0-5.741-4.165-9.118-9.906-9.118
		c-3.039,0-5.515,1.238-6.416,1.688L218.057,358.669z M192.73,358.669h10.131c2.251,0,3.714-0.9,4.615-2.026
		c0.901-1.125,1.351-2.589,1.688-3.827h-1.125c-0.563,1.126-1.013,1.464-2.814,1.464h-10.581c-2.476,0-2.364,0.45-3.039,2.701
		l-3.377,13.508h1.126c0.788-0.563,2.476-1.688,5.29-1.688c4.277,0,6.304,2.476,6.304,6.753c0,4.503-2.139,11.369-8.442,11.369
		c-3.602,0-5.966-1.913-5.966-3.265c0-0.787,1.126-0.337,2.139-1.013c0.563-0.338,1.013-0.9,1.013-1.913
		c0-1.576-0.788-2.589-2.476-2.589c-1.463,0-2.927,1.575-2.927,3.489c0,3.714,3.602,6.416,9.005,6.416
		c7.767,0,13.057-5.628,13.057-11.932c0-5.741-4.165-9.118-9.905-9.118c-3.039,0-5.516,1.238-6.416,1.688L192.73,358.669z
		 M186.99,354.279h-18.01l-3.827,8.667h1.126l1.013-2.026c0.788-1.688,1.576-2.251,3.49-2.251h12.494l-8.555,13.845
		c-1.688,2.702-5.403,8.33-5.403,11.932c0,2.026,1.238,3.715,2.814,3.715c2.251,0,3.039-2.026,3.039-3.939
		c0-1.914-0.45-3.377-0.45-6.304c0-1.801,0.788-3.602,3.264-7.879c3.827-6.529,8.893-13.508,9.005-13.958V354.279z M141.74,388.16
		h1.801l20.486-36.02h-1.801L141.74,388.16z M121.366,381.068c0-3.377,1.576-8.892,2.139-10.58c1.125-1.126,3.602-3.603,6.529-3.603
		c3.039,0,4.165,2.026,4.165,4.728c0,2.814-1.238,15.309-7.767,15.309C122.942,386.922,121.366,384.333,121.366,381.068
		 M139.602,352.928c-9.005,1.464-23.075,10.019-23.075,23.863c0,5.966,3.376,11.369,9.905,11.369
		c7.992,0,12.719-7.992,12.719-13.395c0-4.503-3.376-9.005-8.33-9.005c-3.376,0-6.078,2.363-6.641,2.813l-0.112-0.112
		c2.364-6.304,6.753-11.932,15.646-14.633L139.602,352.928z M95.364,381.519c0-2.926,1.463-12.832,4.165-20.937
		c1.463-4.277,3.602-5.966,6.191-5.966c3.264,0,4.165,2.477,4.165,5.516c0,1.914-1.463,13.396-3.939,20.262
		c-1.914,5.178-3.377,6.641-6.079,6.641C96.603,386.922,95.364,384.221,95.364,381.519 M99.979,388.16
		c7.316,0,14.858-11.594,14.858-22.399c0-5.854-3.152-12.382-9.118-12.382c-7.542,0-15.196,11.256-15.196,22.062
		C90.524,381.068,93.789,388.16,99.979,388.16 M63.509,387.26h20.711l1.914-8.667h-1.125l-0.338,1.237
		c-0.45,1.576-0.788,3.04-3.039,3.04H67.449v-0.113c1.914-1.351,9.23-6.416,14.521-10.918c4.39-3.827,6.078-6.416,6.078-9.905
		c0-5.065-4.052-8.555-9.455-8.555c-6.191,0-10.243,3.602-10.243,7.879c0,1.914,0.788,3.939,3.152,3.939
		c1.463,0,2.476-1.125,2.476-2.701c0-1.688-1.576-2.026-2.589-2.251c-0.788-0.113-0.9-0.45-0.9-1.238
		c0-1.576,2.702-4.053,6.078-4.053c4.277,0,6.191,2.477,6.191,6.304c0,6.416-5.403,11.256-9.68,15.196
		c-3.827,3.489-7.879,6.641-9.118,7.653L63.509,387.26z M34.581,387.26h15.646l0.225-1.126h-5.516l7.204-32.418
		c-2.251,0.338-6.304,0.563-9.23,0.563h-1.801l-0.225,1.125h3.715c1.125,0,1.463,0.226,1.463,0.9c0,0.45-0.226,1.464-0.338,1.914
		l-6.079,27.915h-4.728L34.581,387.26z M18.034,381.406h3.377v-8.893h8.33v-3.377h-8.33v-8.892h-3.377v8.892h-8.33v3.377h8.33
		V381.406z"/>
</g>
</svg>
